<?xml version="1.0" encoding="utf-8"?>
<!-- Generator: Adobe Illustrator 23.1.0, SVG Export Plug-In . SVG Version: 6.00 Build 0)  -->
<svg version="1.1" id="Слой_1" xmlns="http://www.w3.org/2000/svg" xmlns:xlink="http://www.w3.org/1999/xlink" x="0px" y="0px"
	 viewBox="0 0 81 37" style="enable-background:new 0 0 81 37;" xml:space="preserve">
<style type="text/css">
	.st0{fill:url(#SVGID_1_);}
</style>
<linearGradient id="SVGID_1_" gradientUnits="userSpaceOnUse" x1="0.3244" y1="18.5" x2="80.6756" y2="18.5">
	<stop  offset="0" style="stop-color:#FFAD39"/>
	<stop  offset="0.2885" style="stop-color:#F69E54"/>
	<stop  offset="0.7557" style="stop-color:#E8887B"/>
	<stop  offset="1" style="stop-color:#E3808A"/>
</linearGradient>
<path class="st0" d="M17.67,32.83l-6.51,3.42c-2.45,1.29-5.31-0.79-4.85-3.52l1.24-7.25c0.19-1.08-0.17-2.19-0.96-2.96l-5.26-5.13
	c-1.98-1.93-0.89-5.3,1.85-5.7l7.27-1.06c1.09-0.16,2.03-0.84,2.51-1.83l3.25-6.59c1.23-2.48,4.76-2.48,5.99,0l3.25,6.59
	c0.49,0.99,1.43,1.67,2.51,1.83l7.27,1.06c2.74,0.4,3.83,3.76,1.85,5.7l-5.26,5.13c-0.79,0.77-1.15,1.87-0.96,2.96l1.24,7.25
	c0.47,2.73-2.4,4.81-4.85,3.52l-6.51-3.42C19.81,32.32,18.64,32.32,17.67,32.83z M63.33,32.83l6.51,3.42
	c2.45,1.29,5.31-0.79,4.85-3.52l-1.24-7.25c-0.19-1.08,0.17-2.19,0.96-2.96l5.26-5.13c1.98-1.93,0.89-5.3-1.85-5.7l-7.27-1.06
	c-1.09-0.16-2.03-0.84-2.51-1.83l-3.25-6.59c-1.23-2.48-4.76-2.48-5.99,0l-3.25,6.59c-0.49,0.99-1.43,1.67-2.51,1.83l-7.27,1.06
	c-2.74,0.4-3.83,3.76-1.85,5.7l5.26,5.13c0.79,0.77,1.15,1.87,0.96,2.96l-1.24,7.25c-0.47,2.73,2.4,4.81,4.85,3.52l6.51-3.42
	C61.19,32.32,62.36,32.32,63.33,32.83z"/>
</svg>
