<svg viewBox="0 0 1921 1344" fill="none" xmlns="http://www.w3.org/2000/svg">
<path d="M0.76001 1210.64C26.23 1178.4 63.39 1149.73 115.01 1131.24C231.46 1089.53 387.45 1160.26 478.99 1256.28C495.78 1273.89 517.49 1290.28 542.45 1304.87C627.91 1354.84 776.63 1362.93 911.71 1290.52C1039.23 1222.17 1077.13 1117.73 1124.98 1079.63C1247.84 981.79 1380.3 1059.94 1523.38 1128.36C1688.97 1207.54 1823.38 1179.91 1920.75 1124V999C1780.4 1020.05 1604.75 1005 1476.46 788.93C1395.49 652.56 1328.75 514 1172.24 527.11C1111.29 532.21 1021.75 598 877.75 584C725.2 569.17 606.03 479.84 562.73 390.81C550.08 364.81 541.13 339.12 536.95 315.16C514.18 184.46 423.76 39 303.76 9.00003C100.56 -41.8 0.76001 155 0.76001 155V1210.64V1210.64Z" fill="url(#paint0_linear_1_73)"/>
<defs>
<linearGradient id="paint0_linear_1_73" x1="960.757" y1="1343.62" x2="960.757" y2="0.621319" gradientUnits="userSpaceOnUse">
<stop stop-color="#0F9EA8"/>
<stop offset="0.4412" stop-color="#16A7A1"/>
<stop offset="1" stop-color="#1AAD9D"/>
</linearGradient>
</defs>
</svg>
