<?xml version="1.0" encoding="utf-8"?>
<!-- Generator: Adobe Illustrator 23.1.0, SVG Export Plug-In . SVG Version: 6.00 Build 0)  -->
<svg version="1.1" id="Слой_1" xmlns="http://www.w3.org/2000/svg" xmlns:xlink="http://www.w3.org/1999/xlink" x="0px" y="0px"
	 viewBox="0 0 320 1365.3" style="enable-background:new 0 0 320 1365.3;" xml:space="preserve">
<style type="text/css">
	.st0{clip-path:url(#SVGID_2_);fill:url(#SVGID_3_);}
</style>
<g>
	<defs>
		<rect id="SVGID_1_" width="320" height="1365.3"/>
	</defs>
	<clipPath id="SVGID_2_">
		<use xlink:href="#SVGID_1_"  style="overflow:visible;"/>
	</clipPath>
	
		<linearGradient id="SVGID_3_" gradientUnits="userSpaceOnUse" x1="706.325" y1="340.5009" x2="706.325" y2="-1002.4952" gradientTransform="matrix(1 0 0 1 0 1014.6666)">
		<stop  offset="0" style="stop-color:#0F9EA8"/>
		<stop  offset="0.4412" style="stop-color:#16A7A1"/>
		<stop  offset="1" style="stop-color:#1AAD9D"/>
	</linearGradient>
	<path class="st0" d="M-253.7,1222.2c25.5-32.2,62.6-60.9,114.3-79.4c116.4-41.7,272.4,29,364,125c16.8,17.6,38.5,34,63.5,48.6
		c85.5,50,234.2,58.1,369.3-14.3c127.5-68.3,165.4-172.8,213.3-210.9c122.9-97.8,255.3-19.7,398.4,48.7
		c165.6,79.2,300,51.6,397.4-4.4v-125l0,0c-140.3,21.1-316,6-444.3-210.1c-81-136.4-147.7-274.9-304.2-261.8
		c-61,5.1-150.5,70.9-294.5,56.9c-152.6-14.8-271.7-104.2-315-193.2c-12.6-26-21.6-51.7-25.8-75.6C259.8,196,169.3,50.5,49.3,20.5
		c-203.2-50.8-303,146-303,146V1222.2z"/>
</g>
</svg>
