<?xml version="1.0" encoding="utf-8"?>
<!-- Generator: Adobe Illustrator 23.1.0, SVG Export Plug-In . SVG Version: 6.00 Build 0)  -->
<svg version="1.1" id="Слой_1" xmlns="http://www.w3.org/2000/svg" xmlns:xlink="http://www.w3.org/1999/xlink" x="0px" y="0px"
	 viewBox="0 0 1999 1447.62" style="enable-background:new 0 0 1999 1447.62;" xml:space="preserve">
<style type="text/css">
	.st0{fill:url(#SVGID_1_);}
	.st1{fill:#F2C557;}
	.st2{fill:#F2F2F2;}
	.st3{fill:#FFFFFF;}
	.st4{fill:url(#SVGID_2_);}
	.st5{fill:url(#SVGID_3_);}
	.st6{fill:#E8E8E8;}
	.st7{fill:#1B82D8;}
	.st8{fill:#7D2B7F;}
	.st9{fill:none;stroke:#1B82D8;stroke-width:2.2561;stroke-miterlimit:10;}
	.st10{fill:url(#SVGID_4_);}
	.st11{fill:url(#SVGID_5_);}
	.st12{fill:url(#SVGID_6_);}
	.st13{fill:url(#SVGID_7_);}
	.st14{fill:url(#SVGID_8_);}
	.st15{fill:url(#SVGID_9_);}
</style>
<g>
	<linearGradient id="SVGID_1_" gradientUnits="userSpaceOnUse" x1="1038.7567" y1="1447.6198" x2="1038.7567" y2="104.6213">
		<stop  offset="0" style="stop-color:#0F9EA8"/>
		<stop  offset="0.4412" style="stop-color:#16A7A1"/>
		<stop  offset="1" style="stop-color:#1AAD9D"/>
	</linearGradient>
	<path class="st0" d="M78.76,1314.64c25.47-32.24,62.63-60.91,114.25-79.4c116.45-41.71,272.44,29.02,363.98,125.04
		c16.79,17.61,38.5,34,63.46,48.59c85.46,49.97,234.18,58.06,369.26-14.35c127.52-68.35,165.42-172.79,213.27-210.89
		c122.86-97.84,255.32-19.69,398.4,48.73c165.59,79.18,300,51.55,397.37-4.36v-125h0c-140.35,21.05-316,6-444.29-210.07
		c-80.97-136.37-147.71-274.93-304.22-261.82c-60.95,5.1-150.49,70.89-294.49,56.89c-152.55-14.83-271.72-104.16-315.02-193.19
		c-12.65-26-21.6-51.69-25.78-75.65C592.18,288.46,501.76,143,381.76,113c-203.2-50.8-303,146-303,146V1314.64z"/>
	<g>
		<g id="рука_1">
			<path class="st1" d="M386.56,209.72l47.42,37.79c0,0,11.78,4.2,12.98,8.49c1.2,4.29,8.8,21.78-3.37,25.85
				c-12.17,4.06-20.65-7.49-17.9-11.7c2.75-4.21,8.72-0.31,2.75-4.21c-5.97-3.9-7.18-9.7-7.18-9.7l-55.78-34.97L386.56,209.72z"/>
			<path class="st2" d="M316.22,147.39c-19.99,37.52,9.42,58.88,9.42,58.88L402,265.51l24.14-28.62l-52.38-44.78
				c-8.64-7.38-28.11-17.08-21.98-26.65c2.89-4.52,4.74-8.8,6.48-12.47c9.5-20-5.81-45.12-29.5-23
				C325.44,133.1,321.76,137,316.22,147.39z"/>
		</g>
		<g id="рама_2">
			<path class="st3" d="M519.76,481c-2.44,0-4.73-1.5-5.63-3.92l-73-197c-1.15-3.11,0.43-6.56,3.54-7.71
				c3.11-1.15,6.56,0.43,7.71,3.54l73,197c1.15,3.11-0.43,6.56-3.54,7.71C521.15,480.88,520.45,481,519.76,481z"/>
		</g>
		<linearGradient id="SVGID_2_" gradientUnits="userSpaceOnUse" x1="285.3599" y1="539.0002" x2="353.1536" y2="539.0002">
			<stop  offset="0" style="stop-color:#FFAD39"/>
			<stop  offset="0.2885" style="stop-color:#F69E54"/>
			<stop  offset="0.7557" style="stop-color:#E8887B"/>
			<stop  offset="1" style="stop-color:#E3808A"/>
		</linearGradient>
		<path class="st4" d="M341.82,558.16l-51.8-23.78c-4-1.84-5.77-6.61-3.93-10.61v0c1.84-4,6.61-5.77,10.61-3.93l51.8,23.78
			c4,1.84,5.77,6.61,3.93,10.61l0,0C350.59,558.23,345.82,560,341.82,558.16z"/>
		
			<linearGradient id="SVGID_3_" gradientUnits="userSpaceOnUse" x1="5889.6235" y1="-2676.6538" x2="5957.4175" y2="-2676.6538" gradientTransform="matrix(0.74 -0.6727 0.6727 0.74 -2156.3921 6462.1069)">
			<stop  offset="0" style="stop-color:#FFAD39"/>
			<stop  offset="0.2885" style="stop-color:#F69E54"/>
			<stop  offset="0.7557" style="stop-color:#E8887B"/>
			<stop  offset="1" style="stop-color:#E3808A"/>
		</linearGradient>
		<path class="st5" d="M455.84,496l-54.33,17.25c-4.19,1.33-8.71-1.01-10.05-5.2l0,0c-1.33-4.19,1.01-8.71,5.2-10.05L451,480.75
			c4.19-1.33,8.71,1.01,10.05,5.2v0C462.38,490.15,460.04,494.67,455.84,496z"/>
		<path id="седло" class="st3" d="M274.76,350l-56,6c-6.6,0-12-5.4-12-12v-10c0-6.6,5.4-12,12-12h56c6.6,0,12,5.4,12,12v10
			C286.76,350.6,281.36,350,274.76,350z"/>
		<g id="нога_1">
			<g id="ботинок_2">
				<path class="st6" d="M369.3,454.63l9.32,49.49l107.47-32.54c0,0,6.72-16.08-30.23-18.87c-9.86-0.75-35.71,0.55-40.03-7.28l0,0
					L369.3,454.63z"/>
				<g>
					
						<rect x="379.95" y="476.65" transform="matrix(0.9564 -0.2921 0.2921 0.9564 -120.8418 146.2262)" class="st7" width="98.6" height="2.26"/>
				</g>
				<g>
					<polygon class="st7" points="433.99,458.2 431.79,457.69 434.35,446.65 419.62,454.93 418.51,452.96 437.7,442.18 					"/>
				</g>
			</g>
			<path class="st8" d="M221.69,272.68c-9.85,44.18,13.01,67.34,67.95,56.73s75.6-3.58,75.6-3.58s-6.07,84.58-0.68,119.6
				c0.4,2.62,1.28,6.1,1.8,8.06c0.24,0.89,1.04,1.5,1.96,1.48c3.9-0.08,14.55-0.42,25.45-1.98c11.39-1.63,22.05-4.86,25.66-6.03
				c0.79-0.25,1.33-0.97,1.38-1.8c0.84-15.77,7.72-162.89-26.54-173.67c-36.21-11.39-108.32,0.71-108.32,0.71L221.69,272.68z"/>
		</g>
		<g>
			<path class="st7" d="M1345.18,830.39c-20.71,0-41.53-3.04-61.92-9.19l0.58-1.91c111.74,33.67,230.04-29.84,263.72-141.58
				c33.67-111.74-29.84-230.04-141.58-263.72c-15.24-4.59-30.95-7.47-46.69-8.56l-790.12-61.48c-8.41-0.85-16.95-0.91-25.41-0.17
				c-73.81,6.42-128.63,71.7-122.21,145.51c4.41,50.68,36.48,93.99,83.7,113.03c7.35,2.96,770.56,214.86,778.27,217l-0.53,1.92
				c-31.48-8.74-771.03-214.07-778.48-217.07c-47.91-19.32-80.46-63.27-84.94-114.71c-6.52-74.9,49.12-141.14,124.02-147.66
				c8.59-0.75,17.25-0.69,25.76,0.18l790.09,61.48c15.87,1.09,31.73,4,47.12,8.64c54.64,16.47,99.6,53.22,126.59,103.5
				s32.79,108.06,16.32,162.7c-16.47,54.64-53.22,99.6-103.5,126.59C1414.44,821.79,1379.97,830.39,1345.18,830.39z"/>
		</g>
		<circle class="st9" cx="326.87" cy="209.63" r="3.16"/>
		<g id="голова_1_">
			<linearGradient id="SVGID_4_" gradientUnits="userSpaceOnUse" x1="293.7567" y1="34.5003" x2="362.7567" y2="34.5003">
				<stop  offset="0" style="stop-color:#F06C99"/>
				<stop  offset="0.2233" style="stop-color:#E260AE"/>
				<stop  offset="0.7376" style="stop-color:#C648D8"/>
				<stop  offset="1" style="stop-color:#BB3FE9"/>
			</linearGradient>
			<circle class="st10" cx="328.26" cy="34.5" r="34.5"/>
			<linearGradient id="SVGID_5_" gradientUnits="userSpaceOnUse" x1="336.7567" y1="71.5003" x2="414.7567" y2="71.5003">
				<stop  offset="0" style="stop-color:#F06C99"/>
				<stop  offset="0.2233" style="stop-color:#E260AE"/>
				<stop  offset="0.7376" style="stop-color:#C648D8"/>
				<stop  offset="1" style="stop-color:#BB3FE9"/>
			</linearGradient>
			<path class="st11" d="M336.76,71.5c0-19.05,15.45-34.5,34.5-34.5c19.05,0,43.5,12.95,43.5,32s-24.45,37-43.5,37
				C352.2,106,336.76,90.55,336.76,71.5z"/>
			<g>
				<path class="st1" d="M400.68,61.33c-10.34-3.62-22.65,0.67-32.22,9.02c-1.09-1.79-3.36-3.33-7.95-3.33
					c-9.55,0-4.62,13.93-3.23,17.41c-0.95,1.8-1.77,3.66-2.45,5.56c-6.95,19.5-18.78,21.12-18.78,21.12s-14.36,21.16-4.68,29.29
					c9.68,8.12,37.98,9.5,40.17-5.75l5.95-16.21c0,0,15.33,10.51,28.81-11.16C419.77,85.6,417.53,67.22,400.68,61.33z"/>
				<g>
					<circle class="st7" cx="396.05" cy="92.62" r="3.16"/>
					<g>
						<path class="st7" d="M404.36,84.99c-0.07-0.02-7.53-1.91-11.87-0.19l-0.83-2.1c5.03-1.99,12.94,0.01,13.27,0.1L404.36,84.99z"
							/>
					</g>
					<g>
						<polygon class="st7" points="412.33,116.08 400.41,113.34 400.92,111.14 410.33,113.31 412.06,94.77 414.31,94.98 						"/>
					</g>
					<g>
						<path class="st7" d="M396.71,118.76c-1.17-0.19-11.44-2.03-13.5-7.22l2.1-0.83c1.35,3.41,8.96,5.36,11.77,5.83L396.71,118.76z
							"/>
					</g>
				</g>
			</g>
		</g>
		<g id="колесо_1">
			
				<linearGradient id="SVGID_6_" gradientUnits="userSpaceOnUse" x1="-721.8256" y1="2022.1915" x2="-473.0511" y2="2022.1915" gradientTransform="matrix(0.9597 0.2809 -0.2809 0.9597 1704.2544 -1297.8997)">
				<stop  offset="0" style="stop-color:#FFAD39"/>
				<stop  offset="0.2885" style="stop-color:#F69E54"/>
				<stop  offset="0.7557" style="stop-color:#E8887B"/>
				<stop  offset="1" style="stop-color:#E3808A"/>
			</linearGradient>
			<path class="st12" d="M445.08,434.26l-6.83,38.49l33.06,8.15c0.6,9.45,2.66,18.61,6,27.2l-26.56,21.3l22.39,32.05l29.14-17.61
				c6.92,6.09,14.81,11.17,23.47,14.99l-3.72,33.84l38.49,6.83l8.15-33.06c9.45-0.6,18.61-2.66,27.2-6l21.3,26.57l32.05-22.39
				l-17.61-29.14c6.09-6.92,11.17-14.81,14.99-23.47l33.84,3.72l6.83-38.49l-33.06-8.15c-0.6-9.45-2.66-18.61-6-27.2l26.57-21.3
				l-22.39-32.05l-29.14,17.61c-6.92-6.09-14.81-11.17-23.47-14.99l3.72-33.84l-38.49-6.83l-8.15,33.06c-9.45,0.6-18.61,2.66-27.2,6
				l-21.3-26.56l-32.05,22.39l17.61,29.14c-6.09,6.92-11.17,14.81-14.99,23.47L445.08,434.26z"/>
			<circle class="st3" cx="562.76" cy="475" r="31"/>
		</g>
		<g>
			<path class="st3" d="M432.88,339.18l-1.29-0.21c1.5-9.33-3.17-34.34-3.21-34.59l1.28-0.24
				C429.86,305.18,434.42,329.63,432.88,339.18z"/>
		</g>
		<g id="колесо_2">
			
				<linearGradient id="SVGID_7_" gradientUnits="userSpaceOnUse" x1="-1142.1848" y1="2145.2446" x2="-893.4104" y2="2145.2446" gradientTransform="matrix(0.9597 0.2809 -0.2809 0.9597 1704.2544 -1297.8997)">
				<stop  offset="0" style="stop-color:#FFAD39"/>
				<stop  offset="0.2885" style="stop-color:#F69E54"/>
				<stop  offset="0.7557" style="stop-color:#E8887B"/>
				<stop  offset="1" style="stop-color:#E3808A"/>
			</linearGradient>
			<path class="st13" d="M7.08,434.26l-6.83,38.49l33.06,8.15c0.6,9.45,2.66,18.61,6,27.2l-26.56,21.3l22.39,32.05l29.14-17.61
				c6.92,6.09,14.81,11.17,23.47,14.99l-3.72,33.84l38.49,6.83l8.15-33.06c9.45-0.6,18.61-2.66,27.2-6l21.3,26.57l32.05-22.39
				l-17.61-29.14c6.09-6.92,11.17-14.81,14.99-23.47l33.84,3.72l6.83-38.49l-33.06-8.15c-0.6-9.45-2.66-18.61-6-27.2l26.57-21.3
				l-22.39-32.05l-29.14,17.61c-6.92-6.09-14.81-11.17-23.47-14.99l3.72-33.84l-38.49-6.83l-8.15,33.06c-9.45,0.6-18.61,2.66-27.2,6
				l-21.3-26.56L38.3,385.37l17.61,29.14c-6.09,6.92-11.17,14.81-14.99,23.47L7.08,434.26z"/>
			<circle class="st3" cx="124.76" cy="475" r="31"/>
		</g>
		<path id="рама_1" class="st3" d="M571.79,481.01L482.8,269.14L393.97,266c-3.33-0.14-6.09,2.47-6.21,5.78
			c-0.12,3.31,2.47,6.09,5.78,6.21l81.17,2.87l79.01,188.13l-240.16,0.02l-63.28-134.85L121.52,481.01H571.79z M264.09,469.01H148
			l99.22-113.15l53.09,113.15H264.09z"/>
		<linearGradient id="SVGID_8_" gradientUnits="userSpaceOnUse" x1="1144.8441" y1="618.1652" x2="1544.5298" y2="618.1652">
			<stop  offset="0" style="stop-color:#F06C99"/>
			<stop  offset="0.2233" style="stop-color:#E260AE"/>
			<stop  offset="0.7376" style="stop-color:#C648D8"/>
			<stop  offset="1" style="stop-color:#BB3FE9"/>
		</linearGradient>
		<path class="st14" d="M1211.92,468.31L1172,516.85l39.89,37.48c-6.61,13.71-10.94,28.17-13.04,42.84l-54.01,8.9l6.1,62.56
			l54.71-1.7c4.89,13.99,11.94,27.33,21.07,39.51l-31.9,44.48l48.55,39.92l37.48-39.89c13.71,6.61,28.17,10.94,42.84,13.04
			l8.9,54.01l62.56-6.1l-1.7-54.71c13.99-4.89,27.33-11.94,39.51-21.07l44.48,31.9l39.92-48.55l-39.89-37.48
			c6.61-13.71,10.94-28.17,13.04-42.84l54.01-8.9l-6.1-62.56l-54.71,1.7c-4.89-13.99-11.94-27.33-21.07-39.51l31.9-44.48
			L1446,445.48l-37.48,39.89c-13.71-6.61-28.17-10.94-42.84-13.04l-8.9-54.01l-62.56,6.1l1.7,54.71
			c-13.99,4.89-27.33,11.94-39.51,21.07L1211.92,468.31z M1397.91,553.44c35.75,29.4,40.9,82.21,11.5,117.96
			c-29.4,35.75-82.21,40.9-117.96,11.5c-35.75-29.4-40.9-82.21-11.5-117.96C1309.35,529.19,1362.17,524.04,1397.91,553.44z"/>
		<g id="нога_2">
			<g id="ботинок_1">
				<path class="st6" d="M301.87,466.55l-26.65,42.73l101.11,48.83c0,0,15.84-7.28-9.46-34.36c-6.75-7.23-26.65-23.78-24.53-32.46v0
					L301.87,466.55z"/>
				<g>
					<polygon class="st7" points="344.39,511.49 342.68,510.01 350.08,501.43 333.19,501.92 333.13,499.66 355.12,499.03 					"/>
				</g>
				<g>
					
						<rect x="329.51" y="474.16" transform="matrix(0.4355 -0.9002 0.9002 0.4355 -284.5656 593.134)" class="st7" width="2.26" height="98.6"/>
				</g>
			</g>
			
				<linearGradient id="SVGID_9_" gradientUnits="userSpaceOnUse" x1="14729.873" y1="1533.3132" x2="14919.0791" y2="1533.3132" gradientTransform="matrix(-0.9873 -0.1589 -0.1589 0.9873 15169.9658 1210.5125)">
				<stop  offset="0" style="stop-color:#F06C99"/>
				<stop  offset="0.2233" style="stop-color:#E260AE"/>
				<stop  offset="0.7376" style="stop-color:#C648D8"/>
				<stop  offset="1" style="stop-color:#BB3FE9"/>
			</linearGradient>
			<path class="st15" d="M218.23,260.63c-24.42,38.12-11.07,86.09,44.34,76.6c7.19-1.23,72.23,22.59,72.23,22.59
				s-39.48,77.55-43.33,112.88c-0.1,0.93-0.18,2.26-0.23,3.3c-0.05,0.92,0.57,1.68,1.43,2.01c5.09,1.99,13.13,5.15,23.09,7.99
				c12.17,3.47,24.98,5.7,28.23,6.09c0.88,0.11,1.72-0.38,2.07-1.2c6.42-15.06,63.06-150.29,34.65-172.12
				c-30.1-23.13-72.25-39.51-75.61-44.16c-3.36-4.65,2.87-17.82,2.87-17.82L218.23,260.63z"/>
			<g>
				<path class="st3" d="M335.23,360.29l-0.35-1.31c0.15-0.04,14.77-4.04,21.32-8.77l0.79,1.1
					C350.24,356.19,335.84,360.13,335.23,360.29z"/>
			</g>
		</g>
		<g id="тело_2_">
			<path class="st6" d="M374.13,127.47c0,0-6.36,14.52-21.02,6.54c-14.67-7.98-16.77-22.99-16.77-22.99s-19.81-5.13-30.14,1.58
				c-10.33,6.71-35.95,57.25-35.95,57.25h0c-11.64,14.45-43.52,55.33-57.58,86.8c46.55,46.96,121.83,32.89,121.83,32.89
				s19.7-54.31,27.71-81.15v0C362.2,208.4,381.72,153.18,374.13,127.47z"/>
			<g>
				<path class="st7" d="M333.32,183.17c-0.69,0-1.39-0.17-2.04-0.52c-2.08-1.13-2.85-3.74-1.72-5.81c1.13-2.08,3.74-2.84,5.81-1.72
					c2.08,1.13,2.85,3.74,1.72,5.81C336.31,182.36,334.84,183.17,333.32,183.17z M333.33,176.85c-0.72,0-1.42,0.38-1.79,1.06
					c-0.54,0.98-0.17,2.22,0.81,2.75c0.98,0.54,2.22,0.17,2.75-0.81c0.53-0.98,0.17-2.22-0.81-2.75
					C333.99,176.93,333.65,176.85,333.33,176.85z"/>
			</g>
			<g>
				<path class="st7" d="M306.31,260.84c-0.23,0-0.46-0.02-0.69-0.06c-2.33-0.38-3.93-2.58-3.55-4.91l0,0
					c0.18-1.13,0.79-2.12,1.72-2.79c0.93-0.67,2.06-0.94,3.19-0.76c2.33,0.38,3.93,2.58,3.55,4.91c-0.18,1.13-0.79,2.12-1.72,2.79
					C308.08,260.56,307.21,260.84,306.31,260.84z M306.3,254.52c-0.42,0-0.83,0.13-1.18,0.38c-0.44,0.32-0.73,0.79-0.82,1.32l0,0
					c-0.18,1.1,0.58,2.15,1.68,2.33c0.53,0.09,1.07-0.04,1.51-0.36c0.44-0.32,0.73-0.79,0.82-1.32c0.18-1.1-0.58-2.15-1.68-2.33
					C306.52,254.53,306.41,254.52,306.3,254.52z"/>
			</g>
			<g>
				<g>
					<path class="st7" d="M308.19,285.51l-1.98-1.08c11.24-20.66,47.6-144.46,47.97-145.71l2.17,0.63
						C354.84,144.46,319.54,264.64,308.19,285.51z"/>
				</g>
				<g>
					<polygon class="st7" points="375.09,163.67 359.18,142.55 360.99,141.2 373.48,157.79 377.05,126.29 379.29,126.54 					"/>
				</g>
				<g>
					<polygon class="st7" points="331.76,148.09 334.32,115.01 336.57,115.19 334.27,144.9 349.83,139.87 350.52,142.02 					"/>
				</g>
			</g>
		</g>
		<g id="рука_2">
			<path class="st1" d="M330.71,211.36l66.54,33.06c0,0,15.19,1.99,17.74,6.82c2.54,4.83,16.15,23.83,2.62,31.83
				c-13.54,8-26.66-3.65-24.45-9.41c2.21-5.75,10.36-2.62,2.21-5.75c-8.15-3.14-11.1-9.77-11.1-9.77l-75.83-27.52L330.71,211.36z"/>
			<path class="st3" d="M326.99,123.65c0,0-2.5-13.87-16.2-12.98s-42.53,18.52-58.28,58.01s22.16,55.36,22.16,55.36l87.53,40.97
				l17.25-33.23l-60.96-32.15c-10.05-5.3-13.91-17.74-8.63-27.8C317.99,156.31,327.96,134.71,326.99,123.65z"/>
			<g>
				
					<rect x="339.57" y="237.68" transform="matrix(0.4778 -0.8785 0.8785 0.4778 -23.8968 437.4087)" class="st7" width="32.75" height="2.26"/>
			</g>
			<g>
				<path class="st7" d="M367.25,240.43c-0.91,0-1.83-0.29-2.61-0.88c-1.87-1.44-2.23-4.14-0.79-6.01c0.7-0.91,1.71-1.49,2.84-1.64
					c1.13-0.15,2.26,0.15,3.17,0.85c0.91,0.7,1.49,1.71,1.64,2.84c0.15,1.14-0.15,2.26-0.85,3.17
					C369.81,239.86,368.53,240.43,367.25,240.43z M367.25,234.12c-0.09,0-0.18,0.01-0.27,0.02c-0.54,0.07-1.02,0.35-1.35,0.78l0,0
					c-0.68,0.89-0.51,2.17,0.37,2.85c0.89,0.68,2.17,0.51,2.85-0.37c0.33-0.43,0.47-0.96,0.4-1.5c-0.07-0.54-0.35-1.02-0.78-1.35
					C368.13,234.26,367.7,234.12,367.25,234.12z"/>
			</g>
		</g>
	</g>
</g>
</svg>
