<?xml version="1.0" encoding="utf-8"?>
<!-- Generator: Adobe Illustrator 23.1.0, SVG Export Plug-In . SVG Version: 6.00 Build 0)  -->
<svg version="1.1" id="Слой_1" xmlns="http://www.w3.org/2000/svg" xmlns:xlink="http://www.w3.org/1999/xlink" x="0px" y="0px"
	 viewBox="0 0 624 920" style="enable-background:new 0 0 624 920;" xml:space="preserve">
<style type="text/css">
	.st0{fill:#F2C557;}
	.st1{fill:#F2F2F2;}
	.st2{fill:#FFFFFF;}
	.st3{fill:url(#SVGID_1_);}
	.st4{fill:url(#SVGID_2_);}
	.st5{fill:#E8E8E8;}
	.st6{fill:#1B82D8;}
	.st7{fill:#7D2B7F;}
	.st8{fill:none;stroke:#1B82D8;stroke-width:1.2906;stroke-miterlimit:10;}
	.st9{fill:url(#SVGID_3_);}
	.st10{fill:url(#SVGID_4_);}
	.st11{fill:url(#SVGID_5_);}
	.st12{fill:url(#SVGID_6_);}
	.st13{fill:url(#SVGID_7_);}
	.st14{fill:url(#SVGID_8_);}
</style>
<g>
	<g id="рука_1">
		<path class="st0" d="M236.08,142.19l27.13,21.62c0,0,6.74,2.4,7.43,4.86c0.69,2.45,5.03,12.46-1.93,14.79
			c-6.96,2.32-11.81-4.28-10.24-6.69s4.99-0.18,1.57-2.41c-3.42-2.23-4.11-5.55-4.11-5.55l-31.91-20L236.08,142.19z"/>
		<path class="st1" d="M195.85,106.54c-11.44,21.46,5.38,33.68,5.38,33.68l43.68,33.89l13.81-16.37l-29.96-25.62
			c-4.94-4.22-16.08-9.77-12.57-15.24c1.65-2.59,2.71-5.03,3.71-7.13c5.43-11.44-3.32-25.81-16.88-13.16
			C201.12,98.36,199.02,100.6,195.85,106.54z"/>
	</g>
	<g id="рама_2">
		<path class="st2" d="M312.28,297.38c-1.4,0-2.71-0.86-3.22-2.24L267.3,182.45c-0.66-1.78,0.25-3.75,2.03-4.41s3.75,0.25,4.41,2.03
			l41.76,112.69c0.66,1.78-0.25,3.75-2.02,4.41C313.07,297.31,312.67,297.38,312.28,297.38z"/>
	</g>
	
		<linearGradient id="SVGID_1_" gradientUnits="userSpaceOnUse" x1="178.1975" y1="486.5522" x2="216.9782" y2="486.5522" gradientTransform="matrix(1 0 0 1 0 -156)">
		<stop  offset="0" style="stop-color:#FFAD39"/>
		<stop  offset="0.2885" style="stop-color:#F69E54"/>
		<stop  offset="0.7557" style="stop-color:#E8887B"/>
		<stop  offset="1" style="stop-color:#E3808A"/>
	</linearGradient>
	<path class="st3" d="M210.49,341.51l-29.63-13.6c-2.29-1.05-3.3-3.78-2.25-6.07l0,0c1.05-2.29,3.78-3.3,6.07-2.25l29.63,13.6
		c2.29,1.05,3.3,3.78,2.25,6.07l0,0C215.51,341.55,212.78,342.57,210.49,341.51z"/>
	
		<linearGradient id="SVGID_2_" gradientUnits="userSpaceOnUse" x1="5701.6655" y1="-2843.8669" x2="5740.4395" y2="-2843.8669" gradientTransform="matrix(0.74 -0.6727 0.6727 0.74 -2061.5579 6259.4019)">
		<stop  offset="0" style="stop-color:#FFAD39"/>
		<stop  offset="0.2885" style="stop-color:#F69E54"/>
		<stop  offset="0.7557" style="stop-color:#E8887B"/>
		<stop  offset="1" style="stop-color:#E3808A"/>
	</linearGradient>
	<path class="st4" d="M275.71,305.96l-31.08,9.87c-2.4,0.76-4.98-0.58-5.75-2.97l0,0c-0.76-2.4,0.58-4.98,2.97-5.75l31.08-9.87
		c2.4-0.76,4.98,0.58,5.75,2.97l0,0C279.45,302.61,278.12,305.2,275.71,305.96z"/>
	<path id="седло" class="st2" d="M172.13,222.44l-32.03,3.43c-3.78,0-6.86-3.09-6.86-6.86v-5.72c0-3.78,3.09-6.86,6.86-6.86
		h32.03c3.78,0,6.86,3.09,6.86,6.86v5.72C178.99,222.78,175.9,222.44,172.13,222.44z"/>
	<g id="нога_1">
		<g id="ботинок_2">
			<path class="st5" d="M226.21,282.29l5.33,28.31l61.48-18.61c0,0,3.84-9.2-17.29-10.79c-5.64-0.43-20.43,0.31-22.9-4.16l0,0
				L226.21,282.29z"/>
			<g>
				
					<rect x="232.3" y="294.89" transform="matrix(0.9564 -0.2921 0.2921 0.9564 -74.9652 88.9812)" class="st6" width="56.4" height="1.29"/>
			</g>
			<g>
				<polygon class="st6" points="263.21,284.33 261.96,284.04 263.42,277.73 254.99,282.46 254.36,281.34 265.34,275.17 				"/>
			</g>
		</g>
		<path class="st7" d="M141.77,178.21c-5.63,25.27,7.44,38.52,38.87,32.45s43.25-2.05,43.25-2.05s-3.48,48.39-0.39,68.42
			c0.23,1.5,0.73,3.49,1.03,4.61c0.14,0.51,0.59,0.86,1.12,0.85c2.23-0.05,8.32-0.24,14.56-1.13c6.52-0.93,12.61-2.78,14.68-3.45
			c0.45-0.14,0.76-0.55,0.79-1.03c0.48-9.02,4.42-93.18-15.18-99.35c-20.71-6.52-61.96,0.41-61.96,0.41L141.77,178.21z"/>
	</g>
	<circle class="st8" cx="201.94" cy="142.14" r="1.81"/>
	<g id="голова_1_">
		
			<linearGradient id="SVGID_3_" gradientUnits="userSpaceOnUse" x1="182.9929" y1="197.96" x2="222.4729" y2="197.96" gradientTransform="matrix(1 0 0 1 0 -156)">
			<stop  offset="0" style="stop-color:#F06C99"/>
			<stop  offset="0.2233" style="stop-color:#E260AE"/>
			<stop  offset="0.7376" style="stop-color:#C648D8"/>
			<stop  offset="1" style="stop-color:#BB3FE9"/>
		</linearGradient>
		<circle class="st9" cx="202.73" cy="41.96" r="19.74"/>
		
			<linearGradient id="SVGID_4_" gradientUnits="userSpaceOnUse" x1="207.6029" y1="219.13" x2="252.2129" y2="219.13" gradientTransform="matrix(1 0 0 1 0 -156)">
			<stop  offset="0" style="stop-color:#F06C99"/>
			<stop  offset="0.2233" style="stop-color:#E260AE"/>
			<stop  offset="0.7376" style="stop-color:#C648D8"/>
			<stop  offset="1" style="stop-color:#BB3FE9"/>
		</linearGradient>
		<path class="st10" d="M207.6,63.13c0-10.9,8.84-19.74,19.74-19.74c10.9,0,24.87,7.41,24.87,18.31s-13.99,21.17-24.88,21.17
			C216.43,82.86,207.6,74.02,207.6,63.13z"/>
		<g>
			<path class="st0" d="M244.16,57.31c-5.91-2.07-12.96,0.38-18.43,5.16c-0.62-1.02-1.92-1.9-4.55-1.9c-5.46,0-2.64,7.97-1.85,9.96
				c-0.54,1.03-1.01,2.09-1.4,3.18c-3.98,11.15-10.74,12.08-10.74,12.08s-8.21,12.1-2.68,16.75c5.54,4.64,21.73,5.43,22.98-3.29
				l3.4-9.27c0,0,8.77,6.01,16.48-6.38C255.08,71.19,253.8,60.68,244.16,57.31z"/>
			<g>
				<circle class="st6" cx="241.51" cy="75.21" r="1.81"/>
				<g>
					<path class="st6" d="M246.27,70.84c-0.04-0.01-4.31-1.09-6.79-0.11l-0.47-1.2c2.88-1.14,7.4,0.01,7.59,0.06L246.27,70.84z"/>
				</g>
				<g>
					<polygon class="st6" points="250.82,88.63 244.01,87.06 244.3,85.8 249.68,87.04 250.67,76.44 251.96,76.56 					"/>
				</g>
				<g>
					<path class="st6" d="M241.89,90.16c-0.67-0.11-6.54-1.16-7.72-4.13l1.2-0.47c0.77,1.95,5.13,3.07,6.73,3.33L241.89,90.16z"/>
				</g>
			</g>
		</g>
	</g>
	<g id="колесо_1">
		
			<linearGradient id="SVGID_5_" gradientUnits="userSpaceOnUse" x1="-852.0225" y1="2052.1172" x2="-709.718" y2="2052.1172" gradientTransform="matrix(0.9597 0.2809 -0.2809 0.9597 1662.7191 -1456.1317)">
			<stop  offset="0" style="stop-color:#FFAD39"/>
			<stop  offset="0.2885" style="stop-color:#F69E54"/>
			<stop  offset="0.7557" style="stop-color:#E8887B"/>
			<stop  offset="1" style="stop-color:#E3808A"/>
		</linearGradient>
		<path class="st11" d="M269.56,270.64l-3.91,22.02l18.91,4.66c0.34,5.41,1.52,10.65,3.43,15.56l-15.19,12.18l12.81,18.33
			l16.67-10.07c3.96,3.48,8.47,6.39,13.43,8.57l-2.13,19.36l22.02,3.91l4.66-18.91c5.41-0.34,10.65-1.52,15.56-3.43l12.18,15.2
			l18.33-12.81l-10.07-16.67c3.48-3.96,6.39-8.47,8.57-13.43l19.36,2.13l3.91-22.02l-18.91-4.66c-0.34-5.41-1.52-10.65-3.43-15.56
			l15.2-12.18l-12.81-18.33l-16.67,10.07c-3.96-3.48-8.47-6.39-13.43-8.57l2.13-19.36l-22.02-3.91l-4.66,18.91
			c-5.41,0.34-10.65,1.52-15.56,3.43l-12.18-15.19l-18.33,12.81l10.07,16.67c-3.48,3.96-6.39,8.47-8.57,13.43L269.56,270.64z"/>
		<circle class="st2" cx="336.88" cy="293.94" r="17.73"/>
	</g>
	<g>
		<path class="st2" d="M262.58,216.25l-0.74-0.12c0.86-5.34-1.81-19.64-1.84-19.79l0.73-0.14
			C260.85,196.8,263.46,210.79,262.58,216.25z"/>
	</g>
	<g id="колесо_2">
		
			<linearGradient id="SVGID_6_" gradientUnits="userSpaceOnUse" x1="-1092.4924" y1="2122.5017" x2="-950.1879" y2="2122.5017" gradientTransform="matrix(0.9597 0.2809 -0.2809 0.9597 1662.7191 -1456.1317)">
			<stop  offset="0" style="stop-color:#FFAD39"/>
			<stop  offset="0.2885" style="stop-color:#F69E54"/>
			<stop  offset="0.7557" style="stop-color:#E8887B"/>
			<stop  offset="1" style="stop-color:#E3808A"/>
		</linearGradient>
		<path class="st12" d="M19.01,270.64l-3.91,22.02l18.91,4.66c0.34,5.41,1.52,10.65,3.43,15.56l-15.19,12.18l12.81,18.33
			l16.67-10.07c3.96,3.48,8.47,6.39,13.43,8.57l-2.13,19.36l22.02,3.91l4.66-18.91c5.41-0.34,10.65-1.52,15.56-3.43l12.18,15.2
			l18.33-12.81l-10.07-16.67c3.48-3.96,6.39-8.47,8.57-13.43l19.36,2.13l3.91-22.02l-18.91-4.66c-0.34-5.41-1.52-10.65-3.43-15.56
			l15.2-12.18l-12.81-18.33l-16.67,10.07c-3.96-3.48-8.47-6.39-13.43-8.57l2.13-19.36l-22.02-3.91l-4.66,18.91
			c-5.41,0.34-10.65,1.52-15.56,3.43l-12.18-15.19l-18.34,12.8l10.07,16.67c-3.48,3.96-6.39,8.47-8.57,13.43L19.01,270.64z"/>
		<circle class="st2" cx="86.32" cy="293.94" r="17.73"/>
	</g>
	<path id="рама_1" class="st2" d="M342.04,297.38l-50.91-121.2l-50.81-1.8c-1.9-0.08-3.48,1.41-3.55,3.31
		c-0.07,1.9,1.41,3.48,3.31,3.55l46.43,1.64l45.2,107.62l-137.38,0.01l-36.2-77.14l-73.66,84h257.57V297.38z M166.03,290.52H99.62
		l56.76-64.73l30.37,64.73H166.03z"/>
	<g id="нога_2">
		<g id="ботинок_1">
			<path class="st5" d="M187.64,289.11l-15.24,24.44l57.84,27.93c0,0,9.06-4.16-5.41-19.66c-3.86-4.14-15.24-13.6-14.03-18.57l0,0
				L187.64,289.11z"/>
			<g>
				<polygon class="st6" points="211.96,314.82 210.98,313.97 215.22,309.06 205.55,309.34 205.52,308.05 218.1,307.69 				"/>
			</g>
			<g>
				
					<rect x="203.45" y="293.47" transform="matrix(0.4355 -0.9002 0.9002 0.4355 -174.3455 365.3108)" class="st6" width="1.29" height="56.4"/>
			</g>
		</g>
		
			<linearGradient id="SVGID_7_" gradientUnits="userSpaceOnUse" x1="14825.8623" y1="1566.8711" x2="14934.084" y2="1566.8711" gradientTransform="matrix(-0.9873 -0.1589 -0.1589 0.9873 15120.9316 1050.5925)">
			<stop  offset="0" style="stop-color:#F06C99"/>
			<stop  offset="0.2233" style="stop-color:#E260AE"/>
			<stop  offset="0.7376" style="stop-color:#C648D8"/>
			<stop  offset="1" style="stop-color:#BB3FE9"/>
		</linearGradient>
		<path class="st13" d="M139.79,171.32c-13.97,21.81-6.33,49.25,25.36,43.82c4.11-0.7,41.32,12.92,41.32,12.92
			s-22.58,44.36-24.79,64.57c-0.06,0.53-0.1,1.29-0.13,1.89c-0.03,0.53,0.33,0.96,0.82,1.15c2.91,1.14,7.51,2.95,13.21,4.57
			c6.96,1.98,14.29,3.26,16.15,3.48c0.5,0.06,0.98-0.22,1.18-0.69c3.67-8.61,36.07-85.97,19.82-98.46
			c-17.22-13.23-41.33-22.6-43.25-25.26c-1.92-2.66,1.64-10.19,1.64-10.19L139.79,171.32z"/>
		<g>
			<path class="st2" d="M206.72,228.33l-0.2-0.75c0.09-0.02,8.45-2.31,12.2-5.02l0.45,0.63
				C215.31,225.98,207.07,228.23,206.72,228.33z"/>
		</g>
	</g>
	<g id="тело_2_">
		<path class="st5" d="M228.97,95.14c0,0-3.64,8.31-12.02,3.74c-8.39-4.56-9.59-13.15-9.59-13.15s-11.33-2.93-17.24,0.9
			c-5.91,3.84-20.56,32.75-20.56,32.75l0,0c-6.66,8.27-24.89,31.65-32.94,49.65c26.63,26.86,69.69,18.81,69.69,18.81
			s11.27-31.07,15.85-46.42l0,0C222.15,141.44,233.31,109.85,228.97,95.14z"/>
		<g>
			<path class="st6" d="M205.63,127.01c-0.39,0-0.8-0.1-1.17-0.3c-1.19-0.65-1.63-2.14-0.98-3.32c0.65-1.19,2.14-1.62,3.32-0.98
				c1.19,0.65,1.63,2.14,0.98,3.32C207.34,126.54,206.5,127.01,205.63,127.01z M205.63,123.39c-0.41,0-0.81,0.22-1.02,0.61
				c-0.31,0.56-0.1,1.27,0.46,1.57c0.56,0.31,1.27,0.1,1.57-0.46s0.1-1.27-0.46-1.57C206.01,123.44,205.82,123.39,205.63,123.39z"/>
		</g>
		<g>
			<path class="st6" d="M190.18,171.44c-0.13,0-0.26-0.01-0.39-0.03c-1.33-0.22-2.25-1.48-2.03-2.81l0,0
				c0.1-0.65,0.45-1.21,0.98-1.6c0.53-0.38,1.18-0.54,1.82-0.43c1.33,0.22,2.25,1.48,2.03,2.81c-0.1,0.65-0.45,1.21-0.98,1.6
				C191.19,171.28,190.69,171.44,190.18,171.44z M190.17,167.82c-0.24,0-0.47,0.07-0.67,0.22c-0.25,0.18-0.42,0.45-0.47,0.76l0,0
				c-0.1,0.63,0.33,1.23,0.96,1.33c0.3,0.05,0.61-0.02,0.86-0.21c0.25-0.18,0.42-0.45,0.47-0.76c0.1-0.63-0.33-1.23-0.96-1.33
				C190.3,167.83,190.23,167.82,190.17,167.82z"/>
		</g>
		<g>
			<g>
				<path class="st6" d="M191.25,185.55l-1.13-0.62c6.43-11.82,27.23-82.64,27.44-83.35l1.24,0.36
					C217.94,104.86,197.75,173.61,191.25,185.55z"/>
			</g>
			<g>
				<polygon class="st6" points="229.52,115.85 220.42,103.77 221.46,103 228.6,112.49 230.64,94.47 231.92,94.61 				"/>
			</g>
			<g>
				<polygon class="st6" points="204.74,106.94 206.2,88.02 207.49,88.12 206.17,105.11 215.07,102.24 215.47,103.47 				"/>
			</g>
		</g>
	</g>
	<g id="рука_2">
		<path class="st0" d="M204.13,143.13l38.06,18.91c0,0,8.69,1.14,10.15,3.9c1.45,2.76,9.24,13.63,1.5,18.21
			c-7.75,4.58-15.25-2.09-13.99-5.38c1.26-3.29,5.93-1.5,1.26-3.29c-4.66-1.8-6.35-5.59-6.35-5.59l-43.38-15.74L204.13,143.13z"/>
		<path class="st2" d="M202.01,92.96c0,0-1.43-7.93-9.27-7.43c-7.84,0.51-24.33,10.6-33.34,33.19
			c-9.01,22.59,12.68,31.67,12.68,31.67l50.07,23.44l9.87-19.01l-34.87-18.39c-5.75-3.03-7.96-10.15-4.94-15.9
			C196.86,111.64,202.56,99.29,202.01,92.96z"/>
		<g>
			
				<rect x="209.23" y="158.19" transform="matrix(0.4778 -0.8785 0.8785 0.4778 -25.3815 274.9717)" class="st6" width="18.73" height="1.29"/>
		</g>
		<g>
			<path class="st6" d="M225.04,159.76c-0.52,0-1.05-0.17-1.49-0.5c-1.07-0.82-1.28-2.37-0.45-3.44c0.4-0.52,0.98-0.85,1.62-0.94
				s1.29,0.09,1.81,0.49c0.52,0.4,0.85,0.98,0.94,1.62c0.09,0.65-0.09,1.29-0.49,1.81C226.5,159.44,225.77,159.76,225.04,159.76z
				 M225.04,156.15c-0.05,0-0.1,0.01-0.15,0.01c-0.31,0.04-0.58,0.2-0.77,0.45l0,0c-0.39,0.51-0.29,1.24,0.21,1.63
				c0.51,0.39,1.24,0.29,1.63-0.21c0.19-0.25,0.27-0.55,0.23-0.86c-0.04-0.31-0.2-0.58-0.45-0.77
				C225.54,156.23,225.29,156.15,225.04,156.15z"/>
		</g>
	</g>
</g>
<g>
	<path class="st6" d="M358.69,833.96c-5.66-11.47-9.67-23.82-11.84-36.79l1.22-0.2c11.9,71.06,79.4,119.2,150.47,107.3
		c71.06-11.9,119.2-79.4,107.3-150.47c-1.62-9.69-4.32-19.18-8.02-28.19L415.86,271.39c-1.83-4.89-4.13-9.63-6.85-14.11
		c-23.73-39.11-74.86-51.61-113.96-27.88c-26.85,16.3-42.06,45.89-39.69,77.23c0.37,4.88,91.69,485.32,92.61,490.17l-1.21,0.23
		c-3.77-19.82-92.25-485.37-92.63-490.31c-2.4-31.8,13.03-61.84,40.29-78.38c39.68-24.08,91.56-11.39,115.65,28.29
		c2.76,4.55,5.1,9.36,6.94,14.31l181.94,454.21c3.73,9.08,6.46,18.66,8.1,28.45c5.82,34.75-2.24,69.69-22.69,98.37
		c-20.46,28.69-50.86,47.69-85.61,53.51s-69.69-2.24-98.37-22.69C382.38,869.96,368.2,853.22,358.69,833.96z"/>
</g>
<linearGradient id="SVGID_8_" gradientUnits="userSpaceOnUse" x1="228.7908" y1="566.2889" x2="475.55" y2="566.2889" gradientTransform="matrix(0.4427 0.8967 -0.8967 0.4427 827.9313 209.1787)">
	<stop  offset="0" style="stop-color:#F06C99"/>
	<stop  offset="0.2233" style="stop-color:#E260AE"/>
	<stop  offset="0.7376" style="stop-color:#C648D8"/>
	<stop  offset="1" style="stop-color:#BB3FE9"/>
</linearGradient>
<path class="st14" d="M522.71,661.21l-37.78-8.83l-9.85,32.33c-9.4,0.09-18.59,1.64-27.28,4.49l-19.69-27.47l-32.97,20.48
	l15.9,29.82c-6.41,6.53-11.87,14.08-16.11,22.46l-33.34-5.5l-8.83,37.79l32.33,9.85c0.09,9.4,1.64,18.59,4.49,27.28l-27.47,19.69
	l20.48,32.97l29.82-15.9c6.53,6.41,14.08,11.87,22.46,16.11l-5.5,33.34l37.79,8.83l9.85-32.33c9.4-0.09,18.59-1.64,27.28-4.49
	l19.69,27.47l32.97-20.48l-15.9-29.82c6.41-6.53,11.87-14.08,16.11-22.46l33.34,5.5l8.83-37.78L567,774.71
	c-0.09-9.4-1.64-18.59-4.49-27.28l27.47-19.69l-20.48-32.97l-29.82,15.9c-6.53-6.41-14.08-11.87-22.46-16.11L522.71,661.21z
	 M526.43,787.45c-6.5,27.83-34.33,45.12-62.16,38.61s-45.12-34.33-38.61-62.16c6.5-27.83,34.33-45.12,62.16-38.61
	C515.64,731.79,532.93,759.63,526.43,787.45z"/>
</svg>
