<svg width="250" height="250" viewBox="0 0 250 250" fill="none" xmlns="http://www.w3.org/2000/svg">
<path d="M7.08 84.26L0.25 122.75L33.31 130.9C33.91 140.35 35.97 149.51 39.31 158.1L12.75 179.4L35.14 211.45L64.28 193.84C71.2 199.93 79.09 205.01 87.75 208.83L84.03 242.67L122.52 249.5L130.67 216.44C140.12 215.84 149.28 213.78 157.87 210.44L179.17 237.01L211.22 214.62L193.61 185.48C199.7 178.56 204.78 170.67 208.6 162.01L242.44 165.73L249.27 127.24L216.21 119.09C215.61 109.64 213.55 100.48 210.21 91.89L236.78 70.59L214.39 38.54L185.25 56.15C178.33 50.06 170.44 44.98 161.78 41.16L165.5 7.32001L127.01 0.48999L118.86 33.55C109.41 34.15 100.25 36.21 91.66 39.55L70.36 12.99L38.3 35.37L55.91 64.51C49.82 71.43 44.74 79.32 40.92 87.98L7.08 84.26Z" fill="url(#paint0_linear_1_119)"/>
<path d="M124.76 156C141.881 156 155.76 142.121 155.76 125C155.76 107.879 141.881 94 124.76 94C107.639 94 93.76 107.879 93.76 125C93.76 142.121 107.639 156 124.76 156Z" fill="white"/>
<defs>
<linearGradient id="paint0_linear_1_119" x1="5.50044" y1="90.0518" x2="244.249" y2="159.933" gradientUnits="userSpaceOnUse">
<stop stop-color="#FFAD39"/>
<stop offset="0.2885" stop-color="#F69E54"/>
<stop offset="0.7557" stop-color="#E8887B"/>
<stop offset="1" stop-color="#E3808A"/>
</linearGradient>
</defs>
</svg>
