<svg width="401" height="400" viewBox="0 0 401 400" fill="none" xmlns="http://www.w3.org/2000/svg">
<path d="M67.92 50.31L28 98.85L67.89 136.33C61.28 150.04 56.95 164.5 54.85 179.17L0.839966 188.07L6.93994 250.63L61.65 248.93C66.54 262.92 73.59 276.26 82.72 288.44L50.8199 332.92L99.37 372.84L136.85 332.95C150.56 339.56 165.02 343.89 179.69 345.99L188.59 400L251.15 393.9L249.45 339.19C263.44 334.3 276.78 327.25 288.96 318.12L333.44 350.02L373.36 301.47L333.47 263.99C340.08 250.28 344.41 235.82 346.51 221.15L400.52 212.25L394.42 149.69L339.71 151.39C334.82 137.4 327.77 124.06 318.64 111.88L350.54 67.4L302 27.48L264.52 67.37C250.81 60.76 236.35 56.43 221.68 54.33L212.78 0.320007L150.22 6.42001L151.92 61.13C137.93 66.02 124.59 73.07 112.41 82.2L67.92 50.31ZM253.91 135.44C289.66 164.84 294.81 217.65 265.41 253.4C236.01 289.15 183.2 294.3 147.45 264.9C111.7 235.5 106.55 182.69 135.95 146.94C165.35 111.19 218.17 106.04 253.91 135.44Z" fill="url(#paint0_linear_1_123)"/>
<defs>
<linearGradient id="paint0_linear_1_123" x1="0.844066" y1="200.165" x2="400.53" y2="200.165" gradientUnits="userSpaceOnUse">
<stop stop-color="#F06C99"/>
<stop offset="0.2233" stop-color="#E260AE"/>
<stop offset="0.7376" stop-color="#C648D8"/>
<stop offset="1" stop-color="#BB3FE9"/>
</linearGradient>
</defs>
</svg>
