<?xml version="1.0" encoding="utf-8"?>
<!-- Generator: Adobe Illustrator 23.1.0, SVG Export Plug-In . SVG Version: 6.00 Build 0)  -->
<svg version="1.1" id="Слой_1" xmlns="http://www.w3.org/2000/svg" xmlns:xlink="http://www.w3.org/1999/xlink" x="0px" y="0px"
	 viewBox="0 0 1920 1095" style="enable-background:new 0 0 1920 1095;" xml:space="preserve">
<style type="text/css">
	.st0{fill:url(#подложка_1_1_);}
	.st1{fill:url(#подложка_2_1_);}
	.st2{fill:url(#подложка_3_1_);}
	.st3{fill:#1B82D8;}
	.st4{fill:#F2C557;}
	.st5{fill:#135E91;}
	.st6{fill:#1B81D5;}
	.st7{fill:url(#круг_1_);}
	.st8{fill:#E8E8E8;}
	.st9{fill:#F2F2F2;}
	.st10{fill:url(#SVGID_1_);}
	.st11{fill:#FFFFFF;}
	.st12{fill:none;stroke:#1B82D8;stroke-width:2.2561;stroke-miterlimit:10;}
	.st13{fill:url(#SVGID_2_);}
	.st14{opacity:0.46;fill:url(#SVGID_3_);}
	.st15{opacity:0.46;fill:url(#SVGID_4_);}
	.st16{clip-path:url(#SVGID_6_);}
	.st17{clip-path:url(#SVGID_8_);}
	.st18{fill:#007F79;}
	.st19{fill:url(#SVGID_9_);}
	.st20{fill:url(#SVGID_10_);}
	.st21{fill:url(#SVGID_11_);}
	.st22{opacity:0.46;fill:url(#SVGID_12_);}
	.st23{clip-path:url(#SVGID_14_);}
</style>

<style>
	@keyframes float {
		from {
			transform: translateY(0);
		}

		50% {
			transform: translateY(25px);
		}

		to {
			transform: translateY(0);
		}
	}

	@keyframes growUp {
		from {
			transform: scale(0)
		}

		to {
			transform: scale(1)
		}
	}

	#персонаж_1 {
		position: relative;
		z-index: 500;
	}

	#персонаж_2 {
		animation: float 2s ease infinite;
	}


	#облако_2 {
		animation: float 4s ease infinite;
		animation-delay: 2s;
	}

	#облако_1 {
		animation: float 4s ease infinite;
		animation-delay: 1s;
	}

	#подложка_1 {
		transform: scale(0);
		transform-origin: 80% 70%;
		animation: growUp 1.5s ease forwards;
	}

	#подложка_2 {
		transform: scale(0);
		transform-origin: 80% 70%;
		animation: growUp 1.5s ease forwards;
		animation-delay: 1s;
	}

	#подложка_3 {
		transform: scale(0);
		transform-origin: 80% 70%;
		animation: growUp 1.5s ease forwards;
		animation-delay: 2s;
	}

	#экран_часть_1 {
		animation: float 4s ease infinite;
		animation-delay: 1.4s;
	}

	#экран_часть_2 {
		animation: float 4s ease infinite;
		animation-delay: .5s;
	}

	#экран_часть_3 {
		animation: float 4s ease infinite;
		animation-delay: 1.1s;
	}

	#monitor-4 {
		animation: float 4s ease infinite;
		animation-delay: 1.8s;
	}
</style>
<g id="podlozka">
	<linearGradient id="подложка_1_1_" gradientUnits="userSpaceOnUse" x1="960" y1="1043.0155" x2="960" y2="86.0213">
		<stop  offset="0" style="stop-color:#0F9EA8"/>
		<stop  offset="0.4412" style="stop-color:#16A7A1"/>
		<stop  offset="1" style="stop-color:#1AAD9D"/>
	</linearGradient>
	<path id="подложка_1" class="st0" d="M0,0.14v529c0,365.64,560,538,1205.26,353.08c106.39-30.49,212.71-41.95,318.74-4.08
		c42,15,78,31,78,31s21.68-44.27,54.19-71.03c37.68-31.02,87.47-71.74,126.81-102.97c78-61.91,137-187.12,137-276v-459H0z"/>
	
		<linearGradient id="подложка_2_1_" gradientUnits="userSpaceOnUse" x1="432.0148" y1="427.6367" x2="1902.8999" y2="427.6367">
		<stop  offset="0" style="stop-color:#FFAD39"/>
		<stop  offset="0.2885" style="stop-color:#F69E54"/>
		<stop  offset="0.7557" style="stop-color:#E8887B"/>
		<stop  offset="1" style="stop-color:#E3808A"/>
	</linearGradient>
	<path id="подложка_2" class="st1" d="M1902.9,0.14H439.72c-54.94,284.9,201.47,249.45,214.44,378.51
		c19.32,192.23,249.55,366.63,511.95,292.62C1280,639.14,1457.39,706.4,1576,823.14c3.97,3.91,18.89,22.7,29,32l-0.13-27.16
		c0,0-5.85-192.5,107.41-245.53c67.62-31.67,109.21-72.43,134.59-112.79c39.85-63.37,39.86-141.28,1.94-205.64
		C1821.02,216.86,1840.77,113.99,1902.9,0.14z"/>
	
		<linearGradient id="подложка_3_1_" gradientUnits="userSpaceOnUse" x1="727.8375" y1="391.1747" x2="1806.0162" y2="391.1747">
		<stop  offset="0" style="stop-color:#F06C99"/>
		<stop  offset="0.2233" style="stop-color:#E260AE"/>
		<stop  offset="0.7376" style="stop-color:#C648D8"/>
		<stop  offset="1" style="stop-color:#BB3FE9"/>
	</linearGradient>
	<path id="подложка_3" class="st2" d="M1696.86,222.65c-1.04-0.26-2.08-0.5-3.13-0.74c-8.62-1.95-15.42-4.91-18.76-6.17
		c-39.47-14.87-61.73-61.79-50.2-105.61l4.15-15.76c8.48-40.79,4.74-71.34-5.46-94.24H870.11c-35.06,4.22-71.8,44.61-97.76,77.42
		c-30.4,38.43-46.53,88.57-44.31,140.32c0.01,0.31,0.03,0.61,0.04,0.92c8.78,191.86,224.25,125.23,243.36,222.54
		c29.91,152.27,181.8,196.96,364.28,196.22c101.28-0.41,81.24,111.86,194.08,142.77c23.04,6.31,72.07-5.17,72.07-5.17
		s-29.65-122.81,98.44-233.02c25.13-21.62,46.66-41.56,64.42-60.41C1842.97,398.71,1804.27,249.11,1696.86,222.65z"/>
	<g id="облако_2">
		<path class="st3" d="M1757.35,314c-19.67,0-37.71-12.35-48.45-33.1c-7.3,7.56-16.47,11.71-25.94,11.71
			c-13.82,0-26.5-8.63-34.11-23.13c-4.59,3.47-9.83,5.31-15.22,5.31c-16.3,0-29.56-16.69-29.56-37.21s13.26-37.21,29.56-37.21
			c6.49,0,12.82,2.71,17.96,7.65c7.8-11.77,19.18-18.49,31.37-18.49c9.43,0,18.57,4.12,25.86,11.63
			c10.73-20.85,28.8-33.25,48.53-33.25c18.6,0,36.08,11.32,46.95,30.34c7.72-7.45,17.28-11.53,27.04-11.53
			c24.55,0,44.52,25.19,44.52,56.16s-19.97,56.16-44.52,56.16c-10.42,0-20.48-4.59-28.46-12.97
			C1791.82,303.83,1775.28,314,1757.35,314z M1709.32,277.91l0.56,1.12c10.37,20.82,28.12,33.25,47.47,33.25
			c17.64,0,33.91-10.24,44.64-28.09l0.59-0.99l0.78,0.85c7.77,8.54,17.7,13.24,27.97,13.24c23.6,0,42.81-24.42,42.81-54.44
			c0-30.02-19.2-54.44-42.81-54.44c-9.77,0-18.98,4.09-26.62,11.82l-0.81,0.82l-0.56-1.01c-10.52-19.06-27.72-30.44-46-30.44
			c-19.41,0-37.18,12.48-47.54,33.39l-0.56,1.12l-0.85-0.92c-7.09-7.72-16.13-11.97-25.44-11.97c-11.89,0-23.01,6.78-30.5,18.59
			l-0.58,0.92l-0.76-0.78c-4.93-5.08-11.14-7.88-17.48-7.88c-15.35,0-27.85,15.92-27.85,35.5s12.49,35.5,27.85,35.5
			c5.31,0,10.49-1.93,14.96-5.57l0.83-0.68l0.48,0.96c7.25,14.48,19.6,23.12,33.05,23.12c9.35,0,18.41-4.28,25.51-12.05
			L1709.32,277.91z"/>
	</g>
	<g id="облако_1">
		<path class="st3" d="M868.58,736.92c-17.92,0-34.46-8.55-45.5-23.5c-7.98,7.07-18.06,10.95-28.49,10.95
			c-24.51,0-44.45-21.14-44.45-47.13c0-25.99,19.94-47.13,44.45-47.13c9.91,0,19.25,3.37,27.06,9.74
			c10.86-15.99,28.34-25.51,46.92-25.51c19.72,0,37.78,10.43,48.5,27.95c7.29-6.35,16.44-9.83,25.89-9.83
			c12.18,0,23.55,5.67,31.35,15.57c5.13-4.19,11.49-6.48,17.98-6.48c16.26,0,29.49,14.02,29.49,31.25s-13.23,31.25-29.49,31.25
			c-5.4,0-10.66-1.56-15.26-4.51c-7.59,12.2-20.27,19.45-34.07,19.45c-9.48,0-18.67-3.51-25.97-9.9
			C906.27,726.54,888.24,736.92,868.58,736.92z M823.32,711.07l0.52,0.72c10.74,14.97,27.05,23.56,44.74,23.56
			c19.41,0,37.19-10.42,47.57-27.87l0.49-0.83l0.71,0.65c7.12,6.53,16.22,10.13,25.62,10.13c13.5,0,25.89-7.25,33.14-19.39
			l0.43-0.72l0.69,0.47c4.5,3.07,9.71,4.7,15.06,4.7c15.39,0,27.92-13.31,27.92-29.68s-12.52-29.68-27.92-29.68
			c-6.39,0-12.63,2.36-17.59,6.63l-0.64,0.55l-0.51-0.67c-7.5-9.92-18.65-15.6-30.6-15.6c-9.36,0-18.44,3.57-25.55,10.06l-0.71,0.65
			l-0.49-0.83c-10.37-17.53-28.18-28-47.64-28c-18.34,0-35.57,9.54-46.1,25.53l-0.49,0.74l-0.68-0.58
			c-7.66-6.5-16.9-9.93-26.72-9.93c-23.64,0-42.88,20.43-42.88,45.55s19.23,45.55,42.88,45.55c10.32,0,20.29-3.95,28.07-11.12
			L823.32,711.07z"/>
	</g>
	<g id="экран_часть_1">
		
			<linearGradient id="SVGID_3_" gradientUnits="userSpaceOnUse" x1="1374.3362" y1="312.3702" x2="1739.3295" y2="312.3702" gradientTransform="matrix(1 0 0 1 -196 0)">
			<stop  offset="0" style="stop-color:#74B5CF"/>
			<stop  offset="1" style="stop-color:#2185D9"/>
		</linearGradient>
		<path class="st14" d="M1543.33,284.65c0-0.53-0.02-1.06-0.06-1.59c-0.01-0.18-0.04-0.35-0.06-0.52c-0.03-0.35-0.07-0.71-0.12-1.06
			c-0.03-0.21-0.08-0.42-0.11-0.63c-0.06-0.31-0.11-0.63-0.17-0.94c-0.05-0.22-0.11-0.45-0.17-0.67c-0.07-0.3-0.14-0.59-0.23-0.89
			c-0.07-0.23-0.15-0.46-0.23-0.69c-0.09-0.29-0.18-0.58-0.29-0.86c-0.09-0.23-0.19-0.47-0.28-0.7c-0.11-0.28-0.22-0.56-0.34-0.84
			c-0.1-0.24-0.22-0.47-0.34-0.71c-0.13-0.27-0.26-0.55-0.4-0.82c-0.12-0.24-0.26-0.47-0.39-0.71c-0.15-0.27-0.29-0.54-0.45-0.81
			c-0.14-0.24-0.29-0.47-0.44-0.71c-0.17-0.27-0.33-0.53-0.51-0.8c-0.16-0.24-0.33-0.47-0.49-0.7c-0.18-0.26-0.37-0.52-0.56-0.78
			c-0.17-0.23-0.36-0.47-0.54-0.7c-0.2-0.26-0.4-0.52-0.61-0.77c-0.19-0.23-0.4-0.47-0.6-0.7c-0.22-0.25-0.44-0.51-0.66-0.76
			c-0.21-0.23-0.43-0.46-0.64-0.69c-0.24-0.25-0.47-0.5-0.72-0.75c-0.22-0.23-0.46-0.46-0.69-0.69c-0.25-0.25-0.5-0.5-0.77-0.74
			c-0.24-0.23-0.49-0.45-0.74-0.68c-0.27-0.24-0.54-0.49-0.82-0.73c-0.26-0.22-0.52-0.45-0.79-0.67c-0.29-0.24-0.57-0.48-0.87-0.72
			c-0.27-0.22-0.55-0.45-0.83-0.67c-0.3-0.24-0.6-0.48-0.91-0.71c-0.29-0.22-0.58-0.44-0.88-0.66c-0.32-0.23-0.64-0.47-0.96-0.7
			c-0.3-0.22-0.61-0.43-0.93-0.65c-0.33-0.23-0.67-0.46-1.01-0.69c-0.32-0.22-0.64-0.43-0.97-0.64c-0.35-0.23-0.7-0.46-1.05-0.68
			c-0.33-0.21-0.67-0.42-1.02-0.64c-0.36-0.22-0.73-0.45-1.1-0.67c-0.35-0.21-0.7-0.42-1.06-0.63c-0.38-0.22-0.76-0.44-1.14-0.66
			c-0.36-0.21-0.73-0.41-1.1-0.62c-0.39-0.22-0.79-0.43-1.19-0.65c-0.38-0.2-0.76-0.41-1.14-0.61c-0.41-0.21-0.82-0.43-1.23-0.64
			c-0.39-0.2-0.78-0.4-1.18-0.6c-0.42-0.21-0.85-0.42-1.28-0.63c-0.4-0.2-0.81-0.39-1.22-0.59c-0.44-0.21-0.88-0.41-1.32-0.62
			c-0.42-0.19-0.83-0.39-1.26-0.58c-0.45-0.2-0.91-0.41-1.37-0.61c-0.43-0.19-0.86-0.38-1.29-0.56c-0.47-0.2-0.94-0.4-1.41-0.6
			c-0.44-0.18-0.88-0.37-1.33-0.55c-0.48-0.2-0.96-0.39-1.45-0.59c-0.45-0.18-0.91-0.36-1.37-0.54c-0.49-0.19-0.99-0.38-1.49-0.58
			c-0.46-0.18-0.93-0.35-1.4-0.53c-0.51-0.19-1.02-0.38-1.53-0.56c-0.48-0.17-0.95-0.35-1.43-0.52c-0.17-0.06-0.33-0.12-0.5-0.18
			c-0.28-0.1-0.56-0.19-0.84-0.29c-0.69-0.24-1.38-0.48-2.08-0.71c-0.45-0.15-0.9-0.3-1.36-0.45c-0.7-0.23-1.41-0.46-2.12-0.69
			c-0.45-0.14-0.9-0.29-1.36-0.43c-0.76-0.24-1.53-0.47-2.3-0.71c-0.42-0.13-0.83-0.25-1.25-0.38c-0.95-0.28-1.92-0.56-2.89-0.84
			c-0.22-0.06-0.43-0.13-0.65-0.19c-0.03-0.01-0.07-0.02-0.1-0.03c-0.3-0.08-0.6-0.16-0.89-0.25c-0.79-0.22-1.58-0.44-2.38-0.66
			c-0.41-0.11-0.83-0.22-1.24-0.33c-0.69-0.18-1.39-0.37-2.09-0.55c-0.46-0.12-0.93-0.24-1.39-0.35c-0.66-0.17-1.33-0.33-2-0.5
			c-0.49-0.12-0.98-0.24-1.47-0.36c-0.39-0.09-0.78-0.19-1.18-0.29c-0.3-0.07-0.6-0.14-0.9-0.21c-0.38-0.09-0.77-0.18-1.16-0.27
			c-0.79-0.18-1.58-0.36-2.38-0.54c-0.34-0.08-0.68-0.15-1.02-0.23c-1.13-0.25-2.26-0.49-3.4-0.73c-0.11-0.02-0.21-0.04-0.32-0.07
			c-0.88-0.18-1.76-0.36-2.65-0.54c-0.11-0.02-0.22-0.04-0.33-0.06c-1.63-0.32-3.27-0.64-4.93-0.94c-0.36-0.07-0.73-0.13-1.09-0.2
			c-1.38-0.25-2.77-0.5-4.17-0.73c-0.26-0.05-0.52-0.09-0.79-0.14c-0.17-0.03-0.34-0.05-0.5-0.08c-1.62-0.27-3.25-0.53-4.89-0.79
			c-0.16-0.02-0.32-0.05-0.48-0.07c-1.5-0.23-3.01-0.45-4.53-0.67c-0.22-0.03-0.43-0.06-0.64-0.09c-0.29-0.04-0.59-0.08-0.88-0.12
			c-1.19-0.16-2.38-0.33-3.58-0.48c-0.48-0.06-0.96-0.13-1.44-0.19c-1.65-0.21-3.3-0.41-4.97-0.61c-0.02,0-0.03,0-0.05-0.01
			c-0.12-0.01-0.24-0.03-0.36-0.04c-1.5-0.17-3.01-0.34-4.52-0.5c-0.52-0.05-1.05-0.11-1.58-0.16c-1.17-0.12-2.33-0.23-3.51-0.34
			c-0.31-0.03-0.62-0.06-0.94-0.09c-0.25-0.02-0.51-0.04-0.77-0.07c-1.23-0.11-2.47-0.22-3.72-0.32c-0.45-0.04-0.9-0.08-1.36-0.11
			c-1.69-0.13-3.38-0.26-5.08-0.38c-0.06,0-0.11-0.01-0.17-0.01c-0.27-0.02-0.54-0.03-0.81-0.05c-1.39-0.09-2.79-0.18-4.19-0.27
			c-0.57-0.03-1.14-0.07-1.72-0.1c-1.2-0.07-2.4-0.13-3.6-0.19c-0.35-0.02-0.69-0.04-1.03-0.05c-0.24-0.01-0.48-0.02-0.73-0.03
			c-1.38-0.06-2.77-0.12-4.16-0.17c-0.39-0.01-0.78-0.03-1.16-0.05c-1.77-0.06-3.55-0.12-5.33-0.16c-0.1,0-0.2-0.01-0.31-0.01
			c-0.32-0.01-0.65-0.01-0.97-0.02c-1.42-0.03-2.84-0.06-4.27-0.08c-0.59-0.01-1.19-0.02-1.78-0.02c-1.36-0.02-2.73-0.03-4.1-0.03
			c-0.36,0-0.72-0.01-1.08-0.01c-0.37,0-0.73,0-1.1,0c-1.81,0-3.62,0.01-5.42,0.03c-0.56,0.01-1.12,0.01-1.68,0.02
			c-1.27,0.02-2.54,0.04-3.8,0.06c-0.32,0.01-0.64,0.01-0.96,0.02c-0.24,0.01-0.48,0.01-0.72,0.02c-2.09,0.05-4.17,0.11-6.25,0.18
			c-0.18,0.01-0.37,0.01-0.55,0.02c-1.93,0.07-3.84,0.15-5.75,0.24c-0.27,0.01-0.55,0.02-0.82,0.03c-0.32,0.02-0.64,0.03-0.95,0.05
			c-0.66,0.03-1.32,0.07-1.98,0.1c-0.8,0.04-1.6,0.09-2.4,0.14c-0.66,0.04-1.32,0.08-1.97,0.12c-0.8,0.05-1.59,0.1-2.38,0.16
			c-0.65,0.04-1.3,0.09-1.95,0.14c-0.79,0.06-1.58,0.12-2.37,0.18c-0.64,0.05-1.28,0.1-1.92,0.15c-0.26,0.02-0.53,0.04-0.79,0.06
			c-0.41,0.03-0.82,0.07-1.23,0.11c-0.91,0.08-1.82,0.16-2.73,0.24c-0.65,0.06-1.3,0.12-1.95,0.18c-0.89,0.08-1.79,0.17-2.68,0.26
			c-0.64,0.06-1.29,0.13-1.93,0.2c-0.9,0.09-1.79,0.19-2.69,0.29c-0.62,0.07-1.24,0.14-1.85,0.21c-0.93,0.11-1.85,0.22-2.77,0.33
			c-0.57,0.07-1.15,0.14-1.72,0.21c-1.03,0.13-2.04,0.26-3.06,0.39c-0.45,0.06-0.91,0.12-1.36,0.18c-1.46,0.2-2.92,0.4-4.37,0.61
			c-0.15,0.02-0.31,0.05-0.46,0.07c-1.29,0.19-2.57,0.38-3.85,0.58c-0.49,0.08-0.98,0.16-1.46,0.23c-0.93,0.15-1.86,0.3-2.79,0.45
			c-0.15,0.02-0.3,0.05-0.45,0.07c-0.63,0.11-1.26,0.22-1.89,0.33c-0.46,0.08-0.92,0.16-1.38,0.24c-0.95,0.17-1.89,0.34-2.83,0.51
			c-0.3,0.05-0.6,0.11-0.9,0.16c-0.03,0.01-0.06,0.01-0.09,0.02c-0.14,0.03-0.28,0.06-0.43,0.08c-1.34,0.25-2.68,0.51-4,0.77
			c-0.47,0.09-0.94,0.19-1.4,0.28c-1.05,0.21-2.09,0.43-3.13,0.65c-0.47,0.1-0.94,0.2-1.41,0.3c-1.2,0.26-2.39,0.52-3.57,0.79
			c-0.25,0.06-0.51,0.11-0.76,0.17c-1.42,0.33-2.82,0.66-4.21,1c-0.38,0.09-0.75,0.19-1.13,0.28c-1.02,0.25-2.04,0.51-3.05,0.77
			c-0.45,0.12-0.9,0.24-1.35,0.35c-0.99,0.26-1.98,0.53-2.96,0.8c-0.37,0.1-0.74,0.2-1.11,0.31c-1.32,0.37-2.62,0.75-3.91,1.13
			c-0.21,0.06-0.41,0.13-0.62,0.19c-1.08,0.32-2.15,0.65-3.21,0.99c-0.16,0.05-0.32,0.1-0.48,0.15c-0.26,0.08-0.51,0.17-0.77,0.25
			c-0.8,0.26-1.6,0.52-2.39,0.78c-0.42,0.14-0.85,0.28-1.26,0.42c-0.83,0.28-1.66,0.57-2.48,0.86c-0.34,0.12-0.68,0.24-1.02,0.36
			c-1.14,0.41-2.26,0.82-3.37,1.23c-0.15,0.06-0.3,0.12-0.45,0.18c-0.95,0.36-1.89,0.73-2.82,1.09c-0.11,0.04-0.23,0.09-0.34,0.13
			c-0.39,0.16-0.78,0.32-1.17,0.48c-0.39,0.16-0.77,0.31-1.16,0.47c-0.54,0.22-1.07,0.45-1.6,0.68c-0.35,0.15-0.71,0.3-1.06,0.45
			c-0.57,0.25-1.14,0.5-1.7,0.76c-0.29,0.13-0.59,0.26-0.89,0.4c-0.79,0.36-1.56,0.72-2.32,1.09c-0.06,0.03-0.12,0.06-0.18,0.08
			c0,0,0,0-0.01,0c-0.78,0.37-1.54,0.75-2.29,1.13c-0.24,0.12-0.47,0.24-0.7,0.36c-0.52,0.27-1.04,0.54-1.55,0.81
			c-0.26,0.14-0.52,0.28-0.78,0.41c-0.49,0.26-0.97,0.53-1.45,0.79c-0.24,0.13-0.48,0.27-0.72,0.4c-0.11,0.06-0.22,0.12-0.33,0.18
			c-0.56,0.32-1.12,0.64-1.66,0.97c-0.03,0.02-0.06,0.04-0.09,0.05c-0.63,0.37-1.24,0.75-1.85,1.13c-0.19,0.12-0.37,0.23-0.56,0.35
			c-0.48,0.3-0.94,0.61-1.41,0.91c-0.16,0.11-0.33,0.22-0.49,0.32c-0.08,0.05-0.16,0.11-0.24,0.16c-0.51,0.34-1,0.68-1.49,1.03
			c-0.11,0.07-0.21,0.15-0.31,0.23c-0.48,0.34-0.94,0.68-1.4,1.02c-0.14,0.11-0.28,0.21-0.42,0.32c-0.52,0.39-1.03,0.79-1.53,1.19
			c-0.02,0.01-0.03,0.03-0.05,0.04c-0.05,0.04-0.1,0.08-0.15,0.12c-0.47,0.38-0.93,0.76-1.37,1.15c-0.11,0.1-0.23,0.2-0.34,0.29
			c-0.48,0.41-0.94,0.83-1.39,1.25c-0.07,0.06-0.13,0.12-0.19,0.18c-0.24,0.23-0.48,0.45-0.72,0.68c-0.16,0.15-0.3,0.3-0.46,0.46
			c-0.09,0.09-0.18,0.18-0.28,0.28c-0.41,0.42-0.82,0.84-1.21,1.27c-0.07,0.08-0.15,0.16-0.22,0.25c-0.34,0.38-0.68,0.76-1,1.15
			c-0.07,0.08-0.13,0.15-0.2,0.23c-0.03,0.04-0.07,0.08-0.1,0.12c-0.32,0.39-0.63,0.78-0.92,1.17c-0.07,0.1-0.15,0.19-0.22,0.29
			c-0.31,0.42-0.61,0.83-0.9,1.25c-0.02,0.03-0.05,0.07-0.07,0.1c-0.22,0.33-0.44,0.67-0.65,1c-0.07,0.11-0.13,0.22-0.2,0.34
			c-0.06,0.1-0.13,0.21-0.19,0.31c-0.27,0.45-0.52,0.9-0.76,1.35c-0.02,0.04-0.04,0.08-0.06,0.11c-0.22,0.42-0.43,0.85-0.62,1.28
			c-0.05,0.1-0.09,0.2-0.14,0.31c-0.04,0.08-0.07,0.16-0.11,0.24c-0.16,0.37-0.31,0.75-0.45,1.12c-0.03,0.08-0.05,0.15-0.08,0.23
			c-0.15,0.4-0.28,0.8-0.41,1.21c-0.03,0.1-0.06,0.21-0.09,0.31c-0.12,0.41-0.23,0.82-0.33,1.23c-0.01,0.05-0.02,0.09-0.03,0.14
			c-0.02,0.1-0.04,0.2-0.06,0.3c-0.08,0.38-0.15,0.77-0.21,1.16c-0.02,0.12-0.04,0.24-0.06,0.36c-0.07,0.47-0.12,0.94-0.16,1.41
			c0,0.06-0.01,0.13-0.01,0.19c-0.02,0.29-0.04,0.57-0.05,0.86c-0.01,0.2-0.01,0.4-0.01,0.6v117.86c0-0.49,0.02-0.97,0.05-1.46
			c0-0.06,0.01-0.13,0.01-0.19c0.04-0.47,0.09-0.94,0.16-1.41c0.02-0.12,0.04-0.24,0.06-0.36c0.06-0.39,0.13-0.77,0.21-1.16
			c0.02-0.1,0.04-0.2,0.06-0.3c0.1-0.46,0.22-0.92,0.36-1.37c0.03-0.1,0.06-0.21,0.09-0.31c0.12-0.4,0.26-0.81,0.41-1.21
			c0.03-0.08,0.05-0.15,0.08-0.23c0.17-0.46,0.36-0.91,0.56-1.36c0.05-0.1,0.09-0.2,0.14-0.31c0.19-0.43,0.4-0.85,0.62-1.28
			c0.02-0.04,0.04-0.08,0.06-0.11c0.24-0.45,0.49-0.9,0.76-1.35c0.06-0.1,0.12-0.21,0.19-0.31c0.27-0.45,0.55-0.89,0.85-1.34
			c0.02-0.03,0.05-0.07,0.07-0.1c0.29-0.42,0.59-0.84,0.9-1.25c0.07-0.1,0.14-0.19,0.22-0.29c0.33-0.43,0.67-0.86,1.03-1.29
			c0.06-0.08,0.13-0.15,0.2-0.23c0.32-0.38,0.66-0.77,1-1.15c0.07-0.08,0.14-0.16,0.22-0.24c0.39-0.43,0.79-0.85,1.21-1.27
			c0.09-0.09,0.18-0.18,0.27-0.27c0.38-0.38,0.77-0.76,1.18-1.14c0.06-0.06,0.13-0.12,0.19-0.18c0.45-0.42,0.92-0.84,1.39-1.25
			c0.11-0.1,0.23-0.2,0.34-0.29c0.45-0.38,0.9-0.77,1.37-1.15c0.05-0.04,0.1-0.08,0.15-0.12c0.51-0.41,1.04-0.82,1.58-1.23
			c0.14-0.11,0.28-0.21,0.42-0.32c0.46-0.34,0.92-0.68,1.4-1.02c0.11-0.08,0.21-0.15,0.31-0.23c0.56-0.4,1.14-0.79,1.73-1.19
			c0.16-0.11,0.33-0.22,0.49-0.32c0.46-0.3,0.93-0.61,1.41-0.91c0.18-0.12,0.37-0.23,0.56-0.35c0.61-0.38,1.22-0.75,1.85-1.13
			c0.03-0.02,0.06-0.04,0.09-0.05c0.65-0.39,1.32-0.77,1.99-1.15c0.24-0.13,0.48-0.27,0.72-0.4c0.48-0.27,0.96-0.53,1.45-0.79
			c0.26-0.14,0.52-0.28,0.78-0.41c0.51-0.27,1.03-0.54,1.55-0.8c0.23-0.12,0.46-0.24,0.7-0.36c0.76-0.38,1.52-0.76,2.3-1.13
			c0.06-0.03,0.12-0.06,0.18-0.08c0.76-0.37,1.54-0.73,2.32-1.09c0.29-0.13,0.59-0.26,0.88-0.39c0.57-0.25,1.13-0.51,1.71-0.76
			c0.34-0.15,0.7-0.3,1.05-0.45c0.53-0.23,1.07-0.46,1.61-0.68c0.38-0.16,0.77-0.31,1.15-0.47c0.5-0.2,1-0.41,1.51-0.61
			c0.93-0.37,1.87-0.73,2.82-1.09c0.15-0.06,0.3-0.12,0.45-0.18c1.11-0.42,2.23-0.83,3.37-1.23c0.34-0.12,0.68-0.24,1.02-0.36
			c0.82-0.29,1.64-0.57,2.48-0.86c0.42-0.14,0.84-0.28,1.26-0.42c0.79-0.26,1.58-0.52,2.39-0.78c0.42-0.13,0.83-0.27,1.25-0.4
			c1.06-0.33,2.13-0.66,3.21-0.99c0.21-0.06,0.41-0.13,0.62-0.19c1.29-0.38,2.59-0.76,3.91-1.13c0.37-0.1,0.74-0.2,1.11-0.31
			c0.98-0.27,1.96-0.54,2.96-0.8c0.45-0.12,0.9-0.24,1.35-0.35c1.01-0.26,2.03-0.52,3.05-0.77c0.38-0.09,0.75-0.19,1.13-0.28
			c1.39-0.34,2.79-0.67,4.21-1c0.25-0.06,0.51-0.11,0.76-0.17c1.18-0.27,2.37-0.53,3.57-0.79c0.47-0.1,0.94-0.2,1.41-0.3
			c1.04-0.22,2.08-0.44,3.13-0.65c0.47-0.1,0.93-0.19,1.4-0.28c1.32-0.26,2.65-0.52,4-0.77c0.17-0.03,0.34-0.07,0.52-0.1
			c0.3-0.06,0.6-0.11,0.9-0.16c0.94-0.17,1.88-0.34,2.83-0.51c0.46-0.08,0.92-0.16,1.38-0.24c0.78-0.13,1.55-0.27,2.34-0.4
			c0.92-0.15,1.86-0.3,2.79-0.45c0.49-0.08,0.97-0.16,1.46-0.23c1.27-0.2,2.56-0.39,3.85-0.58c0.15-0.02,0.31-0.05,0.46-0.07
			c1.45-0.21,2.9-0.41,4.37-0.61c0.45-0.06,0.91-0.12,1.36-0.18c1.02-0.13,2.04-0.27,3.06-0.39c0.57-0.07,1.15-0.14,1.72-0.21
			c0.92-0.11,1.83-0.22,2.76-0.33c0.62-0.07,1.24-0.14,1.86-0.21c0.89-0.1,1.78-0.2,2.68-0.29c0.64-0.07,1.28-0.13,1.93-0.2
			c0.89-0.09,1.78-0.18,2.68-0.26c0.65-0.06,1.3-0.12,1.95-0.18c0.91-0.08,1.82-0.16,2.73-0.24c0.67-0.06,1.35-0.11,2.03-0.17
			c0.64-0.05,1.28-0.1,1.92-0.15c0.79-0.06,1.58-0.12,2.37-0.18c0.65-0.05,1.3-0.09,1.95-0.14c0.79-0.05,1.59-0.11,2.38-0.16
			c0.65-0.04,1.31-0.08,1.96-0.12c0.8-0.05,1.61-0.09,2.41-0.14c0.66-0.04,1.31-0.07,1.97-0.1c0.59-0.03,1.18-0.06,1.77-0.09
			c1.91-0.09,3.83-0.17,5.75-0.24c0.18-0.01,0.37-0.02,0.55-0.02c2.07-0.07,4.15-0.13,6.24-0.18c0.56-0.01,1.12-0.03,1.69-0.04
			c1.26-0.03,2.53-0.05,3.8-0.06c0.56-0.01,1.12-0.02,1.68-0.02c1.8-0.02,3.61-0.03,5.42-0.03c0.73,0,1.46,0.01,2.19,0.01
			c1.37,0.01,2.73,0.02,4.09,0.03c0.59,0.01,1.19,0.01,1.78,0.02c1.42,0.02,2.84,0.05,4.25,0.08c0.43,0.01,0.86,0.02,1.29,0.03
			c1.78,0.05,3.56,0.1,5.33,0.16c0.39,0.01,0.78,0.03,1.17,0.05c1.39,0.05,2.78,0.11,4.16,0.17c0.59,0.03,1.17,0.06,1.76,0.08
			c1.21,0.06,2.41,0.12,3.6,0.19c0.57,0.03,1.15,0.06,1.72,0.1c1.4,0.08,2.8,0.17,4.19,0.27c0.33,0.02,0.65,0.04,0.98,0.06
			c1.7,0.12,3.4,0.25,5.08,0.38c0.45,0.04,0.91,0.08,1.36,0.11c1.24,0.1,2.48,0.21,3.72,0.32c0.57,0.05,1.14,0.1,1.71,0.16
			c1.17,0.11,2.34,0.23,3.51,0.34c0.53,0.05,1.05,0.11,1.58,0.16c1.52,0.16,3.02,0.32,4.52,0.5c0.14,0.02,0.28,0.03,0.41,0.05
			c1.67,0.19,3.32,0.4,4.97,0.61c0.48,0.06,0.96,0.12,1.44,0.19c1.2,0.16,2.39,0.32,3.58,0.48c0.51,0.07,1.02,0.14,1.53,0.21
			c1.52,0.22,3.03,0.44,4.53,0.67c0.16,0.02,0.32,0.05,0.48,0.07c1.64,0.25,3.27,0.52,4.89,0.79c0.43,0.07,0.86,0.15,1.29,0.22
			c1.4,0.24,2.79,0.48,4.17,0.73c0.36,0.07,0.73,0.13,1.09,0.2c1.66,0.31,3.3,0.62,4.92,0.94c1.01,0.2,2.01,0.4,3.01,0.61
			c0.1,0.02,0.19,0.04,0.29,0.06c1.14,0.24,2.28,0.48,3.41,0.73c0.34,0.07,0.68,0.15,1.02,0.23c0.8,0.18,1.59,0.36,2.38,0.54
			c0.39,0.09,0.77,0.18,1.16,0.27c0.7,0.16,1.39,0.33,2.08,0.49c0.49,0.12,0.98,0.24,1.47,0.36c0.67,0.16,1.34,0.33,2,0.5
			c0.47,0.12,0.93,0.23,1.39,0.35c0.7,0.18,1.39,0.36,2.09,0.55c0.41,0.11,0.83,0.22,1.24,0.33c0.8,0.22,1.59,0.44,2.38,0.66
			c0.3,0.08,0.6,0.16,0.89,0.25c0.25,0.07,0.5,0.15,0.75,0.22c0.97,0.28,1.93,0.56,2.88,0.84c0.42,0.13,0.84,0.26,1.26,0.38
			c0.77,0.23,1.54,0.47,2.29,0.71c0.46,0.14,0.91,0.29,1.36,0.43c0.71,0.23,1.42,0.46,2.12,0.69c0.46,0.15,0.91,0.3,1.36,0.45
			c0.7,0.24,1.39,0.47,2.08,0.71c0.45,0.16,0.9,0.31,1.35,0.47c0.48,0.17,0.96,0.34,1.43,0.52c0.51,0.19,1.03,0.37,1.54,0.56
			c0.47,0.18,0.94,0.35,1.4,0.53c0.5,0.19,1,0.38,1.49,0.58c0.46,0.18,0.91,0.36,1.37,0.54c0.49,0.19,0.97,0.39,1.45,0.59
			c0.45,0.18,0.89,0.37,1.33,0.55c0.47,0.2,0.95,0.4,1.41,0.6c0.43,0.19,0.86,0.38,1.29,0.56c0.46,0.2,0.92,0.41,1.37,0.61
			c0.42,0.19,0.84,0.38,1.26,0.58c0.44,0.21,0.88,0.41,1.32,0.62c0.41,0.19,0.82,0.39,1.22,0.59c0.43,0.21,0.86,0.42,1.28,0.63
			c0.4,0.2,0.79,0.4,1.17,0.59c0.42,0.21,0.83,0.43,1.24,0.64c0.38,0.2,0.76,0.4,1.14,0.61c0.4,0.22,0.8,0.43,1.19,0.65
			c0.37,0.2,0.74,0.41,1.1,0.62c0.39,0.22,0.77,0.44,1.15,0.66c0.36,0.21,0.71,0.42,1.06,0.63c0.37,0.22,0.74,0.45,1.1,0.67
			c0.34,0.21,0.68,0.42,1.01,0.63c0.36,0.23,0.71,0.45,1.05,0.68c0.33,0.21,0.65,0.43,0.97,0.64c0.34,0.23,0.68,0.46,1.01,0.7
			c0.31,0.22,0.62,0.43,0.92,0.65c0.33,0.23,0.64,0.47,0.96,0.7c0.3,0.22,0.59,0.44,0.88,0.66c0.31,0.24,0.61,0.48,0.92,0.71
			c0.28,0.22,0.56,0.44,0.83,0.66c0.29,0.24,0.58,0.48,0.87,0.73c0.26,0.22,0.53,0.45,0.79,0.67c0.28,0.24,0.55,0.49,0.82,0.73
			c0.25,0.23,0.5,0.45,0.74,0.68c0.26,0.25,0.51,0.5,0.77,0.74c0.23,0.23,0.47,0.46,0.69,0.68c0.25,0.25,0.48,0.5,0.72,0.75
			c0.22,0.23,0.43,0.46,0.64,0.69c0.23,0.25,0.44,0.51,0.66,0.76c0.2,0.23,0.4,0.46,0.59,0.7c0.21,0.26,0.41,0.52,0.61,0.77
			c0.18,0.23,0.37,0.47,0.54,0.7c0.2,0.26,0.38,0.52,0.56,0.79c0.16,0.23,0.33,0.47,0.49,0.7c0.18,0.27,0.34,0.53,0.51,0.8
			c0.15,0.23,0.3,0.47,0.44,0.7c0.16,0.27,0.31,0.54,0.46,0.81c0.13,0.23,0.26,0.47,0.39,0.7c0.14,0.27,0.27,0.55,0.4,0.83
			c0.11,0.23,0.23,0.47,0.33,0.7c0.12,0.28,0.23,0.56,0.35,0.84c0.09,0.23,0.19,0.46,0.28,0.7c0.11,0.29,0.2,0.58,0.29,0.87
			c0.07,0.23,0.16,0.45,0.22,0.68c0.09,0.3,0.16,0.6,0.23,0.9c0.06,0.22,0.12,0.44,0.17,0.66c0.07,0.32,0.12,0.63,0.18,0.95
			c0.04,0.21,0.08,0.41,0.11,0.62c0.05,0.36,0.08,0.72,0.12,1.07c0.02,0.17,0.04,0.34,0.06,0.51c0.04,0.53,0.06,1.06,0.06,1.59v0
			c0,0,0,0,0,0V284.65z"/>
		<g>
			<path class="st11" d="M1542.37,402.51c0-0.52-0.02-1.03-0.06-1.55c-0.01-0.09-0.02-0.18-0.03-0.27l-0.04-0.36
				c-0.03-0.3-0.06-0.6-0.1-0.9c-0.02-0.12-0.04-0.24-0.06-0.36l-0.08-0.43c-0.04-0.25-0.08-0.49-0.14-0.74
				c-0.03-0.14-0.07-0.27-0.1-0.41l-0.11-0.44c-0.06-0.22-0.11-0.45-0.18-0.67c-0.04-0.14-0.09-0.28-0.14-0.42l-0.14-0.43
				c-0.07-0.22-0.14-0.44-0.22-0.66c-0.05-0.15-0.12-0.29-0.18-0.44l-0.18-0.45c-0.08-0.2-0.16-0.4-0.25-0.6
				c-0.07-0.15-0.14-0.3-0.22-0.46l-0.19-0.4c-0.1-0.21-0.2-0.42-0.31-0.63c-0.08-0.16-0.17-0.31-0.25-0.46l-0.23-0.41
				c-0.11-0.2-0.22-0.41-0.34-0.61c-0.1-0.17-0.21-0.35-0.32-0.52l-0.21-0.33c-0.13-0.21-0.26-0.42-0.4-0.63
				c-0.11-0.16-0.23-0.33-0.35-0.5l-0.23-0.32c-0.15-0.21-0.3-0.43-0.46-0.64c-0.12-0.17-0.26-0.33-0.39-0.5l-0.26-0.33
				c-0.16-0.21-0.32-0.41-0.49-0.62c-0.15-0.18-0.31-0.36-0.46-0.54l-0.24-0.28c-0.18-0.21-0.35-0.41-0.54-0.62
				c-0.18-0.2-0.36-0.39-0.55-0.59l-0.09-0.09c-0.27-0.29-0.48-0.52-0.71-0.74c-0.19-0.19-0.38-0.38-0.58-0.58l-0.1-0.1
				c-0.25-0.25-0.5-0.49-0.76-0.74c-0.22-0.21-0.44-0.41-0.67-0.61c-0.33-0.3-0.6-0.54-0.87-0.79c-0.25-0.22-0.51-0.44-0.78-0.66
				c-0.29-0.25-0.57-0.49-0.86-0.72c-0.26-0.21-0.52-0.42-0.79-0.63c-0.34-0.27-0.64-0.5-0.95-0.74c-0.29-0.22-0.58-0.44-0.87-0.65
				c-0.32-0.23-0.63-0.47-0.95-0.7c-0.3-0.22-0.61-0.43-0.92-0.64c-0.33-0.23-0.67-0.46-1-0.69c-0.32-0.21-0.64-0.43-0.96-0.64
				c-0.35-0.23-0.69-0.45-1.05-0.68c-0.33-0.21-0.67-0.42-1.01-0.63c-0.36-0.22-0.72-0.45-1.09-0.67c-0.35-0.21-0.7-0.42-1.05-0.62
				c-0.38-0.22-0.75-0.44-1.14-0.66c-0.36-0.2-0.72-0.41-1.09-0.61c-0.39-0.22-0.79-0.43-1.19-0.65c-0.37-0.2-0.75-0.4-1.13-0.6
				c-0.41-0.21-0.82-0.43-1.23-0.64l-1.17-0.59c-0.42-0.21-0.84-0.42-1.27-0.63c-0.4-0.2-0.81-0.39-1.21-0.58
				c-0.44-0.21-0.88-0.41-1.32-0.62c-0.41-0.19-0.83-0.38-1.25-0.57c-0.45-0.2-0.9-0.41-1.36-0.61c-0.43-0.19-0.85-0.38-1.29-0.56
				c-0.47-0.2-0.94-0.4-1.41-0.6l-1.32-0.55c-0.48-0.2-0.96-0.39-1.45-0.58l-1.36-0.54c-0.49-0.19-0.99-0.38-1.49-0.57l-1.39-0.53
				c-0.44-0.16-0.88-0.33-1.33-0.49l-2.97-1.06c-0.69-0.24-1.37-0.48-2.07-0.71l-1.36-0.45c-0.7-0.23-1.41-0.46-2.12-0.69
				l-1.36-0.43c-0.76-0.24-1.52-0.47-2.29-0.7l-1.26-0.38c-0.95-0.28-1.91-0.56-2.88-0.84l-1.64-0.46
				c-0.79-0.22-1.58-0.44-2.38-0.66l-1.24-0.33c-0.69-0.18-1.38-0.37-2.08-0.55l-1.66-0.42c-0.57-0.14-1.15-0.29-1.73-0.43
				l-1.42-0.34c-0.75-0.18-1.44-0.34-2.13-0.51l-1.15-0.27c-0.79-0.18-1.58-0.36-2.37-0.54l-1.01-0.22
				c-1.13-0.25-2.26-0.49-3.4-0.73l-0.29-0.06c-0.99-0.21-1.99-0.41-3-0.61c-1.62-0.32-3.26-0.64-4.92-0.94l-1.09-0.2
				c-1.38-0.25-2.77-0.5-4.17-0.73l-1.29-0.22c-1.62-0.27-3.24-0.53-4.88-0.79l-0.48-0.07c-1.5-0.23-3-0.45-4.52-0.67l-1.53-0.21
				c-1.19-0.17-2.38-0.33-3.57-0.48l-1.44-0.19c-1.64-0.21-3.3-0.41-4.96-0.6l-0.41-0.04c-1.5-0.17-3-0.34-4.52-0.5l-1.57-0.16
				c-1.16-0.12-2.33-0.23-3.5-0.34l-1.7-0.16c-1.23-0.11-2.47-0.22-3.71-0.32l-1.36-0.11c-1.68-0.13-3.38-0.26-5.08-0.38l-0.98-0.06
				c-1.39-0.09-2.78-0.18-4.18-0.27l-1.72-0.1c-1.2-0.07-2.4-0.13-3.6-0.19l-1.76-0.08c-1.38-0.06-2.77-0.12-4.16-0.17l-1.16-0.05
				c-1.77-0.06-3.54-0.12-5.32-0.16l-1.29-0.03c-1.41-0.03-2.83-0.06-4.25-0.08l-1.78-0.02c-1.36-0.02-2.72-0.03-4.08-0.03
				l-2.19-0.01c-1.81,0-3.62,0.01-5.42,0.03l-1.68,0.02c-1.27,0.02-2.53,0.04-3.79,0.06l-1.68,0.04c-2.09,0.05-4.17,0.11-6.23,0.18
				l-0.55,0.02c-1.92,0.07-3.84,0.15-5.75,0.24l-3.74,0.19c-0.8,0.04-1.61,0.09-2.41,0.14l-6.29,0.41
				c-0.79,0.06-1.58,0.12-2.37,0.18l-3.92,0.32c-0.94,0.08-1.85,0.16-2.75,0.24l-1.95,0.18c-0.89,0.08-1.78,0.17-2.67,0.26
				l-1.92,0.2c-0.9,0.09-1.79,0.19-2.68,0.29l-1.86,0.21c-0.92,0.11-1.84,0.21-2.75,0.33l-1.72,0.21c-1.02,0.13-2.04,0.26-3.06,0.39
				l-1.35,0.18c-1.46,0.2-2.92,0.4-4.36,0.61l-0.46,0.07c-1.29,0.19-2.57,0.38-3.84,0.58l-1.81,0.29c-0.81,0.13-1.63,0.26-2.43,0.39
				c-0.78,0.13-1.56,0.26-2.33,0.4l-1.37,0.24c-0.95,0.17-1.89,0.34-2.83,0.51l-1.42,0.26c-1.34,0.25-2.67,0.51-3.99,0.77l-1.4,0.28
				c-1.05,0.21-2.09,0.43-3.12,0.65l-1.41,0.3c-1.2,0.26-2.38,0.52-3.56,0.79l-0.76,0.17c-1.41,0.33-2.81,0.66-4.2,1l-1.13,0.28
				c-1.02,0.25-2.04,0.51-3.04,0.77l-1.35,0.35c-0.99,0.26-1.97,0.53-2.95,0.8l-1.11,0.3c-1.31,0.37-2.62,0.74-3.9,1.13l-0.62,0.19
				c-1.08,0.32-2.15,0.65-3.2,0.98l-1.19,0.38c-0.86,0.27-1.65,0.53-2.44,0.79l-1.26,0.42c-0.83,0.28-1.65,0.57-2.47,0.85
				l-1.01,0.35c-1.13,0.41-2.26,0.81-3.36,1.23l-0.45,0.17c-0.95,0.36-1.88,0.72-2.81,1.09c-0.51,0.2-1.01,0.41-1.51,0.61
				l-1.15,0.47c-0.54,0.23-1.07,0.45-1.61,0.68l-1.04,0.45c-0.56,0.24-1.11,0.49-1.66,0.74l-0.92,0.41
				c-0.78,0.36-1.55,0.72-2.31,1.08l-0.1,0.05c-0.86,0.41-1.62,0.79-2.37,1.17l-0.69,0.35c-0.52,0.27-1.04,0.53-1.54,0.8l-0.71,0.38
				c-0.55,0.3-1.03,0.56-1.51,0.83l-0.71,0.4c-0.67,0.38-1.33,0.76-1.98,1.14l-0.42-0.51l0.33,0.56c-0.62,0.37-1.23,0.74-1.83,1.12
				l-0.49,0.31c-0.53,0.34-1,0.64-1.46,0.94l-0.49,0.32c-0.58,0.39-1.16,0.78-1.71,1.18l-0.31,0.22c-0.47,0.34-0.93,0.67-1.39,1.02
				l-0.42,0.32c-0.53,0.4-1.05,0.81-1.56,1.22l-0.14,0.12c-0.46,0.38-0.92,0.76-1.36,1.14l-0.34,0.29
				c-0.47,0.41-0.93,0.82-1.38,1.24l-0.19,0.18c-0.4,0.38-0.79,0.75-1.16,1.13l-0.27,0.27c-0.41,0.42-0.81,0.83-1.19,1.25
				l-0.15,0.17c-0.4,0.45-0.73,0.82-1.05,1.2l-0.19,0.23c-0.35,0.42-0.69,0.85-1.01,1.27l-0.16,0.21c-0.36,0.48-0.65,0.89-0.93,1.3
				l-0.61-0.26l0.54,0.37c-0.29,0.43-0.57,0.87-0.84,1.31l-0.18,0.31c-0.26,0.44-0.51,0.88-0.74,1.32l-0.63-0.19l0.58,0.3
				c-0.21,0.41-0.42,0.83-0.61,1.25l-0.14,0.3c-0.2,0.44-0.38,0.88-0.55,1.33l-0.08,0.22c-0.14,0.39-0.27,0.78-0.39,1.18l-0.09,0.3
				c-0.13,0.44-0.25,0.89-0.35,1.33l-0.06,0.3c-0.08,0.37-0.15,0.74-0.21,1.12l-0.06,0.35c-0.07,0.46-0.12,0.91-0.15,1.37
				l-0.01,0.19c-0.03,0.47-0.05,0.94-0.05,1.41h-1.3V284.65c0-0.21,0-0.41,0.01-0.62c0.01-0.3,0.03-0.59,0.05-0.89l0.01-0.2
				c0.04-0.49,0.09-0.97,0.16-1.46l0.05-0.3c0.07-0.47,0.15-0.87,0.23-1.26l0.1-0.46c0.1-0.42,0.21-0.85,0.34-1.27l0.1-0.32
				c0.13-0.42,0.27-0.83,0.42-1.24l0.08-0.23c0.15-0.39,0.3-0.77,0.46-1.15l0.22-0.48c0.23-0.51,0.44-0.95,0.67-1.38l0.06-0.12
				c0.24-0.46,0.5-0.91,0.77-1.37l0.4-0.66c0.21-0.34,0.43-0.68,0.66-1.02l0.07-0.1c0.29-0.43,0.6-0.85,0.91-1.28l0.22-0.29
				c0.3-0.4,0.61-0.8,0.94-1.19l0.3-0.36c0.33-0.39,0.67-0.78,1.02-1.17l0.22-0.25c0.39-0.43,0.8-0.86,1.22-1.29l0.74-0.74
				c0.21-0.2,0.42-0.4,0.63-0.6l0.29-0.28c0.45-0.42,0.92-0.84,1.41-1.26l0.35-0.3c0.45-0.39,0.91-0.78,1.39-1.16l0.15-0.12
				c0.55-0.44,1.07-0.84,1.59-1.24l0.43-0.32c0.46-0.34,0.93-0.69,1.41-1.03l0.32-0.23c0.49-0.35,0.99-0.69,1.5-1.04l0.74-0.49
				c0.46-0.31,0.93-0.61,1.41-0.92l0.56-0.35c0.61-0.38,1.23-0.76,1.86-1.13l0.09-0.05c0.55-0.33,1.11-0.65,1.67-0.97l1.05-0.59
				c0.48-0.27,0.97-0.53,1.46-0.8l0.78-0.42c0.51-0.27,1.03-0.54,1.56-0.81l0.7-0.36c0.76-0.38,1.52-0.76,2.3-1.14l0.1-0.05
				c0.85-0.41,1.63-0.77,2.42-1.13l0.89-0.4c0.56-0.25,1.13-0.51,1.7-0.76l1.29-0.55c0.46-0.19,0.91-0.39,1.38-0.58l2.67-1.09
				c0.93-0.37,1.87-0.74,2.83-1.1l0.46-0.18c1.11-0.42,2.24-0.83,3.38-1.24l1.02-0.36c0.82-0.29,1.65-0.58,2.48-0.86l1.27-0.42
				c0.79-0.26,1.59-0.52,2.39-0.78l1.25-0.4c1.06-0.33,2.14-0.66,3.23-0.99l0.62-0.19c1.29-0.38,2.6-0.76,3.92-1.13l1.11-0.31
				c0.98-0.27,1.97-0.54,2.96-0.8l1.35-0.35c1.01-0.26,2.03-0.52,3.06-0.78l1.13-0.28c1.39-0.34,2.8-0.67,4.22-1l0.76-0.17
				c1.18-0.27,2.37-0.54,3.57-0.8l1.42-0.3c1.04-0.22,2.08-0.44,3.13-0.65l1.41-0.29c1.33-0.26,2.66-0.52,4-0.77l1.42-0.26
				c0.94-0.17,1.88-0.34,2.84-0.51l3.72-0.64c0.92-0.15,1.86-0.3,2.79-0.45l1.47-0.23c1.28-0.2,2.56-0.39,3.85-0.58l0.46-0.07
				c1.45-0.21,2.9-0.41,4.37-0.61l1.36-0.18c1.02-0.13,2.04-0.27,3.07-0.4l1.72-0.21c0.92-0.11,1.84-0.22,2.77-0.33l1.85-0.21
				c0.9-0.1,1.79-0.2,2.69-0.29l1.93-0.2c0.89-0.09,1.78-0.18,2.68-0.26l1.95-0.18c0.91-0.08,1.82-0.16,2.73-0.24l3.95-0.32
				c0.79-0.06,1.58-0.12,2.37-0.18l1.96-0.14c0.79-0.05,1.59-0.11,2.39-0.16l8.14-0.45c1.91-0.09,3.83-0.17,5.76-0.24l0.56-0.02
				c2.07-0.07,4.16-0.13,6.25-0.18l1.68-0.04c1.27-0.03,2.54-0.05,3.81-0.06l1.68-0.02c1.81-0.02,3.61-0.03,5.43-0.03l2.19,0.01
				c1.37,0.01,2.74,0.02,4.1,0.03l1.78,0.02c1.43,0.02,2.85,0.05,4.27,0.08l1.28,0.03c1.79,0.04,3.57,0.1,5.34,0.16l1.17,0.05
				c1.39,0.05,2.78,0.11,4.17,0.17l1.76,0.08c1.21,0.06,2.41,0.12,3.61,0.19l1.72,0.1c1.4,0.08,2.8,0.17,4.19,0.27l0.98,0.06
				c1.71,0.12,3.4,0.25,5.09,0.38l1.36,0.11c1.24,0.1,2.49,0.21,3.72,0.32l1.71,0.16c1.18,0.11,2.35,0.23,3.51,0.34l1.58,0.16
				c1.52,0.16,3.03,0.32,4.53,0.5l0.37,0.04c1.72,0.2,3.38,0.4,5.03,0.61l1.44,0.19c1.2,0.16,2.4,0.32,3.59,0.48l1.52,0.21
				c1.52,0.22,3.04,0.44,4.54,0.67l0.48,0.07c1.65,0.25,3.28,0.52,4.9,0.79l1.29,0.22c1.4,0.24,2.8,0.48,4.18,0.74l1.1,0.2
				c1.66,0.31,3.31,0.62,4.94,0.95l0.33,0.06c0.89,0.18,1.77,0.36,2.66,0.54l0.32,0.07c1.14,0.24,2.28,0.48,3.41,0.73l1.02,0.23
				c0.8,0.18,1.59,0.36,2.38,0.54l4.72,1.12c0.67,0.17,1.34,0.33,2,0.5l1.4,0.35c0.7,0.18,1.4,0.37,2.09,0.55l1.25,0.33
				c0.8,0.22,1.6,0.44,2.39,0.66l0.89,0.25l-0.08,0.66l0.18-0.63l0.65,0.19c0.98,0.28,1.94,0.56,2.9,0.84l1.25,0.38
				c0.77,0.23,1.55,0.47,2.31,0.71l1.36,0.43c0.72,0.23,1.43,0.46,2.13,0.69c0.46,0.15,0.91,0.3,1.36,0.45
				c0.7,0.24,1.39,0.48,2.08,0.72l1.35,0.47c0.48,0.17,0.96,0.35,1.44,0.52c0.51,0.19,1.03,0.37,1.54,0.56
				c0.47,0.18,0.94,0.36,1.41,0.53c0.5,0.19,1,0.38,1.5,0.58c0.46,0.18,0.92,0.36,1.37,0.54c0.49,0.19,0.97,0.39,1.46,0.59
				l1.33,0.55c0.48,0.2,0.95,0.4,1.42,0.6l1.3,0.57c0.46,0.2,0.92,0.41,1.37,0.61c0.42,0.19,0.84,0.38,1.26,0.58
				c0.45,0.21,0.89,0.41,1.33,0.62c0.41,0.19,0.82,0.39,1.22,0.59c0.43,0.21,0.86,0.42,1.29,0.63c0.4,0.2,0.79,0.4,1.18,0.6
				c0.42,0.21,0.83,0.43,1.24,0.64c0.39,0.2,0.77,0.41,1.15,0.61c0.4,0.22,0.8,0.43,1.19,0.65c0.37,0.21,0.74,0.41,1.11,0.62
				c0.39,0.22,0.77,0.44,1.15,0.66c0.36,0.21,0.71,0.42,1.07,0.63c0.37,0.22,0.74,0.45,1.11,0.67c0.34,0.21,0.69,0.43,1.02,0.64
				c0.36,0.23,0.71,0.46,1.06,0.69c0.33,0.21,0.66,0.43,0.98,0.65c0.34,0.23,0.68,0.46,1.02,0.7c0.31,0.22,0.63,0.44,0.93,0.66
				c0.33,0.23,0.65,0.47,0.97,0.71c0.3,0.22,0.6,0.44,0.89,0.67c0.31,0.24,0.62,0.48,0.92,0.72c0.28,0.22,0.57,0.45,0.84,0.67
				c0.27,0.22,0.53,0.44,0.79,0.66l0.08,0.07c0.29,0.25,0.55,0.46,0.79,0.68c0.28,0.25,0.55,0.5,0.83,0.74
				c0.3,0.27,0.53,0.48,0.75,0.69c0.25,0.24,0.5,0.48,0.75,0.72l0.17,0.17c0.19,0.19,0.38,0.37,0.56,0.56
				c0.23,0.23,0.45,0.47,0.67,0.71l0.14,0.15c0.19,0.2,0.38,0.41,0.56,0.61c0.19,0.21,0.37,0.43,0.56,0.64l0.22,0.26
				c0.17,0.19,0.34,0.39,0.5,0.58c0.18,0.22,0.35,0.44,0.53,0.67l0.2,0.26c0.15,0.19,0.3,0.38,0.44,0.57
				c0.16,0.21,0.31,0.43,0.46,0.64l0.25,0.35c0.12,0.18,0.25,0.35,0.37,0.53c0.15,0.22,0.29,0.45,0.43,0.67l0.21,0.34
				c0.11,0.17,0.22,0.35,0.32,0.52c0.13,0.21,0.24,0.43,0.36,0.64l0.22,0.4c0.1,0.17,0.19,0.34,0.28,0.51
				c0.11,0.22,0.22,0.44,0.32,0.67l0.18,0.38c0.08,0.17,0.17,0.34,0.25,0.52c0.1,0.21,0.18,0.43,0.27,0.65l0.18,0.44
				c0.07,0.16,0.13,0.33,0.19,0.49c0.09,0.23,0.16,0.46,0.24,0.69l0.14,0.42c0.05,0.16,0.11,0.32,0.16,0.48
				c0.07,0.23,0.13,0.47,0.19,0.7l0.11,0.44c0.04,0.15,0.08,0.31,0.12,0.46c0.06,0.25,0.1,0.51,0.15,0.76l0.08,0.43
				c0.03,0.14,0.05,0.28,0.07,0.42c0.05,0.31,0.08,0.62,0.11,0.94l0.04,0.35c0.01,0.11,0.03,0.23,0.04,0.34
				c0.04,0.54,0.06,1.09,0.06,1.64v117.86L1542.37,402.51z M1360.52,339.44l2.2,0.01c1.37,0.01,2.73,0.02,4.09,0.03l1.78,0.02
				c1.42,0.02,2.84,0.05,4.26,0.08l1.3,0.03c1.79,0.04,3.56,0.1,5.34,0.16l1.17,0.05c1.39,0.05,2.78,0.11,4.17,0.17l1.76,0.08
				c1.21,0.06,2.41,0.12,3.61,0.19l1.72,0.1c1.4,0.08,2.8,0.17,4.19,0.27l0.98,0.06c1.71,0.12,3.4,0.25,5.09,0.38l1.36,0.11
				c1.25,0.1,2.49,0.21,3.72,0.32l1.71,0.16c1.18,0.11,2.35,0.23,3.51,0.34l1.58,0.16c1.52,0.16,3.03,0.32,4.53,0.5l0.41,0.05
				c1.67,0.19,3.33,0.4,4.98,0.61l1.44,0.19c1.2,0.16,2.39,0.32,3.58,0.48l1.53,0.21c1.52,0.22,3.03,0.44,4.53,0.67l0.48,0.07
				c1.65,0.25,3.28,0.52,4.9,0.79l1.29,0.22c1.4,0.24,2.8,0.48,4.18,0.74l1.1,0.2c1.66,0.31,3.3,0.62,4.93,0.94
				c1.01,0.2,2.02,0.4,3.02,0.61l0.29,0.06c1.14,0.24,2.28,0.48,3.41,0.73l1.02,0.23c0.8,0.18,1.59,0.36,2.38,0.54l1.16,0.27
				c0.7,0.16,1.39,0.33,2.09,0.5l1.48,0.36c0.58,0.14,1.16,0.29,1.74,0.43l1.66,0.42c0.7,0.18,1.4,0.37,2.09,0.55l1.25,0.33
				c0.8,0.22,1.6,0.44,2.39,0.66l1.65,0.46c0.97,0.28,1.94,0.56,2.89,0.84l1.26,0.38c0.77,0.23,1.54,0.47,2.3,0.71l1.28,0.41
				c0.8,0.26,1.51,0.49,2.21,0.72l1.36,0.46c0.7,0.24,1.39,0.48,2.08,0.72l2.99,1.07c0.45,0.16,0.89,0.33,1.34,0.49l1.4,0.53
				c0.5,0.19,1,0.38,1.5,0.58l1.37,0.54c0.49,0.2,0.98,0.39,1.46,0.59l1.33,0.55c0.48,0.2,0.95,0.4,1.42,0.6
				c0.43,0.19,0.87,0.38,1.3,0.57c0.46,0.2,0.92,0.41,1.37,0.61c0.42,0.19,0.84,0.39,1.26,0.58c0.45,0.21,0.89,0.41,1.33,0.62
				c0.41,0.19,0.82,0.39,1.22,0.59c0.43,0.21,0.86,0.42,1.29,0.63l1.18,0.6c0.42,0.22,0.84,0.43,1.25,0.65
				c0.38,0.2,0.77,0.41,1.14,0.61c0.4,0.22,0.8,0.44,1.2,0.66c0.37,0.21,0.74,0.41,1.1,0.62c0.39,0.22,0.77,0.44,1.15,0.67
				c0.36,0.21,0.71,0.42,1.06,0.63c0.37,0.22,0.74,0.45,1.11,0.68c0.34,0.21,0.68,0.42,1.02,0.64c0.36,0.23,0.71,0.46,1.06,0.69
				c0.33,0.21,0.65,0.43,0.97,0.65c0.34,0.23,0.68,0.47,1.02,0.7c0.31,0.22,0.62,0.44,0.93,0.66c0.33,0.23,0.65,0.47,0.97,0.71
				c0.3,0.22,0.6,0.44,0.89,0.66c0.31,0.24,0.62,0.48,0.92,0.72c0.31,0.24,0.58,0.46,0.84,0.67c0.29,0.24,0.58,0.48,0.86,0.72
				c0.28,0.24,0.55,0.46,0.81,0.69c0.28,0.25,0.55,0.5,0.83,0.74c0.29,0.27,0.52,0.48,0.75,0.69c0.27,0.25,0.52,0.5,0.78,0.75
				l0.1,0.1c0.2,0.2,0.4,0.39,0.6,0.59c0.23,0.23,0.45,0.47,0.67,0.71l0.14,0.15c0.19,0.2,0.38,0.41,0.56,0.61
				c0.19,0.21,0.37,0.43,0.56,0.64l0.24,0.28c0.16,0.19,0.33,0.38,0.48,0.57c0.17,0.21,0.34,0.43,0.51,0.64l0.26,0.33
				c0.14,0.17,0.27,0.35,0.41,0.52c0.17,0.22,0.32,0.45,0.48,0.67l0.23,0.32c0.12,0.17,0.25,0.35,0.37,0.52
				c0.15,0.22,0.28,0.44,0.42,0.66l0.2,0.32c0.12,0.18,0.23,0.37,0.34,0.55c0.13,0.21,0.25,0.43,0.36,0.65l0.22,0.4
				c0.09,0.17,0.19,0.33,0.27,0.5c0.12,0.23,0.22,0.45,0.33,0.68l0.19,0.39c0.08,0.17,0.16,0.33,0.24,0.5
				c0.1,0.22,0.18,0.43,0.27,0.65l0.18,0.44c0.07,0.16,0.13,0.33,0.19,0.49c0.06,0.17,0.12,0.34,0.18,0.52v-110.3
				c0-0.52-0.02-1.03-0.06-1.54c-0.01-0.09-0.02-0.19-0.03-0.28l-0.04-0.39c-0.03-0.29-0.06-0.58-0.1-0.87
				c-0.02-0.12-0.04-0.24-0.07-0.37l-0.08-0.46c-0.04-0.24-0.08-0.47-0.13-0.71c-0.03-0.14-0.07-0.27-0.1-0.41l-0.12-0.46
				c-0.05-0.22-0.11-0.43-0.17-0.65c-0.04-0.14-0.09-0.29-0.14-0.43l-0.14-0.44c-0.07-0.21-0.14-0.43-0.22-0.64
				c-0.05-0.15-0.12-0.29-0.18-0.44l-0.18-0.45c-0.08-0.2-0.16-0.4-0.25-0.6c-0.07-0.16-0.15-0.32-0.22-0.48l-0.19-0.39
				c-0.1-0.21-0.2-0.42-0.3-0.62c-0.08-0.16-0.17-0.32-0.26-0.47l-0.22-0.41c-0.11-0.2-0.22-0.4-0.34-0.6
				c-0.1-0.16-0.2-0.33-0.3-0.49l-0.22-0.35c-0.13-0.21-0.27-0.42-0.41-0.64c-0.11-0.17-0.23-0.33-0.35-0.5l-0.25-0.35
				c-0.14-0.2-0.29-0.41-0.44-0.61c-0.14-0.18-0.28-0.36-0.42-0.54l-0.21-0.26c-0.17-0.21-0.33-0.43-0.51-0.64
				c-0.15-0.19-0.32-0.38-0.48-0.56l-0.23-0.26c-0.18-0.21-0.35-0.41-0.54-0.62c-0.18-0.2-0.36-0.39-0.55-0.59l-0.09-0.09
				c-0.27-0.29-0.48-0.52-0.71-0.74c-0.18-0.18-0.36-0.36-0.54-0.54l-0.14-0.14c-0.27-0.26-0.51-0.5-0.76-0.73
				c-0.22-0.2-0.44-0.41-0.66-0.61c-0.34-0.31-0.6-0.55-0.88-0.79c-0.24-0.21-0.49-0.42-0.74-0.63l-0.12-0.1
				c-0.26-0.22-0.51-0.43-0.77-0.65c-0.27-0.22-0.55-0.44-0.83-0.66c-0.3-0.24-0.6-0.47-0.9-0.71c-0.29-0.22-0.58-0.44-0.87-0.65
				c-0.31-0.23-0.63-0.47-0.95-0.7c-0.3-0.22-0.61-0.43-0.92-0.65c-0.33-0.23-0.66-0.46-1-0.69c-0.32-0.21-0.64-0.43-0.96-0.64
				c-0.35-0.23-0.69-0.45-1.05-0.68c-0.33-0.21-0.67-0.42-1.01-0.63c-0.36-0.22-0.72-0.45-1.09-0.67c-0.35-0.21-0.7-0.42-1.05-0.62
				c-0.37-0.22-0.75-0.44-1.14-0.66c-0.36-0.21-0.73-0.41-1.09-0.62c-0.39-0.22-0.78-0.43-1.18-0.65c-0.38-0.2-0.75-0.4-1.14-0.61
				c-0.41-0.21-0.81-0.43-1.23-0.64c-0.39-0.2-0.78-0.4-1.17-0.59c-0.42-0.21-0.84-0.42-1.27-0.63c-0.4-0.2-0.81-0.39-1.21-0.58
				c-0.44-0.21-0.87-0.41-1.32-0.62c-0.42-0.19-0.83-0.38-1.25-0.57c-0.45-0.21-0.91-0.41-1.36-0.61l-1.29-0.56
				c-0.46-0.2-0.93-0.4-1.41-0.6l-1.32-0.55c-0.48-0.2-0.96-0.39-1.44-0.58c-0.45-0.18-0.9-0.36-1.36-0.54
				c-0.49-0.19-0.99-0.38-1.49-0.57c-0.46-0.18-0.93-0.35-1.4-0.53c-0.5-0.19-1.02-0.38-1.53-0.56c-0.48-0.17-0.95-0.35-1.43-0.52
				l-1.34-0.47c-0.68-0.24-1.37-0.48-2.07-0.71c-0.45-0.15-0.9-0.3-1.35-0.45c-0.7-0.23-1.41-0.46-2.12-0.69l-1.35-0.43
				c-0.76-0.24-1.53-0.47-2.3-0.71l-1.25-0.38c-0.95-0.28-1.91-0.56-2.88-0.84l-1.64-0.46c-0.79-0.22-1.58-0.44-2.37-0.65
				l-1.24-0.33c-0.69-0.18-1.38-0.37-2.08-0.55l-1.39-0.35c-0.66-0.17-1.33-0.33-2-0.5l-4.7-1.12c-0.79-0.18-1.58-0.36-2.37-0.54
				l-1.02-0.23c-1.12-0.25-2.25-0.49-3.39-0.72l-0.26-0.05c-0.94-0.2-1.82-0.38-2.71-0.55l-0.33-0.06
				c-1.63-0.32-3.27-0.64-4.92-0.94l-1.09-0.2c-1.38-0.25-2.77-0.5-4.17-0.73l-1.29-0.22c-1.61-0.27-3.24-0.53-4.88-0.79l-0.48-0.07
				c-1.5-0.23-3.01-0.45-4.52-0.67l-1.51-0.21c-1.19-0.17-2.38-0.33-3.58-0.48l-1.44-0.19c-1.65-0.21-3.3-0.41-4.96-0.61l-0.41-0.04
				c-1.5-0.17-3-0.34-4.52-0.5l-1.57-0.16c-1.16-0.12-2.33-0.23-3.5-0.34l-1.7-0.16c-1.23-0.11-2.47-0.22-3.71-0.32l-1.36-0.11
				c-1.68-0.13-3.38-0.26-5.08-0.38l-0.97-0.06c-1.39-0.09-2.78-0.18-4.18-0.27l-1.72-0.1c-1.2-0.07-2.4-0.13-3.6-0.19l-1.76-0.08
				c-1.38-0.06-2.77-0.12-4.16-0.17l-1.16-0.05c-1.77-0.06-3.54-0.12-5.33-0.16l-1.28-0.03c-1.42-0.03-2.84-0.06-4.26-0.08
				l-1.78-0.02c-1.36-0.02-2.73-0.03-4.09-0.03l-2.18-0.01c-1.81,0-3.62,0.01-5.42,0.03l-1.67,0.02c-1.27,0.02-2.54,0.04-3.8,0.06
				l-1.67,0.04c-2.09,0.05-4.17,0.11-6.24,0.18l-0.55,0.02c-1.92,0.07-3.84,0.15-5.75,0.24l-8.12,0.45
				c-0.79,0.05-1.59,0.1-2.38,0.16l-1.95,0.14c-0.79,0.06-1.58,0.12-2.37,0.18l-3.94,0.32c-0.91,0.08-1.82,0.16-2.73,0.24
				l-1.95,0.18c-0.89,0.08-1.78,0.17-2.67,0.26l-1.92,0.2c-0.9,0.09-1.79,0.19-2.68,0.29l-1.85,0.21c-0.92,0.11-1.84,0.22-2.76,0.33
				l-1.72,0.21c-1.02,0.13-2.04,0.26-3.06,0.39l-1.35,0.18c-1.46,0.2-2.92,0.4-4.36,0.61l-0.46,0.07c-1.29,0.19-2.57,0.38-3.84,0.58
				l-1.46,0.23c-0.93,0.15-1.86,0.3-2.78,0.45l-3.71,0.63c-0.95,0.17-1.89,0.34-2.83,0.51l-1.42,0.26
				c-1.34,0.25-2.67,0.51-3.99,0.77l-1.4,0.28c-1.05,0.21-2.09,0.43-3.12,0.65l-1.41,0.3c-1.2,0.26-2.38,0.52-3.56,0.79l-0.75,0.17
				c-1.42,0.33-2.82,0.66-4.2,1l-1.13,0.28c-1.02,0.25-2.04,0.51-3.04,0.77l-1.35,0.35c-0.99,0.26-1.97,0.53-2.95,0.8l-1.11,0.31
				c-1.32,0.37-2.62,0.74-3.9,1.13l-0.62,0.19c-1.08,0.32-2.15,0.65-3.21,0.98l-1.25,0.4c-0.8,0.26-1.59,0.51-2.38,0.78l-1.26,0.42
				c-0.83,0.28-1.65,0.57-2.47,0.85l-1.01,0.35c-1.13,0.41-2.26,0.81-3.36,1.23l-0.45,0.17c-0.95,0.36-1.88,0.72-2.81,1.09
				l-2.66,1.08c-0.46,0.19-0.91,0.39-1.37,0.58l-1.28,0.55c-0.57,0.25-1.13,0.5-1.69,0.75l-0.88,0.4c-0.78,0.36-1.55,0.72-2.31,1.08
				l-0.1,0.05c-0.86,0.41-1.62,0.79-2.37,1.17l-0.7,0.36c-0.52,0.27-1.03,0.53-1.54,0.8l-0.77,0.41c-0.49,0.26-0.97,0.52-1.44,0.79
				l-1.04,0.58c-0.56,0.32-1.11,0.64-1.65,0.96l-0.42-0.51l0.33,0.56c-0.62,0.37-1.23,0.75-1.83,1.12l-0.49,0.31
				c-0.53,0.34-1,0.64-1.46,0.94l-0.73,0.48c-0.5,0.34-0.99,0.68-1.48,1.02l-0.31,0.22c-0.47,0.34-0.93,0.68-1.39,1.02l-0.42,0.32
				c-0.51,0.39-1.02,0.78-1.51,1.18l-0.53-0.41l0.42,0.5l-0.08,0.07c-0.46,0.38-0.92,0.76-1.36,1.14l-0.34,0.29
				c-0.47,0.41-0.93,0.82-1.38,1.24l-0.29,0.27c-0.21,0.19-0.41,0.39-0.61,0.58l-0.72,0.72c-0.41,0.42-0.81,0.83-1.19,1.25
				l-0.22,0.24c-0.34,0.38-0.67,0.75-0.99,1.13l-0.19,0.23l-0.61-0.29l0.5,0.41c-0.31,0.38-0.61,0.77-0.91,1.15l-0.21,0.28
				c-0.31,0.41-0.6,0.82-0.88,1.23l-0.61-0.27l0.54,0.37c-0.22,0.33-0.43,0.65-0.64,0.98l-0.38,0.63c-0.26,0.44-0.51,0.88-0.74,1.32
				l-0.63-0.19l0.58,0.3c-0.21,0.41-0.42,0.83-0.61,1.25l-0.24,0.53c-0.16,0.37-0.3,0.73-0.44,1.1l-0.08,0.22
				c-0.14,0.39-0.27,0.78-0.4,1.18l-0.09,0.3c-0.12,0.4-0.23,0.8-0.32,1.2l-0.66-0.01l0.64,0.15l-0.06,0.29
				c-0.08,0.37-0.15,0.74-0.21,1.12l-0.06,0.35c-0.07,0.46-0.12,0.91-0.15,1.37l-0.01,0.19c-0.02,0.28-0.04,0.55-0.04,0.83
				c0,0.19-0.01,0.39-0.01,0.58v110.29c0.05-0.14,0.1-0.28,0.15-0.42l0.08-0.24c0.17-0.47,0.37-0.93,0.57-1.4l0.1-0.23
				c0.24-0.52,0.45-0.96,0.67-1.39l0.06-0.12c0.24-0.46,0.5-0.92,0.77-1.38l0.19-0.32c0.28-0.46,0.56-0.91,0.87-1.36l0.07-0.1
				c0.29-0.43,0.6-0.85,0.91-1.27l0.22-0.29c0.34-0.44,0.68-0.88,1.04-1.32l0.2-0.24c0.33-0.39,0.67-0.78,1.02-1.17l0.22-0.25
				c0.4-0.43,0.8-0.86,1.22-1.29l0.23-0.23c0.43-0.43,0.83-0.82,1.24-1.2l0.19-0.18c0.46-0.43,0.93-0.85,1.41-1.27l0.35-0.3
				c0.45-0.39,0.91-0.78,1.39-1.16l0.15-0.12c0.52-0.42,1.05-0.83,1.59-1.24l0.43-0.32c0.46-0.34,0.93-0.69,1.41-1.03l0.32-0.23
				c0.57-0.4,1.15-0.8,1.74-1.2l0.49-0.33c0.46-0.31,0.94-0.61,1.42-0.92l0.56-0.35c0.61-0.38,1.23-0.76,1.86-1.13l0.09-0.05
				c0.65-0.39,1.33-0.77,2-1.16l0.72-0.4c0.48-0.27,0.96-0.53,1.46-0.8l0.78-0.42c0.51-0.27,1.03-0.54,1.56-0.81l0.7-0.36
				c0.76-0.38,1.53-0.76,2.31-1.14l0.1-0.05c0.85-0.41,1.63-0.77,2.42-1.13l0.88-0.4c0.6-0.27,1.15-0.52,1.71-0.76l1.05-0.45
				c0.54-0.23,1.07-0.46,1.62-0.69l1.16-0.47c0.5-0.21,1.01-0.41,1.52-0.61c0.93-0.37,1.87-0.74,2.83-1.1l0.46-0.18
				c1.11-0.42,2.24-0.83,3.38-1.24l1.02-0.36c0.82-0.29,1.65-0.58,2.48-0.86l1.27-0.42c0.79-0.26,1.59-0.52,2.39-0.78l1.26-0.4
				c1.06-0.33,2.14-0.66,3.22-0.99l0.62-0.19c1.29-0.38,2.6-0.76,3.92-1.13l1.12-0.31c0.98-0.27,1.96-0.54,2.96-0.8l1.35-0.35
				c1.01-0.26,2.03-0.52,3.06-0.78l1.13-0.28c1.39-0.34,2.8-0.68,4.22-1l0.76-0.17c1.18-0.27,2.37-0.53,3.57-0.8l1.42-0.3
				c1.04-0.22,2.08-0.44,3.13-0.65l1.41-0.29c1.32-0.26,2.66-0.52,4-0.77l1.42-0.26c0.94-0.17,1.89-0.34,2.84-0.51l1.38-0.24
				c0.78-0.13,1.56-0.27,2.34-0.4c0.81-0.13,1.62-0.26,2.44-0.4l1.82-0.29c1.28-0.2,2.56-0.39,3.85-0.58l0.46-0.07
				c1.45-0.21,2.91-0.41,4.38-0.61l1.36-0.18c1.02-0.13,2.04-0.27,3.07-0.4l1.73-0.21c0.92-0.11,1.84-0.22,2.76-0.33l1.87-0.21
				c0.89-0.1,1.79-0.19,2.68-0.29l1.93-0.2c0.89-0.09,1.78-0.18,2.68-0.26l1.96-0.18c0.91-0.08,1.82-0.16,2.73-0.24l3.95-0.32
				c0.79-0.06,1.58-0.12,2.37-0.18l6.31-0.41c0.8-0.05,1.61-0.09,2.42-0.14l3.75-0.19c1.91-0.09,3.83-0.17,5.76-0.24l0.56-0.02
				c2.07-0.07,4.15-0.13,6.25-0.18l1.69-0.04c1.26-0.03,2.53-0.05,3.8-0.06l1.68-0.02C1356.9,339.45,1358.71,339.44,1360.52,339.44z
				"/>
		</g>
		
		<linearGradient id="SVGID_4_" gradientUnits="userSpaceOnUse" x1="1738.7582" y1="369.1016" x2="1662.2468" y2="369.1016" gradientTransform="matrix(1 0 0 1 -196 0)">
			<stop  offset="0" style="stop-color:#74B5CF"/>
			<stop  offset="1" style="stop-color:#2185D9"/>
		</linearGradient>
		<path class="st15" d="M1542.71,286.01c-0.01,0.09-0.01,0.19-0.02,0.28c-0.03,0.46-0.08,0.93-0.15,1.39
			c-0.02,0.11-0.04,0.23-0.05,0.34c-0.06,0.37-0.12,0.73-0.2,1.09c-0.03,0.13-0.05,0.26-0.08,0.39c-0.1,0.45-0.21,0.91-0.34,1.36
			c-0.01,0.05-0.03,0.1-0.04,0.14c-0.12,0.41-0.26,0.83-0.4,1.24c-0.04,0.12-0.08,0.23-0.12,0.35c-0.17,0.45-0.34,0.91-0.54,1.36
			c-0.01,0.02-0.02,0.04-0.03,0.06c-0.19,0.44-0.4,0.87-0.61,1.31c-0.05,0.11-0.11,0.21-0.16,0.32c-0.23,0.45-0.47,0.89-0.72,1.33
			c-0.03,0.05-0.06,0.09-0.08,0.14c-0.24,0.41-0.49,0.82-0.76,1.23c-0.06,0.1-0.13,0.2-0.19,0.3c-0.29,0.44-0.59,0.87-0.91,1.31
			c-0.05,0.07-0.11,0.14-0.16,0.21c-0.29,0.39-0.58,0.77-0.89,1.16c-0.07,0.09-0.14,0.18-0.21,0.27c-0.35,0.43-0.71,0.86-1.09,1.28
			c-0.08,0.09-0.16,0.18-0.24,0.26c-0.34,0.38-0.69,0.76-1.06,1.14c-0.07,0.07-0.13,0.14-0.19,0.21c-0.41,0.42-0.83,0.84-1.27,1.26
			c-0.1,0.1-0.21,0.2-0.31,0.3c-0.4,0.38-0.82,0.77-1.25,1.15c-0.06,0.05-0.11,0.1-0.17,0.15c-0.47,0.42-0.96,0.83-1.46,1.25
			c-0.12,0.1-0.24,0.2-0.37,0.3c-0.46,0.38-0.93,0.76-1.42,1.13c-0.06,0.05-0.12,0.09-0.17,0.14c-0.53,0.41-1.08,0.82-1.64,1.23
			c-0.14,0.1-0.29,0.21-0.43,0.31c-0.49,0.35-0.99,0.7-1.5,1.05c-0.09,0.06-0.19,0.13-0.28,0.19c-0.6,0.4-1.21,0.81-1.83,1.21
			c-0.16,0.1-0.33,0.21-0.49,0.31c-0.49,0.31-0.99,0.62-1.5,0.93c-0.18,0.11-0.37,0.22-0.55,0.33c-0.66,0.4-1.33,0.79-2.01,1.18
			c-0.06,0.03-0.11,0.06-0.17,0.09c-0.65,0.37-1.31,0.73-1.98,1.1c-0.23,0.13-0.47,0.25-0.71,0.38c-0.51,0.27-1.03,0.55-1.56,0.82
			c-0.26,0.13-0.52,0.27-0.78,0.4c-0.56,0.28-1.12,0.56-1.7,0.84c-0.22,0.11-0.43,0.22-0.66,0.32c-0.59,0.29-1.2,0.57-1.8,0.85
			c-0.25,0.12-0.5,0.24-0.76,0.35c-0.86,0.4-1.74,0.79-2.63,1.18c-0.16,0.07-0.33,0.14-0.5,0.21c-0.73,0.32-1.47,0.63-2.22,0.95
			c-0.33,0.14-0.66,0.27-0.99,0.41c-0.61,0.25-1.22,0.5-1.84,0.75c-0.28,0.11-0.57,0.22-0.85,0.33c-0.64,0.25-1.29,0.5-1.94,0.75
			c-0.33,0.12-0.65,0.25-0.98,0.37c-0.66,0.25-1.33,0.49-2,0.73c-0.3,0.11-0.59,0.22-0.89,0.32c-0.97,0.35-1.94,0.69-2.93,1.03
			c-0.98,0.33-1.96,0.66-2.96,0.99c-0.29,0.1-0.59,0.19-0.89,0.29c-0.6,0.19-1.21,0.39-1.82,0.58c-0.81,0.26-1.63,0.51-2.46,0.76
			c-0.45,0.14-0.9,0.27-1.35,0.41c-0.95,0.28-1.92,0.56-2.88,0.84c-0.33,0.09-0.65,0.19-0.97,0.28c-1.3,0.37-2.6,0.72-3.92,1.08
			c-0.3,0.08-0.61,0.16-0.92,0.24c-1.02,0.27-2.05,0.54-3.09,0.8c-0.47,0.12-0.95,0.24-1.43,0.35c0,0,0,0,0,0v117.86
			c0,0,0.01,0,0.01,0c0.47-0.12,0.95-0.23,1.42-0.35c1.04-0.26,2.07-0.53,3.1-0.8c0.3-0.08,0.61-0.16,0.92-0.24
			c1.32-0.35,2.63-0.71,3.92-1.08c0.33-0.09,0.65-0.19,0.97-0.28c0.97-0.28,1.93-0.56,2.88-0.84c0.45-0.14,0.9-0.27,1.35-0.41
			c0.82-0.25,1.65-0.5,2.46-0.76c0.23-0.07,0.48-0.14,0.71-0.22c0.37-0.12,0.74-0.24,1.1-0.36c0.3-0.1,0.6-0.19,0.89-0.29
			c0.99-0.33,1.98-0.65,2.96-0.99c0.99-0.34,1.97-0.68,2.93-1.03c0.3-0.11,0.6-0.22,0.9-0.33c0.67-0.24,1.33-0.49,1.99-0.73
			c0.33-0.12,0.66-0.25,0.98-0.37c0.65-0.25,1.3-0.5,1.94-0.75c0.28-0.11,0.57-0.22,0.85-0.33c0.11-0.04,0.23-0.09,0.34-0.13
			c0.51-0.2,1-0.41,1.5-0.61c0.33-0.14,0.66-0.27,0.99-0.41c0.75-0.31,1.49-0.63,2.22-0.95c0.16-0.07,0.33-0.14,0.5-0.21
			c0.89-0.39,1.76-0.78,2.63-1.18c0.26-0.12,0.5-0.24,0.76-0.36c0.53-0.25,1.06-0.49,1.58-0.74c0.07-0.04,0.14-0.07,0.22-0.11
			c0.22-0.11,0.44-0.21,0.66-0.32c0.57-0.28,1.14-0.56,1.7-0.84c0.26-0.13,0.52-0.27,0.78-0.4c0.53-0.27,1.05-0.55,1.56-0.82
			c0.24-0.13,0.47-0.25,0.71-0.38c0.67-0.36,1.33-0.73,1.98-1.1c0.06-0.03,0.11-0.06,0.17-0.09c0.01,0,0.02-0.01,0.02-0.01
			c0.68-0.39,1.34-0.78,1.99-1.17c0.19-0.11,0.37-0.22,0.55-0.34c0.51-0.31,1.01-0.62,1.5-0.93c0.16-0.1,0.33-0.21,0.49-0.31
			c0.59-0.38,1.16-0.75,1.72-1.13c0.04-0.03,0.07-0.05,0.11-0.08c0.1-0.06,0.19-0.13,0.28-0.19c0.51-0.35,1.01-0.7,1.5-1.05
			c0.14-0.1,0.29-0.21,0.43-0.31c0.56-0.41,1.11-0.82,1.64-1.23c0.06-0.05,0.12-0.09,0.17-0.14c0.33-0.26,0.66-0.51,0.98-0.77
			c0.15-0.12,0.29-0.24,0.44-0.36c0.12-0.1,0.24-0.2,0.37-0.3c0.5-0.41,0.99-0.83,1.46-1.25c0.06-0.05,0.11-0.1,0.17-0.15
			c0.43-0.38,0.84-0.76,1.25-1.15c0.1-0.1,0.21-0.2,0.31-0.3c0.08-0.08,0.16-0.15,0.24-0.23c0.35-0.34,0.69-0.69,1.03-1.03
			c0.07-0.07,0.13-0.14,0.19-0.21c0.36-0.38,0.72-0.76,1.06-1.14c0.08-0.09,0.16-0.18,0.24-0.26c0.33-0.37,0.65-0.74,0.95-1.12
			c0.05-0.06,0.09-0.11,0.13-0.17c0.07-0.09,0.14-0.18,0.21-0.27c0.31-0.39,0.61-0.77,0.89-1.16c0.05-0.07,0.11-0.14,0.16-0.21
			c0.32-0.43,0.62-0.87,0.91-1.31c0.07-0.1,0.13-0.2,0.19-0.3c0.09-0.14,0.19-0.28,0.28-0.43c0.17-0.27,0.32-0.53,0.48-0.8
			c0.03-0.05,0.06-0.09,0.08-0.14c0.26-0.44,0.5-0.89,0.72-1.33c0.06-0.11,0.11-0.21,0.16-0.32c0.22-0.43,0.42-0.87,0.61-1.31
			c0.01-0.02,0.02-0.04,0.03-0.06c0-0.01,0.01-0.01,0.01-0.02c0.19-0.45,0.37-0.89,0.53-1.34c0.04-0.12,0.08-0.23,0.12-0.35
			c0.14-0.41,0.28-0.83,0.4-1.24c0.01-0.05,0.03-0.1,0.04-0.15c0.1-0.36,0.2-0.73,0.29-1.09c0.02-0.09,0.04-0.18,0.05-0.26
			c0.03-0.13,0.05-0.26,0.08-0.39c0.07-0.36,0.14-0.73,0.2-1.09c0.02-0.11,0.04-0.23,0.05-0.34c0.06-0.46,0.11-0.92,0.15-1.39
			c0.01-0.09,0.01-0.19,0.02-0.28c0.02-0.25,0.03-0.49,0.04-0.74c0.01-0.21,0.01-0.41,0.01-0.62V284.65
			C1542.76,285.1,1542.74,285.55,1542.71,286.01z"/>
		<g>
			<defs>
				<rect id="SVGID_5_" x="1195" y="268.64" width="97" height="73"/>
			</defs>
			<clipPath id="SVGID_6_">
				<use xlink:href="#SVGID_5_"  style="overflow:visible;"/>
			</clipPath>
			<g class="st16">
				<path class="st11" d="M1190.5,325.11l-0.99-0.95l21.8-22.59c7.42-7.83,20.01-9.6,29.29-4.13c3.92,2.31,8.48,3.32,13.19,2.91
					c7.05-0.61,15.56-4.62,21.19-9.98c6.42-6.11,24.28-31.87,24.46-32.13l1.13,0.78c-0.74,1.06-18.11,26.13-24.64,32.34
					c-5.83,5.56-14.68,9.72-22.02,10.35c-4.99,0.43-9.84-0.64-14.01-3.1c-8.74-5.15-20.61-3.48-27.61,3.9L1190.5,325.11z"/>
			</g>
			<g class="st16">
				<path class="st11" d="M1257.34,308.54c-3.09,0-6.14-0.6-8.95-1.84c-4.47-1.97-7.97-5.18-10.1-9.3
					c-4.45-8.56-15.39-12.64-25.44-9.48l-20.72,6.51l-0.41-1.31l20.72-6.51c10.68-3.36,22.32,1.01,27.07,10.16
					c1.99,3.83,5.25,6.83,9.44,8.67c6.99,3.08,15.67,1.97,22.09-2.81c0.8-0.59,1.61-1.32,2.58-2.3l20.9-21.18l0.98,0.96l-20.9,21.18
					c-1.01,1.03-1.88,1.8-2.73,2.43C1267.61,306.9,1262.43,308.54,1257.34,308.54z"/>
			</g>
		</g>
		<g id="monitor-circle">
			<g>
				<path class="st11" d="M1399.44,321.33c-1.07,0-2.16-0.06-3.25-0.18c-16.32-1.78-28.15-16.5-26.37-32.82s16.49-28.15,32.82-26.37
					c16.32,1.78,28.15,16.5,26.37,32.82C1427.35,310.01,1414.42,321.33,1399.44,321.33z M1399.4,263.09
					c-14.33,0-26.69,10.82-28.27,25.38c-1.7,15.6,9.61,29.68,25.21,31.38c15.59,1.69,29.68-9.61,31.38-25.21
					c1.7-15.6-9.61-29.68-25.21-31.38C1401.46,263.15,1400.42,263.09,1399.4,263.09z"/>
			</g>
			<g>
				<path class="st11" d="M1399.43,308.13c-0.6,0-1.2-0.03-1.81-0.1c-9.09-0.99-15.67-9.19-14.68-18.27l0,0
					c0.99-9.08,9.18-15.67,18.27-14.68c4.4,0.48,8.35,2.64,11.13,6.1c2.77,3.45,4.04,7.78,3.56,12.18
					C1414.97,301.83,1407.77,308.13,1399.43,308.13z M1384.24,289.9c-0.91,8.37,5.16,15.92,13.53,16.83
					c8.36,0.9,15.92-5.16,16.83-13.53c0.44-4.05-0.72-8.04-3.28-11.22s-6.19-5.17-10.25-5.62
					C1392.7,275.47,1385.15,281.53,1384.24,289.9L1384.24,289.9z"/>
			</g>
			<g>
				
					<rect x="1395.51" y="268.34" transform="matrix(0.1078 -0.9942 0.9942 0.1078 983.7355 1634.1584)" class="st11" width="13.65" height="1.3"/>
			</g>
			<g>
				
					<rect x="1421.38" y="287.65" transform="matrix(0.1083 -0.9941 0.9941 0.1083 975.6906 1675.8309)" class="st11" width="1.3" height="12.74"/>
			</g>
		</g>
		<g>
			<g>
				<g>
					<path class="st11" d="M1454.72,316.32c-1.63,0-3.26-0.21-4.87-0.64c-4.87-1.29-8.94-4.4-11.46-8.76l0,0
						c-5.21-8.99-2.14-20.55,6.85-25.76c4.35-2.53,9.43-3.21,14.3-1.91c4.87,1.29,8.94,4.4,11.46,8.76
						c2.53,4.35,3.21,9.43,1.91,14.3s-4.4,8.94-8.76,11.46C1461.23,315.46,1458,316.32,1454.72,316.32z M1439.51,306.27
						c2.35,4.05,6.14,6.95,10.67,8.15c4.53,1.2,9.26,0.57,13.31-1.78c4.05-2.35,6.95-6.14,8.15-10.67c1.2-4.53,0.57-9.26-1.78-13.31
						c-2.35-4.05-6.14-6.95-10.67-8.15c-4.53-1.2-9.26-0.57-13.31,1.78C1437.52,287.14,1434.66,297.9,1439.51,306.27L1439.51,306.27
						z"/>
				</g>
			</g>
			<g>
				<g>
					<path class="st11" d="M1454.71,308.07c-3.66,0-7.23-1.89-9.19-5.28c-2.93-5.06-1.21-11.56,3.85-14.49
						c2.45-1.42,5.31-1.8,8.04-1.08c2.74,0.73,5.03,2.48,6.45,4.93c2.93,5.06,1.21,11.56-3.85,14.49
						C1458.34,307.61,1456.51,308.07,1454.71,308.07z M1454.67,288.16c-1.62,0-3.21,0.43-4.65,1.26c-2.15,1.25-3.68,3.25-4.32,5.66
						c-0.64,2.4-0.3,4.91,0.94,7.05l0,0c2.57,4.43,8.27,5.95,12.71,3.38c2.15-1.25,3.68-3.25,4.32-5.66c0.64-2.4,0.3-4.91-0.94-7.05
						c-1.25-2.15-3.25-3.68-5.66-4.32C1456.28,288.27,1455.48,288.16,1454.67,288.16z"/>
				</g>
			</g>
			<g>
				
					<rect x="1447.15" y="280.76" transform="matrix(0.865 -0.5018 0.5018 0.865 52.4345 764.9409)" class="st11" width="1.3" height="8.53"/>
			</g>
			<g>
				
					<rect x="1463.01" y="289.68" transform="matrix(0.8652 -0.5014 0.5014 0.8652 52.182 774.7597)" class="st11" width="7.96" height="1.3"/>
			</g>
		</g>
		<g id="monitor-4">
			<g>
				<path class="st11" d="M1296.4,261.44v-88.12l0.5-0.12c0.66-0.16,1.32-0.32,1.98-0.48l1.13-0.27c0.67-0.15,1.33-0.31,2.01-0.46
					l1.1-0.25c0.76-0.17,1.52-0.33,2.29-0.49l0.84-0.18c1.05-0.22,2.1-0.43,3.17-0.63l0.35-0.07c1.29-0.25,2.59-0.49,3.89-0.72
					l0.84-0.15c1.37-0.24,2.74-0.47,4.13-0.69l7.43-1.1l11.06-1.31l7.52-0.68c1.8-0.15,3.62-0.28,5.44-0.4l0.77-0.05
					c1.85-0.12,3.71-0.23,5.58-0.32l0.8-0.04c1.37-0.06,2.74-0.12,4.12-0.17l0.78-0.03c1.52-0.05,3.06-0.1,4.59-0.13l1.17-0.02
					c0.97-0.02,1.93-0.04,2.9-0.05l1.2-0.02c1.33-0.01,2.67-0.02,4.01-0.02l1.57,0.01c1.06,0,2.11,0.01,3.16,0.02l1.21,0.01
					c1.27,0.02,2.54,0.04,3.8,0.07l0.26,0c1.37,0.03,2.69,0.08,4.01,0.12l1.15,0.04c0.96,0.04,1.93,0.08,2.89,0.12l1.24,0.06
					c1.03,0.05,2.06,0.1,3.08,0.16l0.79,0.04c1.28,0.08,2.55,0.16,3.81,0.24l0.99,0.07c0.94,0.07,1.88,0.14,2.81,0.21l1.25,0.1
					c0.89,0.07,1.78,0.15,2.66,0.23l1.12,0.1c1.24,0.12,2.47,0.23,3.69,0.36l0.22,0.02c1.15,0.12,2.3,0.25,3.44,0.38l1.12,0.13
					c0.89,0.1,1.77,0.21,2.65,0.32l1.16,0.15c1,0.13,2,0.26,2.99,0.4l0.63,0.09c1.23,0.17,2.45,0.35,3.66,0.54l0.97,0.15
					c0.92,0.14,1.83,0.29,2.74,0.44l1.05,0.18c1.25,0.21,2.49,0.43,3.72,0.65l0.23,0.04c1.16,0.21,2.31,0.44,3.45,0.66l0.95,0.19
					c1.31,0.26,2.62,0.53,3.91,0.81c1.35,0.29,2.6,0.58,3.84,0.87l1.98,0.47v88.12l-2.27-0.54c-1.23-0.29-2.48-0.57-3.73-0.85
					c-1.37-0.3-2.67-0.56-3.97-0.83l-0.95-0.19c-1.13-0.22-2.27-0.44-3.42-0.65l-0.2-0.04c-1.26-0.23-2.5-0.45-3.74-0.66l-1.01-0.17
					c-0.94-0.16-1.85-0.3-2.77-0.45l-0.97-0.15c-1.21-0.18-2.42-0.36-3.64-0.54l-0.64-0.09c-0.99-0.14-1.98-0.27-2.97-0.4
					l-1.16-0.15c-0.88-0.11-1.76-0.22-2.64-0.32l-1.11-0.13c-1.14-0.13-2.28-0.26-3.43-0.38l-0.13-0.01
					c-1.3-0.14-2.53-0.25-3.76-0.37l-1.12-0.1c-0.88-0.08-1.77-0.16-2.65-0.23l-1.25-0.1c-0.93-0.07-1.86-0.14-2.79-0.21l-1-0.07
					c-1.26-0.09-2.53-0.17-3.8-0.24l-0.79-0.04c-1.02-0.06-2.04-0.11-3.07-0.16l-1.24-0.06c-0.95-0.04-1.91-0.08-2.87-0.12
					l-1.15-0.04c-1.31-0.05-2.63-0.09-3.95-0.12l-0.31-0.01c-1.25-0.03-2.52-0.05-3.78-0.07l-1.21-0.01
					c-1.05-0.01-2.1-0.02-3.15-0.02l-1.57-0.01c-1.34,0-2.67,0.01-4,0.02l-1.19,0.02c-0.97,0.01-1.94,0.03-2.9,0.05l-1.18,0.02
					c-1.53,0.04-3.05,0.08-4.57,0.13l-0.79,0.03c-1.37,0.05-2.74,0.11-4.1,0.17l-0.8,0.04c-1.86,0.09-3.72,0.2-5.56,0.32l-0.77,0.05
					c-1.82,0.12-3.62,0.25-5.42,0.4l-13.79,1.38l-12.12,1.7c-1.38,0.22-2.75,0.45-4.11,0.69l-0.83,0.15
					c-1.3,0.23-2.6,0.47-3.88,0.71l-0.35,0.07c-1.06,0.21-2.11,0.42-3.15,0.63l-0.84,0.18c-0.76,0.16-1.52,0.32-2.27,0.49
					l-1.02,0.23c-0.75,0.17-1.42,0.32-2.08,0.47l-1.13,0.27c-0.66,0.16-1.32,0.32-1.97,0.48L1296.4,261.44z M1297.7,174.34v85.44
					c0.39-0.09,0.78-0.19,1.17-0.28h0l1.14-0.27c0.66-0.15,1.33-0.31,2-0.46l1.11-0.25c0.76-0.17,1.52-0.33,2.29-0.49l0.84-0.18
					c1.05-0.22,2.1-0.43,3.17-0.63l0.36-0.07c1.29-0.25,2.58-0.49,3.89-0.72l0.84-0.15c1.37-0.24,2.74-0.47,4.13-0.69l1.34-0.21
					c0.52-0.08,1.04-0.16,1.56-0.24l13.96-1.78l9.11-0.85c1.84-0.15,3.65-0.28,5.47-0.4l0.77-0.05c1.85-0.12,3.71-0.23,5.58-0.32
					l0.79-0.04c1.38-0.07,2.75-0.12,4.12-0.17l0.79-0.03c1.52-0.05,3.05-0.09,4.58-0.13l1.18-0.02c0.96-0.02,1.93-0.04,2.9-0.05
					l1.2-0.02c1.33-0.01,2.67-0.02,4.01-0.02l1.57,0.01c1.05,0,2.11,0.01,3.16,0.02l1.22,0.01c1.27,0.02,2.53,0.04,3.79,0.07
					l0.31,0.01c1.32,0.03,2.64,0.07,3.95,0.12l1.15,0.04c0.96,0.04,1.93,0.08,2.89,0.12l1.24,0.06c1.03,0.05,2.06,0.1,3.08,0.16
					l0.79,0.04c1.28,0.08,2.55,0.16,3.81,0.24l1,0.07c0.93,0.07,1.87,0.14,2.8,0.21l1.25,0.1c0.89,0.07,1.78,0.15,2.66,0.23
					l1.12,0.1c1.23,0.11,2.47,0.23,3.69,0.36l0.22,0.02c1.15,0.12,2.3,0.25,3.44,0.38l1.06,0.13c0.94,0.11,1.82,0.22,2.7,0.33
					l1.16,0.15c1,0.13,2,0.26,2.99,0.4l0.64,0.09c1.23,0.17,2.44,0.35,3.65,0.54l0.97,0.15c0.92,0.14,1.83,0.29,2.74,0.44l1.05,0.18
					c1.25,0.21,2.49,0.43,3.72,0.65l0.24,0.05c1.16,0.21,2.3,0.43,3.44,0.66l0.96,0.19c1.31,0.26,2.61,0.53,3.9,0.81
					c1.35,0.29,2.6,0.58,3.84,0.87l0.67,0.16V174l-0.97-0.23c-1.24-0.29-2.48-0.57-3.74-0.85c-1.36-0.3-2.66-0.56-3.97-0.83
					l-0.94-0.19c-1.14-0.22-2.28-0.45-3.43-0.66l-0.23-0.04c-1.23-0.23-2.47-0.44-3.71-0.65l-1.05-0.18
					c-0.9-0.15-1.81-0.29-2.73-0.44l-0.97-0.15c-1.21-0.18-2.42-0.36-3.64-0.54l-0.64-0.09c-0.99-0.14-1.98-0.27-2.98-0.4
					l-1.16-0.15c-0.88-0.11-1.76-0.22-2.64-0.32l-1.11-0.13c-1.14-0.13-2.28-0.26-3.43-0.38l-0.13-0.01
					c-1.3-0.14-2.53-0.25-3.76-0.37l-1.12-0.1c-0.88-0.08-1.77-0.16-2.65-0.23l-1.25-0.1c-0.93-0.07-1.86-0.14-2.8-0.21l-0.97-0.07
					c-1.28-0.09-2.55-0.17-3.82-0.24l-0.79-0.04c-1.02-0.06-2.04-0.11-3.07-0.16l-1.24-0.06c-0.96-0.04-1.91-0.08-2.88-0.12
					l-1.15-0.04c-1.31-0.04-2.62-0.09-3.94-0.12l-0.31-0.01c-1.26-0.03-2.52-0.05-3.79-0.07l-1.2-0.01
					c-1.05-0.01-2.1-0.02-3.15-0.02l-1.57-0.01c-1.34,0-2.67,0.01-4,0.02l-1.19,0.02c-0.98,0.01-1.94,0.03-2.9,0.05l-1.17,0.02
					c-1.53,0.04-3.06,0.08-4.58,0.13l-0.78,0.03c-1.37,0.05-2.74,0.11-4.1,0.17l-0.8,0.04c-1.86,0.09-3.72,0.2-5.56,0.32l-0.77,0.05
					c-1.82,0.12-3.62,0.25-5.42,0.4l-7.49,0.68l-12.48,1.51l-5.94,0.89c-1.38,0.22-2.75,0.45-4.11,0.69l-0.83,0.15
					c-1.3,0.23-2.6,0.47-3.88,0.71l-0.26,0.05c-1.15,0.22-2.2,0.43-3.24,0.65l-0.84,0.18c-0.76,0.16-1.52,0.32-2.28,0.49l-1.1,0.25
					c-0.67,0.15-1.33,0.3-1.99,0.45l-1.13,0.27C1298.68,174.1,1298.19,174.22,1297.7,174.34z"/>
			</g>
			<g>
				<g>
					<rect x="1390.38" y="182.77" class="st11" width="1.3" height="54.48"/>
				</g>
				<g>
					<path class="st11" d="M1391.03,199.66c-3.25,0-5.89-2.64-5.89-5.89s2.64-5.89,5.89-5.89c3.25,0,5.89,2.64,5.89,5.89
						S1394.28,199.66,1391.03,199.66z M1391.03,189.19c-2.53,0-4.59,2.06-4.59,4.59s2.06,4.59,4.59,4.59s4.59-2.06,4.59-4.59
						S1393.56,189.19,1391.03,189.19z"/>
				</g>
				<g>
					<g>
						<rect x="1421.81" y="182.77" class="st11" width="1.3" height="54.48"/>
					</g>
					<g>
						<path class="st11" d="M1422.46,210.14c-3.25,0-5.89-2.64-5.89-5.89c0-3.25,2.64-5.89,5.89-5.89c3.25,0,5.89,2.64,5.89,5.89
							C1428.35,207.5,1425.71,210.14,1422.46,210.14z M1422.46,199.66c-2.53,0-4.59,2.06-4.59,4.59c0,2.53,2.06,4.59,4.59,4.59
							s4.59-2.06,4.59-4.59C1427.05,201.72,1424.99,199.66,1422.46,199.66z"/>
					</g>
				</g>
				<g>
					<rect x="1358.95" y="182.77" class="st11" width="1.3" height="54.48"/>
				</g>
				<g>
					<path class="st11" d="M1359.6,231.09c-3.25,0-5.89-2.64-5.89-5.89s2.64-5.89,5.89-5.89c3.25,0,5.89,2.64,5.89,5.89
						S1362.85,231.09,1359.6,231.09z M1359.6,220.62c-2.53,0-4.59,2.06-4.59,4.59s2.06,4.59,4.59,4.59s4.59-2.06,4.59-4.59
						S1362.13,220.62,1359.6,220.62z"/>
				</g>
				<g>
					<rect x="1327.52" y="182.77" class="st11" width="1.3" height="54.48"/>
				</g>
				<g>
					<path class="st11" d="M1328.17,218.52c-3.25,0-5.89-2.64-5.89-5.89c0-3.25,2.64-5.89,5.89-5.89c3.25,0,5.89,2.64,5.89,5.89
						C1334.06,215.88,1331.42,218.52,1328.17,218.52z M1328.17,208.04c-2.53,0-4.59,2.06-4.59,4.59c0,2.53,2.06,4.59,4.59,4.59
						s4.59-2.06,4.59-4.59C1332.75,210.1,1330.7,208.04,1328.17,208.04z"/>
				</g>
			</g>
		</g>
		<g>
			<path class="st11" d="M1465.88,454.39l-0.01-0.83V335.21l1.92-0.5c1.04-0.26,2.06-0.53,3.08-0.8l0.92-0.24
				c1.32-0.35,2.62-0.71,3.91-1.07l0.97-0.28c0.96-0.28,1.92-0.55,2.88-0.84l1.35-0.41c0.82-0.25,1.64-0.5,2.45-0.76
				c0.61-0.19,1.21-0.38,1.81-0.58l0.88-0.29c0.99-0.33,1.98-0.65,2.95-0.99c0.99-0.34,1.96-0.68,2.93-1.03l0.89-0.32
				c0.67-0.24,1.33-0.49,1.99-0.73l0.98-0.37c0.65-0.25,1.29-0.5,1.93-0.75l0.85-0.33c0.62-0.25,1.23-0.5,1.83-0.75l0.99-0.4
				c0.75-0.31,1.48-0.63,2.21-0.95l0.5-0.21c0.89-0.39,1.76-0.78,2.61-1.17l0.75-0.35c0.6-0.28,1.21-0.56,1.8-0.85l0.65-0.32
				c0.57-0.28,1.13-0.56,1.69-0.84l0.78-0.4c0.52-0.27,1.04-0.54,1.55-0.81l0.7-0.38c0.67-0.36,1.33-0.73,1.97-1.09l0.17-0.09
				c0.68-0.39,1.35-0.78,2-1.17l0.55-0.33c0.51-0.31,1-0.62,1.49-0.93l0.48-0.31c0.62-0.4,1.23-0.8,1.82-1.2l0.28-0.19
				c0.51-0.35,1-0.69,1.49-1.04l0.43-0.31c0.56-0.4,1.1-0.81,1.63-1.22l0.17-0.13c0.48-0.37,0.95-0.75,1.41-1.12l0.36-0.3
				c0.49-0.41,0.98-0.82,1.44-1.23l0.17-0.15c0.42-0.37,0.83-0.75,1.23-1.13l0.31-0.29c0.43-0.42,0.85-0.83,1.25-1.25l0.19-0.2
				c0.36-0.37,0.71-0.75,1.04-1.13l0.23-0.26c0.37-0.42,0.73-0.84,1.07-1.26l0.15-0.19c0.36-0.45,0.65-0.83,0.93-1.21l0.16-0.21
				c0.31-0.42,0.6-0.85,0.89-1.28l0.14-0.21c0.31-0.48,0.56-0.88,0.79-1.28l0.08-0.13c0.25-0.43,0.48-0.87,0.71-1.31l0.16-0.31
				c0.21-0.43,0.41-0.85,0.6-1.28c0.21-0.5,0.39-0.94,0.55-1.38l0.12-0.34c0.14-0.4,0.27-0.8,0.39-1.21l0.04-0.14
				c0.13-0.44,0.23-0.88,0.33-1.32l0.08-0.38c0.07-0.35,0.13-0.71,0.19-1.06l0.05-0.33c0.06-0.45,0.11-0.9,0.14-1.35l0.01-0.28
				c0.03-0.44,0.05-0.88,0.05-1.32h1.3v117.86c0,0.21,0,0.43-0.01,0.64c-0.01,0.21-0.02,0.41-0.03,0.62l-0.02,0.43
				c-0.04,0.48-0.09,0.95-0.15,1.43l-0.05,0.35c-0.06,0.38-0.13,0.75-0.2,1.13l-0.14,0.67c-0.09,0.38-0.19,0.75-0.29,1.12l-0.03,0.1
				c-0.14,0.48-0.28,0.9-0.43,1.33l-0.13,0.36c-0.17,0.46-0.35,0.92-0.54,1.38c-0.23,0.52-0.44,0.97-0.66,1.41l-0.17,0.33
				c-0.23,0.46-0.48,0.91-0.74,1.36l-0.08,0.14c-0.16,0.27-0.32,0.54-0.49,0.82l-0.48,0.74c-0.29,0.44-0.6,0.89-0.92,1.33
				l-0.16,0.22c-0.29,0.39-0.59,0.79-0.91,1.18l-0.35,0.44c-0.31,0.38-0.63,0.75-0.97,1.13l-0.24,0.27
				c-0.35,0.39-0.7,0.77-1.07,1.16l-0.2,0.21c-0.33,0.35-0.68,0.69-1.04,1.04l-0.56,0.53c-0.41,0.39-0.83,0.77-1.26,1.16l-0.17,0.15
				c-0.48,0.42-0.97,0.84-1.47,1.26l-0.82,0.67c-0.32,0.26-0.65,0.52-0.99,0.77l-0.17,0.14c-0.54,0.42-1.09,0.83-1.66,1.24
				l-0.43,0.31c-0.5,0.36-1,0.71-1.51,1.06l-0.39,0.27c-0.57,0.38-1.15,0.76-1.74,1.14l-0.49,0.31c-0.5,0.31-1,0.63-1.51,0.94
				l-0.56,0.34c-0.65,0.39-1.32,0.79-2,1.17l-0.12,0.07c-0.72,0.41-1.39,0.78-2.06,1.14l-0.71,0.38c-0.52,0.28-1.04,0.55-1.57,0.82
				l-0.79,0.4c-0.56,0.29-1.13,0.57-1.71,0.85l-0.79,0.39c-0.53,0.26-0.99,0.47-1.45,0.69l-0.98,0.46c-0.87,0.4-1.74,0.79-2.64,1.18
				l-0.5,0.21c-0.73,0.32-1.48,0.64-2.23,0.95l-1.41,0.58c-0.36,0.15-0.72,0.3-1.09,0.45l-1.2,0.47c-0.64,0.25-1.29,0.5-1.94,0.75
				l-0.99,0.37c-0.66,0.25-1.33,0.49-2,0.73l-0.9,0.33c-0.97,0.35-1.95,0.69-2.94,1.03c-0.98,0.33-1.97,0.66-2.96,0.99l-2.71,0.87
				c-0.81,0.26-1.64,0.51-2.46,0.76l-1.35,0.41c-0.96,0.29-1.92,0.56-2.89,0.84l-0.97,0.28c-1.3,0.37-2.61,0.73-3.93,1.08
				l-0.92,0.24c-1.03,0.27-2.06,0.54-3.1,0.8L1465.88,454.39z M1467.18,336.2v116.52l0.61-0.15c1.04-0.26,2.07-0.53,3.09-0.8
				l0.91-0.24c1.32-0.35,2.62-0.71,3.92-1.07l0.97-0.28c0.96-0.28,1.92-0.55,2.88-0.84l1.35-0.41c0.82-0.25,1.64-0.5,2.45-0.76
				l2.7-0.86c0.99-0.32,1.98-0.65,2.95-0.98c0.99-0.34,1.96-0.68,2.92-1.03l0.85-0.31c0.71-0.26,1.37-0.5,2.03-0.75l0.98-0.37
				c0.65-0.25,1.29-0.5,1.93-0.75l1.19-0.46c0.37-0.15,0.72-0.29,1.08-0.44l1.4-0.57c0.75-0.31,1.48-0.63,2.21-0.95l0.5-0.21
				c0.89-0.39,1.76-0.78,2.61-1.17l0.98-0.46c0.45-0.21,0.91-0.42,1.35-0.64l0.87-0.43c0.57-0.28,1.13-0.56,1.69-0.84l0.78-0.4
				c0.52-0.27,1.04-0.54,1.55-0.81l0.7-0.38c0.67-0.36,1.33-0.73,1.97-1.09l0.15-0.08c0.72-0.41,1.38-0.8,2.02-1.19l0.55-0.33
				c0.5-0.31,1-0.61,1.49-0.92l0.48-0.31c0.58-0.37,1.16-0.75,1.71-1.13l0.39-0.27c0.51-0.35,1-0.69,1.49-1.04l0.43-0.31
				c0.56-0.4,1.1-0.81,1.63-1.22l0.17-0.13c0.33-0.25,0.65-0.51,0.97-0.76l0.8-0.66c0.49-0.41,0.98-0.82,1.44-1.23l0.17-0.15
				c0.42-0.37,0.83-0.75,1.23-1.13l0.55-0.52c0.35-0.34,0.68-0.68,1.01-1.02l0.19-0.2c0.36-0.37,0.71-0.75,1.04-1.13l0.23-0.26
				c0.32-0.37,0.64-0.73,0.94-1.1l0.34-0.43c0.3-0.38,0.59-0.76,0.88-1.14l0.16-0.21c0.31-0.42,0.6-0.85,0.89-1.28l0.46-0.71
				c0.16-0.26,0.32-0.52,0.47-0.78l0.08-0.13c0.25-0.43,0.48-0.87,0.71-1.31l0.13-0.25c0.24-0.49,0.44-0.91,0.63-1.34l0.05-0.11
				c0.17-0.4,0.34-0.84,0.5-1.28l0.12-0.34c0.14-0.4,0.27-0.8,0.39-1.21l0.04-0.14c0.1-0.35,0.19-0.71,0.28-1.06l0.13-0.64
				c0.07-0.35,0.13-0.71,0.19-1.06l0.05-0.33c0.06-0.45,0.11-0.9,0.14-1.35l0.02-0.42c0.01-0.19,0.02-0.38,0.03-0.57
				c0.01-0.2,0.01-0.4,0.01-0.6V292.29c-0.02,0.06-0.04,0.11-0.06,0.17l-0.13,0.36c-0.17,0.47-0.35,0.93-0.55,1.4
				c-0.22,0.5-0.43,0.95-0.65,1.39l-0.17,0.33c-0.23,0.46-0.48,0.91-0.74,1.36l-0.05,0.09c-0.28,0.47-0.53,0.89-0.8,1.3l-0.2,0.31
				c-0.29,0.44-0.6,0.89-0.92,1.33l-0.16,0.22c-0.29,0.39-0.59,0.79-0.91,1.18l-0.21,0.27c-0.36,0.44-0.72,0.87-1.1,1.3l-0.24,0.27
				c-0.35,0.39-0.7,0.78-1.07,1.16l-0.2,0.21c-0.41,0.43-0.84,0.85-1.28,1.28l-0.32,0.3c-0.41,0.39-0.83,0.77-1.26,1.16l-0.17,0.15
				c-0.48,0.42-0.97,0.84-1.47,1.26l-0.37,0.3c-0.47,0.38-0.94,0.76-1.43,1.14l-0.17,0.14c-0.54,0.42-1.09,0.83-1.66,1.24
				l-0.44,0.31c-0.49,0.35-1,0.71-1.51,1.06l-0.28,0.2c-0.6,0.41-1.22,0.81-1.85,1.22l-0.49,0.31c-0.5,0.31-1,0.63-1.51,0.94
				l-0.55,0.34c-0.66,0.4-1.34,0.79-2.03,1.19l-0.1,0.06c-0.72,0.41-1.39,0.78-2.06,1.14l-0.71,0.38c-0.52,0.28-1.04,0.55-1.57,0.82
				l-0.79,0.4c-0.56,0.29-1.13,0.57-1.71,0.85l-0.66,0.32c-0.6,0.29-1.2,0.57-1.81,0.86l-0.76,0.36c-0.87,0.4-1.74,0.79-2.64,1.18
				l-0.5,0.21c-0.74,0.32-1.48,0.64-2.23,0.95l-0.99,0.41c-0.61,0.25-1.22,0.5-1.85,0.75l-0.85,0.34c-0.64,0.25-1.29,0.5-1.94,0.75
				l-0.98,0.37c-0.66,0.25-1.33,0.49-2,0.74l-0.9,0.33c-0.97,0.35-1.95,0.69-2.94,1.03c-0.98,0.33-1.97,0.66-2.97,0.99l-0.89,0.29
				c-0.6,0.2-1.21,0.39-1.82,0.58c-0.81,0.26-1.64,0.51-2.46,0.76l-1.35,0.41c-0.96,0.28-1.92,0.56-2.89,0.84l-0.97,0.28
				c-1.3,0.37-2.61,0.73-3.93,1.08l-0.92,0.24c-1.03,0.27-2.06,0.54-3.1,0.8L1467.18,336.2z"/>
		</g>
		<g>
			<defs>
				<rect id="SVGID_7_" x="1496" y="326.4" width="38" height="57.47"/>
			</defs>
			<clipPath id="SVGID_8_">
				<use xlink:href="#SVGID_7_"  style="overflow:visible;"/>
			</clipPath>
			<g class="st17">
				<path class="st11" d="M1495.45,352.45l-0.45-1.23c0.67-0.24,1.33-0.49,1.99-0.73l0.98-0.37c0.65-0.25,1.29-0.5,1.93-0.75
					l0.85-0.33c0.62-0.25,1.23-0.5,1.83-0.75l0.98-0.4c0.75-0.31,1.48-0.63,2.21-0.95l0.5-0.21c0.89-0.39,1.76-0.78,2.61-1.17
					l0.75-0.35c0.6-0.28,1.21-0.56,1.8-0.85l0.65-0.32c0.57-0.28,1.13-0.56,1.69-0.84l0.78-0.4c0.52-0.27,1.04-0.54,1.55-0.81
					l0.7-0.38c0.67-0.36,1.33-0.73,1.97-1.09l0.17-0.09c0.68-0.39,1.35-0.78,2-1.17l0.55-0.33c0.51-0.31,1-0.62,1.49-0.93l0.48-0.31
					c0.62-0.4,1.23-0.8,1.82-1.2l0.28-0.19c0.51-0.35,1-0.69,1.49-1.04l0.43-0.31c0.56-0.4,1.1-0.81,1.63-1.22l0.17-0.13
					c0.48-0.37,0.95-0.75,1.41-1.12l0.36-0.3c0.49-0.41,0.98-0.82,1.44-1.23l0.17-0.15c0.42-0.37,0.83-0.75,1.23-1.13l0.31-0.29
					l0.91,0.94l-0.32,0.3c-0.41,0.39-0.83,0.77-1.26,1.16l-0.17,0.15c-0.48,0.42-0.97,0.84-1.47,1.26l-0.37,0.3
					c-0.47,0.38-0.95,0.76-1.43,1.14l-0.17,0.14c-0.54,0.42-1.09,0.83-1.66,1.24l-0.43,0.31c-0.5,0.36-1,0.71-1.52,1.06l-0.28,0.2
					c-0.6,0.41-1.22,0.81-1.85,1.22l-0.49,0.31c-0.5,0.32-1,0.63-1.51,0.94l-0.55,0.34c-0.66,0.4-1.34,0.79-2.03,1.19l-0.1,0.06
					c-0.72,0.41-1.39,0.78-2.06,1.14l-0.71,0.38c-0.52,0.28-1.04,0.55-1.57,0.82l-0.79,0.4c-0.56,0.29-1.13,0.57-1.71,0.85
					l-0.66,0.32c-0.6,0.29-1.2,0.57-1.81,0.86l-0.76,0.36c-0.87,0.4-1.74,0.79-2.64,1.18l-0.5,0.21c-0.73,0.32-1.48,0.64-2.23,0.95
					l-0.99,0.41c-0.61,0.25-1.22,0.5-1.85,0.75l-0.85,0.33c-0.64,0.25-1.29,0.5-1.94,0.75l-0.98,0.37
					C1496.79,351.96,1496.12,352.2,1495.45,352.45z"/>
			</g>
			<g class="st17">
				<path class="st11" d="M1495.45,367.11l-0.45-1.23c0.67-0.24,1.33-0.49,1.99-0.73l0.98-0.37c0.65-0.25,1.29-0.5,1.93-0.75
					l0.85-0.33c0.62-0.25,1.23-0.5,1.83-0.75l0.98-0.4c0.75-0.31,1.48-0.63,2.21-0.94l0.5-0.21c0.89-0.39,1.76-0.78,2.61-1.17
					l0.75-0.35c0.6-0.28,1.21-0.56,1.8-0.85l0.65-0.32c0.57-0.28,1.13-0.56,1.69-0.84l0.78-0.4c0.52-0.27,1.04-0.54,1.55-0.81
					l0.7-0.38c0.67-0.36,1.33-0.73,1.97-1.09l0.17-0.09c0.68-0.39,1.35-0.78,2-1.17l0.55-0.33c0.51-0.31,1-0.62,1.49-0.93l0.48-0.31
					c0.62-0.4,1.23-0.8,1.82-1.2l0.28-0.19c0.51-0.35,1-0.69,1.49-1.04l0.43-0.31c0.56-0.4,1.1-0.81,1.63-1.22l0.17-0.13
					c0.48-0.37,0.95-0.75,1.41-1.12l0.36-0.3c0.49-0.41,0.98-0.82,1.44-1.23l0.17-0.15c0.42-0.37,0.83-0.75,1.23-1.13l0.31-0.29
					l0.91,0.94l-0.32,0.3c-0.41,0.39-0.83,0.77-1.26,1.16l-0.17,0.15c-0.48,0.42-0.97,0.84-1.47,1.26l-0.37,0.3
					c-0.47,0.38-0.94,0.76-1.43,1.14l-0.17,0.14c-0.54,0.42-1.09,0.83-1.66,1.24l-0.44,0.31c-0.49,0.35-1,0.71-1.51,1.06l-0.28,0.2
					c-0.6,0.41-1.22,0.81-1.85,1.22l-0.49,0.31c-0.5,0.31-1,0.63-1.51,0.94l-0.55,0.34c-0.66,0.4-1.34,0.79-2.03,1.19l-0.1,0.06
					c-0.72,0.41-1.39,0.78-2.06,1.14l-0.71,0.38c-0.52,0.28-1.04,0.55-1.57,0.82l-0.79,0.4c-0.56,0.29-1.13,0.57-1.71,0.85
					l-0.66,0.32c-0.6,0.29-1.2,0.57-1.81,0.86l-0.76,0.36c-0.87,0.4-1.74,0.79-2.64,1.18l-0.5,0.21c-0.74,0.32-1.48,0.64-2.23,0.95
					l-0.99,0.41c-0.61,0.25-1.22,0.5-1.85,0.75l-0.85,0.34c-0.64,0.25-1.29,0.5-1.94,0.75l-0.98,0.37
					C1496.79,366.62,1496.12,366.87,1495.45,367.11z"/>
			</g>
			<g class="st17">
				<path class="st11" d="M1495.45,383.35l-0.44-1.23c0.67-0.24,1.33-0.49,1.99-0.73l0.98-0.37c0.65-0.25,1.29-0.5,1.93-0.75
					l0.85-0.33c0.62-0.25,1.23-0.5,1.83-0.75l0.99-0.4c0.75-0.31,1.48-0.63,2.21-0.95l0.49-0.21c0.89-0.39,1.76-0.78,2.62-1.17
					l0.75-0.35c0.6-0.28,1.21-0.56,1.8-0.85l0.65-0.32c0.57-0.28,1.13-0.56,1.69-0.84l0.78-0.4c0.53-0.27,1.04-0.54,1.55-0.82
					l0.7-0.38c0.67-0.36,1.33-0.73,1.97-1.09l0.16-0.09c0.69-0.39,1.35-0.78,2.01-1.18l0.55-0.33c0.5-0.31,1-0.61,1.49-0.92
					l0.48-0.31c0.62-0.4,1.23-0.8,1.82-1.2l0.28-0.19c0.51-0.35,1-0.69,1.49-1.04l0.43-0.31c0.56-0.4,1.1-0.81,1.63-1.22l0.11-0.08
					c0.55-0.42,1.01-0.8,1.47-1.17l0.36-0.3c0.49-0.41,0.97-0.82,1.44-1.23l0.17-0.15c0.42-0.38,0.83-0.75,1.23-1.13l0.31-0.29
					l0.9,0.94l-0.31,0.3c-0.41,0.39-0.83,0.77-1.26,1.16l-0.17,0.15c-0.48,0.42-0.97,0.84-1.47,1.26l-0.37,0.3
					c-0.47,0.38-0.94,0.76-1.43,1.14l-0.18,0.14c-0.53,0.41-1.09,0.82-1.65,1.23l-0.36,0.26c-0.57,0.41-1.07,0.76-1.59,1.11
					l-0.28,0.2c-0.6,0.41-1.22,0.81-1.85,1.22l-0.49,0.31c-0.49,0.31-1,0.63-1.51,0.94l-0.55,0.34c-0.66,0.4-1.34,0.79-2.03,1.19
					l-0.12,0.07c-0.7,0.4-1.37,0.77-2.04,1.13l-0.69,0.37c-0.53,0.28-1.05,0.56-1.58,0.83l-0.79,0.4c-0.56,0.28-1.13,0.57-1.7,0.85
					l-0.66,0.32c-0.59,0.29-1.2,0.57-1.81,0.86l-0.76,0.36c-0.86,0.4-1.74,0.79-2.64,1.18l-0.5,0.21c-0.73,0.32-1.48,0.64-2.23,0.95
					l-0.99,0.41c-0.61,0.25-1.22,0.5-1.85,0.75l-0.85,0.33c-0.64,0.25-1.29,0.5-1.94,0.75l-0.98,0.37
					C1496.79,382.86,1496.12,383.11,1495.45,383.35z"/>
			</g>
		</g>
	</g>
	<g id="персонаж_2">
		<g id="ботинок_3_">
			<g>
				<path class="st8" d="M991.21,405.75l-17.92-42.33l-89.53,49.89c0,0-2.87,15.65,30.62,10.96c8.94-1.25,31.74-7.42,37.11-1.28v0
					L991.21,405.75z"/>
				<g>
					<polygon class="st3" points="939.01,428.47 935.34,413.92 937.34,413.42 939.86,423.44 948.36,410.58 950.08,411.71 					"/>
				</g>
			</g>
			<g>
				
					<rect x="885.53" y="394.77" transform="matrix(0.8904 -0.4552 0.4552 0.8904 -77.8901 468.0978)" class="st3" width="95.19" height="2.06"/>
			</g>
		</g>
		<path class="st18" d="M1185.59,475.99c-15.08-42.68-46.74-50.2-87.69-12.07s-62.2,43.12-62.2,43.12s-28.2-88.89-44.19-111.43
			c-3.07-4.32-66.86,38.5-66.86,38.5s78.51,143.92,115.25,134.37c36.74-9.54,91.47-58.03,91.47-58.03L1185.59,475.99z"/>
		<g id="рука_3_">
			<path class="st4" d="M1435.43,283.5c-0.26-0.11-0.54-0.15-0.82-0.12l-19.47,2.01c-4.87,0.5-15.97,9-15.97,9
				c-4.66,1.9-8.22,5.8-9.69,10.61l-3.23,10.58c-0.09,0.29-0.25,0.55-0.48,0.75l-67.45,61.03c-0.92,0.83-0.64,2.34,0.51,2.79
				l25.21,9.93c0.65,0.26,1.38,0.09,1.85-0.43c5.9-6.57,43.92-49.01,51.13-59.71c0.15-0.22,0.35-0.4,0.58-0.53
				c2.86-1.55,5.25-3.16,7.21-4.67c4.39-3.38,7.21-8.4,7.87-13.9l1.04-8.75c0.01-0.09,0.01-0.17,0.01-0.26l1.64-6.35
				c0,0,15.51-1.15,20.21-5.75C1439.66,285.76,1436.65,284,1435.43,283.5z"/>
			<path class="st9" d="M1286.5,338.14c-6.6-8.4-27.75-8.45-30,2c-4.09,19.03,3.05,48.36,23,66c31.85,28.16,58.97,6.49,58.97,6.49
				l68.12-68.56l-25.45-27.46l-50.81,46.49c-8.23,7.53-21.35,7.17-28.92-1.02C1296.07,356.32,1290.9,343.73,1286.5,338.14z"/>
			<g>
				
					<rect x="1378.55" y="327.53" transform="matrix(0.7223 -0.6916 0.6916 0.7223 146.7216 1049.0345)" class="st3" width="2.15" height="28.57"/>
			</g>
		</g>
		<path class="st18" d="M1281.92,306.06c-0.03,0-0.05,0-0.07-0.01c-2.63,0.2-4.99-0.19-6.88-1.2c-10.64-3.67-5.48-14.72-18.53-26.08
			c-15.26-13.3-20.56,8.05-42.54-14.49c-20.68-21.22-2.63-53.76-0.43-57.52c0.03-0.26,0.05-0.41,0.05-0.41s-32.91,47.04-11.77,68.73
			s26.23,1.15,40.91,13.94c12.55,10.93,7.59,21.56,17.82,25.09c1.82,0.97,4.09,1.34,6.62,1.15c0.02,0,0.05,0,0.07,0.01
			c2.49,0.14,4.57-0.34,6.29-1.28c0.94-0.51,1.91-0.98,2.88-1.44c2.63-1.24,5.32-2.87,7.66-5.14c0.6-0.59,1.2-1.14,1.79-1.67
			C1284.62,306.02,1283.34,306.14,1281.92,306.06z"/>
		<g id="ботинок_2_">
			<path class="st11" d="M974.5,472.14l-34.18-25.12l-54.36,86.89c0,0,5.03,15.09,32.11-5.17c7.23-5.41,24.22-21.81,31.89-19.03l0,0
				L974.5,472.14z"/>
			<g>
				<polygon class="st3" points="941.68,520.53 931.45,509.55 932.95,508.15 940.01,515.71 941.25,500.34 943.3,500.51 				"/>
			</g>
		</g>
		<linearGradient id="SVGID_9_" gradientUnits="userSpaceOnUse" x1="931.505" y1="511.3974" x2="1208.5565" y2="511.3974">
			<stop  offset="0" style="stop-color:#0F9EA8"/>
			<stop  offset="1" style="stop-color:#1AAD9E"/>
		</linearGradient>
		<path class="st19" d="M1177.35,441.78c-15.53-12.98-51.65-26.43-63.9-16.83c-22.42,17.57-17.47,50.92-17.68,51.16
			c-12.41,14.28-31.52,68.81-31.52,68.81s-76.74-73.78-98.74-83.78c-3.75-1.71-35,60-33.97,77.68
			c0.15,2.51,140.92,83.77,167.66,56.82c26.73-26.94,57.89-89.28,62.74-92.36c37.94-24.1,46.63-30.87,46.63-30.87L1177.35,441.78z"
			/>
		<g id="лицо">
			<path class="st4" d="M1287.97,347.84l8.51-15.03c0,0,13.42,12.87,30.24-6.33c16.83-19.19,17.6-37.69,1.94-46.25
				c-15.67-8.56-39.89,2.71-49.91,20.82c-10.02,18.11-21.97,17.79-21.97,17.79s-17.61,18.55-9.38,28.14
				S1283.33,362.52,1287.97,347.84z"/>
			<circle class="st3" cx="1319.01" cy="310.36" r="3.16"/>
			<g>
				<path class="st3" d="M1328.45,304.18c-0.07-0.03-7.12-3.11-11.68-2.11l-0.48-2.21c5.28-1.15,12.76,2.12,13.08,2.26
					L1328.45,304.18z"/>
			</g>
			<g>
				<polygon class="st3" points="1331.26,336.15 1319.94,331.51 1320.8,329.42 1329.73,333.09 1334.46,315.08 1336.64,315.65 				
					"/>
			</g>
			<g>
				<path class="st3" d="M1315.4,336.25c-1.12-0.38-10.96-3.87-12.15-9.32l2.2-0.48c0.78,3.58,7.97,6.75,10.67,7.66L1315.4,336.25z"
					/>
			</g>
		</g>
		<linearGradient id="SVGID_10_" gradientUnits="userSpaceOnUse" x1="1204.0731" y1="301.5741" x2="1350.1725" y2="301.5741">
			<stop  offset="0" style="stop-color:#0F9EA8"/>
			<stop  offset="1" style="stop-color:#1AAD9E"/>
		</linearGradient>
		<path class="st20" d="M1289.42,304.13c3.34-1.39,6.96-3.29,10-6.25c0.17-0.16,0.33-0.31,0.5-0.47c-4.27,1.21-9.01,3.75-14.13,8.33
			C1287.16,305.41,1288.37,304.87,1289.42,304.13z"/>
		<path class="st18" d="M1327.4,270.16c-4.07-4.5-9.45-8.55-16.52-10.84c-22.87-7.41-36.53,12.09-46.45-13.74
			c-9.91-25.84-33.74,13.76-47.65-1.43c-6.68-7.29-3.76-33.82-3.33-37.39c-2.2,3.76-20.25,36.3,0.43,57.52
			c21.98,22.55,27.27,1.2,42.54,14.49c13.04,11.37,7.89,22.41,18.53,26.08c1.89,1.01,4.25,1.4,6.88,1.2c0.03,0,0.05,0,0.07,0.01
			c1.42,0.08,2.71-0.04,3.88-0.32c5.11-4.58,9.86-7.12,14.13-8.33c13.98-13.31,25.41-11.89,32.41-8.69
			C1333.7,282.38,1332.18,275.45,1327.4,270.16z"/>
		<linearGradient id="SVGID_11_" gradientUnits="userSpaceOnUse" x1="1204.0724" y1="256.2546" x2="1369.8682" y2="256.2546">
			<stop  offset="0" style="stop-color:#0F9EA8"/>
			<stop  offset="1" style="stop-color:#1AAD9E"/>
		</linearGradient>
		<path class="st21" d="M1344.54,259.17c-4.23-4.68-9.83-8.89-17.17-11.27c-23.77-7.7-37.98,12.57-48.29-14.29
			s-31.68,10.32-49.54-1.48s-15.87-25.73-15.87-25.73s-0.08,0.13-0.22,0.36c-2.2,3.76-20.25,36.3,0.43,57.52
			c21.98,22.55,27.27,1.2,42.54,14.49c13.04,11.37,7.89,22.41,18.53,26.08c1.89,1.01,4.25,1.4,6.88,1.2c0.03,0,0.05,0,0.07,0.01
			c1.42,0.08,2.71-0.04,3.88-0.32c5.11-4.58,9.86-7.12,14.13-8.33c13.98-13.31,25.41-11.89,32.41-8.69
			c5.98,2.73,8.73,6.76,7.08,4.03C1351.3,285.66,1353.82,269.44,1344.54,259.17z"/>
		<g id="тело_1_">
			<path class="st8" d="M1291.71,341.18c0,0-8.64,13.29-21.81,3.03c-13.17-10.26-12.81-25.41-12.81-25.41s-18.71-8.28-30-3.34
				c-8.57,3.75-29.97,31.04-39.75,43.93c-16.56,10.37-58.73,37.83-81.85,62.39c28.53,59.65,104.25,71.1,104.25,71.1l51.65-68.16
				c6-7.91,11.08-16.46,15.16-25.51C1284.37,381.89,1293.69,357.1,1291.71,341.18z"/>
			<g>
				<path class="st3" d="M1186.23,480.42l-1.52-1.67c16.49-14.98,84.47-109.67,92.17-120.42l1.83,1.31
					C1271,370.41,1202.89,465.28,1186.23,480.42z"/>
			</g>
			<g>
				<path class="st3" d="M1252.59,377.34c-0.95,0-1.87-0.31-2.63-0.91c-0.9-0.7-1.48-1.72-1.62-2.85c-0.14-1.14,0.17-2.26,0.87-3.16
					l0,0c0.7-0.9,1.72-1.48,2.85-1.62c1.14-0.14,2.26,0.17,3.16,0.87c0.9,0.7,1.48,1.72,1.62,2.85c0.14,1.14-0.17,2.26-0.87,3.16
					c-0.7,0.9-1.72,1.48-2.85,1.62C1252.94,377.33,1252.76,377.34,1252.59,377.34z M1250.99,371.81c-0.33,0.43-0.48,0.96-0.41,1.5
					s0.34,1.02,0.77,1.35c0.43,0.33,0.96,0.48,1.5,0.41c0.54-0.07,1.02-0.34,1.35-0.77c0.33-0.43,0.48-0.96,0.41-1.5
					s-0.34-1.02-0.77-1.35c-0.43-0.33-0.96-0.48-1.5-0.41C1251.81,371.11,1251.33,371.38,1250.99,371.81L1250.99,371.81z"/>
			</g>
			<g>
				<polygon class="st3" points="1286.77,377.05 1274.51,353.63 1276.51,352.58 1286.14,370.99 1294.78,340.48 1296.95,341.1 				
					"/>
			</g>
			<g>
				<polygon class="st3" points="1246.55,354.63 1254.46,322.41 1256.65,322.95 1249.55,351.89 1265.71,349.46 1266.05,351.69 				
					"/>
			</g>
			<g>
				<g>
					<path class="st3" d="M1194.83,431.56c-0.88,0-1.76-0.28-2.51-0.86c-1.78-1.39-2.1-3.96-0.71-5.74
						c0.67-0.86,1.64-1.41,2.72-1.55c1.09-0.13,2.16,0.16,3.02,0.83s1.41,1.64,1.55,2.72c0.13,1.08-0.16,2.16-0.83,3.02
						C1197.26,431.02,1196.05,431.56,1194.83,431.56z M1194.84,425.53c-0.08,0-0.16,0-0.24,0.02c-0.51,0.06-0.97,0.32-1.29,0.73l0,0
						c-0.66,0.84-0.5,2.06,0.34,2.72c0.84,0.66,2.06,0.5,2.72-0.34c0.32-0.41,0.46-0.92,0.39-1.43s-0.32-0.97-0.73-1.29
						C1195.68,425.67,1195.27,425.53,1194.84,425.53z"/>
				</g>
			</g>
		</g>
		<g id="рука_2_">
			<path class="st4" d="M1286.03,395.51l64.42-10.45c0,0,11.87-6.35,16.16-4.21c4.29,2.15,23.72,8.74,18.16,21.38
				c-5.57,12.64-20.91,11.04-22.27,5.8s6.06-7.17-1.36-5.24s-12.93-1.3-12.93-1.3l-68.22,19.16L1286.03,395.51z"/>
			<path class="st11" d="M1241.06,321.49c0,0-9.43-10.48-20.61-2.52c-11.18,7.96-26.43,38.12-19.06,79.99s47.96,35.43,47.96,35.43
				l95.99-11.2l-2.81-37.33l-68.75,4.72c-11.34,0.78-21.16-7.77-21.96-19.1C1250.58,354.01,1247.71,330.39,1241.06,321.49z"/>
			<g>
				
					<rect x="1325.13" y="387.83" transform="matrix(0.9984 -0.056 0.056 0.9984 -20.5468 74.8737)" class="st3" width="2.26" height="32.75"/>
			</g>
			<g>
				<path class="st3" d="M1334.48,400.29c-0.14,0-0.29-0.01-0.44-0.02c-1.14-0.12-2.17-0.67-2.89-1.55c-0.72-0.89-1.06-2-0.94-3.14
					c0.24-2.35,2.34-4.07,4.7-3.83c2.35,0.24,4.07,2.34,3.83,4.7C1338.52,398.64,1336.65,400.29,1334.48,400.29z M1334.47,393.97
					c-0.47,0-0.91,0.16-1.28,0.46c-0.42,0.34-0.68,0.83-0.74,1.37c-0.05,0.54,0.1,1.07,0.45,1.49c0.34,0.42,0.83,0.68,1.37,0.74
					c1.1,0.11,2.11-0.7,2.23-1.82c0.05-0.54-0.1-1.07-0.45-1.49c-0.34-0.42-0.83-0.68-1.37-0.74
					C1334.61,393.98,1334.54,393.97,1334.47,393.97z"/>
			</g>
		</g>
		<g>
			<path class="st11" d="M1081.89,565.14c-7.98-15.95-17.73-19.65-17.82-19.68l0.46-1.27c0.42,0.15,10.36,3.92,18.57,20.35
				L1081.89,565.14z"/>
		</g>
		<path class="st4" d="M1299.98,297.89c0,0,2.18-8.73-8.73-8.73c-10.92,0-2.91,18.2-2.91,18.2L1299.98,297.89z"/>
		<g>
			<path class="st11" d="M1088.11,627.1c-11.94,0-23.39-5.81-24.11-6.19l0.6-1.16c0.26,0.13,26.15,13.28,40.2,0.1
				c14.29-13.4,25.21-39.54,25.32-39.81l1.21,0.5c-0.11,0.27-11.14,26.67-25.63,40.26C1100.65,625.53,1094.31,627.1,1088.11,627.1z"
				/>
		</g>
		<g>
			<path class="st11" d="M1026.28,428.81h-1.3c0-19.63-17.04-53.05-17.21-53.38l1.16-0.6
				C1009.1,375.17,1026.28,408.87,1026.28,428.81z"/>
		</g>
		<g>
			
				<rect x="1031.35" y="380.8" transform="matrix(0.9265 -0.3764 0.3764 0.9265 -73.3518 417.5799)" class="st11" width="1.3" height="31.43"/>
		</g>
		<g>
			
				<rect x="871.46" y="493.56" transform="matrix(0.5313 -0.8472 0.8472 0.5313 11.9747 1010.8256)" class="st3" width="96.08" height="2.06"/>
		</g>
	</g>
	<g id="экран_часть_2">
		<g>
			
				<linearGradient id="SVGID_12_" gradientUnits="userSpaceOnUse" x1="1714.0614" y1="476.9615" x2="1902.2521" y2="476.9615" gradientTransform="matrix(-1 0 0 1 3111 0)">
				<stop  offset="0" style="stop-color:#74B5CF"/>
				<stop  offset="1" style="stop-color:#2185D9"/>
			</linearGradient>
			<path class="st22" d="M1212.24,435.52c0.66,0.16,1.33,0.31,2,0.47c1.17,0.27,2.35,0.54,3.53,0.8c0.65,0.15,1.29,0.29,1.95,0.43
				c1.34,0.29,2.68,0.58,4.03,0.86c0.49,0.1,0.98,0.21,1.48,0.31c1.85,0.38,3.71,0.75,5.58,1.11c0.06,0.01,0.11,0.02,0.16,0.03
				c0.15,0.03,0.31,0.06,0.46,0.08c2.27,0.44,4.55,0.85,6.86,1.26c0.49,0.09,0.98,0.18,1.48,0.26c2.41,0.42,4.83,0.83,7.28,1.22
				c0.17,0.03,0.34,0.06,0.51,0.09c0.61,0.1,1.23,0.19,1.85,0.28c0.92,0.14,1.83,0.28,2.75,0.42c0.87,0.13,1.74,0.26,2.61,0.38
				c0.92,0.13,1.85,0.27,2.77,0.4c0.88,0.12,1.76,0.24,2.64,0.36c0.93,0.13,1.87,0.25,2.8,0.37c0.88,0.11,1.77,0.23,2.66,0.34
				c0.95,0.12,1.89,0.24,2.84,0.35c0.89,0.11,1.79,0.21,2.68,0.32c0.95,0.11,1.9,0.22,2.85,0.33c0.91,0.1,1.82,0.2,2.73,0.3
				c0.96,0.1,1.91,0.2,2.87,0.3c0.91,0.09,1.83,0.18,2.75,0.27c0.96,0.09,1.93,0.19,2.9,0.28c0.92,0.09,1.85,0.17,2.77,0.25
				c0.97,0.09,1.94,0.17,2.91,0.25c0.38,0.03,0.75,0.07,1.13,0.1c0.27,0.02,0.54,0.04,0.8,0.06c3.18,0.26,6.37,0.49,9.58,0.7
				c0.45,0.03,0.9,0.06,1.36,0.09c3.26,0.21,6.54,0.4,9.84,0.56c0.14,0.01,0.28,0.02,0.42,0.02c0.33,0.02,0.66,0.03,1,0.04
				c2.41,0.11,4.83,0.21,7.26,0.3c0.46,0.02,0.92,0.04,1.38,0.05c2.69,0.09,5.39,0.17,8.1,0.23c0.25,0.01,0.51,0.02,0.76,0.02
				c0.43,0.01,0.87,0.01,1.3,0.02c1.7,0.03,3.41,0.06,5.11,0.08c0.71,0.01,1.41,0.02,2.12,0.03c2.35,0.02,4.71,0.04,7.07,0.04
				c0.49,0,0.98,0,1.47,0c0.43,0,0.87-0.01,1.3-0.01c1.86-0.01,3.72-0.02,5.57-0.04c0.71-0.01,1.42-0.02,2.13-0.03
				c2.24-0.03,4.47-0.07,6.7-0.13c0.15,0,0.31-0.01,0.46-0.01c0.03,0,0.06,0,0.09,0c2.33-0.06,4.66-0.13,6.98-0.21
				c0.68-0.02,1.36-0.05,2.03-0.08c1.7-0.06,3.4-0.13,5.09-0.21c0.42-0.02,0.84-0.03,1.25-0.05c0.31-0.01,0.63-0.03,0.94-0.05
				c1.82-0.09,3.63-0.18,5.43-0.29c0.47-0.03,0.93-0.05,1.4-0.08c2.25-0.13,4.49-0.28,6.72-0.43c0.14-0.01,0.29-0.02,0.44-0.03
				c0.26-0.02,0.52-0.04,0.77-0.06v69.24c-0.26,0.02-0.51,0.04-0.77,0.06c-0.14,0.01-0.29,0.02-0.44,0.03
				c-2.23,0.15-4.47,0.3-6.72,0.43c-0.46,0.03-0.93,0.05-1.4,0.08c-1.81,0.1-3.62,0.2-5.43,0.29c-0.31,0.02-0.63,0.03-0.94,0.05
				c-0.42,0.02-0.83,0.03-1.25,0.05c-1.69,0.08-3.39,0.15-5.09,0.21c-0.68,0.03-1.35,0.05-2.03,0.08c-2.32,0.08-4.64,0.15-6.98,0.21
				c-0.03,0-0.06,0-0.09,0c-0.15,0-0.31,0.01-0.46,0.01c-2.23,0.05-4.46,0.09-6.7,0.13c-0.71,0.01-1.42,0.02-2.13,0.03
				c-1.85,0.02-3.71,0.04-5.57,0.04c-0.43,0-0.87,0.01-1.3,0.01c-0.49,0-0.98,0-1.47,0c-2.36,0-4.72-0.02-7.07-0.04
				c-0.71-0.01-1.41-0.02-2.12-0.03c-1.71-0.02-3.41-0.05-5.11-0.08c-0.43-0.01-0.87-0.01-1.3-0.02c-0.25-0.01-0.51-0.02-0.76-0.02
				c-2.71-0.06-5.41-0.14-8.1-0.23c-0.46-0.02-0.92-0.04-1.38-0.05c-2.43-0.09-4.85-0.19-7.26-0.3c-0.33-0.02-0.67-0.03-1-0.04
				c-0.14-0.01-0.28-0.02-0.42-0.02c-3.3-0.16-6.58-0.35-9.84-0.56c-0.45-0.03-0.9-0.06-1.36-0.09c-3.21-0.21-6.41-0.45-9.58-0.7
				c-0.27-0.02-0.54-0.04-0.8-0.06c-0.38-0.03-0.75-0.07-1.13-0.1c-0.97-0.08-1.94-0.17-2.91-0.25c-0.93-0.08-1.85-0.16-2.77-0.25
				c-0.97-0.09-1.93-0.18-2.9-0.28c-0.92-0.09-1.83-0.18-2.75-0.27c-0.96-0.1-1.92-0.2-2.87-0.3c-0.91-0.1-1.82-0.19-2.73-0.3
				c-0.95-0.11-1.9-0.22-2.85-0.33c-0.9-0.1-1.79-0.21-2.68-0.32c-0.95-0.11-1.9-0.23-2.84-0.35c-0.89-0.11-1.78-0.22-2.66-0.34
				c-0.94-0.12-1.87-0.25-2.8-0.37c-0.88-0.12-1.76-0.24-2.64-0.36c-0.93-0.13-1.85-0.26-2.77-0.4c-0.87-0.13-1.75-0.25-2.61-0.38
				c-0.92-0.14-1.84-0.28-2.75-0.42c-0.62-0.1-1.24-0.19-1.85-0.28c-0.17-0.03-0.34-0.06-0.51-0.09c-2.44-0.39-4.87-0.8-7.28-1.22
				c-0.49-0.09-0.98-0.17-1.48-0.26c-2.3-0.41-4.59-0.83-6.86-1.26c-0.15-0.03-0.31-0.06-0.46-0.08c-0.06-0.01-0.11-0.02-0.16-0.03
				c-1.87-0.36-3.73-0.73-5.58-1.11c-0.5-0.1-0.98-0.21-1.48-0.31c-1.35-0.28-2.7-0.57-4.03-0.86c-0.65-0.14-1.3-0.29-1.95-0.43
				c-1.18-0.26-2.36-0.53-3.53-0.8c-0.67-0.16-1.34-0.31-2-0.47c-1.17-0.28-2.33-0.56-3.49-0.85v-69.24
				C1209.91,434.95,1211.07,435.24,1212.24,435.52z"/>
			<g>
				<path class="st11" d="M1348.17,519.91c-2.37,0-4.72-0.02-7.08-0.04l-2.12-0.03c-1.71-0.02-3.42-0.05-5.12-0.08l-2.07-0.04
					c-2.71-0.06-5.41-0.14-8.1-0.23l-1.38-0.05c-2.43-0.09-4.85-0.19-7.26-0.3l-1.41-0.06c-3.17-0.16-6.39-0.34-9.85-0.56
					l-1.36-0.09c-3.07-0.2-6.29-0.44-9.59-0.7l-1.93-0.16c-0.98-0.08-1.95-0.17-2.92-0.25l-2.77-0.25c-0.97-0.09-1.94-0.18-2.9-0.28
					c-0.92-0.09-1.83-0.18-2.75-0.27c-0.96-0.1-1.92-0.2-2.87-0.3c-0.91-0.1-1.82-0.19-2.73-0.29c-0.96-0.11-1.91-0.22-2.86-0.33
					c-0.9-0.1-1.79-0.21-2.69-0.32c-0.81-0.1-1.61-0.2-2.41-0.3l-3.1-0.39c-0.94-0.12-1.87-0.25-2.81-0.37
					c-0.88-0.12-1.77-0.24-2.64-0.36c-0.8-0.11-1.59-0.23-2.39-0.34l-0.8-0.12c-0.74-0.11-1.47-0.21-2.21-0.33
					c-0.89-0.13-1.77-0.27-2.65-0.41l-0.82-0.13c-0.38-0.06-0.76-0.12-1.14-0.18l-0.51-0.08c-2.45-0.39-4.88-0.8-7.29-1.22
					l-1.48-0.26c-2.31-0.41-4.6-0.83-6.87-1.26l-0.63-0.12c-1.88-0.36-3.74-0.74-5.59-1.12l-1.48-0.31
					c-1.35-0.28-2.7-0.57-4.04-0.86l-1.95-0.43c-1.18-0.27-2.36-0.53-3.54-0.81c-0.67-0.16-1.34-0.31-2-0.47
					c-1.17-0.28-2.34-0.56-3.5-0.85l-0.5-0.12v-70.59l0.81,0.2c1.16,0.28,2.32,0.57,3.48,0.84l0,0c0.66,0.16,1.33,0.31,2,0.47
					c1.17,0.27,2.34,0.54,3.53,0.8l1.94,0.43c1.33,0.29,2.68,0.58,4.03,0.86l1.48,0.31c1.84,0.38,3.7,0.75,5.57,1.11l0.62,0.12
					c2.26,0.44,4.55,0.85,6.85,1.26l1.47,0.26c2.4,0.42,4.83,0.82,7.27,1.22l2.48,0.39c0.88,0.14,1.75,0.27,2.63,0.4l3,0.44
					c0.79,0.12,1.58,0.23,2.38,0.34c0.88,0.12,1.76,0.24,2.64,0.36c0.93,0.13,1.86,0.25,2.8,0.38c0.88,0.11,1.77,0.23,2.66,0.34
					l0.43,0.05c0.8,0.1,1.6,0.2,2.41,0.3c0.89,0.11,1.79,0.21,2.68,0.32c0.95,0.11,1.9,0.22,2.85,0.33c0.91,0.1,1.82,0.2,2.73,0.29
					c0.95,0.1,1.91,0.2,2.87,0.3c0.91,0.09,1.83,0.18,2.74,0.27c0.96,0.09,1.93,0.19,2.9,0.28c0.92,0.08,1.84,0.17,2.77,0.25
					c0.97,0.09,1.94,0.17,2.91,0.25l1.93,0.16c3.29,0.27,6.51,0.5,9.57,0.7l1.35,0.09c3.45,0.22,6.67,0.4,9.83,0.56l1.41,0.07
					c2.41,0.11,4.83,0.21,7.25,0.3l1.38,0.05c2.69,0.09,5.38,0.17,8.09,0.23l2.06,0.04c1.7,0.03,3.4,0.06,5.11,0.08l2.11,0.03
					c2.35,0.02,4.7,0.04,7.06,0.04l2.77-0.01c1.86-0.01,3.72-0.02,5.57-0.04l2.13-0.03c2.24-0.03,4.47-0.07,6.69-0.13l0.46-0.01
					c2.42-0.06,4.74-0.13,7.06-0.21l2.03-0.08c1.7-0.06,3.39-0.13,5.08-0.21l2.19-0.1c1.81-0.09,3.62-0.18,5.43-0.29l1.4-0.08
					c2.25-0.13,4.48-0.27,6.71-0.43l1.91-0.14v70.55l-1.82,0.13c-2.23,0.15-4.47,0.3-6.72,0.43l-1.4,0.08
					c-1.81,0.1-3.62,0.2-5.44,0.29l-2.19,0.1c-1.69,0.08-3.39,0.15-5.09,0.21l-2.04,0.08c-2.32,0.08-4.65,0.16-6.98,0.21l-0.55,0.01
					c-2.23,0.05-4.46,0.09-6.71,0.13l-2.13,0.03c-1.86,0.02-3.72,0.04-5.58,0.04L1348.17,519.91z M1231.1,508.15l0.46,0.08
					c2.26,0.44,4.55,0.85,6.85,1.26l1.47,0.26c2.4,0.42,4.83,0.82,7.27,1.22l2.46,0.38c0.88,0.14,1.76,0.27,2.65,0.41
					c0.73,0.11,1.47,0.22,2.2,0.32l0.8,0.12c0.79,0.12,1.58,0.23,2.38,0.34c0.88,0.12,1.76,0.24,2.64,0.36
					c0.93,0.13,1.86,0.25,2.8,0.37l3.09,0.39c0.8,0.1,1.6,0.2,2.41,0.3c0.89,0.11,1.79,0.21,2.68,0.32c0.95,0.11,1.9,0.22,2.85,0.33
					c0.91,0.1,1.82,0.2,2.73,0.29c0.95,0.1,1.91,0.2,2.87,0.3c0.91,0.09,1.83,0.18,2.74,0.27c0.96,0.09,1.93,0.19,2.9,0.28
					l2.77,0.25c0.97,0.09,1.94,0.17,2.91,0.25l1.93,0.16c3.29,0.27,6.51,0.5,9.57,0.7l1.35,0.09c3.45,0.22,6.67,0.4,9.83,0.56
					l1.41,0.06c2.41,0.11,4.83,0.22,7.25,0.3l1.38,0.05c2.69,0.09,5.38,0.17,8.09,0.23l2.06,0.04c1.7,0.03,3.4,0.06,5.11,0.08
					l2.11,0.03c2.35,0.02,4.7,0.04,7.06,0.04l2.77-0.01c1.86-0.01,3.72-0.02,5.57-0.04l2.13-0.03c2.24-0.03,4.47-0.07,6.69-0.13
					l0.46-0.01c2.42-0.06,4.74-0.13,7.06-0.21l2.03-0.08c1.7-0.06,3.39-0.13,5.08-0.21l2.19-0.1c1.81-0.09,3.62-0.18,5.43-0.29
					l1.4-0.08c2.25-0.13,4.48-0.27,6.71-0.43l0.6-0.04v-67.94l-0.51,0.03c-2.23,0.15-4.47,0.3-6.72,0.43l-1.4,0.08
					c-1.81,0.1-3.62,0.2-5.44,0.29l-2.19,0.1c-1.69,0.08-3.39,0.15-5.09,0.21l-2.04,0.08c-2.32,0.08-4.65,0.16-6.98,0.21l-0.55,0.01
					c-2.23,0.05-4.46,0.09-6.7,0.13l-2.13,0.03c-1.86,0.02-3.72,0.04-5.58,0.04l-2.77,0.01c-2.37,0-4.72-0.02-7.08-0.04l-2.11-0.03
					c-1.72-0.02-3.42-0.05-5.13-0.08l-2.07-0.04c-2.71-0.06-5.41-0.14-8.1-0.23l-1.38-0.05c-2.43-0.09-4.85-0.19-7.26-0.3
					l-1.41-0.07c-3.17-0.16-6.39-0.34-9.85-0.56l-1.36-0.09c-3.07-0.2-6.29-0.44-9.59-0.7l-1.93-0.16
					c-0.97-0.08-1.95-0.17-2.92-0.25c-0.93-0.08-1.85-0.16-2.77-0.25c-0.97-0.09-1.94-0.18-2.9-0.28c-0.92-0.09-1.83-0.18-2.75-0.27
					c-0.96-0.1-1.92-0.2-2.87-0.3c-0.91-0.1-1.82-0.19-2.73-0.29c-0.96-0.11-1.91-0.22-2.86-0.33c-0.9-0.1-1.79-0.21-2.69-0.32
					c-0.81-0.1-1.61-0.2-2.41-0.3l-0.43-0.05c-0.89-0.11-1.78-0.22-2.66-0.34c-0.94-0.12-1.87-0.25-2.81-0.38
					c-0.88-0.12-1.77-0.24-2.64-0.36c-0.8-0.11-1.59-0.23-2.39-0.34l-3.01-0.44c-0.88-0.13-1.76-0.27-2.64-0.41l-2.49-0.39
					c-2.45-0.39-4.88-0.8-7.29-1.22l-1.48-0.26c-2.31-0.41-4.6-0.83-6.87-1.26l-0.63-0.12c-1.88-0.36-3.74-0.74-5.59-1.12
					l-1.48-0.31c-1.35-0.28-2.7-0.57-4.04-0.86l-1.95-0.43c-1.18-0.27-2.36-0.53-3.54-0.81c-0.67-0.16-1.34-0.31-2-0.47
					c-0.9-0.21-1.79-0.43-2.69-0.65v67.9c0.99,0.24,1.99,0.48,2.99,0.72c0.66,0.16,1.33,0.31,2,0.47c1.17,0.27,2.34,0.54,3.53,0.8
					l1.94,0.43c1.33,0.29,2.68,0.58,4.03,0.86l1.48,0.31c1.84,0.38,3.7,0.75,5.57,1.11L1231.1,508.15z"/>
			</g>
		</g>
		<g>
			<g>
				<path class="st11" d="M1227.07,500.88c-3.37,0-6.11-2.74-6.11-6.11s2.74-6.11,6.11-6.11s6.11,2.74,6.11,6.11
					S1230.44,500.88,1227.07,500.88z M1227.07,489.96c-2.65,0-4.81,2.16-4.81,4.81s2.16,4.81,4.81,4.81s4.81-2.16,4.81-4.81
					S1229.72,489.96,1227.07,489.96z"/>
			</g>
			<g>
				<path class="st11" d="M1378.56,472.22c-3.37,0-6.11-2.74-6.11-6.11s2.74-6.11,6.11-6.11s6.11,2.74,6.11,6.11
					S1381.93,472.22,1378.56,472.22z M1378.56,461.3c-2.65,0-4.81,2.16-4.81,4.81s2.16,4.81,4.81,4.81s4.81-2.16,4.81-4.81
					S1381.21,461.3,1378.56,461.3z"/>
			</g>
			<g>
				<defs>
					<rect id="SVGID_13_" x="1227" y="456.14" width="152" height="48"/>
				</defs>
				<clipPath id="SVGID_14_">
					<use xlink:href="#SVGID_13_"  style="overflow:visible;"/>
				</clipPath>
				<g class="st23">
					<polygon class="st11" points="1225.42,497.14 1224.58,496.14 1254.73,470.79 1275.5,481 1300.31,460.72 1342.16,494.38 
						1379.59,464.13 1380.41,465.14 1342.17,496.06 1300.32,462.4 1275.68,482.54 1254.91,472.34 					"/>
				</g>
			</g>
		</g>
	</g>
	<g id="экран_часть_3">
		<g>
			<path class="st11" d="M1453.89,549.92l-0.01-0.83v-118.4l0.58-0.11l1.35-0.33c1.04-0.26,2.06-0.53,3.08-0.8l0.92-0.24
				c1.32-0.35,2.62-0.71,3.91-1.07l0.97-0.28c0.96-0.28,1.92-0.55,2.88-0.84l1.35-0.41c0.82-0.25,1.64-0.5,2.45-0.76
				c0.61-0.19,1.21-0.38,1.81-0.58l0.88-0.29c0.99-0.32,1.98-0.65,2.95-0.98c0.99-0.34,1.96-0.68,2.93-1.03l0.89-0.32
				c0.67-0.24,1.33-0.49,1.99-0.73l0.98-0.37c0.65-0.25,1.29-0.5,1.93-0.75l0.85-0.33c0.56-0.22,1.1-0.45,1.65-0.67l1.17-0.48
				c0.75-0.31,1.48-0.63,2.21-0.95l0.5-0.21c0.88-0.39,1.76-0.78,2.61-1.17l0.75-0.35c0.6-0.28,1.21-0.56,1.8-0.85l0.65-0.32
				c0.57-0.28,1.13-0.56,1.69-0.84l0.78-0.4c0.53-0.27,1.04-0.54,1.55-0.81l0.7-0.38c0.67-0.36,1.32-0.73,1.97-1.09l0.17-0.09
				c0.68-0.39,1.35-0.78,2-1.17l0.55-0.33c0.51-0.31,1-0.62,1.49-0.93l0.48-0.31c0.62-0.4,1.23-0.8,1.82-1.2l0.28-0.19
				c0.51-0.35,1-0.69,1.49-1.04l0.43-0.31c0.56-0.4,1.1-0.81,1.63-1.22l0.17-0.13c0.48-0.37,0.95-0.75,1.41-1.12l0.36-0.3
				c0.49-0.41,0.98-0.82,1.44-1.23l0.11-0.1c0.47-0.42,0.88-0.8,1.28-1.18l0.31-0.29c0.43-0.42,0.85-0.83,1.26-1.25l0.19-0.2
				c0.36-0.37,0.71-0.75,1.04-1.13l0.23-0.26c0.37-0.42,0.73-0.84,1.07-1.26l0.17-0.22c0.34-0.42,0.63-0.8,0.91-1.18l0.16-0.21
				c0.31-0.42,0.6-0.85,0.89-1.28l0.19-0.29c1.35-1.38,3.35-6.38,3.35-6.38s0.17,1.87,0.27,7.06l1.92,103.84
				c0,0.22,0,0.44-0.01,0.65c-0.01,0.21-0.02,0.42-0.03,0.62l-0.02,0.43c-0.04,0.48-0.09,0.96-0.15,1.43l-0.05,0.35
				c-0.06,0.37-0.12,0.75-0.2,1.12l-0.14,0.67c-0.09,0.38-0.19,0.75-0.29,1.12l-0.03,0.1c-0.14,0.48-0.28,0.9-0.43,1.32l-0.13,0.36
				c-0.17,0.46-0.35,0.92-0.54,1.38c-0.23,0.52-0.44,0.97-0.66,1.41l-0.17,0.33c-0.23,0.46-0.48,0.91-0.74,1.36l-0.08,0.14
				c-0.16,0.27-0.32,0.54-0.49,0.82l-0.48,0.74c-0.29,0.44-0.6,0.89-0.92,1.33l-0.16,0.22c-0.29,0.39-0.59,0.79-0.91,1.18
				l-0.35,0.44c-0.31,0.38-0.63,0.75-0.97,1.13l-0.24,0.27c-0.35,0.39-0.7,0.77-1.07,1.16l-0.2,0.21c-0.33,0.35-0.68,0.69-1.03,1.04
				l-0.49,0.47c-0.48,0.45-0.9,0.84-1.33,1.22l-0.17,0.15c-0.48,0.42-0.97,0.84-1.47,1.26l-0.82,0.67
				c-0.32,0.26-0.65,0.52-0.99,0.77l-0.17,0.14c-0.54,0.42-1.09,0.83-1.66,1.24l-0.43,0.31c-0.5,0.36-1,0.71-1.52,1.06l-0.39,0.27
				c-0.57,0.38-1.15,0.76-1.74,1.14l-0.49,0.31c-0.5,0.31-1,0.63-1.51,0.94l-0.56,0.34c-0.66,0.39-1.32,0.79-2,1.17l-0.12,0.07
				c-0.72,0.41-1.39,0.78-2.06,1.14l-0.71,0.38c-0.52,0.28-1.04,0.55-1.57,0.82l-0.79,0.4c-0.56,0.29-1.13,0.57-1.7,0.85l-0.79,0.39
				c-0.53,0.26-0.99,0.47-1.45,0.69l-0.98,0.46c-0.87,0.4-1.74,0.79-2.64,1.18l-0.5,0.21c-0.73,0.32-1.48,0.64-2.23,0.95l-1.4,0.57
				c-0.37,0.15-0.73,0.3-1.1,0.45l-1.19,0.47c-0.64,0.25-1.29,0.5-1.94,0.75l-0.99,0.37c-0.66,0.25-1.33,0.49-2,0.73l-0.9,0.33
				c-0.97,0.35-1.95,0.69-2.94,1.03c-0.98,0.33-1.97,0.66-2.96,0.99l-2.71,0.87c-0.81,0.26-1.64,0.51-2.46,0.76l-1.35,0.41
				c-0.96,0.28-1.92,0.56-2.89,0.84l-0.97,0.28c-1.3,0.37-2.61,0.73-3.93,1.08l-0.92,0.24c-1.03,0.27-2.06,0.54-3.1,0.8
				L1453.89,549.92z M1455.19,431.74v116.52l0.61-0.15c1.04-0.26,2.07-0.53,3.09-0.8l0.91-0.24c1.32-0.35,2.62-0.71,3.92-1.07
				l0.97-0.28c0.96-0.28,1.92-0.55,2.88-0.84l1.35-0.41c0.82-0.25,1.64-0.5,2.45-0.76l2.7-0.86c0.99-0.32,1.98-0.65,2.95-0.98
				c0.99-0.34,1.96-0.68,2.92-1.03l0.85-0.31c0.71-0.26,1.37-0.5,2.03-0.75l0.98-0.37c0.65-0.25,1.29-0.5,1.93-0.75l1.18-0.46
				c0.37-0.15,0.73-0.3,1.09-0.45l1.39-0.57c0.75-0.31,1.48-0.63,2.21-0.95l0.5-0.21c0.88-0.39,1.76-0.78,2.61-1.17l0.98-0.46
				c0.45-0.21,0.91-0.42,1.35-0.64l0.87-0.43c0.57-0.28,1.13-0.56,1.69-0.84l0.78-0.4c0.52-0.27,1.04-0.54,1.55-0.81l0.7-0.38
				c0.67-0.36,1.32-0.73,1.97-1.09l0.15-0.08c0.72-0.41,1.38-0.8,2.02-1.19l0.55-0.33c0.5-0.31,1-0.61,1.49-0.92l0.48-0.31
				c0.58-0.37,1.16-0.75,1.71-1.13l0.11-0.07l0.28-0.19c0.51-0.35,1-0.69,1.49-1.04l0.43-0.31c0.56-0.4,1.1-0.81,1.63-1.22
				l0.17-0.13c0.33-0.25,0.65-0.51,0.97-0.76l0.8-0.66c0.49-0.41,0.98-0.82,1.44-1.23l0.16-0.15c0.42-0.38,0.83-0.75,1.23-1.13
				l0.55-0.52c0.34-0.34,0.68-0.68,1.01-1.02l0.19-0.2c0.36-0.37,0.71-0.75,1.04-1.13l0.24-0.26c0.32-0.36,0.63-0.73,0.94-1.1
				l0.34-0.43c0.3-0.38,0.59-0.76,0.87-1.14l0.16-0.21c0.31-0.42,0.6-0.85,0.89-1.28l0.46-0.71c0.16-0.26,0.32-0.52,0.47-0.78
				l0.08-0.13c0.25-0.43,0.48-0.87,0.71-1.31l0.13-0.25c0.24-0.49,0.44-0.91,0.63-1.34l0.05-0.11c0.17-0.4,0.34-0.84,0.5-1.28
				l0.12-0.34c0.14-0.4,0.27-0.8,0.39-1.21l0.04-0.14c0.1-0.35,0.19-0.71,0.28-1.06l0.13-0.64c0.07-0.35,0.13-0.71,0.19-1.06
				l0.05-0.33c0.06-0.45,0.11-0.9,0.14-1.35l0.02-0.41c0.01-0.19,0.02-0.39,0.03-0.58c0.01-0.2,0.01-0.4,0.01-0.6
				c-0.02-0.97-1.65-89.21-1.96-105.8c-0.11,0.2-0.22,0.4-0.33,0.59l-0.08,0.14c-0.24,0.42-0.5,0.83-0.77,1.25l-0.2,0.3
				c-0.29,0.45-0.6,0.89-0.92,1.33l-0.16,0.22c-0.29,0.39-0.59,0.79-0.91,1.18l-0.21,0.27c-0.36,0.44-0.72,0.87-1.11,1.31
				l-0.24,0.27c-0.35,0.39-0.7,0.78-1.07,1.16l-0.2,0.21c-0.41,0.43-0.84,0.85-1.28,1.28l-0.25,0.24c-0.48,0.45-0.9,0.84-1.33,1.22
				l-0.17,0.15c-0.48,0.42-0.97,0.84-1.47,1.26l-0.37,0.3c-0.46,0.38-0.94,0.76-1.43,1.14l-0.17,0.14
				c-0.54,0.42-1.09,0.83-1.66,1.24l-0.44,0.31c-0.49,0.35-1,0.71-1.51,1.06l-0.28,0.19c-0.6,0.41-1.22,0.81-1.85,1.22l-0.49,0.31
				c-0.5,0.31-1,0.63-1.51,0.94l-0.55,0.34c-0.66,0.4-1.34,0.79-2.03,1.19l-0.1,0.06c-0.72,0.41-1.39,0.78-2.06,1.14l-0.71,0.38
				c-0.52,0.28-1.04,0.55-1.57,0.82l-0.79,0.4c-0.56,0.29-1.13,0.57-1.7,0.85l-0.66,0.32c-0.6,0.29-1.2,0.57-1.81,0.86l-0.76,0.36
				c-0.87,0.4-1.74,0.79-2.64,1.18l-0.5,0.21c-0.74,0.32-1.48,0.64-2.23,0.95l-1.17,0.48c-0.55,0.23-1.1,0.45-1.67,0.68l-0.85,0.33
				c-0.64,0.25-1.29,0.5-1.94,0.75l-0.98,0.37c-0.66,0.25-1.33,0.49-2,0.74l-0.9,0.33c-0.97,0.35-1.95,0.69-2.94,1.03
				c-0.98,0.33-1.97,0.66-2.97,0.99l-0.89,0.29c-0.6,0.2-1.21,0.39-1.82,0.58c-0.81,0.26-1.64,0.51-2.46,0.76l-1.35,0.41
				c-0.96,0.28-1.92,0.56-2.89,0.84l-0.97,0.28c-1.3,0.37-2.61,0.73-3.93,1.08l-0.92,0.24c-1.03,0.27-2.06,0.54-3.1,0.8
				L1455.19,431.74z"/>
		</g>
		<g>
			<path class="st11" d="M1473.07,507.57v-46.9l10.4-4.16v46.9L1473.07,507.57z M1474.38,461.55v44.09l7.79-3.12v-44.09
				L1474.38,461.55z"/>
		</g>
		<g>
			<path class="st11" d="M1491.73,500.11v-28.7l10.4-4.16v28.7L1491.73,500.11z M1493.03,472.29v25.89l7.79-3.12v-25.89
				L1493.03,472.29z"/>
		</g>
		<g>
			<path class="st11" d="M1509.01,492.74v-10.5l10.4-4.16v10.5L1509.01,492.74z M1510.32,483.12v7.69l7.79-3.12V480L1510.32,483.12z
				"/>
		</g>
	</g>
</g>
</svg>
