<?xml version="1.0" encoding="utf-8"?>
<!-- Generator: Adobe Illustrator 23.1.0, SVG Export Plug-In . SVG Version: 6.00 Build 0)  -->
<svg version="1.1" id="Слой_1" xmlns="http://www.w3.org/2000/svg" xmlns:xlink="http://www.w3.org/1999/xlink" x="0px" y="0px"
	 viewBox="0 0 385.1 251" style="enable-background:new 0 0 385.1 251;" xml:space="preserve">
<style type="text/css">
	.st0{opacity:0.46;fill:url(#SVGID_1_);enable-background:new    ;}
	.st1{fill:#FFFFFF;}
	.st2{opacity:0.46;fill:url(#SVGID_2_);enable-background:new    ;}
	.st3{clip-path:url(#SVGID_4_);}
	.st4{clip-path:url(#SVGID_6_);}
	.st5{clip-path:url(#SVGID_8_);}
	.st6{clip-path:url(#SVGID_10_);}
	.st7{clip-path:url(#SVGID_12_);}
	.st8{fill:#E8E8E8;}
	.st9{fill:#1B82D8;}
	.st10{fill:#007F79;}
	.st11{fill:#F2C557;}
	.st12{fill:#F2F2F2;}
	.st13{fill:url(#SVGID_13_);}
	.st14{fill:url(#SVGID_14_);}
	.st15{fill:url(#SVGID_15_);}
	.st16{opacity:0.46;fill:url(#SVGID_16_);enable-background:new    ;}
	.st17{clip-path:url(#SVGID_18_);}
</style>
<g>
	<g id="экран_часть_1">
		
			<linearGradient id="SVGID_1_" gradientUnits="userSpaceOnUse" x1="369.352" y1="367.26" x2="567.3519" y2="367.26" gradientTransform="matrix(1 0 0 1 -196 -287)">
			<stop  offset="0" style="stop-color:#74B5CF"/>
			<stop  offset="1" style="stop-color:#2185D9"/>
		</linearGradient>
		<path class="st0" d="M371.35,65.23c0-0.29-0.01-0.57-0.03-0.86c-0.01-0.1-0.02-0.19-0.03-0.28c-0.02-0.19-0.04-0.39-0.07-0.57
			c-0.02-0.11-0.04-0.23-0.06-0.34c-0.03-0.17-0.06-0.34-0.09-0.51c-0.03-0.12-0.06-0.24-0.09-0.36c-0.04-0.16-0.08-0.32-0.12-0.48
			c-0.04-0.12-0.08-0.25-0.12-0.37c-0.05-0.16-0.1-0.31-0.16-0.47c-0.05-0.12-0.1-0.25-0.15-0.38c-0.06-0.15-0.12-0.3-0.18-0.46
			c-0.05-0.13-0.12-0.25-0.18-0.39c-0.07-0.15-0.14-0.3-0.22-0.44c-0.07-0.13-0.14-0.25-0.21-0.39c-0.08-0.15-0.16-0.29-0.24-0.44
			c-0.08-0.13-0.16-0.25-0.24-0.39c-0.09-0.15-0.18-0.29-0.28-0.43c-0.09-0.13-0.18-0.25-0.27-0.38c-0.1-0.14-0.2-0.28-0.3-0.42
			c-0.09-0.12-0.2-0.25-0.29-0.38c-0.11-0.14-0.22-0.28-0.33-0.42c-0.1-0.12-0.22-0.25-0.33-0.38c-0.12-0.14-0.24-0.28-0.36-0.41
			c-0.11-0.12-0.23-0.25-0.35-0.37c-0.13-0.14-0.25-0.27-0.39-0.41c-0.12-0.12-0.25-0.25-0.37-0.37c-0.14-0.14-0.27-0.27-0.42-0.4
			c-0.13-0.12-0.27-0.24-0.4-0.37c-0.15-0.13-0.29-0.27-0.44-0.4c-0.14-0.12-0.28-0.24-0.43-0.36c-0.16-0.13-0.31-0.26-0.47-0.39
			c-0.15-0.12-0.3-0.24-0.45-0.36c-0.16-0.13-0.33-0.26-0.49-0.39c-0.16-0.12-0.31-0.24-0.48-0.36s-0.35-0.25-0.52-0.38
			c-0.16-0.12-0.33-0.23-0.5-0.35c-0.18-0.12-0.36-0.25-0.55-0.37c-0.17-0.12-0.35-0.23-0.53-0.35c-0.19-0.12-0.38-0.25-0.57-0.37
			c-0.18-0.11-0.36-0.23-0.55-0.35c-0.2-0.12-0.4-0.24-0.6-0.36c-0.19-0.11-0.38-0.23-0.58-0.34c-0.21-0.12-0.41-0.24-0.62-0.36
			c-0.2-0.11-0.4-0.22-0.6-0.34c-0.21-0.12-0.43-0.23-0.65-0.35c-0.21-0.11-0.41-0.22-0.62-0.33c-0.22-0.11-0.44-0.23-0.67-0.35
			c-0.21-0.11-0.42-0.22-0.64-0.33c-0.23-0.11-0.46-0.23-0.69-0.34c-0.22-0.11-0.44-0.21-0.66-0.32c-0.24-0.11-0.48-0.22-0.72-0.34
			c-0.23-0.1-0.45-0.21-0.68-0.31c-0.24-0.11-0.49-0.22-0.74-0.33c-0.23-0.1-0.47-0.21-0.7-0.3c-0.25-0.11-0.51-0.22-0.76-0.33
			c-0.24-0.1-0.48-0.2-0.72-0.3c-0.26-0.11-0.52-0.21-0.79-0.32c-0.24-0.1-0.49-0.2-0.74-0.29c-0.27-0.1-0.54-0.21-0.81-0.31
			c-0.25-0.1-0.5-0.19-0.76-0.29c-0.28-0.1-0.55-0.21-0.83-0.3c-0.26-0.09-0.52-0.19-0.78-0.28c-0.09-0.03-0.18-0.07-0.27-0.1
			c-0.15-0.05-0.3-0.1-0.46-0.16c-0.37-0.13-0.75-0.26-1.13-0.39c-0.24-0.08-0.49-0.16-0.74-0.24c-0.38-0.12-0.76-0.25-1.15-0.37
			c-0.24-0.08-0.49-0.16-0.74-0.23c-0.41-0.13-0.83-0.25-1.25-0.39c-0.23-0.07-0.45-0.14-0.68-0.21c-0.52-0.15-1.04-0.3-1.57-0.46
			c-0.12-0.03-0.23-0.07-0.35-0.1c-0.02-0.01-0.04-0.01-0.05-0.02c-0.16-0.04-0.33-0.09-0.48-0.14c-0.43-0.12-0.86-0.24-1.29-0.36
			c-0.22-0.06-0.45-0.12-0.67-0.18c-0.37-0.1-0.75-0.2-1.13-0.3c-0.25-0.07-0.5-0.13-0.75-0.19c-0.36-0.09-0.72-0.18-1.08-0.27
			c-0.27-0.07-0.53-0.13-0.8-0.2c-0.21-0.05-0.42-0.1-0.64-0.16c-0.16-0.04-0.33-0.08-0.49-0.11c-0.21-0.05-0.42-0.1-0.63-0.15
			c-0.43-0.1-0.86-0.2-1.29-0.29c-0.18-0.04-0.37-0.08-0.55-0.12c-0.61-0.14-1.23-0.27-1.84-0.4c-0.06-0.01-0.11-0.02-0.17-0.04
			c-0.48-0.1-0.95-0.2-1.44-0.29c-0.06-0.01-0.12-0.02-0.18-0.03c-0.88-0.17-1.77-0.35-2.67-0.51c-0.2-0.04-0.4-0.07-0.59-0.11
			c-0.75-0.14-1.5-0.27-2.26-0.4c-0.14-0.03-0.28-0.05-0.43-0.08c-0.09-0.02-0.18-0.03-0.27-0.04c-0.88-0.15-1.76-0.29-2.65-0.43
			c-0.09-0.01-0.17-0.03-0.26-0.04c-0.81-0.12-1.63-0.24-2.46-0.36c-0.12-0.02-0.23-0.03-0.35-0.05c-0.16-0.02-0.32-0.04-0.48-0.07
			c-0.65-0.09-1.29-0.18-1.94-0.26c-0.26-0.03-0.52-0.07-0.78-0.1c-0.9-0.11-1.79-0.22-2.7-0.33c-0.01,0-0.02,0-0.03-0.01
			c-0.07-0.01-0.13-0.02-0.2-0.02c-0.81-0.09-1.63-0.18-2.45-0.27c-0.28-0.03-0.57-0.06-0.86-0.09c-0.63-0.07-1.26-0.12-1.9-0.18
			c-0.17-0.02-0.34-0.03-0.51-0.05c-0.14-0.01-0.28-0.02-0.42-0.04c-0.67-0.06-1.34-0.12-2.02-0.17c-0.24-0.02-0.49-0.04-0.74-0.06
			c-0.92-0.07-1.83-0.14-2.76-0.21c-0.03,0-0.06-0.01-0.09-0.01c-0.15-0.01-0.29-0.02-0.44-0.03c-0.75-0.05-1.51-0.1-2.27-0.15
			c-0.31-0.02-0.62-0.04-0.93-0.05c-0.65-0.04-1.3-0.07-1.95-0.1c-0.19-0.01-0.37-0.02-0.56-0.03c-0.13-0.01-0.26-0.01-0.4-0.02
			c-0.75-0.03-1.5-0.07-2.26-0.09c-0.21-0.01-0.42-0.02-0.63-0.03c-0.96-0.03-1.93-0.07-2.89-0.09c-0.05,0-0.11-0.01-0.17-0.01
			c-0.17-0.01-0.35-0.01-0.53-0.01c-0.77-0.02-1.54-0.03-2.32-0.04c-0.32-0.01-0.65-0.01-0.97-0.01c-0.74-0.01-1.48-0.02-2.22-0.02
			c-0.2,0-0.39-0.01-0.59-0.01c-0.2,0-0.4,0-0.6,0c-0.98,0-1.96,0.01-2.94,0.02c-0.3,0.01-0.61,0.01-0.91,0.01
			c-0.69,0.01-1.38,0.02-2.06,0.03c-0.17,0.01-0.35,0.01-0.52,0.01c-0.13,0.01-0.26,0.01-0.39,0.01c-1.13,0.03-2.26,0.06-3.39,0.1
			c-0.1,0.01-0.2,0.01-0.3,0.01c-1.05,0.04-2.08,0.08-3.12,0.13c-0.15,0.01-0.3,0.01-0.44,0.02c-0.17,0.01-0.35,0.02-0.52,0.03
			c-0.36,0.02-0.72,0.04-1.07,0.05c-0.43,0.02-0.87,0.05-1.3,0.08c-0.36,0.02-0.72,0.04-1.07,0.07c-0.43,0.03-0.86,0.05-1.29,0.09
			c-0.35,0.02-0.71,0.05-1.06,0.08c-0.43,0.03-0.86,0.07-1.29,0.1c-0.35,0.03-0.69,0.05-1.04,0.08c-0.14,0.01-0.29,0.02-0.43,0.03
			c-0.22,0.02-0.44,0.04-0.67,0.06c-0.49,0.04-0.99,0.09-1.48,0.13c-0.35,0.03-0.71,0.07-1.06,0.1c-0.48,0.04-0.97,0.09-1.45,0.14
			c-0.35,0.03-0.7,0.07-1.05,0.11c-0.49,0.05-0.97,0.1-1.46,0.16c-0.34,0.04-0.67,0.08-1,0.11c-0.5,0.06-1,0.12-1.5,0.18
			c-0.31,0.04-0.62,0.08-0.93,0.11c-0.56,0.07-1.11,0.14-1.66,0.21c-0.24,0.03-0.49,0.07-0.74,0.1c-0.79,0.11-1.58,0.22-2.37,0.33
			c-0.08,0.01-0.17,0.03-0.25,0.04c-0.7,0.1-1.39,0.21-2.09,0.31c-0.27,0.04-0.53,0.09-0.79,0.12c-0.5,0.08-1.01,0.16-1.51,0.24
			c-0.08,0.01-0.16,0.03-0.24,0.04c-0.34,0.06-0.68,0.12-1.03,0.18c-0.25,0.04-0.5,0.09-0.75,0.13c-0.52,0.09-1.03,0.18-1.54,0.28
			c-0.16,0.03-0.33,0.06-0.49,0.09c-0.02,0.01-0.03,0.01-0.05,0.01c-0.08,0.02-0.15,0.03-0.23,0.04c-0.73,0.14-1.45,0.28-2.17,0.42
			c-0.25,0.05-0.51,0.1-0.76,0.15c-0.57,0.11-1.13,0.23-1.7,0.35c-0.25,0.05-0.51,0.11-0.76,0.16c-0.65,0.14-1.3,0.28-1.94,0.43
			c-0.14,0.03-0.28,0.06-0.41,0.09c-0.77,0.18-1.53,0.36-2.28,0.54c-0.21,0.05-0.41,0.1-0.61,0.15c-0.55,0.14-1.11,0.28-1.65,0.42
			c-0.24,0.07-0.49,0.13-0.73,0.19c-0.54,0.14-1.07,0.29-1.61,0.43c-0.2,0.05-0.4,0.11-0.6,0.17c-0.72,0.2-1.42,0.41-2.12,0.61
			c-0.11,0.03-0.22,0.07-0.34,0.1c-0.59,0.17-1.17,0.35-1.74,0.54c-0.09,0.03-0.17,0.05-0.26,0.08c-0.14,0.04-0.28,0.09-0.42,0.14
			c-0.43,0.14-0.87,0.28-1.3,0.42c-0.23,0.08-0.46,0.15-0.68,0.23c-0.45,0.15-0.9,0.31-1.35,0.47c-0.18,0.07-0.37,0.13-0.55,0.2
			c-0.62,0.22-1.23,0.44-1.83,0.67c-0.08,0.03-0.16,0.07-0.24,0.1c-0.52,0.2-1.03,0.4-1.53,0.59c-0.06,0.02-0.12,0.05-0.18,0.07
			c-0.21,0.09-0.42,0.17-0.63,0.26c-0.21,0.09-0.42,0.17-0.63,0.25c-0.29,0.12-0.58,0.24-0.87,0.37c-0.19,0.08-0.39,0.16-0.58,0.24
			c-0.31,0.14-0.62,0.27-0.92,0.41c-0.16,0.07-0.32,0.14-0.48,0.22c-0.43,0.2-0.85,0.39-1.26,0.59c-0.03,0.02-0.07,0.03-0.1,0.04
			c0,0,0,0-0.01,0c-0.42,0.2-0.84,0.41-1.24,0.61c-0.13,0.07-0.25,0.13-0.38,0.2c-0.28,0.15-0.56,0.29-0.84,0.44
			c-0.14,0.08-0.28,0.15-0.42,0.22c-0.27,0.14-0.53,0.29-0.79,0.43c-0.13,0.07-0.26,0.15-0.39,0.22c-0.06,0.03-0.12,0.07-0.18,0.1
			c-0.3,0.17-0.61,0.35-0.9,0.53c-0.02,0.01-0.03,0.02-0.05,0.03c-0.34,0.2-0.67,0.41-1,0.61c-0.1,0.07-0.2,0.12-0.3,0.19
			c-0.26,0.16-0.51,0.33-0.76,0.49c-0.09,0.06-0.18,0.12-0.27,0.17c-0.04,0.03-0.09,0.06-0.13,0.09c-0.28,0.18-0.54,0.37-0.81,0.56
			c-0.06,0.04-0.11,0.08-0.17,0.12c-0.26,0.18-0.51,0.37-0.76,0.55c-0.08,0.06-0.15,0.11-0.23,0.17c-0.28,0.21-0.56,0.43-0.83,0.65
			c-0.01,0.01-0.02,0.02-0.03,0.02c-0.03,0.02-0.05,0.04-0.08,0.07c-0.25,0.21-0.5,0.41-0.74,0.62c-0.06,0.05-0.12,0.11-0.18,0.16
			c-0.26,0.22-0.51,0.45-0.75,0.68c-0.04,0.03-0.07,0.07-0.1,0.1c-0.13,0.12-0.26,0.24-0.39,0.37c-0.09,0.08-0.16,0.16-0.25,0.25
			c-0.05,0.05-0.1,0.1-0.15,0.15c-0.22,0.23-0.44,0.46-0.66,0.69c-0.04,0.04-0.08,0.09-0.12,0.14c-0.18,0.21-0.37,0.41-0.54,0.62
			c-0.04,0.04-0.07,0.08-0.11,0.12c-0.02,0.02-0.04,0.04-0.05,0.07c-0.17,0.21-0.34,0.42-0.5,0.63c-0.04,0.05-0.08,0.1-0.12,0.16
			c-0.17,0.23-0.33,0.45-0.49,0.68c-0.01,0.02-0.03,0.04-0.04,0.05c-0.12,0.18-0.24,0.36-0.35,0.54c-0.04,0.06-0.07,0.12-0.11,0.18
			c-0.03,0.05-0.07,0.11-0.1,0.17c-0.15,0.24-0.28,0.49-0.41,0.73c-0.01,0.02-0.02,0.04-0.03,0.06c-0.12,0.23-0.23,0.46-0.34,0.69
			c-0.03,0.05-0.05,0.11-0.08,0.17c-0.02,0.04-0.04,0.09-0.06,0.13c-0.09,0.2-0.17,0.41-0.24,0.61c-0.02,0.04-0.03,0.08-0.04,0.12
			c-0.08,0.22-0.15,0.43-0.22,0.66c-0.02,0.05-0.03,0.11-0.05,0.17c-0.07,0.22-0.12,0.44-0.18,0.67c-0.01,0.03-0.01,0.05-0.02,0.08
			c-0.01,0.05-0.02,0.11-0.03,0.16c-0.04,0.21-0.08,0.42-0.11,0.63c-0.01,0.07-0.02,0.13-0.03,0.2c-0.04,0.25-0.07,0.51-0.09,0.76
			c0,0.03-0.01,0.07-0.01,0.1c-0.01,0.16-0.02,0.31-0.03,0.47c-0.01,0.11-0.01,0.22-0.01,0.33v63.93c0-0.27,0.01-0.53,0.03-0.79
			c0-0.03,0.01-0.07,0.01-0.1c0.02-0.25,0.05-0.51,0.09-0.76c0.01-0.07,0.02-0.13,0.03-0.2c0.03-0.21,0.07-0.42,0.11-0.63
			c0.01-0.05,0.02-0.11,0.03-0.16c0.05-0.25,0.12-0.5,0.2-0.74c0.02-0.05,0.03-0.11,0.05-0.17c0.07-0.22,0.14-0.44,0.22-0.66
			c0.02-0.04,0.03-0.08,0.04-0.12c0.09-0.25,0.2-0.49,0.3-0.74c0.03-0.05,0.05-0.11,0.08-0.17c0.1-0.23,0.22-0.46,0.34-0.69
			c0.01-0.02,0.02-0.04,0.03-0.06c0.13-0.24,0.27-0.49,0.41-0.73c0.03-0.05,0.07-0.11,0.1-0.17c0.15-0.24,0.3-0.48,0.46-0.73
			c0.01-0.02,0.03-0.04,0.04-0.05c0.16-0.23,0.32-0.46,0.49-0.68c0.04-0.05,0.08-0.1,0.12-0.16c0.18-0.23,0.36-0.47,0.56-0.7
			c0.03-0.04,0.07-0.08,0.11-0.12c0.17-0.21,0.36-0.42,0.54-0.62c0.04-0.04,0.08-0.09,0.12-0.13c0.21-0.23,0.43-0.46,0.66-0.69
			c0.05-0.05,0.1-0.1,0.15-0.15c0.21-0.21,0.42-0.41,0.64-0.62c0.03-0.03,0.07-0.07,0.1-0.1c0.24-0.23,0.5-0.46,0.75-0.68
			c0.06-0.05,0.12-0.11,0.18-0.16c0.24-0.21,0.49-0.42,0.74-0.62c0.03-0.02,0.05-0.04,0.08-0.07c0.28-0.22,0.56-0.44,0.86-0.67
			c0.08-0.06,0.15-0.11,0.23-0.17c0.25-0.18,0.5-0.37,0.76-0.55c0.06-0.04,0.11-0.08,0.17-0.12c0.3-0.22,0.62-0.43,0.94-0.65
			c0.09-0.06,0.18-0.12,0.27-0.17c0.25-0.16,0.5-0.33,0.76-0.49c0.1-0.07,0.2-0.12,0.3-0.19c0.33-0.21,0.66-0.41,1-0.61
			c0.02-0.01,0.03-0.02,0.05-0.03c0.35-0.21,0.72-0.42,1.08-0.62c0.13-0.07,0.26-0.15,0.39-0.22c0.26-0.15,0.52-0.29,0.79-0.43
			c0.14-0.08,0.28-0.15,0.42-0.22c0.28-0.15,0.56-0.29,0.84-0.43c0.12-0.07,0.25-0.13,0.38-0.2c0.41-0.21,0.82-0.41,1.25-0.61
			c0.03-0.02,0.07-0.03,0.1-0.04c0.41-0.2,0.84-0.4,1.26-0.59c0.16-0.07,0.32-0.14,0.48-0.21c0.31-0.14,0.61-0.28,0.93-0.41
			c0.18-0.08,0.38-0.16,0.57-0.24c0.29-0.12,0.58-0.25,0.87-0.37c0.21-0.09,0.42-0.17,0.62-0.25c0.27-0.11,0.54-0.22,0.82-0.33
			c0.5-0.2,1.01-0.4,1.53-0.59c0.08-0.03,0.16-0.07,0.24-0.1c0.6-0.23,1.21-0.45,1.83-0.67c0.18-0.07,0.37-0.13,0.55-0.2
			c0.44-0.16,0.89-0.31,1.35-0.47c0.23-0.08,0.46-0.15,0.68-0.23c0.43-0.14,0.86-0.28,1.3-0.42c0.23-0.07,0.45-0.15,0.68-0.22
			c0.57-0.18,1.16-0.36,1.74-0.54c0.11-0.03,0.22-0.07,0.34-0.1c0.7-0.21,1.4-0.41,2.12-0.61c0.2-0.05,0.4-0.11,0.6-0.17
			c0.53-0.15,1.06-0.29,1.61-0.43c0.24-0.07,0.49-0.13,0.73-0.19c0.55-0.14,1.1-0.28,1.65-0.42c0.21-0.05,0.41-0.1,0.61-0.15
			c0.75-0.18,1.51-0.36,2.28-0.54c0.14-0.03,0.28-0.06,0.41-0.09c0.64-0.15,1.29-0.29,1.94-0.43c0.25-0.05,0.51-0.11,0.76-0.16
			c0.56-0.12,1.13-0.24,1.7-0.35c0.25-0.05,0.5-0.1,0.76-0.15c0.72-0.14,1.44-0.28,2.17-0.42c0.09-0.02,0.18-0.04,0.28-0.05
			c0.16-0.03,0.33-0.06,0.49-0.09c0.51-0.09,1.02-0.18,1.54-0.28c0.25-0.04,0.5-0.09,0.75-0.13c0.42-0.07,0.84-0.15,1.27-0.22
			c0.5-0.08,1.01-0.16,1.51-0.24c0.27-0.04,0.53-0.09,0.79-0.12c0.69-0.11,1.39-0.21,2.09-0.31c0.08-0.01,0.17-0.03,0.25-0.04
			c0.79-0.11,1.57-0.22,2.37-0.33c0.24-0.03,0.49-0.07,0.74-0.1c0.55-0.07,1.11-0.15,1.66-0.21c0.31-0.04,0.62-0.08,0.93-0.11
			c0.5-0.06,0.99-0.12,1.5-0.18c0.34-0.04,0.67-0.08,1.01-0.11c0.48-0.05,0.97-0.11,1.45-0.16c0.35-0.04,0.69-0.07,1.05-0.11
			c0.48-0.05,0.97-0.1,1.45-0.14c0.35-0.03,0.71-0.07,1.06-0.1c0.49-0.04,0.99-0.09,1.48-0.13c0.36-0.03,0.73-0.06,1.1-0.09
			c0.35-0.03,0.69-0.05,1.04-0.08c0.43-0.03,0.86-0.07,1.29-0.1c0.35-0.03,0.71-0.05,1.06-0.08c0.43-0.03,0.86-0.06,1.29-0.09
			c0.35-0.02,0.71-0.04,1.06-0.07c0.43-0.03,0.87-0.05,1.31-0.08c0.36-0.02,0.71-0.04,1.07-0.05c0.32-0.02,0.64-0.03,0.96-0.05
			c1.04-0.05,2.08-0.09,3.12-0.13c0.1-0.01,0.2-0.01,0.3-0.01c1.12-0.04,2.25-0.07,3.38-0.1c0.3-0.01,0.61-0.02,0.92-0.02
			c0.68-0.02,1.37-0.03,2.06-0.03c0.3-0.01,0.61-0.01,0.91-0.01c0.98-0.01,1.96-0.02,2.94-0.02c0.4,0,0.79,0.01,1.19,0.01
			c0.74,0.01,1.48,0.01,2.22,0.02c0.32,0.01,0.65,0.01,0.97,0.01c0.77,0.01,1.54,0.03,2.31,0.04c0.23,0.01,0.47,0.01,0.7,0.02
			c0.97,0.03,1.93,0.05,2.89,0.09c0.21,0.01,0.42,0.02,0.63,0.03c0.75,0.03,1.51,0.06,2.26,0.09c0.32,0.02,0.63,0.03,0.95,0.04
			c0.66,0.03,1.31,0.07,1.95,0.1c0.31,0.02,0.62,0.03,0.93,0.05c0.76,0.04,1.52,0.09,2.27,0.15c0.18,0.01,0.35,0.02,0.53,0.03
			c0.92,0.07,1.84,0.14,2.76,0.21c0.24,0.02,0.49,0.04,0.74,0.06c0.67,0.05,1.35,0.11,2.02,0.17c0.31,0.03,0.62,0.05,0.93,0.09
			c0.63,0.06,1.27,0.12,1.9,0.18c0.29,0.03,0.57,0.06,0.86,0.09c0.82,0.09,1.64,0.17,2.45,0.27c0.08,0.01,0.15,0.02,0.22,0.03
			c0.91,0.1,1.8,0.22,2.7,0.33c0.26,0.03,0.52,0.07,0.78,0.1c0.65,0.09,1.3,0.17,1.94,0.26c0.28,0.04,0.55,0.08,0.83,0.11
			c0.82,0.12,1.64,0.24,2.46,0.36c0.09,0.01,0.17,0.03,0.26,0.04c0.89,0.14,1.77,0.28,2.65,0.43c0.23,0.04,0.47,0.08,0.7,0.12
			c0.76,0.13,1.51,0.26,2.26,0.4c0.2,0.04,0.4,0.07,0.59,0.11c0.9,0.17,1.79,0.34,2.67,0.51c0.55,0.11,1.09,0.22,1.63,0.33
			c0.05,0.01,0.1,0.02,0.16,0.03c0.62,0.13,1.24,0.26,1.85,0.4c0.18,0.04,0.37,0.08,0.55,0.12c0.43,0.1,0.86,0.2,1.29,0.29
			c0.21,0.05,0.42,0.1,0.63,0.15c0.38,0.09,0.75,0.18,1.13,0.27c0.27,0.07,0.53,0.13,0.8,0.2c0.36,0.09,0.73,0.18,1.08,0.27
			c0.25,0.07,0.5,0.12,0.75,0.19c0.38,0.1,0.75,0.2,1.13,0.3c0.22,0.06,0.45,0.12,0.67,0.18c0.43,0.12,0.86,0.24,1.29,0.36
			c0.16,0.04,0.33,0.09,0.48,0.14c0.14,0.04,0.27,0.08,0.41,0.12c0.53,0.15,1.05,0.3,1.56,0.46c0.23,0.07,0.46,0.14,0.68,0.21
			c0.42,0.12,0.84,0.25,1.24,0.39c0.25,0.08,0.49,0.16,0.74,0.23c0.39,0.12,0.77,0.25,1.15,0.37c0.25,0.08,0.49,0.16,0.74,0.24
			c0.38,0.13,0.75,0.25,1.13,0.39c0.24,0.09,0.49,0.17,0.73,0.25c0.26,0.09,0.52,0.18,0.78,0.28c0.28,0.1,0.56,0.2,0.84,0.3
			c0.25,0.1,0.51,0.19,0.76,0.29c0.27,0.1,0.54,0.21,0.81,0.31c0.25,0.1,0.49,0.2,0.74,0.29c0.27,0.1,0.53,0.21,0.79,0.32
			c0.24,0.1,0.48,0.2,0.72,0.3c0.25,0.11,0.52,0.22,0.76,0.33c0.23,0.1,0.47,0.21,0.7,0.3c0.25,0.11,0.5,0.22,0.74,0.33
			c0.23,0.1,0.46,0.21,0.68,0.31c0.24,0.11,0.48,0.22,0.72,0.34c0.22,0.1,0.44,0.21,0.66,0.32c0.23,0.11,0.47,0.23,0.69,0.34
			c0.22,0.11,0.43,0.22,0.63,0.32c0.23,0.11,0.45,0.23,0.67,0.35c0.21,0.11,0.41,0.22,0.62,0.33c0.22,0.12,0.43,0.23,0.65,0.35
			c0.2,0.11,0.4,0.22,0.6,0.34c0.21,0.12,0.42,0.24,0.62,0.36c0.2,0.11,0.39,0.23,0.58,0.34c0.2,0.12,0.4,0.24,0.6,0.36
			c0.18,0.11,0.37,0.23,0.55,0.34c0.2,0.12,0.39,0.24,0.57,0.37c0.18,0.11,0.35,0.23,0.53,0.35c0.18,0.12,0.37,0.25,0.55,0.38
			c0.17,0.12,0.34,0.23,0.5,0.35c0.18,0.12,0.35,0.25,0.52,0.38c0.16,0.12,0.32,0.24,0.48,0.36c0.17,0.13,0.33,0.26,0.5,0.39
			c0.15,0.12,0.3,0.24,0.45,0.36c0.16,0.13,0.31,0.26,0.47,0.4c0.14,0.12,0.29,0.24,0.43,0.36c0.15,0.13,0.3,0.27,0.44,0.4
			c0.14,0.12,0.27,0.24,0.4,0.37c0.14,0.14,0.28,0.27,0.42,0.4c0.12,0.12,0.25,0.25,0.37,0.37c0.14,0.14,0.26,0.27,0.39,0.41
			c0.12,0.12,0.23,0.25,0.35,0.37c0.12,0.14,0.24,0.28,0.36,0.41c0.11,0.12,0.22,0.25,0.32,0.38c0.11,0.14,0.22,0.28,0.33,0.42
			c0.1,0.12,0.2,0.25,0.29,0.38c0.11,0.14,0.21,0.28,0.3,0.43c0.09,0.12,0.18,0.25,0.27,0.38c0.1,0.15,0.18,0.29,0.28,0.43
			c0.08,0.12,0.16,0.25,0.24,0.38c0.09,0.15,0.17,0.29,0.25,0.44c0.07,0.12,0.14,0.25,0.21,0.38c0.08,0.15,0.15,0.3,0.22,0.45
			c0.06,0.12,0.12,0.25,0.18,0.38c0.07,0.15,0.12,0.3,0.19,0.46c0.05,0.12,0.1,0.25,0.15,0.38c0.06,0.16,0.11,0.31,0.16,0.47
			c0.04,0.12,0.09,0.24,0.12,0.37c0.05,0.16,0.09,0.33,0.12,0.49c0.03,0.12,0.07,0.24,0.09,0.36c0.04,0.17,0.07,0.34,0.1,0.52
			c0.02,0.11,0.04,0.22,0.06,0.34c0.03,0.2,0.04,0.39,0.07,0.58c0.01,0.09,0.02,0.18,0.03,0.28c0.02,0.29,0.03,0.57,0.03,0.86l0,0
			l0,0L371.35,65.23L371.35,65.23z"/>
		<g>
			<path class="st1" d="M370.83,129.16c0-0.28-0.01-0.56-0.03-0.84c-0.01-0.05-0.01-0.1-0.02-0.15l-0.02-0.2
				c-0.02-0.16-0.03-0.33-0.05-0.49c-0.01-0.07-0.02-0.13-0.03-0.2l-0.04-0.23c-0.02-0.14-0.04-0.27-0.08-0.4
				c-0.02-0.08-0.04-0.15-0.05-0.22l-0.06-0.24c-0.03-0.12-0.06-0.24-0.1-0.36c-0.02-0.08-0.05-0.15-0.08-0.23l-0.08-0.23
				c-0.04-0.12-0.08-0.24-0.12-0.36c-0.03-0.08-0.07-0.16-0.1-0.24l-0.1-0.24c-0.04-0.11-0.09-0.22-0.14-0.33
				c-0.04-0.08-0.08-0.16-0.12-0.25l-0.1-0.22c-0.05-0.11-0.11-0.23-0.17-0.34c-0.04-0.09-0.09-0.17-0.14-0.25l-0.12-0.22
				c-0.06-0.11-0.12-0.22-0.18-0.33c-0.05-0.09-0.11-0.19-0.17-0.28l-0.11-0.18c-0.07-0.11-0.14-0.23-0.22-0.34
				c-0.06-0.09-0.12-0.18-0.19-0.27l-0.12-0.17c-0.08-0.11-0.16-0.23-0.25-0.35c-0.07-0.09-0.14-0.18-0.21-0.27l-0.14-0.18
				c-0.09-0.11-0.17-0.22-0.27-0.34c-0.08-0.1-0.17-0.2-0.25-0.29l-0.13-0.15c-0.1-0.11-0.19-0.22-0.29-0.34
				c-0.1-0.11-0.2-0.21-0.3-0.32l-0.05-0.05c-0.15-0.16-0.26-0.28-0.39-0.4c-0.1-0.1-0.21-0.21-0.31-0.31l-0.05-0.05
				c-0.14-0.14-0.27-0.27-0.41-0.4c-0.12-0.11-0.24-0.22-0.36-0.33c-0.18-0.16-0.33-0.29-0.47-0.43c-0.14-0.12-0.28-0.24-0.42-0.36
				c-0.16-0.14-0.31-0.27-0.47-0.39c-0.14-0.11-0.28-0.23-0.43-0.34c-0.18-0.15-0.35-0.27-0.52-0.4c-0.16-0.12-0.31-0.24-0.47-0.35
				c-0.17-0.12-0.34-0.25-0.52-0.38c-0.16-0.12-0.33-0.23-0.5-0.35c-0.18-0.12-0.36-0.25-0.54-0.37c-0.17-0.11-0.35-0.23-0.52-0.35
				c-0.19-0.12-0.37-0.24-0.57-0.37c-0.18-0.11-0.36-0.23-0.55-0.34c-0.2-0.12-0.39-0.24-0.59-0.36c-0.19-0.11-0.38-0.23-0.57-0.34
				c-0.21-0.12-0.41-0.24-0.62-0.36c-0.2-0.11-0.39-0.22-0.59-0.33c-0.21-0.12-0.43-0.23-0.65-0.35c-0.2-0.11-0.41-0.22-0.61-0.33
				c-0.22-0.11-0.44-0.23-0.67-0.35l-0.63-0.32c-0.23-0.11-0.46-0.23-0.69-0.34c-0.22-0.11-0.44-0.21-0.66-0.31
				c-0.24-0.11-0.48-0.22-0.72-0.34c-0.22-0.1-0.45-0.21-0.68-0.31c-0.24-0.11-0.49-0.22-0.74-0.33c-0.23-0.1-0.46-0.21-0.7-0.3
				c-0.25-0.11-0.51-0.22-0.76-0.33l-0.72-0.3c-0.26-0.11-0.52-0.21-0.79-0.31l-0.74-0.29c-0.27-0.1-0.54-0.21-0.81-0.31l-0.75-0.29
				c-0.24-0.09-0.48-0.18-0.72-0.27l-1.61-0.57c-0.37-0.13-0.74-0.26-1.12-0.39l-0.74-0.24c-0.38-0.12-0.76-0.25-1.15-0.37
				l-0.74-0.23c-0.41-0.13-0.82-0.25-1.24-0.38l-0.68-0.21c-0.52-0.15-1.04-0.3-1.56-0.46l-0.89-0.25
				c-0.43-0.12-0.86-0.24-1.29-0.36l-0.67-0.18c-0.37-0.1-0.75-0.2-1.13-0.3l-0.9-0.23c-0.31-0.08-0.62-0.16-0.94-0.23l-0.77-0.18
				c-0.41-0.1-0.78-0.18-1.16-0.28l-0.62-0.15c-0.43-0.1-0.86-0.2-1.29-0.29l-0.55-0.12c-0.61-0.14-1.23-0.27-1.84-0.4l-0.16-0.03
				c-0.54-0.11-1.08-0.22-1.63-0.33c-0.88-0.17-1.77-0.35-2.67-0.51l-0.59-0.11c-0.75-0.14-1.5-0.27-2.26-0.4l-0.7-0.12
				c-0.88-0.15-1.76-0.29-2.65-0.43l-0.26-0.04c-0.81-0.12-1.63-0.24-2.45-0.36l-0.83-0.11c-0.65-0.09-1.29-0.18-1.94-0.26
				l-0.78-0.1c-0.89-0.11-1.79-0.22-2.69-0.33l-0.22-0.02c-0.81-0.09-1.63-0.18-2.45-0.27l-0.85-0.09c-0.63-0.07-1.26-0.12-1.9-0.18
				l-0.92-0.09c-0.67-0.06-1.34-0.12-2.01-0.17l-0.74-0.06c-0.91-0.07-1.83-0.14-2.76-0.21l-0.53-0.03
				c-0.75-0.05-1.51-0.1-2.27-0.15l-0.93-0.05c-0.65-0.04-1.3-0.07-1.95-0.1l-0.95-0.04c-0.75-0.03-1.5-0.07-2.26-0.09l-0.63-0.03
				c-0.96-0.03-1.92-0.07-2.89-0.09l-0.7-0.02c-0.76-0.02-1.54-0.03-2.31-0.04l-0.97-0.01c-0.74-0.01-1.48-0.02-2.21-0.02
				l-1.19-0.01c-0.98,0-1.96,0.01-2.94,0.02l-0.91,0.01c-0.69,0.01-1.37,0.02-2.06,0.03l-0.91,0.02c-1.13,0.03-2.26,0.06-3.38,0.1
				l-0.3,0.01c-1.04,0.04-2.08,0.08-3.12,0.13l-2.03,0.1c-0.43,0.02-0.87,0.05-1.31,0.08l-3.41,0.22c-0.43,0.03-0.86,0.07-1.29,0.1
				l-2.13,0.17c-0.51,0.04-1,0.09-1.49,0.13l-1.06,0.1c-0.48,0.04-0.97,0.09-1.45,0.14l-1.04,0.11c-0.49,0.05-0.97,0.1-1.45,0.16
				l-1.01,0.11c-0.5,0.06-1,0.11-1.49,0.18l-0.93,0.11c-0.55,0.07-1.11,0.14-1.66,0.21l-0.73,0.1c-0.79,0.11-1.58,0.22-2.36,0.33
				l-0.25,0.04c-0.7,0.1-1.39,0.21-2.08,0.31l-0.98,0.16c-0.44,0.07-0.88,0.14-1.32,0.21c-0.42,0.07-0.85,0.14-1.26,0.22l-0.74,0.13
				c-0.52,0.09-1.03,0.18-1.54,0.28l-0.77,0.14c-0.73,0.14-1.45,0.28-2.16,0.42l-0.76,0.15c-0.57,0.11-1.13,0.23-1.69,0.35
				l-0.76,0.16c-0.65,0.14-1.29,0.28-1.93,0.43l-0.41,0.09c-0.76,0.18-1.52,0.36-2.28,0.54l-0.61,0.15
				c-0.55,0.14-1.11,0.28-1.65,0.42l-0.73,0.19c-0.54,0.14-1.07,0.29-1.6,0.43l-0.6,0.16c-0.71,0.2-1.42,0.4-2.12,0.61l-0.34,0.1
				c-0.59,0.17-1.17,0.35-1.74,0.53l-0.65,0.21c-0.47,0.15-0.9,0.29-1.32,0.43l-0.68,0.23c-0.45,0.15-0.9,0.31-1.34,0.46l-0.55,0.19
				c-0.61,0.22-1.23,0.44-1.82,0.67l-0.24,0.09c-0.52,0.2-1.02,0.39-1.52,0.59c-0.28,0.11-0.55,0.22-0.82,0.33l-0.62,0.25
				c-0.29,0.12-0.58,0.24-0.87,0.37l-0.56,0.24c-0.3,0.13-0.6,0.27-0.9,0.4l-0.5,0.22c-0.42,0.2-0.84,0.39-1.25,0.59l-0.05,0.03
				c-0.47,0.22-0.88,0.43-1.29,0.63l-0.37,0.19c-0.28,0.15-0.56,0.29-0.84,0.43l-0.39,0.21c-0.3,0.16-0.56,0.3-0.82,0.45l-0.39,0.22
				c-0.36,0.21-0.72,0.41-1.07,0.62l-0.23-0.28l0.18,0.3c-0.34,0.2-0.67,0.4-0.99,0.61l-0.27,0.17c-0.29,0.18-0.54,0.35-0.79,0.51
				l-0.27,0.17c-0.31,0.21-0.63,0.42-0.93,0.64l-0.17,0.12c-0.25,0.18-0.5,0.36-0.75,0.55l-0.23,0.17
				c-0.29,0.22-0.57,0.44-0.85,0.66l-0.08,0.07c-0.25,0.21-0.5,0.41-0.74,0.62l-0.18,0.16c-0.25,0.22-0.5,0.44-0.75,0.67l-0.1,0.1
				c-0.22,0.21-0.43,0.41-0.63,0.61l-0.15,0.15c-0.22,0.23-0.44,0.45-0.65,0.68l-0.08,0.09c-0.22,0.24-0.4,0.44-0.57,0.65l-0.1,0.12
				c-0.19,0.23-0.37,0.46-0.55,0.69l-0.09,0.11c-0.2,0.26-0.35,0.48-0.5,0.71l-0.33-0.14l0.29,0.2c-0.16,0.23-0.31,0.47-0.46,0.71
				l-0.1,0.17c-0.14,0.24-0.28,0.48-0.4,0.72l-0.34-0.1l0.31,0.16c-0.11,0.22-0.23,0.45-0.33,0.68l-0.08,0.16
				c-0.11,0.24-0.21,0.48-0.3,0.72l-0.04,0.12c-0.08,0.21-0.15,0.42-0.21,0.64l-0.05,0.16c-0.07,0.24-0.14,0.48-0.19,0.72
				l-0.03,0.16c-0.04,0.2-0.08,0.4-0.11,0.61l-0.03,0.19c-0.04,0.25-0.07,0.49-0.08,0.74l-0.01,0.1c-0.02,0.25-0.03,0.51-0.03,0.76
				h-0.71V65.23c0-0.11,0-0.22,0.01-0.34c0.01-0.16,0.02-0.32,0.03-0.48l0.01-0.11c0.02-0.27,0.05-0.53,0.09-0.79l0.03-0.16
				c0.04-0.25,0.08-0.47,0.12-0.68l0.05-0.25c0.05-0.23,0.11-0.46,0.18-0.69l0.05-0.17c0.07-0.23,0.15-0.45,0.23-0.67l0.04-0.12
				c0.08-0.21,0.16-0.42,0.25-0.62l0.12-0.26c0.12-0.28,0.24-0.52,0.36-0.75l0.03-0.07c0.13-0.25,0.27-0.49,0.42-0.74l0.22-0.36
				c0.11-0.18,0.23-0.37,0.36-0.55l0.04-0.05c0.16-0.23,0.33-0.46,0.49-0.69l0.12-0.16c0.16-0.22,0.33-0.43,0.51-0.65l0.16-0.2
				c0.18-0.21,0.36-0.42,0.55-0.63l0.12-0.14c0.21-0.23,0.43-0.47,0.66-0.7l0.4-0.4c0.11-0.11,0.23-0.22,0.34-0.33l0.16-0.15
				c0.24-0.23,0.5-0.46,0.76-0.68l0.19-0.16c0.24-0.21,0.49-0.42,0.75-0.63l0.08-0.07c0.3-0.24,0.58-0.46,0.86-0.67l0.23-0.17
				c0.25-0.18,0.5-0.37,0.76-0.56l0.17-0.12c0.27-0.19,0.54-0.37,0.81-0.56l0.4-0.27c0.25-0.17,0.5-0.33,0.76-0.5l0.3-0.19
				c0.33-0.21,0.67-0.41,1.01-0.61l0.05-0.03c0.3-0.18,0.6-0.35,0.91-0.53l0.57-0.32c0.26-0.15,0.53-0.29,0.79-0.43l0.42-0.23
				c0.28-0.15,0.56-0.29,0.85-0.44l0.38-0.2c0.41-0.21,0.82-0.41,1.25-0.62l0.05-0.03c0.46-0.22,0.88-0.42,1.31-0.61l0.48-0.22
				c0.3-0.14,0.61-0.28,0.92-0.41l0.7-0.3c0.25-0.1,0.49-0.21,0.75-0.31l1.45-0.59c0.5-0.2,1.01-0.4,1.54-0.6l0.25-0.1
				c0.6-0.23,1.22-0.45,1.83-0.67l0.55-0.2c0.44-0.16,0.9-0.31,1.35-0.47l0.69-0.23c0.43-0.14,0.86-0.28,1.3-0.42l0.68-0.22
				c0.57-0.18,1.16-0.36,1.75-0.54l0.34-0.1c0.7-0.21,1.41-0.41,2.13-0.61l0.6-0.17c0.53-0.15,1.07-0.29,1.61-0.43l0.73-0.19
				c0.55-0.14,1.1-0.28,1.66-0.42l0.61-0.15c0.75-0.18,1.52-0.36,2.29-0.54l0.41-0.09c0.64-0.15,1.29-0.29,1.94-0.43l0.77-0.16
				c0.56-0.12,1.13-0.24,1.7-0.35l0.76-0.16c0.72-0.14,1.44-0.28,2.17-0.42l0.77-0.14c0.51-0.09,1.02-0.18,1.54-0.28l2.02-0.35
				c0.5-0.08,1.01-0.16,1.51-0.24l0.8-0.12c0.69-0.11,1.39-0.21,2.09-0.31l0.25-0.04c0.79-0.11,1.57-0.22,2.37-0.33l0.74-0.1
				c0.55-0.07,1.11-0.15,1.67-0.22l0.93-0.11c0.5-0.06,1-0.12,1.5-0.18l1-0.11c0.49-0.05,0.97-0.11,1.46-0.16l1.05-0.11
				c0.48-0.05,0.97-0.1,1.45-0.14l1.06-0.1c0.49-0.04,0.99-0.09,1.48-0.13l2.14-0.17c0.43-0.03,0.86-0.07,1.29-0.1l1.06-0.08
				c0.43-0.03,0.86-0.06,1.3-0.09l4.42-0.24c1.04-0.05,2.08-0.09,3.12-0.13l0.3-0.01c1.12-0.04,2.26-0.07,3.39-0.1l0.91-0.02
				c0.69-0.02,1.38-0.03,2.07-0.03l0.96-0.04c0.98-0.01,1.96-0.02,2.95-0.02l1.19,0.01c0.74,0.01,1.49,0.01,2.22,0.02l0.97,0.01
				c0.78,0.01,1.55,0.03,2.32,0.04l0.69,0.02c0.97,0.02,1.94,0.05,2.9,0.09l0.63,0.03c0.75,0.03,1.51,0.06,2.26,0.09l0.95,0.04
				c0.66,0.03,1.31,0.07,1.96,0.1l0.93,0.05c0.76,0.04,1.52,0.09,2.27,0.15l0.53,0.03c0.93,0.07,1.84,0.14,2.76,0.21l0.74,0.06
				c0.67,0.05,1.35,0.11,2.02,0.17l0.93,0.09c0.64,0.06,1.27,0.12,1.9,0.18l0.86,0.09c0.82,0.09,1.64,0.17,2.46,0.27l0.2,0.02
				c0.93,0.11,1.83,0.22,2.73,0.33l0.78,0.1c0.65,0.09,1.3,0.17,1.95,0.26l0.82,0.11c0.82,0.12,1.65,0.24,2.46,0.36l0.26,0.04
				c0.9,0.14,1.78,0.28,2.66,0.43l0.7,0.12c0.76,0.13,1.52,0.26,2.27,0.4l0.6,0.11c0.9,0.17,1.8,0.34,2.68,0.52l0.18,0.03
				c0.48,0.1,0.96,0.2,1.44,0.29l0.17,0.04c0.62,0.13,1.24,0.26,1.85,0.4l0.55,0.12c0.43,0.1,0.86,0.2,1.29,0.29l2.56,0.61
				c0.36,0.09,0.73,0.18,1.08,0.27l0.76,0.19c0.38,0.1,0.76,0.2,1.13,0.3l0.68,0.18c0.43,0.12,0.87,0.24,1.3,0.36l0.48,0.14
				l-0.04,0.36l0.1-0.34l0.35,0.1c0.53,0.15,1.05,0.3,1.57,0.46l0.68,0.21c0.42,0.12,0.84,0.25,1.25,0.39l0.74,0.23
				c0.39,0.12,0.78,0.25,1.16,0.37c0.25,0.08,0.49,0.16,0.74,0.24c0.38,0.13,0.75,0.26,1.13,0.39l0.73,0.25
				c0.26,0.09,0.52,0.19,0.78,0.28c0.28,0.1,0.56,0.2,0.84,0.3c0.25,0.1,0.51,0.2,0.76,0.29c0.27,0.1,0.54,0.21,0.81,0.31
				c0.25,0.1,0.5,0.2,0.74,0.29c0.27,0.1,0.53,0.21,0.79,0.32l0.72,0.3c0.26,0.11,0.52,0.22,0.77,0.33l0.71,0.31
				c0.25,0.11,0.5,0.22,0.74,0.33c0.23,0.1,0.46,0.21,0.68,0.31c0.24,0.11,0.48,0.22,0.72,0.34c0.22,0.1,0.44,0.21,0.66,0.32
				c0.23,0.11,0.47,0.23,0.7,0.34c0.22,0.11,0.43,0.22,0.64,0.33c0.23,0.11,0.45,0.23,0.67,0.35c0.21,0.11,0.42,0.22,0.62,0.33
				c0.22,0.12,0.43,0.23,0.65,0.35c0.2,0.11,0.4,0.22,0.6,0.34c0.21,0.12,0.42,0.24,0.62,0.36c0.2,0.11,0.39,0.23,0.58,0.34
				c0.2,0.12,0.4,0.24,0.6,0.36c0.18,0.11,0.37,0.23,0.55,0.35c0.2,0.12,0.39,0.25,0.57,0.37c0.18,0.11,0.36,0.23,0.53,0.35
				c0.18,0.12,0.37,0.25,0.55,0.38c0.17,0.12,0.34,0.24,0.5,0.36c0.18,0.12,0.35,0.25,0.53,0.39c0.16,0.12,0.33,0.24,0.48,0.36
				c0.17,0.13,0.34,0.26,0.5,0.39c0.15,0.12,0.31,0.24,0.46,0.36s0.29,0.24,0.43,0.36l0.04,0.04c0.16,0.14,0.3,0.25,0.43,0.37
				c0.15,0.14,0.3,0.27,0.45,0.4c0.16,0.15,0.29,0.26,0.41,0.37c0.14,0.13,0.27,0.26,0.41,0.39l0.09,0.09c0.1,0.1,0.21,0.2,0.3,0.3
				c0.12,0.12,0.24,0.25,0.36,0.39l0.08,0.08c0.1,0.11,0.21,0.22,0.3,0.33c0.1,0.11,0.2,0.23,0.3,0.35l0.12,0.14
				c0.09,0.1,0.18,0.21,0.27,0.31c0.1,0.12,0.19,0.24,0.29,0.36l0.11,0.14c0.08,0.1,0.16,0.21,0.24,0.31
				c0.09,0.11,0.17,0.23,0.25,0.35l0.14,0.19c0.07,0.1,0.14,0.19,0.2,0.29c0.08,0.12,0.16,0.24,0.23,0.36l0.11,0.18
				c0.06,0.09,0.12,0.19,0.17,0.28c0.07,0.11,0.13,0.23,0.2,0.35l0.12,0.22c0.05,0.09,0.1,0.18,0.15,0.28
				c0.06,0.12,0.12,0.24,0.17,0.36l0.1,0.21c0.04,0.09,0.09,0.18,0.14,0.28c0.05,0.11,0.1,0.23,0.15,0.35l0.1,0.24
				c0.04,0.09,0.07,0.18,0.1,0.27c0.05,0.12,0.09,0.25,0.13,0.37l0.08,0.23c0.03,0.09,0.06,0.17,0.09,0.26
				c0.04,0.12,0.07,0.25,0.1,0.38l0.06,0.24c0.02,0.08,0.04,0.17,0.07,0.25c0.03,0.14,0.05,0.28,0.08,0.41l0.04,0.23
				c0.02,0.08,0.03,0.15,0.04,0.23c0.03,0.17,0.04,0.34,0.06,0.51l0.02,0.19c0.01,0.06,0.02,0.12,0.02,0.18
				c0.02,0.29,0.03,0.59,0.03,0.89v63.93L370.83,129.16z M272.19,94.95l1.19,0.01c0.74,0.01,1.48,0.01,2.22,0.02l0.97,0.01
				c0.77,0.01,1.54,0.03,2.31,0.04l0.71,0.02c0.97,0.02,1.93,0.05,2.9,0.09l0.63,0.03c0.75,0.03,1.51,0.06,2.26,0.09l0.95,0.04
				c0.66,0.03,1.31,0.07,1.96,0.1l0.93,0.05c0.76,0.04,1.52,0.09,2.27,0.15l0.53,0.03c0.93,0.07,1.84,0.14,2.76,0.21l0.74,0.06
				c0.68,0.05,1.35,0.11,2.02,0.17l0.93,0.09c0.64,0.06,1.27,0.12,1.9,0.18l0.86,0.09c0.82,0.09,1.64,0.17,2.46,0.27l0.22,0.03
				c0.91,0.1,1.81,0.22,2.7,0.33l0.78,0.1c0.65,0.09,1.3,0.17,1.94,0.26l0.83,0.11c0.82,0.12,1.64,0.24,2.46,0.36l0.26,0.04
				c0.9,0.14,1.78,0.28,2.66,0.43l0.7,0.12c0.76,0.13,1.52,0.26,2.27,0.4l0.6,0.11c0.9,0.17,1.79,0.34,2.67,0.51
				c0.55,0.11,1.1,0.22,1.64,0.33l0.16,0.03c0.62,0.13,1.24,0.26,1.85,0.4l0.55,0.12c0.43,0.1,0.86,0.2,1.29,0.29l0.63,0.15
				c0.38,0.09,0.75,0.18,1.13,0.27l0.8,0.2c0.31,0.08,0.63,0.16,0.94,0.23l0.9,0.23c0.38,0.1,0.76,0.2,1.13,0.3l0.68,0.18
				c0.43,0.12,0.87,0.24,1.3,0.36l0.89,0.25c0.53,0.15,1.05,0.3,1.57,0.46l0.68,0.21c0.42,0.12,0.84,0.25,1.25,0.39l0.69,0.22
				c0.43,0.14,0.82,0.27,1.2,0.39l0.74,0.25c0.38,0.13,0.75,0.26,1.13,0.39l1.62,0.58c0.24,0.09,0.48,0.18,0.73,0.27l0.76,0.29
				c0.27,0.1,0.54,0.21,0.81,0.31l0.74,0.29c0.27,0.11,0.53,0.21,0.79,0.32l0.72,0.3c0.26,0.11,0.52,0.22,0.77,0.33
				c0.23,0.1,0.47,0.21,0.71,0.31c0.25,0.11,0.5,0.22,0.74,0.33c0.23,0.1,0.46,0.21,0.68,0.31c0.24,0.11,0.48,0.22,0.72,0.34
				c0.22,0.1,0.44,0.21,0.66,0.32c0.23,0.11,0.47,0.23,0.7,0.34l0.64,0.33c0.23,0.12,0.46,0.23,0.68,0.35
				c0.21,0.11,0.42,0.22,0.62,0.33c0.22,0.12,0.43,0.24,0.65,0.36c0.2,0.11,0.4,0.22,0.6,0.34c0.21,0.12,0.42,0.24,0.62,0.36
				c0.2,0.11,0.39,0.23,0.58,0.34c0.2,0.12,0.4,0.24,0.6,0.37c0.18,0.11,0.37,0.23,0.55,0.35c0.2,0.12,0.39,0.25,0.57,0.37
				c0.18,0.11,0.35,0.23,0.53,0.35c0.18,0.12,0.37,0.25,0.55,0.38c0.17,0.12,0.34,0.24,0.5,0.36c0.18,0.12,0.35,0.25,0.53,0.39
				c0.16,0.12,0.33,0.24,0.48,0.36c0.17,0.13,0.34,0.26,0.5,0.39c0.17,0.13,0.31,0.25,0.46,0.36c0.16,0.13,0.31,0.26,0.47,0.39
				c0.15,0.13,0.3,0.25,0.44,0.37c0.15,0.14,0.3,0.27,0.45,0.4c0.16,0.15,0.28,0.26,0.41,0.37c0.15,0.14,0.28,0.27,0.42,0.41
				l0.05,0.05c0.11,0.11,0.22,0.21,0.33,0.32c0.12,0.12,0.24,0.25,0.36,0.39l0.08,0.08c0.1,0.11,0.21,0.22,0.3,0.33
				c0.1,0.11,0.2,0.23,0.3,0.35l0.13,0.15c0.09,0.1,0.18,0.21,0.26,0.31c0.09,0.11,0.18,0.23,0.28,0.35l0.14,0.18
				c0.08,0.09,0.15,0.19,0.22,0.28c0.09,0.12,0.17,0.24,0.26,0.36l0.12,0.17c0.07,0.09,0.14,0.19,0.2,0.28
				c0.08,0.12,0.15,0.24,0.23,0.36l0.11,0.17c0.07,0.1,0.12,0.2,0.18,0.3c0.07,0.11,0.14,0.23,0.2,0.35l0.12,0.22
				c0.05,0.09,0.1,0.18,0.15,0.27c0.07,0.12,0.12,0.24,0.18,0.37l0.1,0.21c0.04,0.09,0.09,0.18,0.13,0.27
				c0.05,0.12,0.1,0.23,0.15,0.35l0.1,0.24c0.04,0.09,0.07,0.18,0.1,0.27s0.07,0.18,0.1,0.28V65.24c0-0.28-0.01-0.56-0.03-0.84
				c-0.01-0.05-0.01-0.1-0.02-0.15l-0.02-0.21c-0.02-0.16-0.03-0.31-0.05-0.47c-0.01-0.07-0.02-0.13-0.04-0.2l-0.04-0.25
				c-0.02-0.13-0.04-0.25-0.07-0.39c-0.02-0.08-0.04-0.15-0.05-0.22l-0.07-0.25c-0.03-0.12-0.06-0.23-0.09-0.35
				c-0.02-0.08-0.05-0.16-0.08-0.23l-0.08-0.24c-0.04-0.11-0.08-0.23-0.12-0.35c-0.03-0.08-0.07-0.16-0.1-0.24l-0.1-0.24
				c-0.04-0.11-0.09-0.22-0.14-0.33c-0.04-0.09-0.08-0.17-0.12-0.26l-0.1-0.21c-0.05-0.11-0.11-0.23-0.16-0.34
				c-0.04-0.09-0.09-0.17-0.14-0.25L369.07,59c-0.06-0.11-0.12-0.22-0.18-0.33c-0.05-0.09-0.11-0.18-0.16-0.27l-0.12-0.19
				c-0.07-0.11-0.15-0.23-0.22-0.35c-0.06-0.09-0.12-0.18-0.19-0.27l-0.14-0.19c-0.08-0.11-0.16-0.22-0.24-0.33
				c-0.08-0.1-0.15-0.2-0.23-0.29l-0.11-0.14c-0.09-0.11-0.18-0.23-0.28-0.35c-0.08-0.1-0.17-0.21-0.26-0.3l-0.12-0.14
				c-0.1-0.11-0.19-0.22-0.29-0.34c-0.1-0.11-0.2-0.21-0.3-0.32l-0.05-0.05c-0.15-0.16-0.26-0.28-0.39-0.4
				c-0.1-0.1-0.2-0.2-0.29-0.29l-0.08-0.08c-0.15-0.14-0.28-0.27-0.41-0.4c-0.12-0.11-0.24-0.22-0.36-0.33
				c-0.18-0.17-0.33-0.3-0.48-0.43c-0.13-0.11-0.27-0.23-0.4-0.34l-0.07-0.05c-0.14-0.12-0.28-0.23-0.42-0.35
				c-0.15-0.12-0.3-0.24-0.45-0.36c-0.16-0.13-0.33-0.25-0.49-0.39c-0.16-0.12-0.31-0.24-0.47-0.35c-0.17-0.12-0.34-0.25-0.52-0.38
				c-0.16-0.12-0.33-0.23-0.5-0.35c-0.18-0.12-0.36-0.25-0.54-0.37c-0.17-0.11-0.35-0.23-0.52-0.35c-0.19-0.12-0.37-0.24-0.57-0.37
				c-0.18-0.11-0.36-0.23-0.55-0.34c-0.2-0.12-0.39-0.24-0.59-0.36c-0.19-0.11-0.38-0.23-0.57-0.34c-0.2-0.12-0.41-0.24-0.62-0.36
				c-0.2-0.11-0.4-0.22-0.59-0.34c-0.21-0.12-0.42-0.23-0.64-0.35c-0.21-0.11-0.41-0.22-0.62-0.33c-0.22-0.11-0.44-0.23-0.67-0.35
				c-0.21-0.11-0.42-0.22-0.63-0.32c-0.23-0.11-0.46-0.23-0.69-0.34c-0.22-0.11-0.44-0.21-0.66-0.31c-0.24-0.11-0.47-0.22-0.72-0.34
				c-0.23-0.1-0.45-0.21-0.68-0.31c-0.24-0.11-0.49-0.22-0.74-0.33l-0.7-0.3c-0.25-0.11-0.5-0.22-0.76-0.33l-0.72-0.3
				c-0.26-0.11-0.52-0.21-0.78-0.31c-0.24-0.1-0.49-0.2-0.74-0.29c-0.27-0.1-0.54-0.21-0.81-0.31c-0.25-0.1-0.5-0.19-0.76-0.29
				c-0.27-0.1-0.55-0.21-0.83-0.3c-0.26-0.09-0.52-0.19-0.78-0.28l-0.73-0.25c-0.37-0.13-0.74-0.26-1.12-0.39
				c-0.24-0.08-0.49-0.16-0.73-0.24c-0.38-0.12-0.76-0.25-1.15-0.37l-0.73-0.23c-0.41-0.13-0.83-0.25-1.25-0.39l-0.68-0.21
				c-0.52-0.15-1.04-0.3-1.56-0.46l-0.89-0.25c-0.43-0.12-0.86-0.24-1.29-0.35l-0.67-0.18c-0.37-0.1-0.75-0.2-1.13-0.3l-0.75-0.19
				c-0.36-0.09-0.72-0.18-1.08-0.27l-2.55-0.61c-0.43-0.1-0.86-0.2-1.29-0.29l-0.55-0.12c-0.61-0.14-1.22-0.27-1.84-0.39l-0.14-0.03
				c-0.51-0.11-0.99-0.21-1.47-0.3l-0.18-0.03c-0.88-0.17-1.77-0.35-2.67-0.51l-0.59-0.11c-0.75-0.14-1.5-0.27-2.26-0.4l-0.7-0.12
				c-0.87-0.15-1.76-0.29-2.65-0.43l-0.26-0.04c-0.81-0.12-1.63-0.24-2.45-0.36l-0.82-0.11c-0.65-0.09-1.29-0.18-1.94-0.26
				l-0.78-0.1c-0.9-0.11-1.79-0.22-2.69-0.33l-0.22-0.02c-0.81-0.09-1.63-0.18-2.45-0.27l-0.85-0.09c-0.63-0.07-1.26-0.12-1.9-0.18
				l-0.92-0.09c-0.67-0.06-1.34-0.12-2.01-0.17l-0.74-0.06c-0.91-0.07-1.83-0.14-2.76-0.21l-0.53-0.03
				c-0.75-0.05-1.51-0.1-2.27-0.15l-0.93-0.05c-0.65-0.04-1.3-0.07-1.95-0.1l-0.95-0.04c-0.75-0.03-1.5-0.07-2.26-0.09l-0.63-0.03
				c-0.96-0.03-1.92-0.07-2.89-0.09l-0.69-0.02c-0.77-0.02-1.54-0.03-2.31-0.04l-0.97-0.01c-0.74-0.01-1.48-0.02-2.22-0.02
				l-1.18-0.01c-0.98,0-1.96,0.01-2.94,0.02l-0.91,0.01c-0.69,0.01-1.38,0.02-2.06,0.03l-0.91,0.02c-1.13,0.03-2.26,0.06-3.38,0.1
				l-0.3,0.01c-1.04,0.04-2.08,0.08-3.12,0.13l-4.4,0.24c-0.43,0.03-0.86,0.05-1.29,0.09l-1.06,0.08c-0.43,0.03-0.86,0.07-1.29,0.1
				l-2.14,0.17c-0.49,0.04-0.99,0.09-1.48,0.13l-1.06,0.1c-0.48,0.04-0.97,0.09-1.45,0.14l-1.04,0.11c-0.49,0.05-0.97,0.1-1.45,0.16
				l-1,0.11c-0.5,0.06-1,0.12-1.5,0.18l-0.93,0.11c-0.55,0.07-1.11,0.14-1.66,0.21l-0.73,0.1c-0.79,0.11-1.58,0.22-2.36,0.33
				l-0.25,0.04c-0.7,0.1-1.39,0.21-2.08,0.31l-0.79,0.12c-0.5,0.08-1.01,0.16-1.51,0.24l-2.01,0.34c-0.52,0.09-1.03,0.18-1.54,0.28
				l-0.77,0.14c-0.73,0.14-1.45,0.28-2.16,0.42l-0.76,0.15c-0.57,0.11-1.13,0.23-1.69,0.35l-0.76,0.16
				c-0.65,0.14-1.29,0.28-1.93,0.43l-0.41,0.09c-0.77,0.18-1.53,0.36-2.28,0.54l-0.61,0.15c-0.55,0.14-1.11,0.28-1.65,0.42
				l-0.73,0.19c-0.54,0.14-1.07,0.29-1.6,0.43l-0.6,0.17c-0.72,0.2-1.42,0.4-2.12,0.61l-0.34,0.1c-0.59,0.17-1.17,0.35-1.74,0.53
				l-0.68,0.22c-0.43,0.14-0.86,0.28-1.29,0.42l-0.68,0.23c-0.45,0.15-0.9,0.31-1.34,0.46l-0.55,0.19
				c-0.61,0.22-1.23,0.44-1.82,0.67l-0.24,0.09c-0.52,0.2-1.02,0.39-1.52,0.59l-1.44,0.59c-0.25,0.1-0.49,0.21-0.74,0.31l-0.69,0.3
				c-0.31,0.14-0.61,0.27-0.92,0.41l-0.48,0.22c-0.42,0.2-0.84,0.39-1.25,0.59l-0.05,0.03c-0.47,0.22-0.88,0.43-1.29,0.63l-0.38,0.2
				c-0.28,0.15-0.56,0.29-0.84,0.43l-0.42,0.22c-0.27,0.14-0.53,0.28-0.78,0.43l-0.56,0.31c-0.3,0.17-0.6,0.35-0.9,0.52l-0.23-0.28
				l0.18,0.3c-0.34,0.2-0.67,0.41-0.99,0.61l-0.27,0.17c-0.29,0.18-0.54,0.35-0.79,0.51l-0.4,0.26c-0.27,0.18-0.54,0.37-0.8,0.55
				l-0.17,0.12c-0.25,0.18-0.5,0.37-0.75,0.55l-0.23,0.17c-0.28,0.21-0.55,0.42-0.82,0.64l-0.29-0.22l0.23,0.27l-0.04,0.04
				c-0.25,0.21-0.5,0.41-0.74,0.62l-0.18,0.16c-0.25,0.22-0.5,0.44-0.75,0.67l-0.16,0.15c-0.11,0.1-0.22,0.21-0.33,0.31l-0.39,0.39
				c-0.22,0.23-0.44,0.45-0.65,0.68l-0.12,0.13c-0.18,0.21-0.36,0.41-0.54,0.61l-0.1,0.12l-0.33-0.16l0.27,0.22
				c-0.17,0.21-0.33,0.42-0.49,0.62l-0.11,0.15c-0.17,0.22-0.33,0.44-0.48,0.67l-0.33-0.15l0.29,0.2c-0.12,0.18-0.23,0.35-0.35,0.53
				l-0.21,0.34c-0.14,0.24-0.28,0.48-0.4,0.72l-0.34-0.1l0.31,0.16c-0.11,0.22-0.23,0.45-0.33,0.68l-0.13,0.29
				c-0.09,0.2-0.16,0.4-0.24,0.6l-0.04,0.12c-0.08,0.21-0.15,0.42-0.22,0.64l-0.05,0.16c-0.07,0.22-0.12,0.43-0.17,0.65l-0.36-0.01
				l0.35,0.08l-0.03,0.16c-0.04,0.2-0.08,0.4-0.11,0.61l-0.03,0.19c-0.04,0.25-0.07,0.49-0.08,0.74l-0.01,0.1
				c-0.01,0.15-0.02,0.3-0.02,0.45c0,0.1-0.01,0.21-0.01,0.31V125c0.03-0.08,0.05-0.15,0.08-0.23l0.04-0.13
				c0.09-0.25,0.2-0.5,0.31-0.76l0.05-0.12c0.13-0.28,0.24-0.52,0.36-0.75l0.03-0.07c0.13-0.25,0.27-0.5,0.42-0.75l0.1-0.17
				c0.15-0.25,0.3-0.49,0.47-0.74l0.04-0.05c0.16-0.23,0.33-0.46,0.49-0.69l0.12-0.16c0.18-0.24,0.37-0.48,0.56-0.72l0.11-0.13
				c0.18-0.21,0.36-0.42,0.55-0.63l0.12-0.14c0.22-0.23,0.43-0.47,0.66-0.7l0.12-0.12c0.23-0.23,0.45-0.44,0.67-0.65l0.1-0.1
				c0.25-0.23,0.5-0.46,0.76-0.69l0.19-0.16c0.24-0.21,0.49-0.42,0.75-0.63l0.08-0.07c0.28-0.23,0.57-0.45,0.86-0.67l0.23-0.17
				c0.25-0.18,0.5-0.37,0.76-0.56l0.17-0.12c0.31-0.22,0.62-0.43,0.94-0.65l0.27-0.18c0.25-0.17,0.51-0.33,0.77-0.5l0.3-0.19
				c0.33-0.21,0.67-0.41,1.01-0.61l0.05-0.03c0.35-0.21,0.72-0.42,1.08-0.63l0.39-0.22c0.26-0.15,0.52-0.29,0.79-0.43l0.42-0.23
				c0.28-0.15,0.56-0.29,0.85-0.44l0.38-0.2c0.41-0.21,0.83-0.41,1.25-0.62l0.05-0.03c0.46-0.22,0.88-0.42,1.31-0.61l0.48-0.22
				c0.33-0.15,0.62-0.28,0.93-0.41l0.57-0.24c0.29-0.12,0.58-0.25,0.88-0.37l0.63-0.25c0.27-0.11,0.55-0.22,0.82-0.33
				c0.5-0.2,1.01-0.4,1.54-0.6l0.25-0.1c0.6-0.23,1.22-0.45,1.83-0.67l0.55-0.2c0.44-0.16,0.9-0.31,1.35-0.47l0.69-0.23
				c0.43-0.14,0.86-0.28,1.3-0.42l0.68-0.22c0.57-0.18,1.16-0.36,1.75-0.54l0.34-0.1c0.7-0.21,1.41-0.41,2.13-0.61l0.61-0.17
				c0.53-0.15,1.06-0.29,1.61-0.43l0.73-0.19c0.55-0.14,1.1-0.28,1.66-0.42l0.61-0.15c0.75-0.18,1.52-0.37,2.29-0.54l0.41-0.09
				c0.64-0.15,1.29-0.29,1.94-0.43l0.77-0.16c0.56-0.12,1.13-0.24,1.7-0.35l0.76-0.16c0.72-0.14,1.44-0.28,2.17-0.42l0.77-0.14
				c0.51-0.09,1.03-0.18,1.54-0.28l0.75-0.13c0.42-0.07,0.85-0.15,1.27-0.22c0.44-0.07,0.88-0.14,1.32-0.22l0.99-0.16
				c0.69-0.11,1.39-0.21,2.09-0.31l0.25-0.04c0.79-0.11,1.58-0.22,2.38-0.33l0.74-0.1c0.55-0.07,1.11-0.15,1.67-0.22l0.94-0.11
				c0.5-0.06,1-0.12,1.5-0.18l1.01-0.11c0.48-0.05,0.97-0.1,1.45-0.16l1.05-0.11c0.48-0.05,0.97-0.1,1.45-0.14l1.06-0.1
				c0.49-0.04,0.99-0.09,1.48-0.13l2.14-0.17c0.43-0.03,0.86-0.07,1.29-0.1l3.42-0.22c0.43-0.03,0.87-0.05,1.31-0.08l2.03-0.1
				c1.04-0.05,2.08-0.09,3.12-0.13l0.3-0.01c1.12-0.04,2.25-0.07,3.39-0.1l0.92-0.02c0.68-0.02,1.37-0.03,2.06-0.03l0.91-0.01
				C270.22,94.95,271.2,94.95,272.19,94.95z"/>
		</g>
		
			<linearGradient id="SVGID_2_" gradientUnits="userSpaceOnUse" x1="567.0717" y1="398.035" x2="525.5618" y2="398.035" gradientTransform="matrix(1 0 0 1 -196 -287)">
			<stop  offset="0" style="stop-color:#74B5CF"/>
			<stop  offset="1" style="stop-color:#2185D9"/>
		</linearGradient>
		<path class="st2" d="M371.01,65.97c-0.01,0.05-0.01,0.1-0.01,0.15c-0.02,0.25-0.04,0.5-0.08,0.75c-0.01,0.06-0.02,0.12-0.03,0.18
			c-0.03,0.2-0.07,0.4-0.11,0.59c-0.02,0.07-0.03,0.14-0.04,0.21c-0.05,0.24-0.11,0.49-0.18,0.74c-0.01,0.03-0.02,0.05-0.02,0.08
			c-0.07,0.22-0.14,0.45-0.22,0.67c-0.02,0.07-0.04,0.12-0.07,0.19c-0.09,0.24-0.18,0.49-0.29,0.74c-0.01,0.01-0.01,0.02-0.02,0.03
			c-0.1,0.24-0.22,0.47-0.33,0.71c-0.03,0.06-0.06,0.11-0.09,0.17c-0.12,0.24-0.25,0.48-0.39,0.72c-0.02,0.03-0.03,0.05-0.04,0.08
			c-0.13,0.22-0.27,0.44-0.41,0.67c-0.03,0.05-0.07,0.11-0.1,0.16c-0.16,0.24-0.32,0.47-0.49,0.71c-0.03,0.04-0.06,0.08-0.09,0.11
			c-0.16,0.21-0.31,0.42-0.48,0.63c-0.04,0.05-0.08,0.1-0.11,0.15c-0.19,0.23-0.39,0.47-0.59,0.69c-0.04,0.05-0.09,0.1-0.13,0.14
			c-0.18,0.21-0.37,0.41-0.57,0.62c-0.04,0.04-0.07,0.08-0.1,0.11c-0.22,0.23-0.45,0.46-0.69,0.68c-0.05,0.05-0.11,0.11-0.17,0.16
			c-0.22,0.21-0.44,0.42-0.68,0.62c-0.03,0.03-0.06,0.05-0.09,0.08c-0.25,0.23-0.52,0.45-0.79,0.68c-0.07,0.05-0.13,0.11-0.2,0.16
			c-0.25,0.21-0.5,0.41-0.77,0.61c-0.03,0.03-0.07,0.05-0.09,0.08c-0.29,0.22-0.59,0.44-0.89,0.67c-0.08,0.05-0.16,0.11-0.23,0.17
			c-0.27,0.19-0.54,0.38-0.81,0.57c-0.05,0.03-0.1,0.07-0.15,0.1c-0.33,0.22-0.66,0.44-0.99,0.66c-0.09,0.05-0.18,0.11-0.27,0.17
			c-0.27,0.17-0.54,0.34-0.81,0.5c-0.1,0.06-0.2,0.12-0.3,0.18c-0.36,0.22-0.72,0.43-1.09,0.64c-0.03,0.02-0.06,0.03-0.09,0.05
			c-0.35,0.2-0.71,0.4-1.07,0.6c-0.12,0.07-0.25,0.14-0.39,0.21c-0.28,0.15-0.56,0.3-0.85,0.44c-0.14,0.07-0.28,0.15-0.42,0.22
			c-0.3,0.15-0.61,0.3-0.92,0.46c-0.12,0.06-0.23,0.12-0.36,0.17c-0.32,0.16-0.65,0.31-0.98,0.46c-0.14,0.07-0.27,0.13-0.41,0.19
			c-0.47,0.22-0.94,0.43-1.43,0.64c-0.09,0.04-0.18,0.08-0.27,0.11c-0.4,0.17-0.8,0.34-1.2,0.52c-0.18,0.08-0.36,0.15-0.54,0.22
			c-0.33,0.14-0.66,0.27-1,0.41c-0.15,0.06-0.31,0.12-0.46,0.18c-0.35,0.14-0.7,0.27-1.05,0.41c-0.18,0.07-0.35,0.14-0.53,0.2
			c-0.36,0.14-0.72,0.27-1.08,0.4c-0.16,0.06-0.32,0.12-0.48,0.17c-0.53,0.19-1.05,0.37-1.59,0.56c-0.53,0.18-1.06,0.36-1.61,0.54
			c-0.16,0.05-0.32,0.1-0.48,0.16c-0.33,0.1-0.66,0.21-0.99,0.31c-0.44,0.14-0.88,0.28-1.33,0.41c-0.24,0.08-0.49,0.15-0.73,0.22
			c-0.52,0.15-1.04,0.3-1.56,0.46c-0.18,0.05-0.35,0.1-0.53,0.15c-0.71,0.2-1.41,0.39-2.13,0.59c-0.16,0.04-0.33,0.09-0.5,0.13
			c-0.55,0.15-1.11,0.29-1.68,0.43c-0.25,0.07-0.52,0.13-0.78,0.19l0,0v63.93h0.01c0.25-0.07,0.52-0.12,0.77-0.19
			c0.56-0.14,1.12-0.29,1.68-0.43c0.16-0.04,0.33-0.09,0.5-0.13c0.72-0.19,1.43-0.39,2.13-0.59c0.18-0.05,0.35-0.1,0.53-0.15
			c0.53-0.15,1.05-0.3,1.56-0.46c0.24-0.08,0.49-0.15,0.73-0.22c0.44-0.14,0.9-0.27,1.33-0.41c0.12-0.04,0.26-0.08,0.39-0.12
			c0.2-0.07,0.4-0.13,0.6-0.2c0.16-0.05,0.33-0.1,0.48-0.16c0.54-0.18,1.07-0.35,1.61-0.54c0.54-0.18,1.07-0.37,1.59-0.56
			c0.16-0.06,0.33-0.12,0.49-0.18c0.36-0.13,0.72-0.27,1.08-0.4c0.18-0.07,0.36-0.14,0.53-0.2c0.35-0.14,0.71-0.27,1.05-0.41
			c0.15-0.06,0.31-0.12,0.46-0.18c0.06-0.02,0.12-0.05,0.18-0.07c0.28-0.11,0.54-0.22,0.81-0.33c0.18-0.08,0.36-0.15,0.54-0.22
			c0.41-0.17,0.81-0.34,1.2-0.52c0.09-0.04,0.18-0.08,0.27-0.11c0.48-0.21,0.95-0.42,1.43-0.64c0.14-0.07,0.27-0.13,0.41-0.2
			c0.29-0.14,0.58-0.27,0.86-0.4c0.04-0.02,0.08-0.04,0.12-0.06c0.12-0.06,0.24-0.11,0.36-0.17c0.31-0.15,0.62-0.3,0.92-0.46
			c0.14-0.07,0.28-0.15,0.42-0.22c0.29-0.15,0.57-0.3,0.85-0.44c0.13-0.07,0.25-0.14,0.39-0.21c0.36-0.2,0.72-0.4,1.07-0.6
			c0.03-0.02,0.06-0.03,0.09-0.05c0.01,0,0.01-0.01,0.01-0.01c0.37-0.21,0.73-0.42,1.08-0.63c0.1-0.06,0.2-0.12,0.3-0.18
			c0.28-0.17,0.55-0.34,0.81-0.5c0.09-0.05,0.18-0.11,0.27-0.17c0.32-0.21,0.63-0.41,0.93-0.61c0.02-0.02,0.04-0.03,0.06-0.04
			c0.05-0.03,0.1-0.07,0.15-0.1c0.28-0.19,0.55-0.38,0.81-0.57c0.08-0.05,0.16-0.11,0.23-0.17c0.3-0.22,0.6-0.44,0.89-0.67
			c0.03-0.03,0.07-0.05,0.09-0.08c0.18-0.14,0.36-0.28,0.53-0.42c0.08-0.07,0.16-0.13,0.24-0.2c0.07-0.05,0.13-0.11,0.2-0.16
			c0.27-0.22,0.54-0.45,0.79-0.68c0.03-0.03,0.06-0.05,0.09-0.08c0.23-0.21,0.46-0.41,0.68-0.62c0.05-0.05,0.11-0.11,0.17-0.16
			c0.04-0.04,0.09-0.08,0.13-0.12c0.19-0.18,0.37-0.37,0.56-0.56c0.04-0.04,0.07-0.08,0.1-0.11c0.2-0.21,0.39-0.41,0.58-0.62
			c0.04-0.05,0.09-0.1,0.13-0.14c0.18-0.2,0.35-0.4,0.52-0.61c0.03-0.03,0.05-0.06,0.07-0.09c0.04-0.05,0.08-0.1,0.11-0.15
			c0.17-0.21,0.33-0.42,0.48-0.63c0.03-0.04,0.06-0.08,0.09-0.11c0.17-0.23,0.34-0.47,0.49-0.71c0.04-0.05,0.07-0.11,0.1-0.16
			c0.05-0.08,0.1-0.15,0.15-0.23c0.09-0.15,0.17-0.29,0.26-0.43c0.02-0.03,0.03-0.05,0.04-0.08c0.14-0.24,0.27-0.48,0.39-0.72
			c0.03-0.06,0.06-0.11,0.09-0.17c0.12-0.23,0.23-0.47,0.33-0.71c0.01-0.01,0.01-0.02,0.02-0.03c0-0.01,0.01-0.01,0.01-0.01
			c0.1-0.24,0.2-0.48,0.29-0.73c0.02-0.07,0.04-0.12,0.07-0.19c0.08-0.22,0.15-0.45,0.22-0.67c0.01-0.03,0.02-0.05,0.02-0.08
			c0.05-0.2,0.11-0.4,0.16-0.59c0.01-0.05,0.02-0.1,0.03-0.14c0.02-0.07,0.03-0.14,0.04-0.21c0.04-0.2,0.08-0.4,0.11-0.59
			c0.01-0.06,0.02-0.12,0.03-0.18c0.03-0.25,0.06-0.5,0.08-0.75c0.01-0.05,0.01-0.1,0.01-0.15c0.01-0.14,0.02-0.27,0.02-0.4
			c0.01-0.11,0.01-0.22,0.01-0.34V65.23C371.04,65.47,371.03,65.72,371.01,65.97z"/>
		<g>
			<g>
				<g>
					<defs>
						<rect id="SVGID_3_" x="182.4" y="56.54" width="52.62" height="39.6"/>
					</defs>
					<clipPath id="SVGID_4_">
						<use xlink:href="#SVGID_3_"  style="overflow:visible;"/>
					</clipPath>
					<g class="st3">
						<path class="st1" d="M179.96,87.17l-0.54-0.52l11.82-12.25c4.02-4.25,10.85-5.21,15.89-2.24c2.13,1.25,4.6,1.8,7.15,1.58
							c3.82-0.33,8.44-2.51,11.49-5.41c3.48-3.31,13.17-17.29,13.27-17.43l0.61,0.42c-0.4,0.57-9.82,14.17-13.37,17.54
							c-3.16,3.02-7.96,5.27-11.94,5.61c-2.71,0.23-5.34-0.35-7.6-1.68C202,70,195.56,70.9,191.76,74.91L179.96,87.17z"/>
					</g>
				</g>
			</g>
			<g>
				<g>
					<defs>
						<rect id="SVGID_5_" x="182.4" y="56.54" width="52.62" height="39.6"/>
					</defs>
					<clipPath id="SVGID_6_">
						<use xlink:href="#SVGID_5_"  style="overflow:visible;"/>
					</clipPath>
					<g class="st4">
						<path class="st1" d="M216.22,78.19c-1.68,0-3.33-0.33-4.85-1c-2.42-1.07-4.32-2.81-5.48-5.04c-2.41-4.64-8.35-6.86-13.8-5.14
							l-11.24,3.53l-0.22-0.71l11.24-3.53c5.79-1.82,12.11,0.55,14.68,5.51c1.08,2.08,2.85,3.7,5.12,4.7
							c3.79,1.67,8.5,1.07,11.98-1.52c0.43-0.32,0.87-0.72,1.4-1.25l11.34-11.49l0.53,0.52l-11.34,11.49
							c-0.55,0.56-1.02,0.98-1.48,1.32C221.79,77.3,218.98,78.19,216.22,78.19z"/>
					</g>
				</g>
			</g>
		</g>
		<g>
			<g>
				<path class="st1" d="M293.3,85.12c-0.58,0-1.17-0.03-1.76-0.1c-8.85-0.97-15.27-8.95-14.3-17.8s8.94-15.27,17.8-14.3
					c8.85,0.97,15.27,8.95,14.3,17.8C308.44,78.98,301.42,85.12,293.3,85.12z M293.28,53.53c-7.77,0-14.48,5.87-15.33,13.77
					c-0.92,8.46,5.21,16.1,13.67,17.02c8.46,0.92,16.1-5.21,17.02-13.67c0.92-8.46-5.21-16.1-13.67-17.02
					C294.39,53.57,293.83,53.53,293.28,53.53z"/>
			</g>
			<g>
				<path class="st1" d="M293.29,77.96c-0.33,0-0.65-0.02-0.98-0.05c-4.93-0.54-8.5-4.98-7.96-9.91l0,0
					c0.54-4.93,4.98-8.5,9.91-7.96c2.39,0.26,4.53,1.43,6.04,3.31c1.5,1.87,2.19,4.22,1.93,6.61
					C301.72,74.55,297.82,77.96,293.29,77.96z M285.05,68.08c-0.49,4.54,2.8,8.64,7.34,9.13c4.53,0.49,8.64-2.8,9.13-7.34
					c0.24-2.2-0.39-4.36-1.78-6.09c-1.39-1.72-3.36-2.8-5.56-3.05C289.64,60.25,285.55,63.54,285.05,68.08L285.05,68.08z"/>
			</g>
			<g>
				
					<rect x="291.17" y="56.35" transform="matrix(0.1078 -0.9942 0.9942 0.1078 206.7108 343.7489)" class="st1" width="7.4" height="0.71"/>
			</g>
			<g>
				
					<rect x="305.17" y="66.87" transform="matrix(0.1083 -0.9941 0.9941 0.1083 202.5263 366.4292)" class="st1" width="0.71" height="6.91"/>
			</g>
		</g>
		<g>
			<g>
				<g>
					<path class="st1" d="M323.28,82.41c-0.88,0-1.77-0.11-2.64-0.35c-2.64-0.7-4.85-2.39-6.22-4.75l0,0
						c-2.83-4.88-1.16-11.15,3.72-13.97c2.36-1.37,5.12-1.74,7.76-1.04c2.64,0.7,4.85,2.39,6.22,4.75s1.74,5.12,1.04,7.76
						s-2.39,4.85-4.75,6.22C326.81,81.94,325.06,82.41,323.28,82.41z M315.03,76.96c1.27,2.2,3.33,3.77,5.79,4.42
						s5.02,0.31,7.22-0.97c2.2-1.27,3.77-3.33,4.42-5.79c0.65-2.46,0.31-5.02-0.97-7.22c-1.27-2.2-3.33-3.77-5.79-4.42
						c-2.46-0.65-5.02-0.31-7.22,0.97C313.95,66.58,312.4,72.41,315.03,76.96L315.03,76.96z"/>
				</g>
			</g>
			<g>
				<g>
					<path class="st1" d="M323.28,77.93c-1.99,0-3.92-1.03-4.98-2.86c-1.59-2.74-0.66-6.27,2.09-7.86c1.33-0.77,2.88-0.98,4.36-0.59
						c1.49,0.4,2.73,1.35,3.5,2.67c1.59,2.74,0.66,6.27-2.09,7.86C325.25,77.68,324.25,77.93,323.28,77.93z M323.25,67.13
						c-0.88,0-1.74,0.23-2.52,0.68c-1.17,0.68-2,1.76-2.34,3.07c-0.35,1.3-0.16,2.66,0.51,3.82l0,0c1.39,2.4,4.49,3.23,6.89,1.83
						c1.17-0.68,2-1.76,2.34-3.07c0.35-1.3,0.16-2.66-0.51-3.82c-0.68-1.17-1.76-2-3.07-2.34
						C324.13,67.19,323.69,67.13,323.25,67.13z"/>
				</g>
			</g>
			<g>
				
					<rect x="319.18" y="63.09" transform="matrix(0.865 -0.5018 0.5018 0.865 10.3228 169.1724)" class="st1" width="0.71" height="4.63"/>
			</g>
			<g>
				
					<rect x="327.78" y="68" transform="matrix(0.8652 -0.5014 0.5014 0.8652 10.1987 174.6481)" class="st1" width="4.32" height="0.71"/>
			</g>
		</g>
		<g>
			<g>
				<path class="st1" d="M237.41,52.64V4.84l0.27-0.07c0.36-0.09,0.72-0.17,1.07-0.26l0.61-0.15c0.36-0.08,0.72-0.17,1.09-0.25
					l0.6-0.14c0.41-0.09,0.82-0.18,1.24-0.27l0.46-0.1c0.57-0.12,1.14-0.23,1.72-0.34l0.19-0.04c0.7-0.14,1.4-0.27,2.11-0.39
					l0.46-0.08c0.74-0.13,1.49-0.25,2.24-0.37l4.03-0.6l6-0.71l4.08-0.37c0.98-0.08,1.96-0.15,2.95-0.22l0.42-0.03
					c1-0.07,2.01-0.12,3.03-0.17l0.43-0.02c0.74-0.03,1.49-0.07,2.23-0.09l0.42-0.02c0.82-0.03,1.66-0.05,2.49-0.07l0.63-0.01
					c0.53-0.01,1.05-0.02,1.57-0.03l0.65-0.01c0.72-0.01,1.45-0.01,2.18-0.01l0.85,0.01c0.57,0,1.14,0.01,1.71,0.01l0.66,0.01
					c0.69,0.01,1.38,0.02,2.06,0.04H286c0.74,0.02,1.46,0.04,2.18,0.07l0.62,0.02c0.52,0.02,1.05,0.04,1.57,0.07l0.67,0.03
					c0.56,0.03,1.12,0.05,1.67,0.09l0.43,0.02c0.69,0.04,1.38,0.09,2.07,0.13l0.54,0.04c0.51,0.04,1.02,0.08,1.52,0.11l0.68,0.05
					c0.48,0.04,0.97,0.08,1.44,0.12L300,0.89c0.67,0.07,1.34,0.12,2,0.2l0.12,0.01c0.62,0.07,1.25,0.14,1.87,0.21l0.61,0.07
					c0.48,0.05,0.96,0.11,1.44,0.17l0.63,0.08c0.54,0.07,1.08,0.14,1.62,0.22l0.34,0.05c0.67,0.09,1.33,0.19,1.99,0.29l0.53,0.08
					c0.5,0.08,0.99,0.16,1.49,0.24l0.57,0.1c0.68,0.11,1.35,0.23,2.02,0.35l0.12,0.02c0.63,0.11,1.25,0.24,1.87,0.36l0.52,0.1
					c0.71,0.14,1.42,0.29,2.12,0.44c0.73,0.16,1.41,0.31,2.08,0.47l1.07,0.25v47.8l-1.23-0.29c-0.67-0.16-1.35-0.31-2.02-0.46
					c-0.74-0.16-1.45-0.3-2.15-0.45l-0.52-0.1c-0.61-0.12-1.23-0.24-1.86-0.35l-0.11-0.02c-0.68-0.12-1.36-0.24-2.03-0.36
					l-0.55-0.09c-0.51-0.09-1-0.16-1.5-0.24l-0.53-0.08c-0.66-0.1-1.31-0.2-1.97-0.29l-0.35-0.05c-0.54-0.08-1.07-0.15-1.61-0.22
					l-0.63-0.08c-0.48-0.06-0.95-0.12-1.43-0.17l-0.6-0.07c-0.62-0.07-1.24-0.14-1.86-0.21l-0.07-0.01
					c-0.71-0.08-1.37-0.14-2.04-0.2l-0.61-0.05c-0.48-0.04-0.96-0.09-1.44-0.12l-0.68-0.05c-0.5-0.04-1.01-0.08-1.51-0.11
					l-0.54-0.04c-0.68-0.05-1.37-0.09-2.06-0.13l-0.43-0.02c-0.55-0.03-1.11-0.06-1.67-0.09l-0.67-0.04
					c-0.52-0.02-1.04-0.04-1.56-0.07l-0.62-0.02c-0.71-0.03-1.43-0.05-2.14-0.07l-0.17-0.01c-0.68-0.02-1.37-0.03-2.05-0.04
					l-0.66-0.01c-0.57-0.01-1.14-0.01-1.71-0.01l-0.85-0.01c-0.73,0-1.45,0.01-2.17,0.01l-0.65,0.01c-0.53,0.01-1.05,0.02-1.57,0.03
					l-0.64,0.01c-0.83,0.02-1.65,0.04-2.48,0.07l-0.43,0.02c-0.74,0.03-1.49,0.06-2.22,0.09l-0.43,0.02
					c-1.01,0.05-2.02,0.11-3.02,0.17l-0.42,0.03c-0.99,0.07-1.96,0.14-2.94,0.22l-7.48,0.75l-6.57,0.92
					c-0.75,0.12-1.49,0.24-2.23,0.37l-0.45,0.08c-0.71,0.12-1.41,0.25-2.1,0.39L244.59,51c-0.57,0.11-1.14,0.23-1.71,0.34l-0.46,0.1
					c-0.41,0.09-0.82,0.17-1.23,0.27l-0.55,0.12c-0.41,0.09-0.77,0.17-1.13,0.25l-0.61,0.15c-0.36,0.09-0.72,0.17-1.07,0.26
					L237.41,52.64z M238.11,5.39v46.34c0.21-0.05,0.42-0.1,0.63-0.15l0,0l0.62-0.15c0.36-0.08,0.72-0.17,1.08-0.25l0.6-0.14
					c0.41-0.09,0.82-0.18,1.24-0.27l0.46-0.1c0.57-0.12,1.14-0.23,1.72-0.34l0.2-0.04c0.7-0.14,1.4-0.27,2.11-0.39l0.46-0.08
					c0.74-0.13,1.49-0.25,2.24-0.37l0.73-0.11c0.28-0.04,0.56-0.09,0.85-0.13l7.57-0.97l4.94-0.46c1-0.08,1.98-0.15,2.97-0.22
					l0.42-0.03c1-0.07,2.01-0.12,3.03-0.17l0.43-0.02c0.75-0.04,1.49-0.07,2.23-0.09l0.43-0.02c0.82-0.03,1.65-0.05,2.48-0.07
					l0.64-0.01c0.52-0.01,1.05-0.02,1.57-0.03l0.65-0.01c0.72-0.01,1.45-0.01,2.18-0.01l0.85,0.01c0.57,0,1.14,0.01,1.71,0.01
					l0.66,0.01c0.69,0.01,1.37,0.02,2.06,0.04l0.17,0.01c0.72,0.02,1.43,0.04,2.14,0.07l0.62,0.02c0.52,0.02,1.05,0.04,1.57,0.07
					l0.67,0.03c0.56,0.03,1.12,0.05,1.67,0.09l0.43,0.02c0.69,0.04,1.38,0.09,2.07,0.13l0.54,0.04c0.5,0.04,1.01,0.08,1.52,0.11
					l0.68,0.05c0.48,0.04,0.97,0.08,1.44,0.12l0.61,0.05c0.67,0.06,1.34,0.12,2,0.2l0.12,0.01c0.62,0.07,1.25,0.14,1.87,0.21
					l0.57,0.07c0.51,0.06,0.99,0.12,1.46,0.18l0.63,0.08c0.54,0.07,1.08,0.14,1.62,0.22l0.35,0.05c0.67,0.09,1.32,0.19,1.98,0.29
					l0.53,0.08c0.5,0.08,0.99,0.16,1.49,0.24l0.57,0.1c0.68,0.11,1.35,0.23,2.02,0.35l0.13,0.03c0.63,0.11,1.25,0.23,1.87,0.36
					l0.52,0.1c0.71,0.14,1.42,0.29,2.12,0.44c0.73,0.16,1.41,0.31,2.08,0.47l0.36,0.09V5.21l-0.53-0.12
					c-0.67-0.16-1.35-0.31-2.03-0.46c-0.74-0.16-1.44-0.3-2.15-0.45l-0.51-0.1c-0.62-0.12-1.24-0.24-1.86-0.36l-0.12-0.02
					c-0.67-0.12-1.34-0.24-2.01-0.35l-0.57-0.1c-0.49-0.08-0.98-0.16-1.48-0.24l-0.53-0.08c-0.66-0.1-1.31-0.2-1.97-0.29l-0.35-0.05
					c-0.54-0.08-1.07-0.15-1.62-0.22l-0.63-0.08c-0.48-0.06-0.95-0.12-1.43-0.17l-0.6-0.07c-0.62-0.07-1.24-0.14-1.86-0.21
					l-0.07-0.01c-0.71-0.08-1.37-0.14-2.04-0.2l-0.61-0.05c-0.48-0.04-0.96-0.09-1.44-0.12l-0.68-0.05
					c-0.5-0.04-1.01-0.08-1.52-0.11l-0.53-0.04c-0.69-0.05-1.38-0.09-2.07-0.13l-0.43-0.02c-0.55-0.03-1.11-0.06-1.67-0.09
					l-0.67-0.03c-0.52-0.02-1.04-0.04-1.56-0.07l-0.62-0.02c-0.71-0.02-1.42-0.05-2.14-0.07l-0.17-0.01
					c-0.68-0.02-1.37-0.03-2.06-0.04l-0.65-0.01c-0.57-0.01-1.14-0.01-1.71-0.01l-0.85-0.01c-0.73,0-1.45,0.01-2.17,0.01l-0.65,0.01
					c-0.53,0.01-1.05,0.02-1.57,0.03l-0.63,0.01c-0.83,0.02-1.66,0.04-2.48,0.07l-0.42,0.02c-0.74,0.03-1.49,0.06-2.22,0.09
					l-0.45,0.02c-1.01,0.05-2.02,0.11-3.02,0.17l-0.41,0.03c-0.99,0.07-1.96,0.14-2.94,0.22l-4.06,0.37l-6.77,0.82l-3.22,0.48
					c-0.75,0.12-1.49,0.24-2.23,0.37l-0.45,0.08c-0.71,0.12-1.41,0.25-2.1,0.39l-0.14,0.03c-0.62,0.12-1.19,0.23-1.76,0.35
					l-0.46,0.1c-0.41,0.09-0.82,0.17-1.24,0.27l-0.6,0.14c-0.36,0.08-0.72,0.16-1.08,0.24l-0.61,0.15
					C238.64,5.26,238.38,5.33,238.11,5.39z"/>
			</g>
			<g>
				<g>
					<rect x="288.38" y="9.97" class="st1" width="0.71" height="29.55"/>
				</g>
				<g>
					<path class="st1" d="M288.74,19.13c-1.76,0-3.19-1.43-3.19-3.19s1.43-3.19,3.19-3.19s3.19,1.43,3.19,3.19
						S290.5,19.13,288.74,19.13z M288.74,13.45c-1.37,0-2.49,1.12-2.49,2.49s1.12,2.49,2.49,2.49c1.37,0,2.49-1.12,2.49-2.49
						S290.11,13.45,288.74,13.45z"/>
				</g>
				<g>
					<g>
						<rect x="305.43" y="9.97" class="st1" width="0.71" height="29.55"/>
					</g>
					<g>
						<path class="st1" d="M305.78,24.81c-1.76,0-3.19-1.43-3.19-3.19s1.43-3.19,3.19-3.19s3.19,1.43,3.19,3.19
							C308.98,23.38,307.55,24.81,305.78,24.81z M305.78,19.13c-1.37,0-2.49,1.12-2.49,2.49c0,1.37,1.12,2.49,2.49,2.49
							c1.37,0,2.49-1.12,2.49-2.49C308.27,20.24,307.16,19.13,305.78,19.13z"/>
					</g>
				</g>
				<g>
					<rect x="271.33" y="9.97" class="st1" width="0.71" height="29.55"/>
				</g>
				<g>
					<path class="st1" d="M271.69,36.18c-1.76,0-3.19-1.43-3.19-3.19s1.43-3.19,3.19-3.19s3.19,1.43,3.19,3.19
						C274.88,34.75,273.45,36.18,271.69,36.18z M271.69,30.5c-1.37,0-2.49,1.12-2.49,2.49s1.12,2.49,2.49,2.49
						c1.37,0,2.49-1.12,2.49-2.49S273.06,30.5,271.69,30.5z"/>
				</g>
				<g>
					<rect x="254.29" y="9.97" class="st1" width="0.71" height="29.55"/>
				</g>
				<g>
					<path class="st1" d="M254.64,29.36c-1.76,0-3.19-1.43-3.19-3.19s1.43-3.19,3.19-3.19c1.76,0,3.19,1.43,3.19,3.19
						S256.4,29.36,254.64,29.36z M254.64,23.67c-1.37,0-2.49,1.12-2.49,2.49c0,1.37,1.12,2.49,2.49,2.49c1.37,0,2.49-1.12,2.49-2.49
						C257.12,24.79,256.01,23.67,254.64,23.67z"/>
				</g>
			</g>
		</g>
		<g>
			<path class="st1" d="M329.34,157.3l-0.01-0.45v-64.2l1.04-0.27c0.56-0.14,1.12-0.29,1.67-0.43l0.5-0.13
				c0.72-0.19,1.42-0.39,2.12-0.58l0.53-0.15c0.52-0.15,1.04-0.3,1.56-0.46l0.73-0.22c0.44-0.14,0.89-0.27,1.33-0.41
				c0.33-0.1,0.66-0.21,0.98-0.31l0.48-0.16c0.54-0.18,1.07-0.35,1.6-0.54c0.54-0.18,1.06-0.37,1.59-0.56l0.48-0.17
				c0.36-0.13,0.72-0.27,1.08-0.4l0.53-0.2c0.35-0.14,0.7-0.27,1.05-0.41l0.46-0.18c0.34-0.14,0.67-0.27,0.99-0.41l0.54-0.22
				c0.41-0.17,0.8-0.34,1.2-0.52l0.27-0.11c0.48-0.21,0.95-0.42,1.42-0.63l0.41-0.19c0.33-0.15,0.66-0.3,0.98-0.46l0.35-0.17
				c0.31-0.15,0.61-0.3,0.92-0.46l0.42-0.22c0.28-0.15,0.56-0.29,0.84-0.44l0.38-0.21c0.36-0.2,0.72-0.4,1.07-0.59l0.09-0.05
				c0.37-0.21,0.73-0.42,1.08-0.63l0.3-0.18c0.28-0.17,0.54-0.34,0.81-0.5l0.26-0.17c0.34-0.22,0.67-0.43,0.99-0.65l0.15-0.1
				c0.28-0.19,0.54-0.37,0.81-0.56l0.23-0.17c0.3-0.22,0.6-0.44,0.88-0.66l0.09-0.07c0.26-0.2,0.52-0.41,0.76-0.61l0.2-0.16
				c0.27-0.22,0.53-0.44,0.78-0.67l0.09-0.08c0.23-0.2,0.45-0.41,0.67-0.61l0.17-0.16c0.23-0.23,0.46-0.45,0.68-0.68l0.1-0.11
				c0.2-0.2,0.39-0.41,0.56-0.61l0.12-0.14c0.2-0.23,0.4-0.46,0.58-0.68l0.08-0.1c0.2-0.24,0.35-0.45,0.5-0.66l0.1-0.12
				c0.17-0.23,0.33-0.46,0.48-0.69l0.08-0.11c0.17-0.26,0.3-0.48,0.43-0.69l0.04-0.07c0.14-0.23,0.26-0.47,0.39-0.71l0.09-0.17
				c0.11-0.23,0.22-0.46,0.33-0.69c0.11-0.27,0.21-0.51,0.3-0.75l0.07-0.18c0.08-0.22,0.15-0.43,0.21-0.66l0.02-0.08
				c0.07-0.24,0.12-0.48,0.18-0.72l0.04-0.21c0.04-0.19,0.07-0.39,0.1-0.57l0.03-0.18c0.03-0.24,0.06-0.49,0.08-0.73l0.01-0.15
				c0.02-0.24,0.03-0.48,0.03-0.72h0.71v63.93c0,0.11,0,0.23-0.01,0.35c-0.01,0.11-0.01,0.22-0.02,0.34l-0.01,0.23
				c-0.02,0.26-0.05,0.52-0.08,0.78l-0.03,0.19c-0.03,0.21-0.07,0.41-0.11,0.61l-0.08,0.36c-0.05,0.21-0.1,0.41-0.16,0.61
				l-0.02,0.05c-0.08,0.26-0.15,0.49-0.23,0.72l-0.07,0.2c-0.09,0.25-0.19,0.5-0.29,0.75c-0.12,0.28-0.24,0.53-0.36,0.76l-0.09,0.18
				c-0.12,0.25-0.26,0.49-0.4,0.74l-0.04,0.08c-0.09,0.15-0.17,0.29-0.27,0.44l-0.26,0.4c-0.16,0.24-0.33,0.48-0.5,0.72l-0.09,0.12
				c-0.16,0.21-0.32,0.43-0.49,0.64l-0.19,0.24c-0.17,0.21-0.34,0.41-0.53,0.61l-0.13,0.15c-0.19,0.21-0.38,0.42-0.58,0.63
				l-0.11,0.11c-0.18,0.19-0.37,0.37-0.56,0.56l-0.3,0.29c-0.22,0.21-0.45,0.42-0.68,0.63l-0.09,0.08c-0.26,0.23-0.53,0.46-0.8,0.68
				l-0.44,0.36c-0.17,0.14-0.35,0.28-0.54,0.42l-0.09,0.08c-0.29,0.23-0.59,0.45-0.9,0.67l-0.23,0.17c-0.27,0.2-0.54,0.39-0.82,0.57
				l-0.21,0.15c-0.31,0.21-0.62,0.41-0.94,0.62l-0.27,0.17c-0.27,0.17-0.54,0.34-0.82,0.51l-0.3,0.18
				c-0.35,0.21-0.72,0.43-1.08,0.63l-0.07,0.04c-0.39,0.22-0.75,0.42-1.12,0.62l-0.39,0.21c-0.28,0.15-0.56,0.3-0.85,0.44
				l-0.43,0.22c-0.3,0.16-0.61,0.31-0.93,0.46l-0.43,0.21c-0.29,0.14-0.54,0.25-0.79,0.37l-0.53,0.25
				c-0.47,0.22-0.94,0.43-1.43,0.64l-0.27,0.11c-0.4,0.17-0.8,0.35-1.21,0.52l-0.76,0.31c-0.2,0.08-0.39,0.16-0.59,0.24l-0.65,0.25
				c-0.35,0.14-0.7,0.27-1.05,0.41l-0.54,0.2c-0.36,0.14-0.72,0.27-1.08,0.4l-0.49,0.18c-0.53,0.19-1.06,0.37-1.59,0.56
				c-0.53,0.18-1.07,0.36-1.61,0.54l-1.47,0.47c-0.44,0.14-0.89,0.28-1.33,0.41l-0.73,0.22c-0.52,0.16-1.04,0.3-1.57,0.46
				l-0.53,0.15c-0.71,0.2-1.42,0.4-2.13,0.59l-0.5,0.13c-0.56,0.15-1.12,0.29-1.68,0.43L329.34,157.3z M330.04,93.19v63.2l0.33-0.08
				c0.56-0.14,1.12-0.29,1.68-0.43l0.49-0.13c0.72-0.19,1.42-0.39,2.13-0.58l0.53-0.15c0.52-0.15,1.04-0.3,1.56-0.46l0.73-0.22
				c0.44-0.14,0.89-0.27,1.33-0.41l1.46-0.47c0.54-0.17,1.07-0.35,1.6-0.53c0.54-0.18,1.06-0.37,1.58-0.56l0.46-0.17
				c0.39-0.14,0.74-0.27,1.1-0.41l0.53-0.2c0.35-0.14,0.7-0.27,1.05-0.41l0.65-0.25c0.2-0.08,0.39-0.16,0.59-0.24l0.76-0.31
				c0.41-0.17,0.8-0.34,1.2-0.52l0.27-0.11c0.48-0.21,0.95-0.42,1.42-0.63l0.53-0.25c0.24-0.11,0.49-0.23,0.73-0.35l0.47-0.23
				c0.31-0.15,0.61-0.3,0.92-0.46l0.42-0.22c0.28-0.15,0.56-0.29,0.84-0.44l0.38-0.21c0.36-0.2,0.72-0.4,1.07-0.59l0.08-0.04
				c0.39-0.22,0.75-0.43,1.1-0.65l0.3-0.18c0.27-0.17,0.54-0.33,0.81-0.5l0.26-0.17c0.31-0.2,0.63-0.41,0.93-0.61l0.21-0.15
				c0.28-0.19,0.54-0.37,0.81-0.56l0.23-0.17c0.3-0.22,0.6-0.44,0.88-0.66l0.09-0.07c0.18-0.14,0.35-0.28,0.53-0.41l0.43-0.36
				c0.27-0.22,0.53-0.44,0.78-0.67l0.09-0.08c0.23-0.2,0.45-0.41,0.67-0.61l0.3-0.28c0.19-0.18,0.37-0.37,0.55-0.55l0.1-0.11
				c0.2-0.2,0.39-0.41,0.56-0.61l0.12-0.14c0.17-0.2,0.35-0.4,0.51-0.6l0.18-0.23c0.16-0.21,0.32-0.41,0.48-0.62l0.09-0.11
				c0.17-0.23,0.33-0.46,0.48-0.69l0.25-0.39c0.09-0.14,0.17-0.28,0.25-0.42l0.04-0.07c0.14-0.23,0.26-0.47,0.39-0.71l0.07-0.14
				c0.13-0.27,0.24-0.49,0.34-0.73l0.03-0.06c0.09-0.22,0.18-0.46,0.27-0.69l0.07-0.18c0.08-0.22,0.15-0.43,0.21-0.66l0.02-0.08
				c0.05-0.19,0.1-0.39,0.15-0.57l0.07-0.35c0.04-0.19,0.07-0.39,0.1-0.57l0.03-0.18c0.03-0.24,0.06-0.49,0.08-0.73l0.01-0.23
				c0.01-0.1,0.01-0.21,0.02-0.31c0.01-0.11,0.01-0.22,0.01-0.33V69.37c-0.01,0.03-0.02,0.06-0.03,0.09l-0.07,0.2
				c-0.09,0.25-0.19,0.5-0.3,0.76c-0.12,0.27-0.23,0.52-0.35,0.75l-0.09,0.18c-0.12,0.25-0.26,0.49-0.4,0.74l-0.03,0.05
				c-0.15,0.25-0.29,0.48-0.43,0.71l-0.12,0.16c-0.16,0.24-0.33,0.48-0.5,0.72l-0.09,0.12c-0.16,0.21-0.32,0.43-0.49,0.64
				l-0.11,0.15c-0.2,0.24-0.39,0.47-0.6,0.71l-0.13,0.15c-0.19,0.21-0.38,0.42-0.58,0.63l-0.11,0.11c-0.22,0.23-0.46,0.46-0.69,0.69
				l-0.17,0.16c-0.22,0.21-0.45,0.42-0.68,0.63l-0.09,0.08c-0.26,0.23-0.53,0.46-0.8,0.68l-0.2,0.16c-0.25,0.21-0.51,0.41-0.78,0.62
				l-0.09,0.08c-0.29,0.23-0.59,0.45-0.9,0.67l-0.24,0.17c-0.27,0.19-0.54,0.39-0.82,0.57l-0.15,0.11c-0.33,0.22-0.66,0.44-1,0.66
				l-0.27,0.17c-0.27,0.17-0.54,0.34-0.82,0.51l-0.3,0.18c-0.36,0.22-0.73,0.43-1.1,0.65l-0.05,0.03c-0.39,0.22-0.75,0.42-1.12,0.62
				l-0.39,0.21c-0.28,0.15-0.56,0.3-0.85,0.44l-0.43,0.22c-0.3,0.16-0.61,0.31-0.93,0.46l-0.36,0.17c-0.33,0.16-0.65,0.31-0.98,0.47
				l-0.41,0.2c-0.47,0.22-0.94,0.43-1.43,0.64l-0.27,0.11c-0.4,0.17-0.8,0.35-1.21,0.52l-0.54,0.22c-0.33,0.14-0.66,0.27-1,0.41
				l-0.46,0.18c-0.35,0.14-0.7,0.27-1.05,0.41l-0.53,0.2c-0.36,0.14-0.72,0.27-1.08,0.4l-0.49,0.18c-0.53,0.19-1.06,0.37-1.59,0.56
				c-0.53,0.18-1.07,0.36-1.61,0.54l-0.48,0.16c-0.33,0.11-0.66,0.21-0.99,0.31c-0.44,0.14-0.89,0.28-1.33,0.41l-0.73,0.22
				c-0.52,0.15-1.04,0.3-1.57,0.46l-0.53,0.15c-0.71,0.2-1.42,0.4-2.13,0.59l-0.5,0.13c-0.56,0.15-1.12,0.29-1.68,0.43L330.04,93.19
				z"/>
		</g>
		<g>
			<g>
				<g>
					<defs>
						<rect id="SVGID_7_" x="345.67" y="87.87" width="20.61" height="31.17"/>
					</defs>
					<clipPath id="SVGID_8_">
						<use xlink:href="#SVGID_7_"  style="overflow:visible;"/>
					</clipPath>
					<g class="st5">
						<path class="st1" d="M345.37,102l-0.24-0.67c0.36-0.13,0.72-0.27,1.08-0.4l0.53-0.2c0.35-0.14,0.7-0.27,1.05-0.41l0.46-0.18
							c0.34-0.14,0.67-0.27,0.99-0.41l0.53-0.22c0.41-0.17,0.8-0.34,1.2-0.52l0.27-0.11c0.48-0.21,0.95-0.42,1.42-0.63l0.41-0.19
							c0.33-0.15,0.66-0.3,0.98-0.46l0.35-0.17c0.31-0.15,0.61-0.3,0.92-0.46l0.42-0.22c0.28-0.15,0.56-0.29,0.84-0.44l0.38-0.21
							c0.36-0.2,0.72-0.4,1.07-0.59l0.09-0.05c0.37-0.21,0.73-0.42,1.08-0.63l0.3-0.18c0.28-0.17,0.54-0.34,0.81-0.5l0.26-0.17
							c0.34-0.22,0.67-0.43,0.99-0.65l0.15-0.1c0.28-0.19,0.54-0.37,0.81-0.56l0.23-0.17c0.3-0.22,0.6-0.44,0.88-0.66l0.09-0.07
							c0.26-0.2,0.52-0.41,0.76-0.61l0.2-0.16c0.27-0.22,0.53-0.44,0.78-0.67l0.09-0.08c0.23-0.2,0.45-0.41,0.67-0.61l0.17-0.16
							l0.49,0.51l-0.17,0.16c-0.22,0.21-0.45,0.42-0.68,0.63l-0.09,0.08c-0.26,0.23-0.53,0.46-0.8,0.68l-0.2,0.16
							c-0.25,0.21-0.52,0.41-0.78,0.62l-0.09,0.08c-0.29,0.23-0.59,0.45-0.9,0.67l-0.23,0.17c-0.27,0.2-0.54,0.39-0.82,0.57
							l-0.15,0.11c-0.33,0.22-0.66,0.44-1,0.66l-0.27,0.17c-0.27,0.17-0.54,0.34-0.82,0.51l-0.3,0.18c-0.36,0.22-0.73,0.43-1.1,0.65
							l-0.05,0.03c-0.39,0.22-0.75,0.42-1.12,0.62l-0.39,0.21c-0.28,0.15-0.56,0.3-0.85,0.44l-0.43,0.22
							c-0.3,0.16-0.61,0.31-0.93,0.46l-0.36,0.17c-0.33,0.16-0.65,0.31-0.98,0.47l-0.41,0.2c-0.47,0.22-0.94,0.43-1.43,0.64
							l-0.27,0.11c-0.4,0.17-0.8,0.35-1.21,0.52l-0.54,0.22c-0.33,0.14-0.66,0.27-1,0.41l-0.46,0.18c-0.35,0.14-0.7,0.27-1.05,0.41
							l-0.53,0.2C346.1,101.74,345.74,101.87,345.37,102z"/>
					</g>
				</g>
			</g>
			<g>
				<g>
					<defs>
						<rect id="SVGID_9_" x="345.67" y="87.87" width="20.61" height="31.17"/>
					</defs>
					<clipPath id="SVGID_10_">
						<use xlink:href="#SVGID_9_"  style="overflow:visible;"/>
					</clipPath>
					<g class="st6">
						<path class="st1" d="M345.37,109.96l-0.24-0.67c0.36-0.13,0.72-0.27,1.08-0.4l0.53-0.2c0.35-0.14,0.7-0.27,1.05-0.41
							l0.46-0.18c0.34-0.14,0.67-0.27,0.99-0.41l0.53-0.22c0.41-0.17,0.8-0.34,1.2-0.51l0.27-0.11c0.48-0.21,0.95-0.42,1.42-0.63
							l0.41-0.19c0.33-0.15,0.66-0.3,0.98-0.46l0.35-0.17c0.31-0.15,0.61-0.3,0.92-0.46l0.42-0.22c0.28-0.15,0.56-0.29,0.84-0.44
							l0.38-0.21c0.36-0.2,0.72-0.4,1.07-0.59l0.09-0.05c0.37-0.21,0.73-0.42,1.08-0.63l0.3-0.18c0.28-0.17,0.54-0.34,0.81-0.5
							l0.26-0.17c0.34-0.22,0.67-0.43,0.99-0.65l0.15-0.1c0.28-0.19,0.54-0.37,0.81-0.56l0.23-0.17c0.3-0.22,0.6-0.44,0.88-0.66
							l0.09-0.07c0.26-0.2,0.52-0.41,0.76-0.61l0.2-0.16c0.27-0.22,0.53-0.44,0.78-0.67l0.09-0.08c0.23-0.2,0.45-0.41,0.67-0.61
							l0.17-0.16l0.49,0.51l-0.17,0.16c-0.22,0.21-0.45,0.42-0.68,0.63l-0.09,0.08c-0.26,0.23-0.53,0.46-0.8,0.68l-0.2,0.16
							c-0.25,0.21-0.51,0.41-0.78,0.62l-0.09,0.08c-0.29,0.23-0.59,0.45-0.9,0.67l-0.24,0.17c-0.27,0.19-0.54,0.39-0.82,0.57
							l-0.15,0.11c-0.33,0.22-0.66,0.44-1,0.66l-0.27,0.17c-0.27,0.17-0.54,0.34-0.82,0.51l-0.3,0.18c-0.36,0.22-0.73,0.43-1.1,0.65
							l-0.05,0.03c-0.39,0.22-0.75,0.42-1.12,0.62l-0.39,0.21c-0.28,0.15-0.56,0.3-0.85,0.44l-0.43,0.22
							c-0.3,0.16-0.61,0.31-0.93,0.46l-0.36,0.17c-0.33,0.16-0.65,0.31-0.98,0.47l-0.41,0.2c-0.47,0.22-0.94,0.43-1.43,0.64
							l-0.27,0.11c-0.4,0.17-0.8,0.35-1.21,0.52l-0.54,0.22c-0.33,0.14-0.66,0.27-1,0.41l-0.46,0.18c-0.35,0.14-0.7,0.27-1.05,0.41
							l-0.53,0.2C346.1,109.69,345.74,109.83,345.37,109.96z"/>
					</g>
				</g>
			</g>
			<g>
				<g>
					<defs>
						<rect id="SVGID_11_" x="345.67" y="87.87" width="20.61" height="31.17"/>
					</defs>
					<clipPath id="SVGID_12_">
						<use xlink:href="#SVGID_11_"  style="overflow:visible;"/>
					</clipPath>
					<g class="st7">
						<path class="st1" d="M345.37,118.76l-0.24-0.67c0.36-0.13,0.72-0.27,1.08-0.4l0.53-0.2c0.35-0.14,0.7-0.27,1.05-0.41
							l0.46-0.18c0.34-0.14,0.67-0.27,0.99-0.41l0.54-0.22c0.41-0.17,0.8-0.34,1.2-0.52l0.27-0.11c0.48-0.21,0.95-0.42,1.42-0.63
							l0.41-0.19c0.33-0.15,0.66-0.3,0.98-0.46l0.35-0.17c0.31-0.15,0.61-0.3,0.92-0.46l0.42-0.22c0.29-0.15,0.56-0.29,0.84-0.44
							l0.38-0.21c0.36-0.2,0.72-0.4,1.07-0.59l0.09-0.05c0.37-0.21,0.73-0.42,1.09-0.64l0.3-0.18c0.27-0.17,0.54-0.33,0.81-0.5
							l0.26-0.17c0.34-0.22,0.67-0.43,0.99-0.65l0.15-0.1c0.28-0.19,0.54-0.37,0.81-0.56l0.23-0.17c0.3-0.22,0.6-0.44,0.88-0.66
							l0.06-0.04c0.3-0.23,0.55-0.43,0.8-0.63l0.2-0.16c0.27-0.22,0.53-0.44,0.78-0.67l0.09-0.08c0.23-0.21,0.45-0.41,0.67-0.61
							l0.17-0.16l0.49,0.51l-0.17,0.16c-0.22,0.21-0.45,0.42-0.68,0.63l-0.09,0.08c-0.26,0.23-0.53,0.46-0.8,0.68l-0.2,0.16
							c-0.25,0.21-0.51,0.41-0.78,0.62l-0.1,0.08c-0.29,0.22-0.59,0.44-0.89,0.67l-0.2,0.14c-0.31,0.22-0.58,0.41-0.86,0.6
							l-0.15,0.11c-0.33,0.22-0.66,0.44-1,0.66l-0.27,0.17c-0.27,0.17-0.54,0.34-0.82,0.51l-0.3,0.18c-0.36,0.22-0.73,0.43-1.1,0.65
							l-0.07,0.04c-0.38,0.22-0.74,0.42-1.11,0.61l-0.37,0.2c-0.29,0.15-0.57,0.3-0.86,0.45l-0.43,0.22
							c-0.3,0.15-0.61,0.31-0.92,0.46l-0.36,0.17c-0.32,0.16-0.65,0.31-0.98,0.47l-0.41,0.2c-0.47,0.22-0.94,0.43-1.43,0.64
							l-0.27,0.11c-0.4,0.17-0.8,0.35-1.21,0.52l-0.54,0.22c-0.33,0.14-0.66,0.27-1,0.41l-0.46,0.18c-0.35,0.14-0.7,0.27-1.05,0.41
							l-0.53,0.2C346.1,118.5,345.74,118.63,345.37,118.76z"/>
					</g>
				</g>
			</g>
		</g>
	</g>
	<g id="персонаж_2">
		<g id="ботинок_3_">
			<g>
				<path class="st8" d="M71.86,130.92l-9.72-22.96l-48.56,27.06c0,0-1.56,8.49,16.61,5.94c4.85-0.68,17.22-4.02,20.13-0.69l0,0
					L71.86,130.92z"/>
				<g>
					<polygon class="st9" points="43.55,143.24 41.56,135.35 42.64,135.08 44.01,140.51 48.62,133.54 49.55,134.15 					"/>
				</g>
			</g>
			<g>
				
					<rect x="14.54" y="124.94" transform="matrix(0.8904 -0.4552 0.4552 0.8904 -52.7049 32.1277)" class="st9" width="51.63" height="1.12"/>
			</g>
		</g>
		<path class="st10" d="M177.3,169.02c-8.18-23.15-25.35-27.23-47.57-6.55s-33.74,23.39-33.74,23.39s-15.29-48.22-23.96-60.44
			c-1.67-2.34-36.27,20.88-36.27,20.88s42.59,78.07,62.51,72.89c19.93-5.18,49.62-31.48,49.62-31.48L177.3,169.02z"/>
		<g id="рука_3_">
			<path class="st11" d="M312.82,64.6c-0.14-0.06-0.29-0.08-0.44-0.07l-10.56,1.09c-2.64,0.27-8.66,4.88-8.66,4.88
				c-2.53,1.03-4.46,3.15-5.26,5.76L286.15,82c-0.05,0.16-0.14,0.3-0.26,0.41l-36.59,33.1c-0.5,0.45-0.35,1.27,0.28,1.51l13.67,5.39
				c0.35,0.14,0.75,0.05,1-0.23c3.2-3.56,23.82-26.58,27.73-32.39c0.08-0.12,0.19-0.22,0.31-0.29c1.55-0.84,2.85-1.71,3.91-2.53
				c2.38-1.83,3.91-4.56,4.27-7.54l0.56-4.75c0.01-0.05,0.01-0.09,0.01-0.14l0.89-3.44c0,0,8.41-0.62,10.96-3.12
				C315.11,65.83,313.48,64.88,312.82,64.6z"/>
			<path class="st12" d="M232.04,94.24c-3.58-4.56-15.05-4.58-16.27,1.08c-2.22,10.32,1.65,26.23,12.48,35.8
				c17.28,15.27,31.99,3.52,31.99,3.52l36.95-37.19l-13.8-14.89l-27.56,25.22c-4.46,4.08-11.58,3.89-15.69-0.55
				C237.23,104.1,234.42,97.27,232.04,94.24z"/>
			<g>
				
					<rect x="281.98" y="88.46" transform="matrix(0.7223 -0.6916 0.6916 0.7223 11.9299 222.1357)" class="st9" width="1.17" height="15.5"/>
			</g>
		</g>
		<path class="st10" d="M229.55,76.84c-0.02,0-0.03,0-0.04-0.01c-1.43,0.11-2.71-0.1-3.73-0.65c-5.77-1.99-2.97-7.98-10.05-14.15
			c-8.28-7.21-11.15,4.37-23.07-7.86c-11.22-11.51-1.43-29.16-0.23-31.2c0.02-0.14,0.03-0.22,0.03-0.22s-17.85,25.52-6.38,37.28
			s14.23,0.62,22.19,7.56c6.81,5.93,4.12,11.69,9.67,13.61c0.99,0.53,2.22,0.73,3.59,0.62c0.01,0,0.03,0,0.04,0.01
			c1.35,0.08,2.48-0.18,3.41-0.69c0.51-0.28,1.04-0.53,1.56-0.78c1.43-0.67,2.89-1.56,4.15-2.79c0.33-0.32,0.65-0.62,0.97-0.91
			C231.02,76.82,230.32,76.88,229.55,76.84z"/>
		<g id="ботинок_2_">
			<path class="st1" d="M62.8,166.93L44.26,153.3l-29.49,47.13c0,0,2.73,8.19,17.42-2.8c3.92-2.93,13.14-11.83,17.3-10.32l0,0
				L62.8,166.93z"/>
			<g>
				<polygon class="st9" points="45,193.17 39.45,187.22 40.26,186.46 44.09,190.56 44.76,182.22 45.88,182.32 				"/>
			</g>
		</g>
		
			<linearGradient id="SVGID_13_" gradientUnits="userSpaceOnUse" x1="39.4787" y1="475.2256" x2="189.7518" y2="475.2256" gradientTransform="matrix(1 0 0 1 0 -287)">
			<stop  offset="0" style="stop-color:#0F9EA8"/>
			<stop  offset="1" style="stop-color:#1AAD9E"/>
		</linearGradient>
		<path class="st13" d="M172.83,150.46c-8.42-7.04-28.02-14.34-34.66-9.13c-12.16,9.53-9.48,27.62-9.59,27.75
			c-6.73,7.75-17.1,37.32-17.1,37.32s-41.63-40.02-53.56-45.44c-2.03-0.93-18.98,32.55-18.43,42.14
			c0.08,1.36,76.44,45.44,90.94,30.82c14.5-14.61,31.4-48.43,34.03-50.1c20.58-13.07,25.29-16.74,25.29-16.74L172.83,150.46z"/>
		<g id="лицо">
			<path class="st11" d="M232.83,99.5l4.62-8.15c0,0,7.28,6.98,16.4-3.43c9.13-10.41,9.55-20.44,1.05-25.09
				c-8.5-4.64-21.64,1.47-27.07,11.29s-11.92,9.65-11.92,9.65s-9.55,10.06-5.09,15.26C215.29,104.24,230.32,107.47,232.83,99.5z"/>
			<circle class="st9" cx="249.67" cy="79.17" r="1.71"/>
			<g>
				<path class="st9" d="M254.79,75.82c-0.04-0.02-3.86-1.69-6.34-1.14l-0.26-1.2c2.86-0.62,6.92,1.15,7.09,1.23L254.79,75.82z"/>
			</g>
			<g>
				<polygon class="st9" points="256.31,93.16 250.17,90.65 250.64,89.51 255.48,91.5 258.05,81.73 259.23,82.04 				"/>
			</g>
			<g>
				<path class="st9" d="M247.71,93.22c-0.61-0.21-5.94-2.1-6.59-5.06l1.19-0.26c0.42,1.94,4.32,3.66,5.79,4.15L247.71,93.22z"/>
			</g>
		</g>
		
			<linearGradient id="SVGID_14_" gradientUnits="userSpaceOnUse" x1="187.3272" y1="361.41" x2="266.5749" y2="361.41" gradientTransform="matrix(1 0 0 1 0 -287)">
			<stop  offset="0" style="stop-color:#0F9EA8"/>
			<stop  offset="1" style="stop-color:#1AAD9E"/>
		</linearGradient>
		<path class="st14" d="M233.62,75.79c1.81-0.75,3.78-1.78,5.42-3.39c0.09-0.09,0.18-0.17,0.27-0.25c-2.32,0.66-4.89,2.03-7.66,4.52
			C232.39,76.49,233.05,76.2,233.62,75.79z"/>
		<path class="st10" d="M254.22,57.37c-2.21-2.44-5.13-4.64-8.96-5.88c-12.41-4.02-19.81,6.56-25.2-7.45
			c-5.38-14.02-18.3,7.46-25.85-0.78c-3.62-3.95-2.04-18.34-1.81-20.28c-1.19,2.04-10.98,19.69,0.23,31.2
			c11.92,12.23,14.79,0.65,23.07,7.86c7.07,6.17,4.28,12.16,10.05,14.15c1.03,0.55,2.31,0.76,3.73,0.65c0.02,0,0.03,0,0.04,0.01
			c0.77,0.04,1.47-0.02,2.1-0.17c2.77-2.48,5.35-3.86,7.66-4.52c7.58-7.22,13.78-6.45,17.58-4.71
			C257.64,64,256.81,60.24,254.22,57.37z"/>
		
			<linearGradient id="SVGID_15_" gradientUnits="userSpaceOnUse" x1="187.3284" y1="336.8341" x2="277.2598" y2="336.8341" gradientTransform="matrix(1 0 0 1 0 -287)">
			<stop  offset="0" style="stop-color:#0F9EA8"/>
			<stop  offset="1" style="stop-color:#1AAD9E"/>
		</linearGradient>
		<path class="st15" d="M263.52,51.41c-2.29-2.54-5.33-4.82-9.31-6.11c-12.89-4.18-20.6,6.82-26.19-7.75s-17.18,5.6-26.87-0.8
			s-8.61-13.96-8.61-13.96s-0.04,0.07-0.12,0.2c-1.19,2.04-10.98,19.69,0.23,31.2c11.92,12.23,14.79,0.65,23.07,7.86
			c7.07,6.17,4.28,12.16,10.05,14.15c1.03,0.55,2.31,0.76,3.73,0.65c0.02,0,0.03,0,0.04,0.01c0.77,0.04,1.47-0.02,2.1-0.17
			c2.77-2.48,5.35-3.86,7.66-4.52c7.58-7.22,13.78-6.45,17.58-4.71c3.24,1.48,4.74,3.67,3.84,2.19
			C267.18,65.78,268.55,56.98,263.52,51.41z"/>
		<g id="тело_1_">
			<path class="st8" d="M234.86,95.89c0,0-4.69,7.21-11.83,1.64s-6.95-13.78-6.95-13.78s-10.15-4.49-16.27-1.81
				c-4.65,2.03-16.26,16.84-21.56,23.83c-8.98,5.62-31.86,20.52-44.4,33.84c15.48,32.36,56.55,38.57,56.55,38.57l28.02-36.97
				c3.25-4.29,6.01-8.93,8.22-13.84C230.88,117.97,235.94,104.53,234.86,95.89z"/>
			<g>
				<path class="st9" d="M177.65,171.42l-0.82-0.91c8.94-8.13,45.82-59.49,50-65.32l0.99,0.71
					C223.63,111.75,186.68,163.21,177.65,171.42z"/>
			</g>
			<g>
				<path class="st9" d="M213.64,115.51c-0.52,0-1.01-0.17-1.43-0.49c-0.49-0.38-0.8-0.93-0.88-1.55s0.09-1.23,0.47-1.71l0,0
					c0.38-0.49,0.93-0.8,1.55-0.88c0.62-0.08,1.23,0.09,1.71,0.47c0.49,0.38,0.8,0.93,0.88,1.55s-0.09,1.23-0.47,1.71
					c-0.38,0.49-0.93,0.8-1.55,0.88C213.83,115.5,213.73,115.51,213.64,115.51z M212.77,112.51c-0.18,0.23-0.26,0.52-0.22,0.81
					s0.18,0.55,0.42,0.73c0.23,0.18,0.52,0.26,0.81,0.22s0.55-0.18,0.73-0.42s0.26-0.52,0.22-0.81s-0.18-0.55-0.42-0.73
					c-0.23-0.18-0.52-0.26-0.81-0.22C213.22,112.13,212.96,112.27,212.77,112.51L212.77,112.51z"/>
			</g>
			<g>
				<polygon class="st9" points="232.18,115.35 225.53,102.64 226.62,102.07 231.84,112.06 236.53,95.51 237.7,95.85 				"/>
			</g>
			<g>
				<polygon class="st9" points="210.37,103.19 214.66,85.71 215.84,86 211.99,101.7 220.76,100.38 220.94,101.59 				"/>
			</g>
			<g>
				<g>
					<path class="st9" d="M182.31,144.92c-0.48,0-0.95-0.15-1.36-0.47c-0.97-0.75-1.14-2.15-0.39-3.11
						c0.36-0.47,0.89-0.76,1.48-0.84c0.59-0.07,1.17,0.09,1.64,0.45s0.76,0.89,0.84,1.48c0.07,0.59-0.09,1.17-0.45,1.64
						C183.63,144.62,182.97,144.92,182.31,144.92z M182.32,141.64c-0.04,0-0.09,0-0.13,0.01c-0.28,0.03-0.53,0.17-0.7,0.4l0,0
						c-0.36,0.46-0.27,1.12,0.18,1.48c0.46,0.36,1.12,0.27,1.48-0.18c0.17-0.22,0.25-0.5,0.21-0.78c-0.04-0.28-0.17-0.53-0.4-0.7
						C182.77,141.72,182.55,141.64,182.32,141.64z"/>
				</g>
			</g>
		</g>
		<g id="рука_2_">
			<path class="st11" d="M231.78,125.36l34.94-5.67c0,0,6.44-3.44,8.77-2.28c2.33,1.17,12.87,4.74,9.85,11.6
				c-3.02,6.86-11.34,5.99-12.08,3.15c-0.74-2.84,3.29-3.89-0.74-2.84c-4.02,1.05-7.01-0.71-7.01-0.71l-37,10.39L231.78,125.36z"/>
			<path class="st1" d="M207.39,85.21c0,0-5.12-5.68-11.18-1.37c-6.06,4.32-14.34,20.68-10.34,43.39s26.01,19.22,26.01,19.22
				l52.07-6.08l-1.52-20.25l-37.29,2.56c-6.15,0.42-11.48-4.21-11.91-10.36C212.55,102.85,211,90.04,207.39,85.21z"/>
			<g>
				
					<rect x="252.97" y="121.17" transform="matrix(0.9984 -0.056 0.056 0.9984 -6.8849 14.405)" class="st9" width="1.23" height="17.76"/>
			</g>
			<g>
				<path class="st9" d="M258.06,127.95c-0.08,0-0.16-0.01-0.24-0.01c-0.62-0.07-1.18-0.36-1.57-0.84c-0.39-0.48-0.57-1.08-0.51-1.7
					c0.13-1.27,1.27-2.21,2.55-2.08c1.27,0.13,2.21,1.27,2.08,2.55C260.25,127.06,259.24,127.95,258.06,127.95z M258.06,124.53
					c-0.25,0-0.49,0.09-0.69,0.25c-0.23,0.18-0.37,0.45-0.4,0.74s0.05,0.58,0.24,0.81c0.18,0.23,0.45,0.37,0.74,0.4
					c0.6,0.06,1.14-0.38,1.21-0.99c0.03-0.29-0.05-0.58-0.24-0.81c-0.18-0.23-0.45-0.37-0.74-0.4
					C258.13,124.53,258.09,124.53,258.06,124.53z"/>
			</g>
		</g>
		<g>
			<path class="st1" d="M121.05,217.37c-4.33-8.65-9.62-10.66-9.67-10.67l0.25-0.69c0.23,0.08,5.62,2.13,10.07,11.04L121.05,217.37z
				"/>
		</g>
		<path class="st11" d="M239.35,72.41c0,0,1.18-4.74-4.74-4.74s-1.58,9.87-1.58,9.87L239.35,72.41z"/>
		<g>
			<path class="st1" d="M124.42,250.98c-6.48,0-12.69-3.15-13.08-3.36l0.33-0.63c0.14,0.07,14.18,7.2,21.81,0.05
				c7.75-7.27,13.67-21.45,13.73-21.59l0.66,0.27c-0.06,0.15-6.04,14.47-13.9,21.84C131.23,250.13,127.79,250.98,124.42,250.98z"/>
		</g>
		<g>
			<path class="st1" d="M90.89,143.42h-0.71c0-10.65-9.24-28.78-9.34-28.95l0.63-0.33C81.57,114.33,90.89,132.61,90.89,143.42z"/>
		</g>
		<g>
			
				<rect x="93.67" y="117.38" transform="matrix(0.9265 -0.3764 0.3764 0.9265 -40.476 44.6469)" class="st1" width="0.71" height="17.05"/>
		</g>
		<g>
			
				<rect x="6.92" y="178.55" transform="matrix(0.5313 -0.8472 0.8472 0.5313 -136.2809 111.8929)" class="st9" width="52.12" height="1.12"/>
		</g>
	</g>
	<g id="экран_часть_2">
		<g>
			
				<linearGradient id="SVGID_16_" gradientUnits="userSpaceOnUse" x1="2619.2383" y1="456.52" x2="2721.3281" y2="456.52" gradientTransform="matrix(-1 0 0 1 2911.2 -287)">
				<stop  offset="0" style="stop-color:#74B5CF"/>
				<stop  offset="1" style="stop-color:#2185D9"/>
			</linearGradient>
			<path class="st16" d="M191.76,147.06c0.36,0.09,0.72,0.17,1.08,0.25c0.63,0.15,1.27,0.29,1.91,0.43c0.35,0.08,0.7,0.16,1.06,0.23
				c0.73,0.16,1.45,0.31,2.19,0.47c0.27,0.05,0.53,0.11,0.8,0.17c1,0.21,2.01,0.41,3.03,0.6c0.03,0.01,0.06,0.01,0.09,0.02
				c0.08,0.02,0.17,0.03,0.25,0.04c1.23,0.24,2.47,0.46,3.72,0.68c0.27,0.05,0.53,0.1,0.8,0.14c1.31,0.23,2.62,0.45,3.95,0.66
				c0.09,0.02,0.18,0.03,0.28,0.05c0.33,0.05,0.67,0.1,1,0.15c0.5,0.08,0.99,0.15,1.49,0.23c0.47,0.07,0.94,0.14,1.42,0.21
				c0.5,0.07,1,0.15,1.5,0.22c0.48,0.07,0.95,0.13,1.43,0.2c0.5,0.07,1.01,0.14,1.52,0.2c0.48,0.06,0.96,0.12,1.44,0.18
				c0.52,0.07,1.03,0.13,1.54,0.19c0.48,0.06,0.97,0.11,1.45,0.17c0.52,0.06,1.03,0.12,1.55,0.18c0.49,0.05,0.99,0.11,1.48,0.16
				c0.52,0.05,1.04,0.11,1.56,0.16c0.49,0.05,0.99,0.1,1.49,0.15c0.52,0.05,1.05,0.1,1.57,0.15c0.5,0.05,1,0.09,1.5,0.14
				c0.53,0.05,1.05,0.09,1.58,0.14c0.21,0.02,0.41,0.04,0.61,0.05c0.15,0.01,0.29,0.02,0.43,0.03c1.72,0.14,3.46,0.27,5.2,0.38
				c0.24,0.02,0.49,0.03,0.74,0.05c1.77,0.11,3.55,0.22,5.34,0.3c0.08,0.01,0.15,0.01,0.23,0.01c0.18,0.01,0.36,0.02,0.54,0.02
				c1.31,0.06,2.62,0.11,3.94,0.16c0.25,0.01,0.5,0.02,0.75,0.03c1.46,0.05,2.92,0.09,4.39,0.12c0.14,0.01,0.28,0.01,0.41,0.01
				c0.23,0.01,0.47,0.01,0.71,0.01c0.92,0.02,1.85,0.03,2.77,0.04c0.39,0.01,0.76,0.01,1.15,0.02c1.27,0.01,2.55,0.02,3.83,0.02
				c0.27,0,0.53,0,0.8,0c0.23,0,0.47-0.01,0.71-0.01c1.01-0.01,2.02-0.01,3.02-0.02c0.39-0.01,0.77-0.01,1.16-0.02
				c1.22-0.02,2.42-0.04,3.63-0.07c0.08,0,0.17-0.01,0.25-0.01c0.02,0,0.03,0,0.05,0c1.26-0.03,2.53-0.07,3.79-0.11
				c0.37-0.01,0.74-0.03,1.1-0.04c0.92-0.03,1.84-0.07,2.76-0.11c0.23-0.01,0.46-0.02,0.68-0.03c0.17-0.01,0.34-0.02,0.51-0.03
				c0.99-0.05,1.97-0.1,2.95-0.16c0.25-0.02,0.5-0.03,0.76-0.04c1.22-0.07,2.44-0.15,3.65-0.23c0.08-0.01,0.16-0.01,0.24-0.02
				c0.14-0.01,0.28-0.02,0.42-0.03v37.56c-0.14,0.01-0.28,0.02-0.42,0.03c-0.08,0.01-0.16,0.01-0.24,0.02
				c-1.21,0.08-2.42,0.16-3.65,0.23c-0.25,0.02-0.5,0.03-0.76,0.04c-0.98,0.05-1.96,0.11-2.95,0.16c-0.17,0.01-0.34,0.02-0.51,0.03
				c-0.23,0.01-0.45,0.02-0.68,0.03c-0.92,0.04-1.84,0.08-2.76,0.11c-0.37,0.02-0.73,0.03-1.1,0.04c-1.26,0.04-2.52,0.08-3.79,0.11
				c-0.02,0-0.03,0-0.05,0c-0.08,0-0.17,0.01-0.25,0.01c-1.21,0.03-2.42,0.05-3.63,0.07c-0.39,0.01-0.77,0.01-1.16,0.02
				c-1,0.01-2.01,0.02-3.02,0.02c-0.23,0-0.47,0.01-0.71,0.01c-0.27,0-0.53,0-0.8,0c-1.28,0-2.56-0.01-3.83-0.02
				c-0.39-0.01-0.76-0.01-1.15-0.02c-0.93-0.01-1.85-0.03-2.77-0.04c-0.23-0.01-0.47-0.01-0.71-0.01c-0.14-0.01-0.28-0.01-0.41-0.01
				c-1.47-0.03-2.93-0.08-4.39-0.12c-0.25-0.01-0.5-0.02-0.75-0.03c-1.32-0.05-2.63-0.1-3.94-0.16c-0.18-0.01-0.36-0.02-0.54-0.02
				c-0.08-0.01-0.15-0.01-0.23-0.01c-1.79-0.09-3.57-0.19-5.34-0.3c-0.24-0.02-0.49-0.03-0.74-0.05c-1.74-0.11-3.48-0.24-5.2-0.38
				c-0.15-0.01-0.29-0.02-0.43-0.03c-0.21-0.02-0.41-0.04-0.61-0.05c-0.53-0.04-1.05-0.09-1.58-0.14c-0.5-0.04-1-0.09-1.5-0.14
				c-0.53-0.05-1.05-0.1-1.57-0.15c-0.5-0.05-0.99-0.1-1.49-0.15c-0.52-0.05-1.04-0.11-1.56-0.16c-0.49-0.05-0.99-0.1-1.48-0.16
				c-0.52-0.06-1.03-0.12-1.55-0.18c-0.49-0.05-0.97-0.11-1.45-0.17c-0.52-0.06-1.03-0.12-1.54-0.19c-0.48-0.06-0.97-0.12-1.44-0.18
				c-0.51-0.07-1.01-0.14-1.52-0.2c-0.48-0.07-0.95-0.13-1.43-0.2c-0.5-0.07-1-0.14-1.5-0.22c-0.47-0.07-0.95-0.14-1.42-0.21
				c-0.5-0.08-1-0.15-1.49-0.23c-0.34-0.05-0.67-0.1-1-0.15c-0.09-0.02-0.18-0.03-0.28-0.05c-1.32-0.21-2.64-0.43-3.95-0.66
				c-0.27-0.05-0.53-0.09-0.8-0.14c-1.25-0.22-2.49-0.45-3.72-0.68c-0.08-0.02-0.17-0.03-0.25-0.04c-0.03-0.01-0.06-0.01-0.09-0.02
				c-1.01-0.2-2.02-0.4-3.03-0.6c-0.27-0.05-0.53-0.11-0.8-0.17c-0.73-0.15-1.46-0.31-2.19-0.47c-0.35-0.08-0.71-0.16-1.06-0.23
				c-0.64-0.14-1.28-0.29-1.91-0.43c-0.36-0.09-0.73-0.17-1.08-0.25c-0.63-0.15-1.26-0.3-1.89-0.46V146.6
				C190.49,146.75,191.12,146.91,191.76,147.06z"/>
			<g>
				<path class="st1" d="M265.49,192.84c-1.29,0-2.56-0.01-3.84-0.02l-1.15-0.02c-0.93-0.01-1.86-0.03-2.78-0.04l-1.12-0.02
					c-1.47-0.03-2.93-0.08-4.39-0.12l-0.75-0.03c-1.32-0.05-2.63-0.1-3.94-0.16l-0.76-0.03c-1.72-0.09-3.47-0.18-5.34-0.3
					l-0.74-0.05c-1.67-0.11-3.41-0.24-5.2-0.38l-1.05-0.09c-0.53-0.04-1.06-0.09-1.58-0.14l-1.5-0.14c-0.53-0.05-1.05-0.1-1.57-0.15
					c-0.5-0.05-0.99-0.1-1.49-0.15c-0.52-0.05-1.04-0.11-1.56-0.16c-0.49-0.05-0.99-0.1-1.48-0.16c-0.52-0.06-1.04-0.12-1.55-0.18
					c-0.49-0.05-0.97-0.11-1.46-0.17c-0.44-0.05-0.87-0.11-1.31-0.16l-1.68-0.21c-0.51-0.07-1.01-0.14-1.52-0.2
					c-0.48-0.07-0.96-0.13-1.43-0.2c-0.43-0.06-0.86-0.12-1.3-0.18l-0.43-0.07c-0.4-0.06-0.8-0.11-1.2-0.18
					c-0.48-0.07-0.96-0.15-1.44-0.22l-0.44-0.07c-0.21-0.03-0.41-0.07-0.62-0.1l-0.28-0.04c-1.33-0.21-2.65-0.43-3.95-0.66
					l-0.8-0.14c-1.25-0.22-2.5-0.45-3.73-0.68l-0.34-0.07c-1.02-0.2-2.03-0.4-3.03-0.61l-0.8-0.17c-0.73-0.15-1.46-0.31-2.19-0.47
					l-1.06-0.23c-0.64-0.15-1.28-0.29-1.92-0.44c-0.36-0.09-0.73-0.17-1.08-0.25c-0.63-0.15-1.27-0.3-1.9-0.46l-0.27-0.07v-38.29
					l0.44,0.11c0.63,0.15,1.26,0.31,1.89,0.46l0,0c0.36,0.09,0.72,0.17,1.08,0.25c0.63,0.15,1.27,0.29,1.91,0.43l1.05,0.23
					c0.72,0.16,1.45,0.31,2.19,0.47l0.8,0.17c1,0.21,2.01,0.41,3.02,0.6l0.34,0.07c1.23,0.24,2.47,0.46,3.72,0.68l0.8,0.14
					c1.3,0.23,2.62,0.44,3.94,0.66l1.35,0.21c0.48,0.08,0.95,0.15,1.43,0.22l1.63,0.24c0.43,0.07,0.86,0.12,1.29,0.18
					c0.48,0.07,0.95,0.13,1.43,0.2c0.5,0.07,1.01,0.14,1.52,0.21c0.48,0.06,0.96,0.12,1.44,0.18l0.23,0.03
					c0.43,0.05,0.87,0.11,1.31,0.16c0.48,0.06,0.97,0.11,1.45,0.17c0.52,0.06,1.03,0.12,1.55,0.18c0.49,0.05,0.99,0.11,1.48,0.16
					c0.52,0.05,1.04,0.11,1.56,0.16c0.49,0.05,0.99,0.1,1.49,0.15c0.52,0.05,1.05,0.1,1.57,0.15c0.5,0.04,1,0.09,1.5,0.14
					c0.53,0.05,1.05,0.09,1.58,0.14l1.05,0.09c1.78,0.15,3.53,0.27,5.19,0.38l0.73,0.05c1.87,0.12,3.62,0.22,5.33,0.3l0.76,0.04
					c1.31,0.06,2.62,0.11,3.93,0.16l0.75,0.03c1.46,0.05,2.92,0.09,4.39,0.12l1.12,0.02c0.92,0.02,1.84,0.03,2.77,0.04l1.14,0.02
					c1.27,0.01,2.55,0.02,3.83,0.02l1.5-0.01c1.01-0.01,2.02-0.01,3.02-0.02l1.16-0.02c1.22-0.02,2.42-0.04,3.63-0.07l0.25-0.01
					c1.31-0.03,2.57-0.07,3.83-0.11l1.1-0.04c0.92-0.03,1.84-0.07,2.76-0.11l1.19-0.05c0.98-0.05,1.96-0.1,2.95-0.16l0.76-0.04
					c1.22-0.07,2.43-0.15,3.64-0.23l1.04-0.08v38.27l-0.99,0.07c-1.21,0.08-2.42,0.16-3.65,0.23l-0.76,0.04
					c-0.98,0.05-1.96,0.11-2.95,0.16l-1.19,0.05c-0.92,0.04-1.84,0.08-2.76,0.11l-1.11,0.04c-1.26,0.04-2.52,0.09-3.79,0.11
					l-0.3,0.01c-1.21,0.03-2.42,0.05-3.64,0.07l-1.16,0.02c-1.01,0.01-2.02,0.02-3.03,0.02L265.49,192.84z M201.99,186.46l0.25,0.04
					c1.23,0.24,2.47,0.46,3.72,0.68l0.8,0.14c1.3,0.23,2.62,0.44,3.94,0.66l1.33,0.21c0.48,0.08,0.95,0.15,1.44,0.22
					c0.4,0.06,0.8,0.12,1.19,0.17l0.43,0.07c0.43,0.07,0.86,0.12,1.29,0.18c0.48,0.07,0.95,0.13,1.43,0.2
					c0.5,0.07,1.01,0.14,1.52,0.2l1.68,0.21c0.43,0.05,0.87,0.11,1.31,0.16c0.48,0.06,0.97,0.11,1.45,0.17
					c0.52,0.06,1.03,0.12,1.55,0.18c0.49,0.05,0.99,0.11,1.48,0.16c0.52,0.05,1.04,0.11,1.56,0.16c0.49,0.05,0.99,0.1,1.49,0.15
					c0.52,0.05,1.05,0.1,1.57,0.15l1.5,0.14c0.53,0.05,1.05,0.09,1.58,0.14l1.05,0.09c1.78,0.15,3.53,0.27,5.19,0.38l0.73,0.05
					c1.87,0.12,3.62,0.22,5.33,0.3l0.76,0.03c1.31,0.06,2.62,0.12,3.93,0.16l0.75,0.03c1.46,0.05,2.92,0.09,4.39,0.12l1.12,0.02
					c0.92,0.02,1.84,0.03,2.77,0.04l1.14,0.02c1.27,0.01,2.55,0.02,3.83,0.02l1.5-0.01c1.01-0.01,2.02-0.01,3.02-0.02l1.16-0.02
					c1.22-0.02,2.42-0.04,3.63-0.07l0.25-0.01c1.31-0.03,2.57-0.07,3.83-0.11l1.1-0.04c0.92-0.03,1.84-0.07,2.76-0.11l1.19-0.05
					c0.98-0.05,1.96-0.1,2.95-0.16l0.76-0.04c1.22-0.07,2.43-0.15,3.64-0.23l0.33-0.02v-36.85l-0.28,0.02
					c-1.21,0.08-2.42,0.16-3.65,0.23l-0.76,0.04c-0.98,0.05-1.96,0.11-2.95,0.16l-1.19,0.05c-0.92,0.04-1.84,0.08-2.76,0.11
					l-1.11,0.04c-1.26,0.04-2.52,0.09-3.79,0.11l-0.3,0.01c-1.21,0.03-2.42,0.05-3.63,0.07l-1.16,0.02
					c-1.01,0.01-2.02,0.02-3.03,0.02l-1.5,0.01c-1.29,0-2.56-0.01-3.84-0.02l-1.14-0.02c-0.93-0.01-1.86-0.03-2.78-0.04l-1.12-0.02
					c-1.47-0.03-2.93-0.08-4.39-0.12l-0.75-0.03c-1.32-0.05-2.63-0.1-3.94-0.16l-0.76-0.04c-1.72-0.09-3.47-0.18-5.34-0.3
					l-0.74-0.05c-1.67-0.11-3.41-0.24-5.2-0.38l-1.05-0.09c-0.53-0.04-1.06-0.09-1.58-0.14c-0.5-0.04-1-0.09-1.5-0.14
					c-0.53-0.05-1.05-0.1-1.57-0.15c-0.5-0.05-0.99-0.1-1.49-0.15c-0.52-0.05-1.04-0.11-1.56-0.16c-0.49-0.05-0.99-0.1-1.48-0.16
					c-0.52-0.06-1.04-0.12-1.55-0.18c-0.49-0.05-0.97-0.11-1.46-0.17c-0.44-0.05-0.87-0.11-1.31-0.16l-0.23-0.03
					c-0.48-0.06-0.97-0.12-1.44-0.18c-0.51-0.07-1.01-0.14-1.52-0.21c-0.48-0.07-0.96-0.13-1.43-0.2c-0.43-0.06-0.86-0.12-1.3-0.18
					l-1.63-0.24c-0.48-0.07-0.95-0.15-1.43-0.22l-1.35-0.21c-1.33-0.21-2.65-0.43-3.95-0.66l-0.8-0.14
					c-1.25-0.22-2.5-0.45-3.73-0.68l-0.34-0.07c-1.02-0.2-2.03-0.4-3.03-0.61l-0.8-0.17c-0.73-0.15-1.46-0.31-2.19-0.47l-1.06-0.23
					c-0.64-0.15-1.28-0.29-1.92-0.44c-0.36-0.09-0.73-0.17-1.08-0.25c-0.49-0.11-0.97-0.23-1.46-0.35v36.83
					c0.54,0.13,1.08,0.26,1.62,0.39c0.36,0.09,0.72,0.17,1.08,0.25c0.63,0.15,1.27,0.29,1.91,0.43l1.05,0.23
					c0.72,0.16,1.45,0.31,2.19,0.47l0.8,0.17c1,0.21,2.01,0.41,3.02,0.6L201.99,186.46z"/>
			</g>
		</g>
		<g>
			<g>
				<path class="st1" d="M199.8,182.52c-1.83,0-3.31-1.49-3.31-3.31c0-1.83,1.49-3.31,3.31-3.31c1.82,0,3.31,1.49,3.31,3.31
					C203.11,181.03,201.63,182.52,199.8,182.52z M199.8,176.59c-1.44,0-2.61,1.17-2.61,2.61s1.17,2.61,2.61,2.61
					s2.61-1.17,2.61-2.61S201.24,176.59,199.8,176.59z"/>
			</g>
			<g>
				<path class="st1" d="M281.97,166.97c-1.83,0-3.31-1.49-3.31-3.31c0-1.83,1.49-3.31,3.31-3.31c1.83,0,3.31,1.49,3.31,3.31
					C285.29,165.48,283.8,166.97,281.97,166.97z M281.97,161.05c-1.44,0-2.61,1.17-2.61,2.61s1.17,2.61,2.61,2.61
					s2.61-1.17,2.61-2.61C284.58,162.22,283.41,161.05,281.97,161.05z"/>
			</g>
			<g>
				<g>
					<g>
						<defs>
							<rect id="SVGID_17_" x="199.76" y="158.25" width="82.45" height="26.04"/>
						</defs>
						<clipPath id="SVGID_18_">
							<use xlink:href="#SVGID_17_"  style="overflow:visible;"/>
						</clipPath>
						<g class="st17">
							<polygon class="st1" points="198.9,180.49 198.45,179.94 214.8,166.19 226.07,171.73 239.53,160.73 262.23,178.99 
								282.53,162.58 282.97,163.13 262.23,179.9 239.53,161.64 226.17,172.57 214.9,167.04 							"/>
						</g>
					</g>
				</g>
			</g>
		</g>
	</g>
	<g id="экран_часть_3">
		<g>
			<path class="st1" d="M322.83,209.12l-0.01-0.45v-64.22l0.31-0.06l0.73-0.18c0.56-0.14,1.12-0.29,1.67-0.43l0.5-0.13
				c0.72-0.19,1.42-0.39,2.12-0.58l0.53-0.15c0.52-0.15,1.04-0.3,1.56-0.46l0.73-0.22c0.44-0.14,0.89-0.27,1.33-0.41
				c0.33-0.1,0.66-0.21,0.98-0.31l0.48-0.16c0.54-0.17,1.07-0.35,1.6-0.53c0.54-0.18,1.06-0.37,1.59-0.56l0.48-0.17
				c0.36-0.13,0.72-0.27,1.08-0.4l0.53-0.2c0.35-0.14,0.7-0.27,1.05-0.41l0.46-0.18c0.3-0.12,0.6-0.24,0.9-0.36l0.63-0.26
				c0.41-0.17,0.8-0.34,1.2-0.52l0.27-0.11c0.48-0.21,0.95-0.42,1.42-0.63l0.41-0.19c0.33-0.15,0.66-0.3,0.98-0.46l0.35-0.17
				c0.31-0.15,0.61-0.3,0.92-0.46l0.42-0.22c0.29-0.15,0.56-0.29,0.84-0.44l0.38-0.21c0.36-0.2,0.72-0.4,1.07-0.59l0.09-0.05
				c0.37-0.21,0.73-0.42,1.08-0.63l0.3-0.18c0.28-0.17,0.54-0.34,0.81-0.5l0.26-0.17c0.34-0.22,0.67-0.43,0.99-0.65l0.15-0.1
				c0.28-0.19,0.54-0.37,0.81-0.56l0.23-0.17c0.3-0.22,0.6-0.44,0.88-0.66l0.09-0.07c0.26-0.2,0.52-0.41,0.76-0.61l0.2-0.16
				c0.27-0.22,0.53-0.44,0.78-0.67l0.06-0.05c0.25-0.23,0.48-0.43,0.69-0.64l0.17-0.16c0.23-0.23,0.46-0.45,0.68-0.68l0.1-0.11
				c0.2-0.2,0.39-0.41,0.56-0.61l0.12-0.14c0.2-0.23,0.4-0.46,0.58-0.68l0.09-0.12c0.18-0.23,0.34-0.43,0.49-0.64l0.09-0.11
				c0.17-0.23,0.33-0.46,0.48-0.69l0.1-0.16c0.73-0.75,1.82-3.46,1.82-3.46s0.09,1.01,0.15,3.83l1.04,56.33c0,0.12,0,0.24-0.01,0.35
				s-0.01,0.23-0.02,0.34l-0.01,0.23c-0.02,0.26-0.05,0.52-0.08,0.78l-0.03,0.19c-0.03,0.2-0.07,0.41-0.11,0.61l-0.08,0.36
				c-0.05,0.21-0.1,0.41-0.16,0.61l-0.02,0.05c-0.08,0.26-0.15,0.49-0.23,0.72l-0.07,0.2c-0.09,0.25-0.19,0.5-0.29,0.75
				c-0.12,0.28-0.24,0.53-0.36,0.76l-0.09,0.18c-0.12,0.25-0.26,0.49-0.4,0.74l-0.04,0.08c-0.09,0.15-0.17,0.29-0.27,0.44l-0.26,0.4
				c-0.16,0.24-0.33,0.48-0.5,0.72l-0.09,0.12c-0.16,0.21-0.32,0.43-0.49,0.64l-0.19,0.24c-0.17,0.21-0.34,0.41-0.53,0.61
				l-0.13,0.15c-0.19,0.21-0.38,0.42-0.58,0.63l-0.11,0.11c-0.18,0.19-0.37,0.37-0.56,0.56l-0.27,0.25
				c-0.26,0.24-0.49,0.46-0.72,0.66l-0.09,0.08c-0.26,0.23-0.53,0.46-0.8,0.68l-0.44,0.36c-0.17,0.14-0.35,0.28-0.54,0.42
				l-0.09,0.08c-0.29,0.23-0.59,0.45-0.9,0.67l-0.23,0.17c-0.27,0.2-0.54,0.39-0.82,0.57l-0.21,0.15c-0.31,0.21-0.62,0.41-0.94,0.62
				l-0.27,0.17c-0.27,0.17-0.54,0.34-0.82,0.51l-0.3,0.18c-0.36,0.21-0.72,0.43-1.08,0.63l-0.07,0.04
				c-0.39,0.22-0.75,0.42-1.12,0.62l-0.39,0.21c-0.28,0.15-0.56,0.3-0.85,0.44l-0.43,0.22c-0.3,0.16-0.61,0.31-0.92,0.46l-0.43,0.21
				c-0.29,0.14-0.54,0.25-0.79,0.37l-0.53,0.25c-0.47,0.22-0.94,0.43-1.43,0.64l-0.27,0.11c-0.4,0.17-0.8,0.35-1.21,0.52l-0.76,0.31
				c-0.2,0.08-0.4,0.16-0.6,0.24l-0.65,0.25c-0.35,0.14-0.7,0.27-1.05,0.41l-0.54,0.2c-0.36,0.14-0.72,0.27-1.08,0.4l-0.49,0.18
				c-0.53,0.19-1.06,0.37-1.59,0.56c-0.53,0.18-1.07,0.36-1.61,0.54l-1.47,0.47c-0.44,0.14-0.89,0.28-1.33,0.41l-0.73,0.22
				c-0.52,0.15-1.04,0.3-1.57,0.46l-0.53,0.15c-0.71,0.2-1.42,0.4-2.13,0.59l-0.5,0.13c-0.56,0.15-1.12,0.29-1.68,0.43
				L322.83,209.12z M323.54,145.01v63.2l0.33-0.08c0.56-0.14,1.12-0.29,1.68-0.43l0.49-0.13c0.72-0.19,1.42-0.39,2.13-0.58
				l0.53-0.15c0.52-0.15,1.04-0.3,1.56-0.46l0.73-0.22c0.44-0.14,0.89-0.27,1.33-0.41l1.46-0.47c0.54-0.17,1.07-0.35,1.6-0.53
				c0.54-0.18,1.06-0.37,1.58-0.56l0.46-0.17c0.39-0.14,0.74-0.27,1.1-0.41l0.53-0.2c0.35-0.14,0.7-0.27,1.05-0.41l0.64-0.25
				c0.2-0.08,0.4-0.16,0.59-0.24l0.75-0.31c0.41-0.17,0.8-0.34,1.2-0.52l0.27-0.11c0.48-0.21,0.95-0.42,1.42-0.63l0.53-0.25
				c0.24-0.11,0.49-0.23,0.73-0.35l0.47-0.23c0.31-0.15,0.61-0.3,0.92-0.46l0.42-0.22c0.28-0.15,0.56-0.29,0.84-0.44l0.38-0.21
				c0.36-0.2,0.72-0.4,1.07-0.59l0.08-0.04c0.39-0.22,0.75-0.43,1.1-0.65l0.3-0.18c0.27-0.17,0.54-0.33,0.81-0.5l0.26-0.17
				c0.31-0.2,0.63-0.41,0.93-0.61l0.06-0.04l0.15-0.1c0.28-0.19,0.54-0.37,0.81-0.56l0.23-0.17c0.3-0.22,0.6-0.44,0.88-0.66
				l0.09-0.07c0.18-0.14,0.35-0.28,0.53-0.41l0.43-0.36c0.27-0.22,0.53-0.44,0.78-0.67l0.09-0.08c0.23-0.21,0.45-0.41,0.67-0.61
				l0.3-0.28c0.18-0.18,0.37-0.37,0.55-0.55l0.1-0.11c0.2-0.2,0.39-0.41,0.56-0.61l0.13-0.14c0.17-0.2,0.34-0.4,0.51-0.6l0.18-0.23
				c0.16-0.21,0.32-0.41,0.47-0.62l0.09-0.11c0.17-0.23,0.33-0.46,0.48-0.69l0.25-0.39c0.09-0.14,0.17-0.28,0.25-0.42l0.04-0.07
				c0.14-0.23,0.26-0.47,0.39-0.71l0.07-0.14c0.13-0.27,0.24-0.49,0.34-0.73l0.03-0.06c0.09-0.22,0.18-0.46,0.27-0.69l0.07-0.18
				c0.08-0.22,0.15-0.43,0.21-0.66l0.02-0.08c0.05-0.19,0.1-0.39,0.15-0.57l0.07-0.35c0.04-0.19,0.07-0.39,0.1-0.57l0.03-0.18
				c0.03-0.24,0.06-0.49,0.08-0.73l0.01-0.22c0.01-0.1,0.01-0.21,0.02-0.31c0.01-0.11,0.01-0.22,0.01-0.33
				c-0.01-0.53-0.9-48.39-1.06-57.39c-0.06,0.11-0.12,0.22-0.18,0.32l-0.04,0.08c-0.13,0.23-0.27,0.45-0.42,0.68l-0.11,0.16
				c-0.16,0.24-0.33,0.48-0.5,0.72l-0.09,0.12c-0.16,0.21-0.32,0.43-0.49,0.64l-0.11,0.15c-0.2,0.24-0.39,0.47-0.6,0.71l-0.13,0.15
				c-0.19,0.21-0.38,0.42-0.58,0.63l-0.11,0.11c-0.22,0.23-0.46,0.46-0.69,0.69l-0.14,0.13c-0.26,0.24-0.49,0.46-0.72,0.66
				l-0.09,0.08c-0.26,0.23-0.53,0.46-0.8,0.68l-0.2,0.16c-0.25,0.21-0.51,0.41-0.78,0.62l-0.09,0.08c-0.29,0.23-0.59,0.45-0.9,0.67
				l-0.24,0.17c-0.27,0.19-0.54,0.39-0.82,0.57l-0.15,0.1c-0.33,0.22-0.66,0.44-1,0.66L353,133.5c-0.27,0.17-0.54,0.34-0.82,0.51
				l-0.3,0.18c-0.36,0.22-0.73,0.43-1.1,0.65l-0.05,0.03c-0.39,0.22-0.75,0.42-1.12,0.62l-0.39,0.21c-0.28,0.15-0.56,0.3-0.85,0.44
				l-0.43,0.22c-0.3,0.16-0.61,0.31-0.92,0.46l-0.36,0.17c-0.33,0.16-0.65,0.31-0.98,0.47l-0.41,0.2c-0.47,0.22-0.94,0.43-1.43,0.64
				l-0.27,0.11c-0.4,0.17-0.8,0.35-1.21,0.52l-0.63,0.26c-0.3,0.12-0.6,0.24-0.91,0.37l-0.46,0.18c-0.35,0.14-0.7,0.27-1.05,0.41
				l-0.53,0.2c-0.36,0.14-0.72,0.27-1.08,0.4l-0.49,0.18c-0.53,0.19-1.06,0.37-1.59,0.56c-0.53,0.18-1.07,0.36-1.61,0.54l-0.48,0.16
				c-0.33,0.11-0.66,0.21-0.99,0.31c-0.44,0.14-0.89,0.28-1.33,0.41l-0.73,0.22c-0.52,0.15-1.04,0.3-1.57,0.46l-0.53,0.15
				c-0.71,0.2-1.42,0.4-2.13,0.59l-0.5,0.13c-0.56,0.15-1.12,0.29-1.68,0.43L323.54,145.01z"/>
		</g>
		<g>
			<path class="st1" d="M333.24,186.14v-25.43l5.64-2.26v25.44L333.24,186.14z M333.95,161.18v23.92l4.23-1.69v-23.92L333.95,161.18
				z"/>
		</g>
		<g>
			<path class="st1" d="M343.36,182.1v-15.57l5.64-2.26v15.57L343.36,182.1z M344.06,167.01v14.04l4.23-1.69v-14.04L344.06,167.01z"
				/>
		</g>
		<g>
			<path class="st1" d="M352.73,178.1v-5.7l5.64-2.26v5.7L352.73,178.1z M353.44,172.88v4.17l4.23-1.69v-4.17L353.44,172.88z"/>
		</g>
	</g>
</g>
</svg>
