<svg width="195" height="312" viewBox="0 0 195 312" fill="none" xmlns="http://www.w3.org/2000/svg">
<style>
	@keyframes rotate {
		from {
			transform: rotate(0);
		}

		to {
			transform: rotate(360deg)
		}
	}
	#minuteClock {
		transform-origin: 65% 78%;
		animation: rotate 3s linear infinite;
	}

	#hoursClock {
		transform-origin: 65% 78%;
		animation: rotate 15s linear infinite;
	}
</style>
<path d="M133.54 54.18L135 44.3C135 44.3 124.31 45.4 123.46 30.68C122.6 15.96 128.81 7.24999 139 8.90999C149.18 10.57 156.22 24.31 154.37 36.12C152.51 47.94 158.07 52.03 158.07 52.03C158.07 52.03 159.51 66.74 152.36 68.19C145.2 69.64 130.44 62.53 133.54 54.18Z" fill="#F2C557"/>
<path d="M157.026 30.0361C162.331 28.9607 165.763 23.8061 164.692 18.5231C163.621 13.2401 158.452 9.82913 153.148 10.9046C147.843 11.98 144.411 17.1346 145.482 22.4176C146.553 27.7006 151.722 31.1116 157.026 30.0361Z" fill="#135E91"/>
<path d="M156.595 40.6621C160.362 39.8984 162.799 36.2339 162.037 32.4773C161.276 28.7207 157.604 26.2946 153.837 27.0584C150.07 27.8221 147.633 31.4866 148.394 35.2432C149.156 38.9998 152.827 41.4259 156.595 40.6621Z" fill="#135E91"/>
<path d="M132.7 27.9C133.711 27.9 134.53 27.0807 134.53 26.07C134.53 25.0593 133.711 24.24 132.7 24.24C131.689 24.24 130.87 25.0593 130.87 26.07C130.87 27.0807 131.689 27.9 132.7 27.9Z" fill="#1B82D8"/>
<path d="M136.67 23.09C134.94 21.02 130.64 19.92 130.59 19.91L130.91 18.64C131.1 18.69 135.67 19.85 137.67 22.25L136.67 23.09Z" fill="#1B82D8"/>
<path d="M124.76 35.38L117.96 33.48L122.78 22.22L123.98 22.74L119.74 32.63L125.12 34.13L124.76 35.38Z" fill="#1B82D8"/>
<path d="M130.62 40.17C128.18 40.17 125.57 39.3 125.15 39.15L125.58 37.92C127.14 38.46 131.54 39.57 133.17 38.21L134 39.21C133.14 39.94 131.9 40.17 130.62 40.17Z" fill="#1B82D8"/>
<path d="M129.51 14.32C132.382 14.32 134.71 11.9919 134.71 9.12C134.71 6.24812 132.382 3.92 129.51 3.92C126.638 3.92 124.31 6.24812 124.31 9.12C124.31 11.9919 126.638 14.32 129.51 14.32Z" fill="#1B81D5"/>
<path d="M142.8 18.95C147.909 18.95 152.05 14.8086 152.05 9.7C152.05 4.59136 147.909 0.449997 142.8 0.449997C137.691 0.449997 133.55 4.59136 133.55 9.7C133.55 14.8086 137.691 18.95 142.8 18.95Z" fill="#1B81D5"/>
<path d="M126.27 311.78C164.179 311.78 194.91 281.049 194.91 243.14C194.91 205.231 164.179 174.5 126.27 174.5C88.3612 174.5 57.63 205.231 57.63 243.14C57.63 281.049 88.3612 311.78 126.27 311.78Z" fill="url(#paint0_linear_1_3)"/>
<path d="M125.242 246.71C123.296 245.718 122.423 243.115 123.302 240.927L144.645 187.574C145.525 185.379 147.833 184.395 149.773 185.386C151.72 186.378 152.593 188.981 151.713 191.168L130.371 244.522C129.497 246.71 127.189 247.694 125.242 246.71Z" stroke="white" id="minuteClock"/>
<path d="M123.333 244.311C122.579 242.06 123.595 239.528 125.592 238.677L160.753 223.68C162.75 222.829 164.996 223.975 165.751 226.226C166.505 228.477 165.488 231.009 163.492 231.861L128.337 246.85C126.34 247.701 124.088 246.555 123.333 244.311Z" stroke="white" id="hoursClock"/>
<path d="M131.225 231.748C136.659 234.512 139.074 241.715 136.622 247.835C134.17 253.962 127.782 256.684 122.354 253.919C116.926 251.162 114.506 243.952 116.957 237.832C119.409 231.706 125.798 228.984 131.225 231.748Z" stroke="white"/>
<path d="M106.55 259.11L117.83 285.94L55.65 304.51C55.65 304.51 47.28 298.9 64.2 285.77C68.72 282.27 81.59 274.65 81.17 269.5L106.55 259.11Z" fill="#E8E8E8"/>
<path d="M78.16 280.84L73.18 272.75L85.67 275.13L85.43 276.41L75.84 274.59L79.28 280.16L78.16 280.84Z" fill="#1B82D8"/>
<path d="M112.11 280.79L57.4723 296.966L57.8443 298.222L112.482 282.046L112.11 280.79Z" fill="#1B82D8"/>
<path d="M69.17 246.12L59.31 273.5L0.979999 245.07C0.979999 245.07 -1.38 235.27 19.96 237.08C25.66 237.56 40.29 240.67 43.47 236.6L69.17 246.12Z" fill="#E8E8E8"/>
<path d="M31.93 242.22L31.29 232.73L41.24 240.64L40.43 241.67L32.79 235.59L33.24 242.12L31.93 242.22Z" fill="#1B82D8"/>
<path d="M7.53721 240.665L6.96028 241.841L58.1169 266.935L58.6939 265.759L7.53721 240.665Z" fill="#1B82D8"/>
<path d="M99.74 113.89L65.82 130.39C65.82 130.39 58.1 131.34 56.79 133.78C55.48 136.22 48.49 145.81 55.33 149.93C62.17 154.05 68.88 148.19 67.78 145.26C66.68 142.33 62.53 143.88 66.68 142.33C70.83 140.78 72.36 137.42 72.36 137.42L110.96 123.77L99.74 113.89Z" fill="#F2C557"/>
<path d="M145.69 89.48C143.34 99.61 141.53 106.44 140.22 110.95C138.78 115.91 135.28 120.02 130.62 122.25L82.4 145.27L72.4 126.08L107.59 107.44C113.39 104.37 119.47 98.74 119.67 95.81C119.96 91.79 125.63 69.1 126.03 66.34C127.77 54.19 154.94 49.57 145.69 89.48Z" fill="#F2F2F2"/>
<path d="M170.11 155.86C171.67 181.98 156.5 193.09 126.13 181.99C95.76 170.89 83.32 173.01 83.32 173.01C83.32 173.01 72.57 241.43 70.56 246.64C70.07 247.92 61.3 246.01 53.8 243.17C47.97 240.97 42.95 238.17 41.22 237.17C40.83 236.94 40.6 236.51 40.65 236.05C41.59 227.24 51.17 142.35 71.75 139.35C93.46 136.18 133.49 149.7 133.49 149.7C133.49 149.7 161.29 158.22 166.49 157.07C171.69 155.91 170.11 155.86 170.11 155.86Z" fill="#135E91"/>
<path d="M173.19 149.3C183.62 173.29 173.19 188.94 140.86 188.94C108.53 188.94 97.57 195.2 97.57 195.2C97.57 195.2 112.24 247.66 111.65 266.39C111.64 266.65 110.03 267.08 107.81 267.56C100.21 269.18 92.46 269.92 84.69 269.84L80.22 269.79C79.69 269.78 79.24 269.43 79.11 268.92C76.79 259.58 56.96 177.4 75.16 167.57C94.46 157.14 120.01 151.67 122.36 149.31C124.71 146.96 122.36 138.88 122.36 138.88L173.19 149.3Z" fill="url(#paint1_linear_1_3)"/>
<path d="M97.27 195.42C96.93 195.27 89.08 191.7 85.68 188.3L86.23 187.75C89.53 191.05 97.5 194.67 97.59 194.71L97.27 195.42Z" fill="white"/>
<path d="M135.51 106.41C136.521 106.41 137.34 105.591 137.34 104.58C137.34 103.569 136.521 102.75 135.51 102.75C134.499 102.75 133.68 103.569 133.68 104.58C133.68 105.591 134.499 106.41 135.51 106.41Z" stroke="#1B82D8" stroke-width="1.3038" stroke-miterlimit="10"/>
<path d="M175.23 100.02C175.23 100.02 176.18 67.29 172.79 61.03C169.4 54.77 157.93 51.9 157.93 51.9C157.93 51.9 152.72 58.94 143.07 58.94C133.42 58.94 134.2 49.81 134.2 49.81C123.25 60.76 117.9 94.19 117.9 94.19C114.55 110.02 109.56 143.03 109.56 143.03C109.56 143.03 143.89 170.96 180.49 159.98C182.04 140.13 177.15 110.57 175.23 100.02Z" fill="#E8E8E8"/>
<path d="M125.33 148.25H124.02C124.02 134.52 139.29 63.76 139.94 60.75L141.22 61.03C141.07 61.77 125.33 134.66 125.33 148.25Z" fill="#1B82D8"/>
<path d="M140.72 89.66C139.36 89.66 138.24 88.55 138.24 87.18C138.24 85.81 139.35 84.7 140.72 84.7C142.08 84.7 143.2 85.81 143.2 87.18C143.2 88.55 142.08 89.66 140.72 89.66ZM140.72 86.01C140.07 86.01 139.55 86.54 139.55 87.18C139.55 87.83 140.08 88.35 140.72 88.35C141.37 88.35 141.89 87.82 141.89 87.18C141.89 86.54 141.37 86.01 140.72 86.01Z" fill="#1B82D8"/>
<path d="M132.89 139.98C131.53 139.98 130.41 138.87 130.41 137.5C130.41 136.13 131.52 135.02 132.89 135.02C134.26 135.02 135.37 136.13 135.37 137.5C135.37 138.87 134.26 139.98 132.89 139.98ZM132.89 136.33C132.24 136.33 131.72 136.86 131.72 137.5C131.72 138.14 132.25 138.67 132.89 138.67C133.53 138.67 134.06 138.14 134.06 137.5C134.06 136.86 133.54 136.33 132.89 136.33Z" fill="#1B82D8"/>
<path d="M123.72 67.93L131.84 47.92L133.05 48.41L126.16 65.39L137.08 60.41L137.63 61.6L123.72 67.93Z" fill="#1B82D8"/>
<path d="M150.02 71.98L142.17 63.72L143.12 62.83L149.62 69.68L156.66 53.95L157.85 54.49L150.02 71.98Z" fill="#1B82D8"/>
<path d="M146.46 103.5L92.13 100.93L86.2 96.99C84.02 95.54 81.3 95.15 78.8 95.93L75.34 97C72.22 97.97 69.8 100.46 68.93 103.6L65.82 114.7C65.82 114.7 66.15 118.02 69.4 115.67C72.65 113.32 74.65 104.79 74.65 104.79L78.38 108.36C80.69 110.57 83.79 111.78 87 111.68C88.49 111.63 90.23 111.46 92.17 111.07C99.39 113.34 137.79 119.12 137.79 119.12" fill="#F2C557"/>
<path d="M159.19 60.89C159.19 60.89 164.29 54.54 171 58.77C177.71 63 187.47 79.92 184.56 104.31C181.65 128.7 158.02 126.29 158.02 126.29L102.27 122.91L102.69 101.28L142.51 101.8C149.08 101.89 154.47 96.64 154.57 90.07C154.74 79.96 155.64 66.24 159.19 60.89Z" fill="white"/>
<path d="M112.69 101.89L112.68 120.82" stroke="#1B82D8" stroke-width="1.3038" stroke-miterlimit="10"/>
<path d="M107.68 108.72C108.691 108.72 109.51 107.901 109.51 106.89C109.51 105.879 108.691 105.06 107.68 105.06C106.669 105.06 105.85 105.879 105.85 106.89C105.85 107.901 106.669 108.72 107.68 108.72Z" stroke="#1B82D8" stroke-width="1.3038" stroke-miterlimit="10"/>
<path d="M65.75 92.08L65.4 91.41C66.16 91.02 84.1 81.87 88.97 86.75L88.44 87.28C83.96 82.79 65.93 91.98 65.75 92.08Z" fill="white"/>
<path d="M44.25 174.41H43.5C43.5 168.82 48.35 155.29 48.56 154.71L49.27 154.96C49.21 155.11 44.25 168.95 44.25 174.41Z" fill="white"/>
<path d="M118.15 138.53L87.47 129.9H47.17L64.79 142.72L118.15 138.53Z" fill="url(#paint2_linear_1_3)"/>
<path d="M118.1 138.48L60.05 138.73L50.36 82.64C47.41 83.15 45.44 85.97 45.97 88.91L55.97 144.05H56V144.18L112.68 143.93C115.69 143.93 118.11 141.48 118.1 138.48Z" fill="#1B81D5"/>
<path d="M56.01 144.19L29.36 130.99L17.2 70.71L50.37 82.64" fill="#1B81D5"/>
<path d="M34.96 90.78C36.83 91.39 38.35 94.13 38.35 96.89C38.35 99.66 36.84 101.42 34.96 100.81C33.09 100.2 31.57 97.46 31.57 94.7C31.57 91.93 33.09 90.17 34.96 90.78ZM34.96 100.08C36.56 100.6 37.86 99.1 37.86 96.73C37.86 94.37 36.56 92.02 34.96 91.5C33.36 90.98 32.06 92.48 32.07 94.85C32.07 97.21 33.37 99.56 34.96 100.08Z" fill="white"/>
<defs>
<linearGradient id="paint0_linear_1_3" x1="57.6273" y1="243.141" x2="194.904" y2="243.141" gradientUnits="userSpaceOnUse">
<stop stop-color="#FFAD39"/>
<stop offset="0.2885" stop-color="#F69E54"/>
<stop offset="0.7557" stop-color="#E8887B"/>
<stop offset="1" stop-color="#E3808A"/>
</linearGradient>
<linearGradient id="paint1_linear_1_3" x1="67.5336" y1="204.352" x2="177.081" y2="204.352" gradientUnits="userSpaceOnUse">
<stop stop-color="#5CA7FD"/>
<stop offset="1" stop-color="#2185D9"/>
</linearGradient>
<linearGradient id="paint2_linear_1_3" x1="47.1672" y1="136.312" x2="118.152" y2="136.312" gradientUnits="userSpaceOnUse">
<stop stop-color="#5CA7FD"/>
<stop offset="1" stop-color="#2185D9"/>
</linearGradient>
</defs>
</svg>
