<?xml version="1.0" encoding="utf-8"?>
<!-- Generator: Adobe Illustrator 23.1.0, SVG Export Plug-In . SVG Version: 6.00 Build 0)  -->
<svg version="1.1" id="Слой_1" xmlns="http://www.w3.org/2000/svg" xmlns:xlink="http://www.w3.org/1999/xlink" x="0px" y="0px"
	 viewBox="0 0 806 1387" style="enable-background:new 0 0 806 1387;" xml:space="preserve">
<style type="text/css">
	.st0{fill:url(#SVGID_1_);}
	.st1{fill:#F2C557;}
	.st2{fill:#F2F2F2;}
	.st3{fill:#1B81D5;}
	.st4{fill:url(#SVGID_2_);}
	.st5{fill:url(#SVGID_3_);}
	.st6{fill:url(#SVGID_4_);}
	.st7{fill:url(#SVGID_5_);}
	.st8{fill:url(#SVGID_6_);}
	.st9{fill:url(#SVGID_7_);}
	.st10{fill:#E8E8E8;}
	.st11{fill:#1B82D8;}
	.st12{fill:#007F79;}
	.st13{fill:#FFFFFF;}
	.st14{fill:url(#SVGID_8_);}
	.st15{fill:none;stroke:#1B82D8;stroke-width:2.2561;stroke-miterlimit:10;}
	.st16{fill:url(#SVGID_9_);}
	.st17{fill:url(#SVGID_10_);}
</style>
<g>
	
		<linearGradient id="SVGID_1_" gradientUnits="userSpaceOnUse" x1="-1369.7695" y1="-667.5185" x2="-582.5676" y2="-667.5185" gradientTransform="matrix(0.8614 -0.0318 -0.0318 0.8029 1313.3605 1208.2183)">
		<stop  offset="0" style="stop-color:#F06C99"/>
		<stop  offset="0.2233" style="stop-color:#E260AE"/>
		<stop  offset="0.7376" style="stop-color:#C648D8"/>
		<stop  offset="1" style="stop-color:#BB3FE9"/>
	</linearGradient>
	<path class="st0" d="M805.98,0.27c0,0,0.7,78.12-36.3,196.12c-45.27,144.37-152,286-296.04,321.88
		c-76.89,19.15-293.23,45.5-318.54,230.01c-23.99,174.9,95.65,119.39,152.25,263.81c172.24,439.43,432.31,381.02,490.02,359.82
		c4.33-1.59,8.91-4.52,8.61-4.52V0.27z"/>
	<g>
		<path class="st1" d="M506.86,658.92l50.34,33.8c0,0,12.09,3.22,13.63,7.4c1.55,4.18,10.55,20.99-1.26,26.03
			c-11.8,5.04-21.19-5.78-18.79-10.2c2.4-4.42,8.66-1.02,2.4-4.42c-6.26-3.4-7.95-9.09-7.95-9.09l-58.45-30.3L506.86,658.92z"/>
		<path class="st2" d="M431.67,602.54c-21.13,36.89,14.19,57.92,14.19,57.92l80.94,52.81l21.73-30.49l-55.86-40.36
			c-9.21-6.66-29.41-14.73-24.08-24.77c2.51-4.74-28.34-27.25-28.02-27.15C444.91,591.81,434.39,597.78,431.67,602.54z"/>
	</g>
	<path id="мышь" class="st3" d="M571.98,667.39h-51v0c0-11,9-21,20-21l14,4C567.98,655.39,571.98,656.39,571.98,667.39
		L571.98,667.39z"/>
	<g>
		<linearGradient id="SVGID_2_" gradientUnits="userSpaceOnUse" x1="246.3231" y1="980.8956" x2="425.2565" y2="980.8956">
			<stop  offset="0" style="stop-color:#FFAD39"/>
			<stop  offset="0.2885" style="stop-color:#F69E54"/>
			<stop  offset="0.7557" style="stop-color:#E8887B"/>
			<stop  offset="1" style="stop-color:#E3808A"/>
		</linearGradient>
		<polygon class="st4" points="246.32,1193.27 425.26,1193.27 425.26,768.52 246.32,768.52 		"/>
		<linearGradient id="SVGID_3_" gradientUnits="userSpaceOnUse" x1="273.3231" y1="980.8956" x2="452.2565" y2="980.8956">
			<stop  offset="0" style="stop-color:#FFAD39"/>
			<stop  offset="0.2885" style="stop-color:#F69E54"/>
			<stop  offset="0.7557" style="stop-color:#E8887B"/>
			<stop  offset="1" style="stop-color:#E3808A"/>
		</linearGradient>
		<polygon class="st5" points="273.32,1193.27 452.26,1193.27 452.26,768.52 273.32,768.52 		"/>
	</g>
	<g>
		<linearGradient id="SVGID_4_" gradientUnits="userSpaceOnUse" x1="488.7578" y1="930.3306" x2="667.6913" y2="930.3306">
			<stop  offset="0" style="stop-color:#FFAD39"/>
			<stop  offset="0.2885" style="stop-color:#F69E54"/>
			<stop  offset="0.7557" style="stop-color:#E8887B"/>
			<stop  offset="1" style="stop-color:#E3808A"/>
		</linearGradient>
		<polygon class="st6" points="488.76,1193.27 667.69,1193.27 667.69,667.39 488.76,667.39 		"/>
		<linearGradient id="SVGID_5_" gradientUnits="userSpaceOnUse" x1="515.7578" y1="930.3306" x2="694.6913" y2="930.3306">
			<stop  offset="0" style="stop-color:#FFAD39"/>
			<stop  offset="0.2885" style="stop-color:#F69E54"/>
			<stop  offset="0.7557" style="stop-color:#E8887B"/>
			<stop  offset="1" style="stop-color:#E3808A"/>
		</linearGradient>
		<polygon class="st7" points="515.76,1193.27 694.69,1193.27 694.69,667.39 515.76,667.39 		"/>
	</g>
	<g>
		<linearGradient id="SVGID_6_" gradientUnits="userSpaceOnUse" x1="5.127118e-03" y1="1031.4606" x2="178.9386" y2="1031.4606">
			<stop  offset="0" style="stop-color:#FFAD39"/>
			<stop  offset="0.2885" style="stop-color:#F69E54"/>
			<stop  offset="0.7557" style="stop-color:#E8887B"/>
			<stop  offset="1" style="stop-color:#E3808A"/>
		</linearGradient>
		<polygon class="st8" points="0.01,1193.27 178.94,1193.27 178.94,869.65 0.01,869.65 		"/>
		<linearGradient id="SVGID_7_" gradientUnits="userSpaceOnUse" x1="27.0051" y1="1031.4606" x2="205.9386" y2="1031.4606">
			<stop  offset="0" style="stop-color:#FFAD39"/>
			<stop  offset="0.2885" style="stop-color:#F69E54"/>
			<stop  offset="0.7557" style="stop-color:#E8887B"/>
			<stop  offset="1" style="stop-color:#E3808A"/>
		</linearGradient>
		<polygon class="st9" points="27.01,1193.27 205.94,1193.27 205.94,869.65 27.01,869.65 		"/>
	</g>
	<g id="нога_2_1_">
		<g>
			<path class="st10" d="M500.72,894.7l3.49,50.24l110.53-19.78c0,0,8.55-15.19-27.82-22.27c-9.71-1.89-35.53-3.62-38.91-11.9h0
				L500.72,894.7z"/>
			<g>
				
					<rect x="508.26" y="923.55" transform="matrix(0.9839 -0.1787 0.1787 0.9839 -156.2614 114.5172)" class="st11" width="98.6" height="2.26"/>
			</g>
			<g>
				<polygon class="st11" points="564.55,905.78 562.43,905.02 566.26,894.36 550.66,900.86 549.8,898.78 570.11,890.31 				"/>
			</g>
		</g>
		<path class="st12" d="M439.2,705.81c0,0,73.03-3.6,107.66,11.93c32.56,14.6,9.09,158.14,6.16,175.26
			c-0.16,0.96-0.99,1.66-1.97,1.66c-0.81,0-4.65-0.2-8.97-0.44c-9.27-0.52-18.58-0.27-27.81,0.76c-5.99,0.67-12.09,1.31-13.96,1.38
			c-0.89,0.03-1.68-0.53-1.97-1.38c-0.29-0.88-0.59-2.14-0.64-3.75c-0.69-23.96,13.98-122.91,13.98-122.91s-19.7-9.4-75.5-5.26
			c-55.8,4.13-75.8-21.53-60.87-64.26"/>
	</g>
	<g id="нога_2_">
		<g id="ботинок_4_">
			<path class="st13" d="M455.13,891.21l-36.4,34.8l85.87,72.35c0,0,17.15-3.13-0.66-35.63c-4.75-8.68-19.93-29.63-15.72-37.52l0,0
				L455.13,891.21z"/>
			<g>
				
					<rect x="467.78" y="904.17" transform="matrix(0.6478 -0.7619 0.7619 0.6478 -561.2307 693.0917)" class="st11" width="2.26" height="98.6"/>
			</g>
			<g>
				<polygon class="st11" points="485.49,945.88 484.26,943.99 493.79,937.85 477.46,933.53 478.03,931.35 499.31,936.98 				"/>
			</g>
		</g>
		
			<linearGradient id="SVGID_8_" gradientUnits="userSpaceOnUse" x1="12906.7412" y1="-390.7648" x2="13066.6074" y2="-390.7648" gradientTransform="matrix(-0.9931 0.1176 0.1176 0.9931 13368.4688 -337.1232)">
			<stop  offset="0" style="stop-color:#0F9EA8"/>
			<stop  offset="0.4412" style="stop-color:#16A7A1"/>
			<stop  offset="1" style="stop-color:#1AAD9D"/>
		</linearGradient>
		<path class="st14" d="M347.98,678.39c-0.52,1.73-8.92,36.5-9.29,38.18c-8.94,40.36,24.47,65.16,64.96,56.42
			c21.32-4.6,45.66,6.4,45.66,6.4s-17.49,126.56-11.33,128c24.13,5.63,43.08,15.14,49.57,18.65c1.2,0.65,2.68-0.07,2.91-1.41
			c3.78-21.82,27.58-165.94,0.51-188.23c-17-14-59.06-31.72-63.57-35.28c-4.51-3.56-2.12-17.92-2.12-17.92L347.98,678.39z"/>
	</g>
	<circle class="st15" cx="436.35" cy="632.39" r="3.16"/>
	<g id="голова_2_">
		<path class="st12" d="M421.42,507.99c-1.67-4.84-3.18-12.21-4.44-19.84c-2.81-16.97,10.52-32.25,27.71-31.88
			c10.66,0.23,35.16,0.06,35.29,0.11c14,5.92-34.42,77.46-39.74,74.74C431.75,526.79,424.98,518.28,421.42,507.99z"/>
		<g>
			<path class="st1" d="M466.72,469.54c-9.4-0.56-18.6,4.9-25.39,13.2h0c0,0-2.35-6.36-8.35-0.36s-1.02,18.52-1.02,18.52l0,0
				c-0.79,2.88-1.31,5.82-1.5,8.76c-1.34,20.66-12.28,25.46-12.28,25.46s-8.01,24.29,3.52,29.45s39.13-1.27,37.06-16.53l1.28-17.22
				c0,0,17.62,5.91,24.65-18.63C491.73,487.66,484.54,470.6,466.72,469.54z"/>
			<circle class="st11" cx="470.85" cy="500.91" r="3.16"/>
			<g>
				<path class="st11" d="M465.28,494.37l-1.38-1.79c4.29-3.3,12.45-3.53,12.79-3.54l0.05,2.26
					C476.67,491.3,468.98,491.52,465.28,494.37z"/>
			</g>
			<g>
				<polygon class="st11" points="480.71,519.64 480.6,517.39 490.24,516.9 486.83,498.59 489.05,498.18 492.93,519.02 				"/>
			</g>
			<g>
				<path class="st11" d="M474.77,526.07c-3.67,0-8.88-0.55-11.1-3.45l1.79-1.38c2.23,2.9,10.08,2.7,12.92,2.38l0.26,2.24
					C478.23,525.92,476.72,526.07,474.77,526.07z"/>
			</g>
		</g>
		<linearGradient id="SVGID_9_" gradientUnits="userSpaceOnUse" x1="449.9806" y1="467.3922" x2="493.9806" y2="467.3922">
			<stop  offset="0" style="stop-color:#0F9EA8"/>
			<stop  offset="0.4412" style="stop-color:#16A7A1"/>
			<stop  offset="1" style="stop-color:#1AAD9D"/>
		</linearGradient>
		<path class="st16" d="M493.98,456.39h-33c-6.05,0-11,4.95-11,11v0c0,6.05,4.95,11,11,11h22c6.05,0,11-4.95,11-11V456.39z"/>
	</g>
	<g>
		<path class="st10" d="M459.31,540.43c0,0-2.14,15.71-18.43,12.05c-16.29-3.66-22.43-17.52-22.43-17.52s-20.46,0.49-28.55,9.77
			c-8.1,9.28-18.89,64.91-18.89,64.91l0,0c-7.24,17.08-26.7,65.13-31.61,99.25c57.63,32.42,126.18-1.73,126.18-1.73
			s4.08-57.63,4.43-85.63h0C470,621.53,473.65,563.08,459.31,540.43z"/>
		<g>
			<path class="st11" d="M439.16,710.49l-2.2-0.49c5.15-22.95,6.22-151.98,6.23-153.28l2.26,0.02
				C445.41,562.05,444.37,687.3,439.16,710.49z"/>
		</g>
		<g>
			<path class="st11" d="M434.15,605.34c-0.31,0-0.63-0.04-0.95-0.11c-2.31-0.52-3.76-2.81-3.24-5.12l0,0
				c0.25-1.12,0.92-2.07,1.89-2.68s2.11-0.81,3.23-0.56c1.12,0.25,2.07,0.92,2.68,1.89c0.61,0.97,0.81,2.12,0.56,3.23
				c-0.25,1.12-0.92,2.07-1.89,2.68C435.74,605.11,434.95,605.34,434.15,605.34z M432.16,600.61c-0.12,0.53-0.02,1.07,0.27,1.53
				s0.74,0.78,1.27,0.89c1.09,0.25,2.18-0.44,2.43-1.54c0.12-0.53,0.02-1.07-0.27-1.53s-0.74-0.78-1.27-0.89
				c-0.53-0.12-1.07-0.02-1.53,0.27C432.59,599.63,432.27,600.08,432.16,600.61L432.16,600.61z"/>
		</g>
		<g>
			<path class="st11" d="M431.66,687.01c-2.14,0-4-1.61-4.25-3.78c-0.28-2.35,1.41-4.48,3.75-4.76c2.35-0.29,4.48,1.41,4.76,3.75
				c0.28,2.35-1.41,4.48-3.75,4.76C432,687,431.83,687.01,431.66,687.01z M431.66,680.69c-0.08,0-0.16,0-0.24,0.01
				c-0.54,0.06-1.02,0.33-1.36,0.76c-0.34,0.43-0.49,0.96-0.42,1.5c0.13,1.11,1.14,1.91,2.25,1.78c0.54-0.06,1.02-0.33,1.36-0.76
				c0.34-0.43,0.49-0.96,0.42-1.5C433.56,681.45,432.68,680.69,431.66,680.69z"/>
		</g>
		<g>
			<polygon class="st11" points="470.14,574.98 449.06,559.03 450.42,557.23 466.99,569.77 461.79,538.49 464.01,538.12 			"/>
		</g>
		<g>
			<polygon class="st11" points="424.2,571.86 417.61,539.35 419.82,538.9 425.74,568.11 439.32,559.01 440.58,560.89 			"/>
		</g>
	</g>
	
		<linearGradient id="SVGID_10_" gradientUnits="userSpaceOnUse" x1="1085.2693" y1="-1424.3528" x2="1085.2693" y2="-1424.3528" gradientTransform="matrix(0.9618 -0.2739 0.2739 0.9618 -383.1262 2418.8328)">
		<stop  offset="0" style="stop-color:#FFAD39"/>
		<stop  offset="0.2885" style="stop-color:#F69E54"/>
		<stop  offset="0.7557" style="stop-color:#E8887B"/>
		<stop  offset="1" style="stop-color:#E3808A"/>
	</linearGradient>
	<path class="st17" d="M270.58,751.72"/>
	<g id="рука_4_">
		<path class="st1" d="M539.98,626.39c5.38-0.93,19,5,25,15c0,0,13.51,14.24,8,17c-6,3-7.24-3.86-13-6c-9.45-3.51-19-4-24-2"/>
		<path class="st1" d="M535.84,650.47c-8.71,0.69-14.23-4.03-14.23-4.03l-80.28,7.87l11.79-26.98l74.29,1.13
			c0,0,14.57-4.75,18.95-1.49"/>
		<path class="st13" d="M411.94,546.8c0,0-8.24-11.44-20.22-4.73c-11.97,6.71-30.38,38.05-27.57,80.47s43.87,40.39,43.87,40.39
			l96.64-0.79l1.23-37.42l-68.86-2.72c-11.36-0.45-20.2-10-19.78-21.36C417.9,583.15,417.59,556.36,411.94,546.8z"/>
		<g>
			
				<rect x="471.35" y="640.08" transform="matrix(0.0519 -0.9986 0.9986 0.0519 -177.9557 1094.9712)" class="st11" width="32.75" height="2.26"/>
		</g>
		<g>
			<path class="st11" d="M496.79,638.23c-0.3,0-0.6-0.03-0.9-0.09c-2.31-0.49-3.79-2.77-3.3-5.08l0,0c0.24-1.12,0.9-2.08,1.86-2.7
				c0.96-0.63,2.1-0.84,3.23-0.6c2.31,0.49,3.79,2.77,3.3,5.08c-0.24,1.12-0.9,2.08-1.86,2.7
				C498.41,637.99,497.61,638.23,496.79,638.23z M494.79,633.52c-0.23,1.09,0.47,2.17,1.57,2.41c0.53,0.11,1.07,0.01,1.53-0.28
				c0.46-0.29,0.77-0.75,0.88-1.28c0.23-1.09-0.47-2.17-1.57-2.41c-0.53-0.11-1.07-0.01-1.53,0.28
				C495.22,632.54,494.91,632.99,494.79,633.52L494.79,633.52z"/>
		</g>
	</g>
	<g>
		<g>
			<path class="st11" d="M83.31,718.3l68.38-58.42l0.29-0.06l87.78-16.72l-65.73,61.04l-0.34,0.05L83.31,718.3z M152.71,661.98
				l-61.88,52.86l82.18-12.82l59.48-55.24L152.71,661.98z"/>
		</g>
		<g>
			<path class="st11" d="M132.83,744.73l-16.54-32.36l2.01-1.03l15.82,30.96l8.95-1.1c31.71-3.91,61.18-18.94,82.97-42.31l5.43-5.82
				L216.27,663l2.01-1.02l15.92,31.46l-6.5,6.98c-22.15,23.76-52.11,39.04-84.35,43.01L132.83,744.73z"/>
		</g>
	</g>
	<g>
		<g id="экран">
			<polygon class="st3" points="579.48,488.44 683.48,462.89 683.48,638.39 579.36,610.8 			"/>
			<rect x="621.98" y="604.39" class="st3" width="25" height="63"/>
			<polygon class="st3" points="626.98,657.39 580.6,667.39 646.98,667.39 			"/>
		</g>
		<g id="видео">
			<g>
				<path class="st13" d="M665.63,605.21l-73.3-16.29v-85.05l73.3-15.27V605.21z M593.63,587.87l70.7,15.71V490.19l-70.7,14.73
					V587.87z"/>
			</g>
			<g>
				
					<rect x="592.7" y="513.37" transform="matrix(0.9923 -0.1235 0.1235 0.9923 -58.659 81.6017)" class="st13" width="72.56" height="1.3"/>
			</g>
			<g>
				<path class="st13" d="M658.46,580.17l-58.96-10.26v-37.72l58.96-4.51V580.17z M600.8,568.81l56.35,9.8V529.1l-56.35,4.31V568.81
					z"/>
			</g>
		</g>
	</g>
	<g>
		<path class="st13" d="M620.33,562.5v-21.16l20.05,10.03L620.33,562.5z M621.63,543.45v16.84l15.95-8.86L621.63,543.45z"/>
	</g>
</g>
</svg>
