<svg width="337" height="539" viewBox="0 0 337 539" fill="none" xmlns="http://www.w3.org/2000/svg">
<style>
	@keyframes rotate {
		from {
			transform: rotate(0);
		}

		to {
			transform: rotate(360deg)
		}
	}

	#minutesClock {
		transform-origin: 63% 78%;
		animation: rotate 3s linear infinite;
	}

	#hoursClock {
		transform-origin: 63% 78%;
		animation: rotate 15s linear infinite;
	}

    #leg {
        position: relative;
        z-index: 500;
    }
</style>
<path d="M229.98 93.12L232.5 76.03C232.5 76.03 214.01 77.94 212.53 52.46C211.05 26.98 221.8 11.91 239.42 14.78C257.04 17.65 269.22 41.42 266.01 61.87C262.79 82.32 272.41 89.4 272.41 89.4C272.41 89.4 274.91 114.85 262.53 117.36C250.15 119.87 224.62 107.56 229.98 93.12Z" fill="#F2C557"/>
<path d="M270.613 51.3313C279.793 49.4701 285.733 40.5499 283.879 31.4074C282.026 22.265 273.081 16.3624 263.901 18.2236C254.72 20.0847 248.781 29.0049 250.634 38.1473C252.488 47.2898 261.433 53.1925 270.613 51.3313Z" fill="#135E91"/>
<path d="M269.86 69.7182C276.382 68.3958 280.602 62.0582 279.286 55.5627C277.969 49.0672 271.614 44.8734 265.091 46.1958C258.568 47.5182 254.348 53.8558 255.665 60.3513C256.982 66.8469 263.337 71.0406 269.86 69.7182Z" fill="#135E91"/>
<path d="M228.52 47.64C230.265 47.64 231.68 46.2252 231.68 44.48C231.68 42.7348 230.265 41.32 228.52 41.32C226.775 41.32 225.36 42.7348 225.36 44.48C225.36 46.2252 226.775 47.64 228.52 47.64Z" fill="#1B82D8"/>
<path d="M235.39 39.31C232.4 35.72 224.95 33.82 224.87 33.8L225.42 31.61C225.75 31.69 233.66 33.71 237.12 37.86L235.39 39.31Z" fill="#1B82D8"/>
<path d="M214.79 60.59L203.01 57.3L211.36 37.82L213.43 38.71L206.1 55.82L215.4 58.42L214.79 60.59Z" fill="#1B82D8"/>
<path d="M224.92 68.88C220.69 68.88 216.19 67.38 215.46 67.12L216.2 64.99C218.9 65.92 226.52 67.84 229.33 65.5L230.77 67.23C229.29 68.47 227.14 68.88 224.92 68.88Z" fill="#1B82D8"/>
<path d="M223 24.14C227.971 24.14 232 20.1106 232 15.14C232 10.1695 227.971 6.14001 223 6.14001C218.029 6.14001 214 10.1695 214 15.14C214 20.1106 218.029 24.14 223 24.14Z" fill="#1B81D5"/>
<path d="M246 32.14C254.837 32.14 262 24.9766 262 16.14C262 7.30346 254.837 0.140015 246 0.140015C237.163 0.140015 230 7.30346 230 16.14C230 24.9766 237.163 32.14 246 32.14Z" fill="#1B81D5"/>
<path d="M217.39 538.86C282.985 538.86 336.16 485.685 336.16 420.09C336.16 354.495 282.985 301.32 217.39 301.32C151.795 301.32 98.62 354.495 98.62 420.09C98.62 485.685 151.795 538.86 217.39 538.86Z" fill="url(#paint0_linear_3_160)"/>
<path d="M211.41 422.47C208.29 421.06 206.89 417.36 208.3 414.25L242.51 338.4C243.92 335.28 247.62 333.88 250.73 335.29C253.85 336.7 255.25 340.4 253.84 343.51L219.63 419.36C218.23 422.47 214.53 423.87 211.41 422.47Z" stroke="white" id="minutesClock" stroke-width="1.3044" stroke-miterlimit="10"/>
<path d="M208.35 419.06C207.14 415.86 208.77 412.26 211.97 411.05L268.33 389.73C271.53 388.52 275.13 390.15 276.34 393.35C277.55 396.55 275.92 400.15 272.72 401.36L216.37 422.67C213.17 423.88 209.56 422.25 208.35 419.06Z" stroke="white" id="hoursClock" stroke-width="1.3044" stroke-miterlimit="10"/>
<path d="M221 401.2C229.71 405.13 233.58 415.37 229.65 424.07C225.72 432.78 215.48 436.65 206.78 432.72C198.08 428.8 194.2 418.55 198.13 409.85C202.06 401.14 212.3 397.27 221 401.2Z" stroke="white" stroke-width="1.3044" stroke-miterlimit="10"/>
<path d="M183.27 447.73L202.79 494.15L95.1999 526.29C95.1999 526.29 80.72 516.58 110 493.87C117.82 487.81 140.09 474.63 139.37 465.72L183.27 447.73Z" fill="#E8E8E8"/>
<path d="M134.15 485.33L125.54 471.33L147.15 475.44L146.73 477.66L130.14 474.5L136.08 484.15L134.15 485.33Z" fill="#1B82D8"/>
<path d="M192.885 485.219L98.3373 513.212L98.9789 515.379L193.526 487.387L192.885 485.219Z" fill="#1B82D8"/>
<path d="M118.6 425.24L101.53 472.62L0.599993 423.42C0.599993 423.42 -3.48004 406.47 33.44 409.59C43.3 410.42 68.61 415.8 74.12 408.76L118.6 425.24Z" fill="#E8E8E8"/>
<path d="M54.16 418.49L53.04 402.08L70.27 415.77L68.87 417.54L55.64 407.03L56.42 418.33L54.16 418.49Z" fill="#1B82D8"/>
<path d="M11.9416 415.805L10.9463 417.834L99.4693 461.257L100.465 459.228L11.9416 415.805Z" fill="#1B82D8"/>
<path d="M171.49 196.43L112.8 224.98C112.8 224.98 99.4401 226.62 97.1701 230.84C94.9001 235.07 82.8101 251.65 94.6401 258.78C106.47 265.91 118.09 255.77 116.19 250.7C114.29 245.63 107.11 248.32 114.29 245.63C121.47 242.94 124.11 237.13 124.11 237.13L190.91 213.51L171.49 196.43Z" fill="#F2C557"/>
<path d="M251.01 154.2C246.95 171.73 243.82 183.55 241.55 191.35C239.06 199.94 233.01 207.04 224.94 210.9L141.5 250.74L124.19 217.54L185.09 185.28C195.13 179.96 205.64 170.22 206 165.15C206.5 158.19 216.32 118.94 217 114.15C220 93.14 267 85.14 251.01 154.2Z" fill="#F2F2F2"/>
<path d="M293.25 269.06C295.95 314.25 269.7 333.48 217.15 314.27C164.6 295.06 143.08 298.73 143.08 298.73C143.08 298.73 124.47 417.12 121 426.14C120.15 428.36 104.98 425.05 92 420.14C81.92 416.33 73.23 411.49 70.23 409.75C69.55 409.35 69.16 408.6 69.25 407.81C70.88 392.56 87.4501 245.68 123.06 240.48C160.62 234.99 229.89 258.39 229.89 258.39C229.89 258.39 278 273.14 287 271.14C296 269.14 293.25 269.06 293.25 269.06Z" fill="#135E91"/>
<path d="M298.58 257.71C316.63 299.22 298.58 326.3 242.63 326.3C186.68 326.3 167.73 337.13 167.73 337.13C167.73 337.13 193.12 427.91 192.1 460.31C192.09 460.76 189.3 461.51 185.45 462.33C172.3 465.13 158.88 466.41 145.44 466.27L137.7 466.19C136.79 466.18 136 465.56 135.78 464.68C131.76 448.52 97.45 306.32 128.94 289.3C162.33 271.25 206.55 261.78 210.61 257.71C214.67 253.65 210.61 239.66 210.61 239.66L298.58 257.71Z" fill="url(#paint1_linear_3_160)" id="leg"/>
<path d="M167.22 337.51C166.64 337.25 153.05 331.07 147.17 325.19L148.13 324.23C153.84 329.94 167.64 336.21 167.78 336.27L167.22 337.51Z" fill="white"/>
<path d="M233.38 183.48C235.125 183.48 236.54 182.065 236.54 180.32C236.54 178.575 235.125 177.16 233.38 177.16C231.635 177.16 230.22 178.575 230.22 180.32C230.22 182.065 231.635 183.48 233.38 183.48Z" stroke="#1B82D8" stroke-width="2.2561" stroke-miterlimit="10"/>
<path d="M302.12 172.44C302.12 172.44 303.77 115.8 297.9 104.97C292.03 94.14 272.18 89.18 272.18 89.18C272.18 89.18 263.16 101.36 246.46 101.36C229.76 101.36 231.12 85.57 231.12 85.57C212.17 104.52 202.92 162.36 202.92 162.36C197.12 189.76 188.48 246.88 188.48 246.88C188.48 246.88 247.88 295.21 311.21 276.21C313.9 241.84 305.44 190.69 302.12 172.44Z" fill="#E8E8E8"/>
<path d="M215.78 255.9H213.52C213.52 232.14 239.94 109.7 241.07 104.5L243.28 104.98C243 106.25 215.78 232.38 215.78 255.9Z" fill="#1B82D8"/>
<path d="M242.4 154.51C240.04 154.51 238.11 152.59 238.11 150.22C238.11 147.85 240.03 145.93 242.4 145.93C244.76 145.93 246.69 147.85 246.69 150.22C246.69 152.59 244.76 154.51 242.4 154.51ZM242.4 148.2C241.28 148.2 240.37 149.11 240.37 150.23C240.37 151.35 241.28 152.26 242.4 152.26C243.52 152.26 244.43 151.35 244.43 150.23C244.43 149.11 243.52 148.2 242.4 148.2Z" fill="#1B82D8"/>
<path d="M228.86 241.58C226.5 241.58 224.57 239.66 224.57 237.29C224.57 234.92 226.49 233 228.86 233C231.23 233 233.15 234.92 233.15 237.29C233.15 239.66 231.22 241.58 228.86 241.58ZM228.86 235.26C227.74 235.26 226.83 236.17 226.83 237.29C226.83 238.41 227.74 239.32 228.86 239.32C229.98 239.32 230.89 238.41 230.89 237.29C230.89 236.17 229.98 235.26 228.86 235.26Z" fill="#1B82D8"/>
<path d="M212.98 116.9L227.04 82.28L229.13 83.13L217.2 112.51L236.11 103.9L237.05 105.96L212.98 116.9Z" fill="#1B82D8"/>
<path d="M258.49 123.92L244.91 109.63L246.55 108.08L257.81 119.93L269.99 92.72L272.05 93.65L258.49 123.92Z" fill="#1B82D8"/>
<path d="M252.34 178.45L158.33 174L148.07 167.18C144.29 164.67 139.59 164 135.26 165.34L129.27 167.2C123.87 168.88 119.69 173.18 118.17 178.62L112.79 197.82C112.79 197.82 113.36 203.56 118.98 199.5C124.6 195.44 128.07 180.68 128.07 180.68L134.53 186.86C138.53 190.69 143.9 192.78 149.44 192.6C152.02 192.52 155.03 192.22 158.38 191.54C170.88 195.46 237.32 205.47 237.32 205.47" fill="#F2C557"/>
<path d="M274.36 104.73C274.36 104.73 283.19 93.74 294.8 101.07C306.41 108.39 323.3 137.67 318.27 179.88C313.24 222.09 272.35 217.92 272.35 217.92L175.88 212.07L176.61 174.64L245.52 175.54C256.88 175.69 266.22 166.61 266.39 155.25C266.66 137.73 268.22 113.99 274.36 104.73Z" fill="white"/>
<path d="M193.9 175.68L193.88 208.42" stroke="#1B82D8" stroke-width="2.2561" stroke-miterlimit="10"/>
<path d="M185.23 187.48C186.975 187.48 188.39 186.065 188.39 184.32C188.39 182.575 186.975 181.16 185.23 181.16C183.485 181.16 182.07 182.575 182.07 184.32C182.07 186.065 183.485 187.48 185.23 187.48Z" stroke="#1B82D8" stroke-width="2.2561" stroke-miterlimit="10"/>
<path d="M112.67 158.69L112.07 157.53C113.39 156.85 144.43 141.03 152.86 149.46L151.94 150.38C144.18 142.62 112.98 158.53 112.67 158.69Z" fill="white"/>
<path d="M75.47 301.16H74.17C74.17 291.48 82.56 268.07 82.92 267.08L84.15 267.52C84.05 267.76 75.47 291.71 75.47 301.16Z" fill="white"/>
<path d="M203.35 239.08L150.26 224.14H80.52L111.01 246.33L203.35 239.08Z" fill="url(#paint2_linear_3_160)"/>
<path d="M203.26 238.99L102.82 239.43L86.0601 142.38C80.9601 143.26 77.55 148.14 78.47 153.23L95.7801 248.64H95.8101V248.86L193.89 248.43C199.09 248.41 203.28 244.18 203.26 238.99Z" fill="#1B81D5"/>
<path d="M95.8199 248.86L49.71 226.02L28.66 121.72L86.0601 142.37" fill="#1B81D5"/>
<path d="M59.39 156.44C62.62 157.49 65.25 162.24 65.26 167.02C65.26 171.81 62.6401 174.85 59.4001 173.8C56.1701 172.75 53.5401 168.01 53.5401 163.22C53.5301 158.43 56.16 155.39 59.39 156.44ZM59.4001 172.54C62.1701 173.44 64.4101 170.84 64.4101 166.74C64.4101 162.65 62.16 158.59 59.39 157.69C56.63 156.79 54.38 159.39 54.39 163.48C54.39 167.58 56.6401 171.64 59.4001 172.54Z" fill="white"/>

<defs>
<linearGradient id="paint0_linear_3_160" x1="98.6143" y1="420.09" x2="336.16" y2="420.09" gradientUnits="userSpaceOnUse">
<stop stop-color="#FFAD39"/>
<stop offset="0.2885" stop-color="#F69E54"/>
<stop offset="0.7557" stop-color="#E8887B"/>
<stop offset="1" stop-color="#E3808A"/>
</linearGradient>
<linearGradient id="paint1_linear_3_160" x1="115.744" y1="352.966" x2="305.318" y2="352.966" gradientUnits="userSpaceOnUse">
<stop stop-color="#5CA7FD"/>
<stop offset="1" stop-color="#2185D9"/>
</linearGradient>
<linearGradient id="paint2_linear_3_160" x1="80.5245" y1="235.236" x2="203.353" y2="235.236" gradientUnits="userSpaceOnUse">
<stop stop-color="#5CA7FD"/>
<stop offset="1" stop-color="#2185D9"/>
</linearGradient>
</defs>
</svg>
