<?xml version="1.0" encoding="utf-8"?>
<!-- Generator: Adobe Illustrator 23.1.0, SVG Export Plug-In . SVG Version: 6.00 Build 0)  -->
<svg version="1.1" id="Слой_1" xmlns="http://www.w3.org/2000/svg" xmlns:xlink="http://www.w3.org/1999/xlink" x="0px" y="0px"
	 viewBox="0 0 320 2024" style="enable-background:new 0 0 320 2024;" xml:space="preserve">
<style type="text/css">
	.st0{clip-path:url(#SVGID_2_);fill:url(#SVGID_3_);}
</style>
<g>
	<defs>
		<rect id="SVGID_1_" y="-9" width="320" height="2042"/>
	</defs>
	<clipPath id="SVGID_2_">
		<use xlink:href="#SVGID_1_"  style="overflow:visible;"/>
	</clipPath>
	
		<linearGradient id="SVGID_3_" gradientUnits="userSpaceOnUse" x1="1310.33" y1="1004.7374" x2="-609.67" y2="1004.7374" gradientTransform="matrix(1 0 0 -1 0 2024)">
		<stop  offset="0" style="stop-color:#FFAD39"/>
		<stop  offset="0.2885" style="stop-color:#F69E54"/>
		<stop  offset="0.7557" style="stop-color:#E8887B"/>
		<stop  offset="1" style="stop-color:#E3808A"/>
	</linearGradient>
	<path class="st0" d="M1233.6-152.9c-124.1-47.8-259.4-66.3-393.1-52.1c-232.8,24.7-403.7,97.5-546.9,251.6
		C-180.9,556.8-587,472.1-609.7,467v552.3v552.3c22.7-5.2,428.7-89.9,903.3,420.5c143.2,154,314.1,226.9,546.9,251.6
		c133.7,14.2,269-4.3,393.1-52.1l76.8-29.6v-874.6v0c0,0-366.6,134.9-642-14c-141-76.2-206.2-221.5-222-254
		c15.8-32.5,81-177.8,222-254c275.4-148.9,642-14,642-14v0v-874.6L1233.6-152.9z"/>
</g>
</svg>
