<?xml version="1.0" encoding="utf-8"?>
<!-- Generator: Adobe Illustrator 23.1.0, SVG Export Plug-In . SVG Version: 6.00 Build 0)  -->
<svg version="1.1" id="Слой_1" xmlns="http://www.w3.org/2000/svg" xmlns:xlink="http://www.w3.org/1999/xlink" x="0px" y="0px"
	 viewBox="0 0 1920 1285" style="enable-background:new 0 0 1920 1285;" xml:space="preserve">
<style type="text/css">
	.st0{fill:url(#SVGID_1_);}
	.st1{fill:#1B82D8;}
	.st2{fill:url(#стрелка_1_);}
	.st3{fill:url(#SVGID_2_);}
	.st4{fill:url(#SVGID_3_);}
	.st5{fill:url(#SVGID_4_);}
	.st6{fill:url(#SVGID_5_);}
	.st7{fill:url(#SVGID_6_);}
	.st8{fill:#E8E8E8;}
	.st9{fill:#135E91;}
	.st10{fill:#FFFFFF;}
	.st11{fill:url(#SVGID_7_);}
	.st12{fill:#F2C557;}
	.st13{fill:#F2F2F2;}
	.st14{fill:url(#SVGID_8_);}
	.st15{fill:url(#SVGID_9_);}
</style>
<g>
	<linearGradient id="SVGID_1_" gradientUnits="userSpaceOnUse" x1="1920" y1="670.4199" x2="-9.094947e-13" y2="670.4199">
		<stop  offset="0" style="stop-color:#FFAD39"/>
		<stop  offset="0.2885" style="stop-color:#F69E54"/>
		<stop  offset="0.7557" style="stop-color:#E8887B"/>
		<stop  offset="1" style="stop-color:#E3808A"/>
	</linearGradient>
	<path class="st0" d="M1843.24,112.72c-124.07-47.84-259.43-66.32-393.08-52.15c-232.78,24.69-403.67,97.52-546.89,251.56
		C428.72,822.51,22.66,737.81,0,732.63v552.29h1056c15.81-32.54,81.02-177.79,222-254c275.42-148.88,642-14,642-14v-0.04V142.32
		L1843.24,112.72z"/>
	<g id="график">
		<g>
			
				<rect x="1598.4" y="437.45" transform="matrix(0.3626 -0.9319 0.9319 0.3626 715.9056 1923.5986)" class="st1" width="331.57" height="1.99"/>
		</g>
		<g>
			
				<rect x="1432.5" y="287.3" transform="matrix(0.4256 -0.9049 0.9049 0.4256 352.9328 1595.8445)" class="st1" width="1.99" height="465.24"/>
		</g>
		<g>
			
				<rect x="905.33" y="626.92" transform="matrix(0.3507 -0.9365 0.9365 0.3507 129.4423 1442.5337)" class="st1" width="399.34" height="1.99"/>
		</g>
		<g>
			<path class="st1" d="M1687.94,688.28c-20.99,0-40.47-13.59-46.95-34.68c-2.78-9.05-2.9-18.63-0.33-27.71
				c4.56-16.14,16.83-28.71,32.84-33.63c25.87-7.94,53.39,6.64,61.33,32.51c7.95,25.87-6.64,53.39-32.51,61.34
				C1697.54,687.58,1692.7,688.28,1687.94,688.28z M1687.88,592.1c-4.57,0-9.21,0.67-13.8,2.08c-15.36,4.72-27.14,16.78-31.51,32.26
				l0,0c-2.46,8.7-2.35,17.9,0.32,26.58c6.21,20.23,24.9,33.27,45.04,33.27c4.57,0,9.21-0.67,13.8-2.08
				c24.82-7.63,38.81-34.02,31.19-58.84C1726.71,605.13,1708.02,592.1,1687.88,592.1z"/>
		</g>
		<g>
			<path class="st1" d="M1185.86,443.2c-7.08,0-14.1-1.73-20.54-5.14c-10.38-5.5-18-14.72-21.45-25.95v0
				c-7.12-23.18,5.95-47.84,29.13-54.96c23.19-7.12,47.84,5.95,54.96,29.13c3.45,11.23,2.32,23.13-3.18,33.51s-14.72,18-25.95,21.45
				C1194.56,442.55,1190.2,443.2,1185.86,443.2z M1145.57,411.58c3.31,10.77,10.62,19.62,20.58,24.89
				c9.96,5.28,21.38,6.36,32.15,3.05c10.77-3.31,19.61-10.62,24.89-20.58c5.28-9.96,6.36-21.38,3.05-32.15
				c-6.83-22.24-30.48-34.78-52.73-27.95C1151.28,365.69,1138.74,389.34,1145.57,411.58L1145.57,411.58z"/>
		</g>
		<g>
			<path class="st1" d="M1012.94,906.28c-20.99,0-40.47-13.59-46.95-34.68l0,0c-7.95-25.87,6.64-53.39,32.51-61.34
				c25.88-7.94,53.39,6.64,61.33,32.51c7.95,25.87-6.64,53.39-32.51,61.34C1022.54,905.58,1017.7,906.28,1012.94,906.28z
				 M967.89,871.02c7.62,24.82,34.02,38.82,58.84,31.19c24.82-7.63,38.81-34.02,31.19-58.84c-7.62-24.82-34.02-38.81-58.84-31.19
				C974.26,819.8,960.27,846.2,967.89,871.02L967.89,871.02z"/>
		</g>
		<g>
			<path class="st1" d="M1841.91,288.27c-6.32,0-12.63-1.21-18.54-3.63c-13.7-5.6-24.04-16.91-28.38-31.04l0,0
				c-7.95-25.87,6.64-53.39,32.51-61.34c25.87-7.94,53.39,6.64,61.33,32.51c7.95,25.87-6.64,53.39-32.51,61.34
				C1851.63,287.56,1846.77,288.27,1841.91,288.27z M1796.89,253.02c4.16,13.56,14.09,24.41,27.23,29.78
				c10.02,4.09,21.25,4.6,31.62,1.41c24.82-7.62,38.81-34.02,31.19-58.84c-7.62-24.82-34.02-38.82-58.84-31.19
				C1803.26,201.8,1789.27,228.2,1796.89,253.02z"/>
		</g>
	</g>
	<linearGradient id="стрелка_1_" gradientUnits="userSpaceOnUse" x1="978.6846" y1="415.3792" x2="1841.9907" y2="415.3792">
		<stop  offset="0" style="stop-color:#F06C99"/>
		<stop  offset="0.2233" style="stop-color:#E260AE"/>
		<stop  offset="0.7376" style="stop-color:#C648D8"/>
		<stop  offset="1" style="stop-color:#BB3FE9"/>
	</linearGradient>
	<path id="стрелка" class="st2" d="M1841.99,130.15l-58.59-65.04l-58.59-65.04l-66.3,57.16l-66.3,57.16l104.37,6.58
		c-56.75,343.68-359.95,601.31-717.91,591.44l124.57,38.33l14.26,79.93c362.81-41.08,630.35-349.56,628.33-706.59L1841.99,130.15z"
		/>
	<g id="скейт">
		
			<linearGradient id="SVGID_2_" gradientUnits="userSpaceOnUse" x1="1129.7318" y1="415.9565" x2="1393.6814" y2="415.9565" gradientTransform="matrix(0.9999 0.0169 -0.0169 0.9999 133.8578 44.0658)">
			<stop  offset="0" style="stop-color:#0F9EA8"/>
			<stop  offset="0.4412" style="stop-color:#16A7A1"/>
			<stop  offset="1" style="stop-color:#1AAD9D"/>
		</linearGradient>
		<path class="st3" d="M1516.01,371.85c-4.76-2.07-10.33,0.05-12.86,4.59v0c-9.47,17.02-22.12,32.08-37.25,44.35l-152.8,123.89
			c-15.13,12.27-32.48,21.53-51.09,27.28l0,0c-4.71,1.46-7.92,6.04-7.27,10.93c0.84,6.27,7.08,10.06,12.87,8.27l0,0
			c19.66-6.13,37.97-15.93,53.97-28.9l169.85-137.72c9.43-7.65,17.32-17.03,23.22-27.64l6.13-11.01
			C1523.61,380.8,1521.48,374.23,1516.01,371.85z"/>
		<g>
			<g>
				
					<linearGradient id="SVGID_3_" gradientUnits="userSpaceOnUse" x1="1207.2493" y1="498.3497" x2="1231.2499" y2="498.3497" gradientTransform="matrix(0.9999 0.0169 -0.0169 0.9999 133.8578 44.0658)">
					<stop  offset="0" style="stop-color:#0F9EA8"/>
					<stop  offset="0.4412" style="stop-color:#16A7A1"/>
					<stop  offset="1" style="stop-color:#1AAD9D"/>
				</linearGradient>
				<circle class="st4" cx="1344.49" cy="562.99" r="12"/>
				
					<linearGradient id="SVGID_4_" gradientUnits="userSpaceOnUse" x1="5318.2715" y1="4708.0073" x2="5328.2715" y2="4708.0073" gradientTransform="matrix(0.7768 -0.6298 0.6298 0.7768 -5755.5029 258.6547)">
					<stop  offset="0" style="stop-color:#FFAD39"/>
					<stop  offset="0.2885" style="stop-color:#F69E54"/>
					<stop  offset="0.7557" style="stop-color:#E8887B"/>
					<stop  offset="1" style="stop-color:#E3808A"/>
				</linearGradient>
				<circle class="st5" cx="1344.49" cy="562.99" r="5"/>
			</g>
			<g>
				
					<linearGradient id="SVGID_5_" gradientUnits="userSpaceOnUse" x1="1338.2311" y1="388.4189" x2="1362.2317" y2="388.4189" gradientTransform="matrix(0.9999 0.0169 -0.0169 0.9999 133.8578 44.0658)">
					<stop  offset="0" style="stop-color:#0F9EA8"/>
					<stop  offset="0.4412" style="stop-color:#16A7A1"/>
					<stop  offset="1" style="stop-color:#1AAD9D"/>
				</linearGradient>
				<circle class="st6" cx="1477.32" cy="455.3" r="12"/>
				
					<linearGradient id="SVGID_6_" gradientUnits="userSpaceOnUse" x1="5489.2715" y1="4708.0073" x2="5499.2715" y2="4708.0073" gradientTransform="matrix(0.7768 -0.6298 0.6298 0.7768 -5755.5029 258.6547)">
					<stop  offset="0" style="stop-color:#FFAD39"/>
					<stop  offset="0.2885" style="stop-color:#F69E54"/>
					<stop  offset="0.7557" style="stop-color:#E8887B"/>
					<stop  offset="1" style="stop-color:#E3808A"/>
				</linearGradient>
				<circle class="st7" cx="1477.32" cy="455.3" r="5"/>
			</g>
		</g>
	</g>
	<g id="персонаж">
		<g>
			<path class="st8" d="M1357.98,442.59l26.08,43.08l89.24-68.15c0,0,0.66-17.42-34.93-7.08c-9.5,2.76-33.25,13.03-40.04,7.22l0,0
				L1357.98,442.59z"/>
			<g>
				<polygon class="st1" points="1422.32,425.53 1420.07,425.29 1421.28,414.02 1407.66,424.02 1406.33,422.2 1424.07,409.18 				
					"/>
			</g>
			<g>
				
					<rect x="1370.68" y="444.41" transform="matrix(0.8026 -0.5965 0.5965 0.8026 14.5411 935.0172)" class="st1" width="98.6" height="2.26"/>
			</g>
		</g>
		<g>
			<path class="st9" d="M1356.08,276.17l0.02-0.17c-37.88,2.4-105.1,32.92-105.1,32.92l-52,27c6.7,44.77,32.86,61.39,80.3,31.73
				c26.88-16.8,45.52-24.36,56.64-27.76c2.57,17.95,17.83,121.86,26.06,120.03c19.98-4.44,43.9-37.22,47.53-42.33
				c0.3-0.43,0.43-0.95,0.35-1.47C1408.09,404.77,1387.19,276.04,1356.08,276.17z"/>
			<g>
				
					<rect x="1329.85" y="329.24" transform="matrix(0.4589 -0.8885 0.8885 0.4589 432.0915 1369.9636)" class="st10" width="21.85" height="2"/>
			</g>
		</g>
		<g>
			<g>
				<path class="st8" d="M1296,485.92l16.82,33.29c2.77,5.43,8.6,8.68,14.66,8.01c5.88-0.65,13.37-3.14,20.53-10.29
					c2.26-2.26,4.06-4.4,5.48-6.4c5.4-7.6,4.02-18.1-2.96-24.29l-19.85-17.6L1296,485.92z"/>
				<g>
					<path class="st1" d="M1318.41,521.08c-0.85,0-1.38-0.03-1.48-0.04l0.14-2.25c0.15,0.01,14.83,0.8,24.13-7.64
						c4.83-4.39,7.41-10.53,7.68-18.27l2.25,0.08c-0.29,8.37-3.12,15.06-8.43,19.87C1334.39,520.37,1322.56,521.08,1318.41,521.08z"
						/>
				</g>
				<g>
					<polygon class="st1" points="1307.45,501.04 1323.38,478.14 1307.53,486.66 1306.47,484.68 1330.62,471.7 1314.55,494.8 
						1333.48,484.92 1334.52,486.92 					"/>
				</g>
			</g>
			<linearGradient id="SVGID_7_" gradientUnits="userSpaceOnUse" x1="1198.6941" y1="409.686" x2="1333.9603" y2="409.686">
				<stop  offset="0" style="stop-color:#5CA7FD"/>
				<stop  offset="1" style="stop-color:#2185D9"/>
			</linearGradient>
			<path class="st11" d="M1292.1,354.84c-4.77-10.13-13.28-18.02-23.75-22.01l-2.74-1.04c-16.14-5.38-31.92-7.45-46.62,1.13
				c-12,7-22.22,7.03-20,20c6,35,42.16,45.08,47.52,44.7c13.62,38.82,35.89,84.11,40.59,93.53c0.49,0.99,1.68,1.39,2.67,0.9
				c6.11-3.02,36.97-20.92,43.14-24.5c0.66-0.38,1.21-1.14,0.98-1.87C1320,419.92,1305.4,383.07,1292.1,354.84z"/>
			<g>
				<path class="st10" d="M1246.05,398.24c-0.08-0.25-2.05-6.42-2.05-29.32h2c0,22.41,1.93,28.63,1.95,28.69L1246.05,398.24z"/>
			</g>
		</g>
		<g>
			<path class="st12" d="M1370.54,210.24l60.55-3.3c0,0,11.59-4.7,15.34-2.29c3.75,2.41,21.06,10.42,14.67,21.55
				s-20.4,8.14-21.15,3.16c-0.74-4.98,6.31-6.03-0.74-4.98c-7.05,1.05-11.82-2.47-11.82-2.47l-64.91,10.97L1370.54,210.24z"/>
			<path class="st13" d="M1276.56,210.47c4.23,22.9,43.86,35.24,61.28,39.61c5.04,1.26,10.27,1.55,15.41,0.83l65.75-13.98
				l-0.83-32.7l-68.17,6.7c-11.36,0.23-25-1-34.87-10.6c-17.39-16.92-39.03-4.7-38.72-4.82
				C1280.68,193.94,1275.56,205.08,1276.56,210.47z"/>
		</g>
		<g>
			<g>
				<path class="st12" d="M1296.18,196.75l1.33-17.22c0,0,17.61,5.96,24.71-18.55s-0.04-41.6-17.86-42.71
					c-17.82-1.11-34.97,19.37-36.37,40.02s-12.35,25.42-12.35,25.42s-8.08,24.26,3.43,29.46
					C1270.59,218.36,1298.2,212.01,1296.18,196.75z"/>
				<circle class="st1" cx="1308.4" cy="149.64" r="3.16"/>
				<g>
					<path class="st1" d="M1302.85,143.08l-1.37-1.79c4.3-3.28,12.45-3.49,12.8-3.5l0.05,2.26
						C1314.25,140.05,1306.56,140.25,1302.85,143.08z"/>
				</g>
				<g>
					<polygon class="st1" points="1318.21,168.4 1318.1,166.15 1327.74,165.68 1324.39,147.37 1326.61,146.96 1330.43,167.81 					
						"/>
				</g>
				<g>
					<path class="st1" d="M1313,177.26c-2.08,0-11.37-0.4-13.09-7.48l2.19-0.53c1.46,6.02,11.12,5.75,11.22,5.75l0.08,2.25
						C1313.36,177.26,1313.22,177.26,1313,177.26z"/>
				</g>
			</g>
			<path class="st9" d="M1303.13,131.65c0,0,6.1,5.9,15.39,9.18s18.31-4.5,18.31-4.5s-10.45-8.19-11.74-14.07
				c-2.39-10.94-38.52-6.3-38.52-6.3s-14.88,2.98-19.54,20.2s-11.08,28-14.36,28.41c0,0,6.01,3.69,20.22-6.96
				c0,0,1.63,2.06,0.68,5.46c-1,3.6-3.69,6.01-3.69,6.01s19.4-4.64,18.59-20.07C1287.94,139.12,1303.13,131.65,1303.13,131.65z"/>
			<g>
				<g>
					
						<linearGradient id="SVGID_8_" gradientUnits="userSpaceOnUse" x1="2151.9226" y1="653.9244" x2="2208.2329" y2="653.9244" gradientTransform="matrix(0.9923 -0.1236 0.1236 0.9923 -949.6057 -269.7935)">
						<stop  offset="0" style="stop-color:#5CA7FD"/>
						<stop  offset="1" style="stop-color:#2185D9"/>
					</linearGradient>
					<path class="st14" d="M1268.03,124.39c-1.54-12.39,9.71-24,25.14-25.92c15.43-1.92,29.19,6.57,30.73,18.96"/>
					
						<linearGradient id="SVGID_9_" gradientUnits="userSpaceOnUse" x1="2148.2302" y1="670.7713" x2="2211.0022" y2="670.7713" gradientTransform="matrix(0.9923 -0.1236 0.1236 0.9923 -949.6057 -269.7935)">
						<stop  offset="0" style="stop-color:#5CA7FD"/>
						<stop  offset="1" style="stop-color:#2185D9"/>
					</linearGradient>
					<path class="st15" d="M1324.73,128.96l-55.57,6.92c-1.85,0.23-3.55-1.09-3.78-2.94l-0.65-5.19c-0.23-1.85,1.09-3.55,2.94-3.78
						l55.57-6.92c1.85-0.23,3.55,1.09,3.78,2.94l0.65,5.19C1327.9,127.03,1326.57,128.73,1324.73,128.96z"/>
				</g>
				<g>
					
						<rect x="1268.47" y="119.49" transform="matrix(0.9923 -0.1235 0.1235 0.9923 -4.9904 160.7025)" class="st1" width="50.66" height="2.23"/>
				</g>
			</g>
		</g>
		<g>
			<path class="st8" d="M1308,269.92c0,0,0.54,1.29-0.47-7.39c0.48-16.64,0.3-55.79-10.78-73.4c0,0-2.18,15.7-18.46,11.99
				c-16.28-3.71-22.37-17.59-22.37-17.59s-20.46,0.43-28.58,9.69c-7.3,8.32-16.89,54.04-18.76,63.23
				c-6.29,12.99-22.23,51.52-16.57,98.46c27.55-8.38,61-34,85-30c14.69,2.45,29.21-38.62,31-44C1309,277.92,1308,269.92,1308,269.92
				z"/>
			<g>
				<g>
					<path class="st1" d="M1278.1,325.17l-2.2-0.5c0.5-2.2,1.31-4.94,2.24-8.13c2.82-9.62,7.08-24.15,7.73-40.67l2.25,0.09
						c-0.67,16.79-4.97,31.49-7.82,41.21C1279.38,320.33,1278.58,323.04,1278.1,325.17z"/>
				</g>
				<g>
					<path class="st1" d="M1285.29,241.19c-0.31,0-0.63-0.03-0.95-0.11c-2.31-0.53-3.75-2.83-3.23-5.13l0,0
						c0.52-2.3,2.83-3.76,5.13-3.23c2.31,0.53,3.75,2.83,3.23,5.13C1289.02,239.84,1287.25,241.19,1285.29,241.19z M1283.31,236.45
						c-0.25,1.09,0.44,2.18,1.53,2.43c1.09,0.25,2.18-0.44,2.43-1.53c0.25-1.09-0.44-2.18-1.53-2.43
						C1284.65,234.68,1283.56,235.36,1283.31,236.45L1283.31,236.45z"/>
				</g>
				<g>
					<path class="st1" d="M1276.28,285.48c-0.31,0-0.63-0.03-0.95-0.11c-2.31-0.53-3.75-2.83-3.23-5.13
						c0.52-2.3,2.83-3.76,5.13-3.23c2.31,0.53,3.75,2.83,3.23,5.13C1280.01,284.13,1278.24,285.48,1276.28,285.48z M1276.28,279.17
						c-0.93,0-1.77,0.64-1.98,1.58c-0.25,1.09,0.44,2.18,1.53,2.43c1.09,0.25,2.18-0.44,2.43-1.53c0.25-1.09-0.44-2.18-1.53-2.43
						C1276.58,279.18,1276.43,279.17,1276.28,279.17z"/>
				</g>
				<g>
					<path class="st1" d="M1267.23,321.66c-0.31,0-0.63-0.03-0.95-0.11c-2.31-0.53-3.75-2.83-3.23-5.13l0,0
						c0.52-2.31,2.83-3.76,5.13-3.23c2.31,0.53,3.75,2.83,3.23,5.13C1270.95,320.31,1269.18,321.66,1267.23,321.66z M1265.25,316.92
						c-0.25,1.09,0.44,2.18,1.53,2.43c1.09,0.25,2.18-0.44,2.43-1.53c0.25-1.09-0.44-2.18-1.53-2.43
						C1266.58,315.14,1265.49,315.83,1265.25,316.92L1265.25,316.92z"/>
				</g>
				<g>
					<polygon class="st1" points="1261.55,220.47 1255.05,187.93 1257.26,187.48 1263.1,216.7 1283.37,202.99 1284.63,204.85 					
						"/>
				</g>
				<g>
					<path class="st1" d="M1230.64,293.85l-1.28-1.86c1.73-1.19,42.68-29.2,72.75-26.19l-0.22,2.24
						C1272.63,265.12,1231.06,293.56,1230.64,293.85z"/>
				</g>
				<g>
					<path class="st1" d="M1290.08,261.26l-2.15-0.67c9.77-31.26,2.08-56.07,2-56.32l2.15-0.69
						C1292.16,203.83,1300.07,229.29,1290.08,261.26z"/>
				</g>
				<g>
					<polygon class="st1" points="1307.63,211.26 1295.23,202.11 1296.57,200.29 1302.37,204.58 1296.99,191.78 1299.07,190.91 
											"/>
				</g>
			</g>
		</g>
		<g>
			<g>
				<path class="st12" d="M1155.44,355.71c-1.01,5.37-11.33,16.05-22.79,18.18c0,0-18.07,7.68-18.72,1.55
					c-0.71-6.67,6.14-5.43,10.17-10.08c6.59-7.62,10.39-16.4,10.26-21.79"/>
				<path class="st12" d="M1134.32,343.41c2.4-8.4,8.75-11.92,8.75-11.92l20.69-77.97l21.16,20.47l-27.03,69.21
					c0,0-0.64,15.31-5.22,18.27"/>
			</g>
			<path class="st10" d="M1233.5,188.63c0,0,24.99,0.03,10.31,35.6c-4.4,10.67-20.7,23.21-33.89,32.02
				c-12.07,8.06-21.13,19.9-25.84,33.62l-12.51,36.4l-27.87-6.64l15.86-64.25c2.4-9.72,7.65-18.5,15.07-25.23
				C1189.13,216.99,1214.47,195.66,1233.5,188.63z"/>
			<g>
				<g>
					<path class="st1" d="M1152.41,318.27c-1.07,0-2.13-0.39-2.96-1.19c-1.71-1.63-1.77-4.35-0.14-6.06c0.79-0.83,1.86-1.3,3-1.32
						c1.16-0.04,2.23,0.4,3.06,1.19c1.71,1.63,1.77,4.35,0.14,6.06C1154.67,317.83,1153.54,318.27,1152.41,318.27z M1152.41,311.96
						c-0.02,0-0.03,0-0.05,0c-0.54,0.01-1.05,0.23-1.42,0.63l0,0c-0.77,0.81-0.74,2.1,0.06,2.87c0.81,0.77,2.1,0.75,2.87-0.06
						c0.77-0.81,0.74-2.1-0.06-2.87C1153.43,312.16,1152.93,311.96,1152.41,311.96z"/>
				</g>
				<g>
					
						<rect x="1162.21" y="293.3" transform="matrix(0.2891 -0.9573 0.9573 0.2891 533.6298 1331.5049)" class="st1" width="2.26" height="26.31"/>
				</g>
			</g>
		</g>
	</g>
</g>
</svg>
