<?xml version="1.0" encoding="utf-8"?>
<!-- Generator: Adobe Illustrator 23.1.0, SVG Export Plug-In . SVG Version: 6.00 Build 0)  -->
<svg version="1.1" id="Слой_1" xmlns="http://www.w3.org/2000/svg" xmlns:xlink="http://www.w3.org/1999/xlink" x="0px" y="0px"
	 viewBox="0 0 320 540" style="enable-background:new 0 0 320 540;" xml:space="preserve">
<style type="text/css">
	.st0{fill:#1B82D8;stroke:#1B82D8;stroke-width:0.6327;stroke-miterlimit:10;}
	.st1{fill:url(#стрелка_1_);}
	.st2{fill:url(#SVGID_1_);}
	.st3{fill:url(#SVGID_2_);}
	.st4{fill:url(#SVGID_3_);}
	.st5{fill:url(#SVGID_4_);}
	.st6{fill:url(#SVGID_5_);}
	.st7{fill:#E8E8E8;}
	.st8{fill:#1B82D8;}
	.st9{fill:#135E91;}
	.st10{fill:#FFFFFF;}
	.st11{fill:url(#SVGID_6_);}
	.st12{fill:#F2C557;}
	.st13{fill:#F2F2F2;}
	.st14{fill:url(#SVGID_7_);}
	.st15{fill:url(#SVGID_8_);}
</style>
<g>
	<g id="график">
		<g>
			
				<rect x="247.4" y="55.73" transform="matrix(0.9247 -0.3806 0.3806 0.9247 -30.8685 104.1249)" class="st0" width="0.89" height="148.77"/>
		</g>
		<g>
			
				<rect x="61.28" y="258.5" transform="matrix(0.9486 -0.3164 0.3164 0.9486 -73.4112 65.7085)" class="st0" width="208.76" height="0.89"/>
		</g>
		<g>
			
				<rect x="91.95" y="306.12" transform="matrix(0.9198 -0.3924 0.3924 0.9198 -147.8571 67.9887)" class="st0" width="0.89" height="179.19"/>
		</g>
		<g>
			<path class="st0" d="M300.41,234.83c-6.82,6.5-17.35,8.12-25.99,3.27c-3.7-2.08-6.71-5.15-8.69-8.9
				c-3.52-6.65-3.42-14.54,0.25-21.09c5.94-10.59,19.4-14.37,29.98-8.43c10.59,5.94,14.37,19.4,8.43,29.99
				C303.32,231.63,301.96,233.36,300.41,234.83z M270.62,203.62c-1.48,1.41-2.78,3.07-3.84,4.95c-3.53,6.29-3.62,13.85-0.25,20.23
				l0,0c1.89,3.59,4.78,6.54,8.33,8.53c8.28,4.65,18.39,3.1,24.93-3.14c1.48-1.41,2.78-3.07,3.84-4.95
				c5.7-10.16,2.07-23.07-8.09-28.77C287.26,195.82,277.16,197.38,270.62,203.62z"/>
		</g>
		<g>
			<path class="st0" d="M61.47,310.69c-2.3,2.19-5.11,3.8-8.26,4.69c-5.07,1.43-10.4,0.79-15-1.79l0,0
				c-9.49-5.32-12.88-17.38-7.56-26.87c5.33-9.49,17.38-12.88,26.87-7.56c4.6,2.58,7.92,6.79,9.34,11.87s0.79,10.4-1.79,15
				C64.09,307.79,62.88,309.35,61.47,310.69z M38.59,312.9c4.41,2.47,9.52,3.08,14.39,1.71c4.87-1.37,8.91-4.55,11.39-8.96
				c2.47-4.41,3.08-9.52,1.71-14.39c-1.37-4.87-4.55-8.91-8.96-11.39c-9.1-5.11-20.67-1.86-25.78,7.25
				C26.24,296.23,29.49,307.79,38.59,312.9L38.59,312.9z"/>
		</g>
		<g>
			<path class="st0" d="M148.69,514.63c-6.82,6.5-17.35,8.12-25.99,3.27l0,0c-10.59-5.94-14.37-19.4-8.43-29.99
				c5.95-10.59,19.4-14.37,29.98-8.43c10.59,5.94,14.37,19.4,8.43,29.99C151.59,511.43,150.24,513.16,148.69,514.63z M123.14,517.13
				c10.16,5.7,23.07,2.07,28.77-8.09c5.7-10.16,2.07-23.07-8.09-28.77c-10.16-5.7-23.07-2.07-28.77,8.09
				C109.35,498.52,112.98,511.43,123.14,517.13L123.14,517.13z"/>
		</g>
		<g>
			<path class="st0" d="M226.57,57.25c-2.05,1.96-4.48,3.52-7.15,4.56c-6.18,2.42-13.04,1.95-18.83-1.29l0,0
				c-10.59-5.94-14.37-19.4-8.43-29.99c5.94-10.59,19.4-14.37,29.98-8.43c10.59,5.94,14.37,19.4,8.43,29.99
				C229.5,54.01,228.15,55.74,226.57,57.25z M201.03,59.74c5.55,3.12,12.13,3.57,18.06,1.24c4.52-1.77,8.33-5.09,10.71-9.33
				c5.7-10.16,2.07-23.07-8.09-28.77c-10.16-5.7-23.07-2.07-28.77,8.09C187.24,41.13,190.87,54.04,201.03,59.74z"/>
		</g>
	</g>
	
		<linearGradient id="стрелка_1_" gradientUnits="userSpaceOnUse" x1="-19.3269" y1="322.8616" x2="328.1" y2="322.8616" gradientTransform="matrix(0.9877 -0.1562 -0.1562 -0.9877 59.781 617.5871)">
		<stop  offset="0" style="stop-color:#F06C99"/>
		<stop  offset="0.2233" style="stop-color:#E260AE"/>
		<stop  offset="0.7376" style="stop-color:#C648D8"/>
		<stop  offset="1" style="stop-color:#BB3FE9"/>
	</linearGradient>
	<path id="стрелка" class="st1" d="M315.5,134.07l-27.38-22.17l-27.38-22.17l-22.76,26.89l-22.76,26.89l41.9-3.94
		C256.17,279.74,151.84,401.2,8.93,419.78l51.92,7.41l10.69,30.88C213.18,418.93,300.14,279.49,276.9,137.7L315.5,134.07z"/>
	<g id="скейт">
		
			<linearGradient id="SVGID_1_" gradientUnits="userSpaceOnUse" x1="-30.897" y1="294.1032" x2="136.0987" y2="294.1032" gradientTransform="matrix(0.9999 0.0169 0.0169 -0.9999 120.59 591.9194)">
			<stop  offset="0" style="stop-color:#0F9EA8"/>
			<stop  offset="0.4412" style="stop-color:#16A7A1"/>
			<stop  offset="1" style="stop-color:#1AAD9D"/>
		</linearGradient>
		<path class="st2" d="M258.93,229.47c-3.01-1.31-6.54,0.03-8.14,2.9l0,0c-5.99,10.77-14,20.3-23.57,28.06l-96.68,78.39
			c-9.57,7.76-20.55,13.62-32.32,17.26l0,0c-2.98,0.92-5.01,3.82-4.6,6.92c0.53,3.97,4.48,6.37,8.14,5.23l0,0
			c12.44-3.88,24.02-10.08,34.15-18.29l107.47-87.14c5.97-4.84,10.96-10.77,14.69-17.49l3.88-6.97
			C263.74,235.13,262.39,230.97,258.93,229.47z"/>
		<g>
			<g>
				
					<linearGradient id="SVGID_2_" gradientUnits="userSpaceOnUse" x1="18.1858" y1="241.9757" x2="33.3701" y2="241.9757" gradientTransform="matrix(0.9999 0.0169 0.0169 -0.9999 120.59 591.9194)">
					<stop  offset="0" style="stop-color:#0F9EA8"/>
					<stop  offset="0.4412" style="stop-color:#16A7A1"/>
					<stop  offset="1" style="stop-color:#1AAD9D"/>
				</linearGradient>
				<circle class="st3" cx="150.41" cy="350.4" r="7.59"/>
				
					<linearGradient id="SVGID_3_" gradientUnits="userSpaceOnUse" x1="4296.3457" y1="-3415.8037" x2="4302.6724" y2="-3415.8037" gradientTransform="matrix(0.7768 -0.6298 -0.6298 -0.7768 -5340.7129 404.8293)">
					<stop  offset="0" style="stop-color:#FFAD39"/>
					<stop  offset="0.2885" style="stop-color:#F69E54"/>
					<stop  offset="0.7557" style="stop-color:#E8887B"/>
					<stop  offset="1" style="stop-color:#E3808A"/>
				</linearGradient>
				<circle class="st4" cx="150.41" cy="350.4" r="3.16"/>
			</g>
			<g>
				
					<linearGradient id="SVGID_4_" gradientUnits="userSpaceOnUse" x1="101.0587" y1="311.5194" x2="116.2431" y2="311.5194" gradientTransform="matrix(0.9999 0.0169 0.0169 -0.9999 120.59 591.9194)">
					<stop  offset="0" style="stop-color:#0F9EA8"/>
					<stop  offset="0.4412" style="stop-color:#16A7A1"/>
					<stop  offset="1" style="stop-color:#1AAD9D"/>
				</linearGradient>
				<circle class="st5" cx="234.45" cy="282.27" r="7.59"/>
				
					<linearGradient id="SVGID_5_" gradientUnits="userSpaceOnUse" x1="4404.5381" y1="-3415.8054" x2="4410.8652" y2="-3415.8054" gradientTransform="matrix(0.7768 -0.6298 -0.6298 -0.7768 -5340.7129 404.8293)">
					<stop  offset="0" style="stop-color:#FFAD39"/>
					<stop  offset="0.2885" style="stop-color:#F69E54"/>
					<stop  offset="0.7557" style="stop-color:#E8887B"/>
					<stop  offset="1" style="stop-color:#E3808A"/>
				</linearGradient>
				<circle class="st6" cx="234.45" cy="282.27" r="3.16"/>
			</g>
		</g>
	</g>
	<g id="персонаж">
		<g>
			<path class="st7" d="M158.94,274.22l16.5,27.26l56.46-43.12c0,0,0.42-11.02-22.1-4.48c-6.01,1.75-21.04,8.24-25.33,4.57l0,0
				L158.94,274.22z"/>
			<g>
				<polygon class="st8" points="199.65,263.43 198.23,263.28 198.99,256.15 190.38,262.48 189.54,261.32 200.76,253.09 				"/>
			</g>
			<g>
				
					<rect x="166.98" y="275.41" transform="matrix(0.8026 -0.5965 0.5965 0.8026 -125.5913 172.7158)" class="st8" width="62.38" height="1.43"/>
			</g>
		</g>
		<g>
			<path class="st9" d="M157.74,168.93l0.01-0.11c-23.97,1.52-66.5,20.83-66.5,20.83l-32.9,17.08
				c4.24,28.33,20.79,38.84,50.81,20.08c17.01-10.63,28.8-15.41,35.84-17.56c1.63,11.36,11.28,77.1,16.49,75.94
				c12.64-2.81,27.78-23.55,30.07-26.78c0.19-0.27,0.27-0.6,0.22-0.93C190.65,250.3,177.43,168.85,157.74,168.93z"/>
			<g>
				
					<rect x="141.16" y="202.5" transform="matrix(0.4589 -0.8885 0.8885 0.4589 -100.3632 241.4754)" class="st10" width="13.82" height="1.27"/>
			</g>
		</g>
		<g>
			<g>
				<path class="st7" d="M119.73,301.64l10.64,21.06c1.75,3.44,5.44,5.49,9.28,5.07c3.72-0.41,8.46-1.99,12.99-6.51
					c1.43-1.43,2.57-2.78,3.47-4.05c3.42-4.81,2.54-11.45-1.87-15.37l-12.56-11.14L119.73,301.64z"/>
				<g>
					<path class="st8" d="M133.91,323.89c-0.54,0-0.87-0.02-0.94-0.03l0.09-1.42c0.09,0.01,9.38,0.51,15.27-4.83
						c3.06-2.78,4.69-6.66,4.86-11.56l1.42,0.05c-0.18,5.3-1.97,9.53-5.33,12.57C144.02,323.44,136.53,323.89,133.91,323.89z"/>
				</g>
				<g>
					<polygon class="st8" points="126.97,311.21 137.05,296.72 127.02,302.11 126.35,300.86 141.63,292.64 131.47,307.26 
						143.44,301.01 144.1,302.27 					"/>
				</g>
			</g>
			
				<linearGradient id="SVGID_6_" gradientUnits="userSpaceOnUse" x1="58.1573" y1="288.5932" x2="143.7361" y2="288.5932" gradientTransform="matrix(1 0 0 -1 0 542)">
				<stop  offset="0" style="stop-color:#5CA7FD"/>
				<stop  offset="1" style="stop-color:#2185D9"/>
			</linearGradient>
			<path class="st11" d="M117.26,218.71c-3.02-6.41-8.4-11.4-15.03-13.93l-1.73-0.66c-10.21-3.4-20.2-4.71-29.5,0.71
				c-7.59,4.43-14.06,4.45-12.65,12.65c3.8,22.14,26.67,28.52,30.07,28.28c8.62,24.56,22.71,53.22,25.68,59.18
				c0.31,0.63,1.06,0.88,1.69,0.57c3.87-1.91,23.39-13.24,27.29-15.5c0.42-0.24,0.77-0.72,0.62-1.18
				C134.91,259.88,125.68,236.57,117.26,218.71z"/>
			<g>
				<path class="st10" d="M88.13,246.16c-0.05-0.16-1.3-4.06-1.3-18.55h1.27c0,14.18,1.22,18.11,1.23,18.15L88.13,246.16z"/>
			</g>
		</g>
		<g>
			<path class="st12" d="M166.89,127.22l38.31-2.09c0,0,7.33-2.97,9.71-1.45c2.37,1.52,13.32,6.59,9.28,13.63
				c-4.04,7.04-12.91,5.15-13.38,2c-0.47-3.15,3.99-3.82-0.47-3.15c-4.46,0.66-7.48-1.56-7.48-1.56l-41.07,6.94L166.89,127.22z"/>
			<path class="st13" d="M107.43,127.36c2.68,14.49,27.75,22.3,38.77,25.06c3.19,0.8,6.5,0.98,9.75,0.53l41.6-8.85l-0.53-20.69
				l-43.13,4.24c-7.19,0.15-15.82-0.63-22.06-6.71c-11-10.71-24.69-2.97-24.5-3.05C110.04,116.9,106.8,123.95,107.43,127.36z"/>
		</g>
		<g>
			<g>
				<path class="st12" d="M119.84,118.68l0.84-10.9c0,0,11.14,3.77,15.63-11.74c4.49-15.51-0.03-26.32-11.3-27.02
					s-22.13,12.26-23.01,25.32s-7.81,16.08-7.81,16.08s-5.11,15.35,2.17,18.64C103.65,132.35,121.12,128.34,119.84,118.68z"/>
				<circle class="st8" cx="127.57" cy="88.87" r="2"/>
				<g>
					<path class="st8" d="M124.06,84.72l-0.87-1.13c2.72-2.08,7.88-2.21,8.1-2.21l0.03,1.43C131.28,82.81,126.41,82.93,124.06,84.72
						z"/>
				</g>
				<g>
					<polygon class="st8" points="133.78,100.74 133.71,99.32 139.81,99.02 137.69,87.44 139.1,87.18 141.51,100.37 					"/>
				</g>
				<g>
					<path class="st8" d="M130.49,106.35c-1.32,0-7.19-0.25-8.28-4.73l1.39-0.34c0.92,3.81,7.04,3.64,7.1,3.64l0.05,1.42
						C130.71,106.35,130.62,106.35,130.49,106.35z"/>
				</g>
			</g>
			<path class="st9" d="M124.24,77.49c0,0,3.86,3.73,9.74,5.81c5.88,2.08,11.58-2.85,11.58-2.85s-6.61-5.18-7.43-8.9
				c-1.51-6.92-24.37-3.99-24.37-3.99s-9.41,1.89-12.36,12.78c-2.95,10.9-7.01,17.72-9.09,17.98c0,0,3.8,2.33,12.79-4.4
				c0,0,1.03,1.3,0.43,3.45c-0.63,2.28-2.33,3.8-2.33,3.8s12.27-2.94,11.76-12.7C114.63,82.22,124.24,77.49,124.24,77.49z"/>
			<g>
				<g>
					
						<linearGradient id="SVGID_7_" gradientUnits="userSpaceOnUse" x1="968.7777" y1="37.5431" x2="1004.4014" y2="37.5431" gradientTransform="matrix(0.9923 -0.1236 -0.1236 -0.9923 -855.5296 222.7938)">
						<stop  offset="0" style="stop-color:#5CA7FD"/>
						<stop  offset="1" style="stop-color:#2185D9"/>
					</linearGradient>
					<path class="st14" d="M102.03,72.9c-0.97-7.84,6.14-15.18,15.91-16.4s18.47,4.16,19.44,12"/>
					
						<linearGradient id="SVGID_8_" gradientUnits="userSpaceOnUse" x1="966.4429" y1="26.883" x2="1006.1622" y2="26.883" gradientTransform="matrix(0.9923 -0.1236 -0.1236 -0.9923 -855.5296 222.7938)">
						<stop  offset="0" style="stop-color:#5CA7FD"/>
						<stop  offset="1" style="stop-color:#2185D9"/>
					</linearGradient>
					<path class="st15" d="M137.91,75.79l-35.16,4.38c-1.17,0.15-2.25-0.69-2.39-1.86l-0.41-3.28c-0.15-1.17,0.69-2.25,1.86-2.39
						l35.16-4.38c1.17-0.15,2.25,0.69,2.39,1.86l0.41,3.28C139.91,74.57,139.07,75.64,137.91,75.79z"/>
				</g>
				<g>
					
						<rect x="102.27" y="69.79" transform="matrix(0.9923 -0.1235 0.1235 0.9923 -7.801 15.1505)" class="st8" width="32.05" height="1.41"/>
				</g>
			</g>
		</g>
		<g>
			<path class="st7" d="M127.32,164.98c0,0,0.34,0.82-0.3-4.68c0.3-10.53,0.19-35.3-6.82-46.44c0,0-1.38,9.93-11.68,7.59
				c-10.3-2.35-14.15-11.13-14.15-11.13s-12.95,0.27-18.08,6.13c-4.62,5.26-10.69,34.19-11.87,40.01
				c-3.98,8.22-14.07,32.6-10.48,62.3c17.43-5.3,38.6-21.51,53.78-18.98c9.29,1.55,18.48-24.44,19.61-27.84
				C127.95,170.04,127.32,164.98,127.32,164.98z"/>
			<g>
				<g>
					<path class="st8" d="M108.4,199.93l-1.39-0.32c0.32-1.39,0.83-3.13,1.42-5.14c1.78-6.09,4.48-15.28,4.89-25.73l1.42,0.06
						c-0.42,10.62-3.14,19.92-4.95,26.07C109.21,196.87,108.71,198.58,108.4,199.93z"/>
				</g>
				<g>
					<path class="st8" d="M112.95,146.8c-0.2,0-0.4-0.02-0.6-0.07c-1.46-0.34-2.37-1.79-2.04-3.25l0,0
						c0.33-1.46,1.79-2.38,3.25-2.04c1.46,0.34,2.37,1.79,2.04,3.25C115.31,145.94,114.19,146.8,112.95,146.8z M111.7,143.8
						c-0.16,0.69,0.28,1.38,0.97,1.54c0.69,0.16,1.38-0.28,1.54-0.97c0.16-0.69-0.28-1.38-0.97-1.54
						C112.55,142.68,111.86,143.11,111.7,143.8L111.7,143.8z"/>
				</g>
				<g>
					<path class="st8" d="M107.25,174.82c-0.2,0-0.4-0.02-0.6-0.07c-1.46-0.34-2.37-1.79-2.04-3.25c0.33-1.46,1.79-2.38,3.25-2.04
						c1.46,0.34,2.37,1.79,2.04,3.25C109.61,173.97,108.49,174.82,107.25,174.82z M107.25,170.83c-0.59,0-1.12,0.4-1.25,1
						c-0.16,0.69,0.28,1.38,0.97,1.54c0.69,0.16,1.38-0.28,1.54-0.97c0.16-0.69-0.28-1.38-0.97-1.54
						C107.44,170.83,107.35,170.83,107.25,170.83z"/>
				</g>
				<g>
					<path class="st8" d="M101.53,197.71c-0.2,0-0.4-0.02-0.6-0.07c-1.46-0.34-2.37-1.79-2.04-3.25l0,0
						c0.33-1.46,1.79-2.38,3.25-2.04c1.46,0.34,2.37,1.79,2.04,3.25C103.88,196.86,102.76,197.71,101.53,197.71z M100.27,194.71
						c-0.16,0.69,0.28,1.38,0.97,1.54c0.69,0.16,1.38-0.28,1.54-0.97c0.16-0.69-0.28-1.38-0.97-1.54
						C101.11,193.59,100.43,194.02,100.27,194.71L100.27,194.71z"/>
				</g>
				<g>
					<polygon class="st8" points="97.93,133.69 93.82,113.1 95.22,112.82 98.91,131.3 111.74,122.63 112.54,123.81 					"/>
				</g>
				<g>
					<path class="st8" d="M78.38,180.12l-0.81-1.18c1.09-0.75,27-18.48,46.03-16.57l-0.14,1.42
						C104.94,161.94,78.64,179.93,78.38,180.12z"/>
				</g>
				<g>
					<path class="st8" d="M115.98,159.5l-1.36-0.42c6.18-19.78,1.32-35.48,1.27-35.63l1.36-0.44
						C117.3,123.16,122.3,139.27,115.98,159.5z"/>
				</g>
				<g>
					<polygon class="st8" points="127.09,127.86 119.24,122.07 120.09,120.92 123.76,123.63 120.36,115.54 121.67,114.99 					"/>
				</g>
			</g>
		</g>
		<g>
			<g>
				<path class="st12" d="M30.8,219.26c-0.64,3.4-7.17,10.15-14.42,11.5c0,0-11.43,4.86-11.84,0.98c-0.45-4.22,3.88-3.44,6.43-6.38
					c4.17-4.82,6.57-10.38,6.49-13.79"/>
				<path class="st12" d="M17.43,211.47c1.52-5.31,5.54-7.54,5.54-7.54l13.09-49.33l13.39,12.95l-17.1,43.79c0,0-0.4,9.69-3.3,11.56
					"/>
			</g>
			<path class="st13" d="M80.19,113.54c0,0,15.81,0.02,6.52,22.52c-2.78,6.75-13.1,14.69-21.44,20.26
				c-7.64,5.1-13.37,12.59-16.35,21.27L41,200.63l-17.63-4.2l10.03-40.65c1.52-6.15,4.84-11.71,9.53-15.96
				C52.11,131.49,68.14,117.99,80.19,113.54z"/>
			<g>
				<g>
					<path class="st8" d="M28.88,195.57c-0.68,0-1.35-0.25-1.87-0.75c-1.08-1.03-1.12-2.75-0.09-3.83c0.5-0.53,1.18-0.82,1.9-0.84
						c0.73-0.03,1.41,0.25,1.94,0.75c1.08,1.03,1.12,2.75,0.09,3.83C30.31,195.29,29.59,195.57,28.88,195.57z M28.88,191.57
						c-0.01,0-0.02,0-0.03,0c-0.34,0.01-0.66,0.15-0.9,0.4l0,0c-0.49,0.51-0.47,1.33,0.04,1.82c0.51,0.49,1.33,0.47,1.82-0.04
						c0.49-0.51,0.47-1.33-0.04-1.82C29.52,191.7,29.21,191.57,28.88,191.57z"/>
				</g>
				<g>
					
						<rect x="35.07" y="179.76" transform="matrix(0.2891 -0.9573 0.9573 0.2891 -154.6105 167.9599)" class="st8" width="1.43" height="16.65"/>
				</g>
			</g>
		</g>
	</g>
</g>
</svg>
