<?xml version="1.0" encoding="utf-8"?>
<!-- Generator: Adobe Illustrator 23.1.0, SVG Export Plug-In . SVG Version: 6.00 Build 0)  -->
<svg version="1.1" id="Слой_1" xmlns="http://www.w3.org/2000/svg" xmlns:xlink="http://www.w3.org/1999/xlink" x="0px" y="0px"
	 viewBox="0 0 245 248" style="enable-background:new 0 0 245 248;" xml:space="preserve">
<style type="text/css">
	.st0{fill:#1B82D8;}
	.st1{fill:url(#SVGID_1_);}
	.st2{fill:url(#SVGID_2_);}
</style>
<g>
	<path class="st0" d="M84.6,130"/>
</g>
<g>
	<path class="st0" d="M169.3,70.8"/>
</g>
<g>
	<g>
		<g>
			<g>
				
					<rect x="163.4" y="71" transform="matrix(0.7074 -0.7068 0.7068 0.7074 2.6332 150.1955)" class="st0" width="38.7" height="1.8"/>
			</g>
		</g>
		<g>
			<g>
				
					<rect x="181.8" y="52.6" transform="matrix(0.7071 -0.7071 0.7071 0.7071 2.6209 150.288)" class="st0" width="1.8" height="38.7"/>
			</g>
		</g>
	</g>
	<g>
		<g>
			<g>
				
					<rect x="42.9" y="161.8" transform="matrix(0.7068 -0.7074 0.7074 0.7068 -96.8296 91.7476)" class="st0" width="38.7" height="1.8"/>
			</g>
		</g>
		<g>
			<g>
				
					<rect x="61.3" y="143.3" transform="matrix(0.7071 -0.7071 0.7071 0.7071 -96.826 91.6298)" class="st0" width="1.8" height="38.7"/>
			</g>
		</g>
	</g>
</g>
<g>
	<g>
		<path class="st0" d="M243.5,215.3H1.5v-196h242.1v196H243.5z M3.3,213.5h238.4V21.1H3.3V213.5z"/>
	</g>
</g>
<g>
	<g>
		<path class="st0" d="M170.2,21.1H74.8v-1c0-0.1,0-0.2,0-0.3C74.8,9.5,83.2,1,93.6,1h58c10.3,0,18.8,8.4,18.8,18.8
			c0,0.1,0,0.2,0,0.3L170.2,21.1z M76.6,19.3h91.9c-0.3-9.1-7.8-16.4-16.9-16.4h-58C84.3,2.9,76.8,10.2,76.6,19.3z"/>
	</g>
</g>
<linearGradient id="SVGID_1_" gradientUnits="userSpaceOnUse" x1="153" y1="81.4" x2="194.6533" y2="81.4" gradientTransform="matrix(1 0 0 -1 0 250)">
	<stop  offset="0" style="stop-color:#0F9EA8"/>
	<stop  offset="1" style="stop-color:#1AAD9E"/>
</linearGradient>
<circle class="st1" cx="173.8" cy="168.6" r="20.8"/>
<linearGradient id="SVGID_2_" gradientUnits="userSpaceOnUse" x1="37" y1="170.6" x2="132.2" y2="170.6" gradientTransform="matrix(1 0 0 -1 0 250)">
	<stop  offset="0" style="stop-color:#FFAD39"/>
	<stop  offset="0.2885" style="stop-color:#F69E54"/>
	<stop  offset="0.7557" style="stop-color:#E8887B"/>
	<stop  offset="1" style="stop-color:#E3808A"/>
</linearGradient>
<circle class="st2" cx="84.6" cy="79.4" r="47.6"/>
<g>
	<polygon class="st0" points="85.5,101.7 83.7,101.7 83.7,78.5 106.9,78.5 106.9,80.3 85.5,80.3 	"/>
</g>
<g>
	<g>
		
			<rect x="128.3" y="60.9" transform="matrix(0.7071 -0.7071 0.7071 0.7071 -49.8376 127.6732)" class="st0" width="1.8" height="126.2"/>
	</g>
</g>
<g>
	<g>
		<rect x="121.6" y="214.7" class="st0" width="1.8" height="22.3"/>
	</g>
</g>
<g>
	<g>
		<path class="st0" d="M122.5,246.9c-5.4,0-9.8-4.4-9.8-9.8s4.4-9.8,9.8-9.8s9.8,4.4,9.8,9.8S127.9,246.9,122.5,246.9z M122.5,229
			c-4.4,0-8,3.6-8,8s3.6,8,8,8s8-3.6,8-8S126.9,229,122.5,229z"/>
	</g>
</g>
</svg>
