<?xml version="1.0" encoding="utf-8"?>
<!-- Generator: Adobe Illustrator 23.1.0, SVG Export Plug-In . SVG Version: 6.00 Build 0)  -->
<svg version="1.1" id="Слой_1" xmlns="http://www.w3.org/2000/svg" xmlns:xlink="http://www.w3.org/1999/xlink" x="0px" y="0px"
	 viewBox="0 0 264 288" style="enable-background:new 0 0 264 288;" xml:space="preserve">
<style type="text/css">
	.st0{fill:url(#SVGID_1_);}
	.st1{fill:url(#SVGID_2_);}
	.st2{fill:#1B82D8;}
</style>
<linearGradient id="SVGID_1_" gradientUnits="userSpaceOnUse" x1="0.4" y1="79.5" x2="189.3" y2="79.5" gradientTransform="matrix(1 0 0 -1 0 290)">
	<stop  offset="0" style="stop-color:#FFAD39"/>
	<stop  offset="0.2885" style="stop-color:#F69E54"/>
	<stop  offset="0.7557" style="stop-color:#E8887B"/>
	<stop  offset="1" style="stop-color:#E3808A"/>
</linearGradient>
<path class="st0" d="M177.1,152.6H69.5v-11.9c0-4.1-3.3-7.4-7.4-7.4H7.8c-4.1,0-7.4,3.3-7.4,7.4v24.1V261v14.5
	c0,6.7,5.5,12.2,12.2,12.2h164.5c6.7,0,12.2-5.5,12.2-12.2V164.8C189.3,158.1,183.8,152.6,177.1,152.6z"/>
<linearGradient id="SVGID_2_" gradientUnits="userSpaceOnUse" x1="47.1" y1="250.3" x2="134.5414" y2="250.3" gradientTransform="matrix(1 0 0 -1 0 290)">
	<stop  offset="0" style="stop-color:#0F9EA8"/>
	<stop  offset="1" style="stop-color:#1AAD9E"/>
</linearGradient>
<path class="st1" d="M65.5,42.6c-3.6,0-6.8-0.9-9.6-2.6c-2.8-1.8-5-4.2-6.5-7.4s-2.3-6.9-2.3-11.1c0-4.3,0.8-8,2.3-11.1
	c1.5-3.2,3.7-5.6,6.5-7.4s6-2.6,9.6-2.6c3.7,0,7,0.9,9.7,2.6c2.8,1.8,4.9,4.2,6.4,7.3s2.3,6.8,2.3,11.2c0,4.3-0.8,8-2.3,11.1
	c-1.5,3.2-3.7,5.6-6.4,7.4C72.5,41.7,69.2,42.6,65.5,42.6z M65.6,34.8c2.9,0,5.2-1.2,6.9-3.5c1.7-2.3,2.5-5.6,2.5-9.9
	s-0.8-7.5-2.5-9.9C70.8,9.2,68.6,8,65.6,8c-2.9,0-5.3,1.2-7,3.5S56,17.1,56,21.4s0.9,7.5,2.6,9.9C60.3,33.7,62.7,34.8,65.6,34.8z
	 M59.1,78.2l52.6-77.1h10.8L69.9,78.2H59.1z M116,79c-3.7,0-6.9-0.9-9.7-2.6c-2.8-1.8-4.9-4.2-6.4-7.4c-1.5-3.2-2.3-6.9-2.3-11.1
	c0-4.3,0.8-8,2.3-11.1c1.5-3.2,3.7-5.6,6.4-7.4c2.8-1.8,6-2.6,9.7-2.6s7,0.9,9.7,2.6c2.8,1.8,4.9,4.2,6.4,7.4s2.3,6.9,2.3,11.1
	c0,4.3-0.8,8-2.3,11.1c-1.5,3.2-3.7,5.6-6.4,7.4C123,78.1,119.8,79,116,79z M116,71.2c2.9,0,5.2-1.2,6.9-3.5
	c1.7-2.3,2.5-5.6,2.5-9.9s-0.8-7.5-2.5-9.9c-1.7-2.3-4-3.5-6.9-3.5s-5.1,1.2-6.8,3.5c-1.7,2.3-2.5,5.6-2.5,9.9s0.8,7.5,2.5,9.9
	C110.9,70,113.2,71.2,116,71.2z"/>
<g>
	<g>
		<path class="st2" d="M189,231c-8.1,0-15.7-7.9-21.3-22.2c-5.5-14-8.5-32.7-8.5-52.5s3-38.4,8.5-52.5c5.6-14.3,13.2-22.2,21.3-22.2
			s15.7,7.9,21.3,22.2c5.5,14,8.5,32.7,8.5,52.5s-3,38.4-8.5,52.5C204.6,223.1,197.1,231,189,231z M189,83.6
			c-15.4,0-28,32.7-28,72.8s12.6,72.8,28,72.8s28-32.7,28-72.8S204.4,83.6,189,83.6z"/>
	</g>
	<g>
		<path class="st2" d="M189,186.2c-19.8,0-38.4-3-52.5-8.5c-14.3-5.6-22.2-13.2-22.2-21.3s7.9-15.7,22.2-21.3
			c14-5.5,32.7-8.5,52.5-8.5s38.4,3,52.5,8.5c14.3,5.6,22.2,13.2,22.2,21.3s-7.9,15.7-22.2,21.3C227.4,183.2,208.8,186.2,189,186.2z
			 M189,128.4c-40.1,0-72.8,12.6-72.8,28s32.7,28,72.8,28s72.8-12.6,72.8-28C261.8,140.9,229.1,128.4,189,128.4z"/>
	</g>
	<g>
		<path class="st2" d="M230,213.3c-5.3,0-11.8-1.6-19-4.8c-13.8-6-29.1-17.1-43.1-31.1l0,0c-14-14-25-29.3-31.1-43.1
			c-6.1-14.1-6.4-25-0.6-30.7c5.7-5.7,16.7-5.5,30.7,0.6c13.8,6,29.1,17.1,43.1,31.1c14,14,25,29.3,31.1,43.1
			c6.1,14.1,6.4,25,0.6,30.7C238.9,211.9,235,213.3,230,213.3z M169.1,176.2c28.4,28.4,60.4,42.6,71.3,31.7
			c10.9-10.9-3.3-42.9-31.7-71.3s-60.4-42.6-71.3-31.7S140.8,147.8,169.1,176.2L169.1,176.2z"/>
	</g>
	<g>
		<path class="st2" d="M147.9,213.3c-5,0-8.9-1.4-11.7-4.2c-5.7-5.7-5.5-16.7,0.6-30.7c6-13.8,17.1-29.1,31.1-43.1
			c14-14,29.3-25,43.1-31.1c14.1-6.1,25-6.4,30.7-0.6c5.7,5.7,5.5,16.7-0.6,30.7c-6,13.8-17.1,29.1-31.1,43.1s-29.3,25-43.1,31.1
			C159.6,211.7,153.2,213.3,147.9,213.3z M229.9,101.2c-14.9,0-38.9,13.5-60.8,35.4c-28.4,28.4-42.6,60.4-31.7,71.3
			c10.9,10.9,42.9-3.3,71.3-31.7s42.6-60.4,31.7-71.3C237.9,102.4,234.3,101.2,229.9,101.2z"/>
	</g>
</g>
</svg>
