<?xml version="1.0" encoding="utf-8"?>
<!-- Generator: Adobe Illustrator 23.1.0, SVG Export Plug-In . SVG Version: 6.00 Build 0)  -->
<svg version="1.1" id="Слой_1" xmlns="http://www.w3.org/2000/svg" xmlns:xlink="http://www.w3.org/1999/xlink" x="0px" y="0px"
	 viewBox="0 0 250 174" style="enable-background:new 0 0 250 174;" xml:space="preserve">
<style type="text/css">
	.st0{fill:url(#SVGID_1_);}
	.st1{fill:#FFFFFF;}
	.st2{fill:#1B82D8;}
</style>
<g id="колесо_2_4_">
	
		<linearGradient id="SVGID_1_" gradientUnits="userSpaceOnUse" x1="299.5703" y1="1244.1757" x2="415.7336" y2="1244.1757" gradientTransform="matrix(0.8897 -0.4565 -0.4565 -0.8897 308.6677 1360.6846)">
		<stop  offset="0" style="stop-color:#5CA7FD"/>
		<stop  offset="1" style="stop-color:#2185D9"/>
	</linearGradient>
	<path class="st0" d="M7.8,118.1l11.1,14.5l13.2-8.8c3.4,2.8,7.2,4.9,11.3,6.5l-1,15.9l18.1,2.4l3.1-15.6c4.3-0.5,8.5-1.6,12.6-3.4
		l10.5,11.9l14.5-11.1l-8.8-13.2c2.8-3.4,4.9-7.2,6.5-11.3l15.9,1l2.4-18.1l-15.6-3.1c-0.5-4.3-1.6-8.5-3.4-12.6l11.9-10.5
		L98.8,48.3l-13.2,8.8c-3.4-2.8-7.2-4.9-11.3-6.5l1-15.9l-18.1-2.4l-3,15.7c-4.3,0.5-8.5,1.6-12.6,3.4l-10.4-12L16.7,50.5l8.8,13.2
		c-2.8,3.4-4.9,7.2-6.5,11.3L3.1,74L0.8,92l15.6,3.1c0.5,4.3,1.6,8.5,3.4,12.6L7.8,118.1z"/>
	<circle class="st1" cx="58.9" cy="90.5" r="14.5"/>
</g>
<g id="колесо_2_3_">
	<g>
		<path class="st2" d="M136.4,173.4l-13.2-5.1l3.3-10.5c-2.1-1.5-3.9-3.3-5.5-5.3l-10.3,3.7l-5.7-13l9.7-5.1
			c-0.4-2.5-0.4-5.1-0.2-7.6l-9.9-4.6l5.1-13.2l10.5,3.3c1.5-2.1,3.3-3.9,5.3-5.5l-3.7-10.3l13-5.7l5.1,9.7c2.5-0.4,5.1-0.4,7.6-0.2
			l4.5-10l13.2,5.1l-3.3,10.5c2.1,1.5,3.9,3.3,5.5,5.3l10.3-3.7l5.7,13l-9.7,5.1c0.4,2.5,0.4,5.1,0.2,7.6l9.9,4.6l-5.1,13.2
			l-10.5-3.3c-1.5,2.1-3.3,3.9-5.3,5.5l3.7,10.3l-13,5.7l-5.1-9.7c-2.5,0.4-5.1,0.4-7.6,0.2L136.4,173.4z M125.6,167.1l9.8,3.8
			l4.5-9.6l0.7,0.1c2.8,0.4,5.7,0.3,8.5-0.2l0.7-0.1l4.9,9.4l9.6-4.2l-3.6-9.9l0.6-0.4c2.3-1.7,4.2-3.8,5.9-6.1l0.4-0.6l10.1,3.2
			l3.8-9.8l-9.6-4.5l0.1-0.7c0.4-2.8,0.3-5.7-0.2-8.5l-0.1-0.7l9.4-4.9l-4.2-9.6l-9.9,3.6l-0.4-0.6c-1.7-2.3-3.8-4.2-6.1-5.9
			l-0.6-0.4l3.2-10.1l-9.8-3.8l-4.5,9.6l-0.7-0.1c-2.8-0.4-5.7-0.3-8.5,0.2l-0.7,0.1L134,97l-9.6,4.2l3.6,9.9l-0.6,0.4
			c-2.3,1.7-4.2,3.8-5.9,6.1l-0.4,0.6L111,115l-3.8,9.8l9.6,4.5l-0.1,0.7c-0.4,2.8-0.3,5.7,0.2,8.5l0.1,0.7l-9.4,4.9l4.2,9.6
			l9.9-3.6l0.4,0.6c1.7,2.3,3.8,4.2,6.1,5.9l0.6,0.4L125.6,167.1z"/>
	</g>
	<g>
		<path class="st2" d="M144.2,144.5c-3.5,0-6.9-1.7-9-4.8c-1.6-2.4-2.2-5.3-1.6-8.1c0.6-2.8,2.2-5.3,4.6-6.9
			c2.4-1.6,5.3-2.2,8.1-1.6s5.3,2.2,6.9,4.6c3.3,4.9,2,11.7-3,15C148.4,143.9,146.3,144.5,144.2,144.5z M144.2,124.9
			c-1.7,0-3.4,0.5-4.9,1.5c-2,1.3-3.3,3.3-3.7,5.6s0,4.6,1.3,6.6l0,0c2.7,4,8.2,5.1,12.2,2.4c4-2.7,5.1-8.2,2.4-12.2
			c-1.3-2-3.3-3.3-5.6-3.7C145.4,125,144.8,124.9,144.2,124.9z"/>
	</g>
</g>
<g>
	<path class="st2" d="M176.6,65.5L110,33l66.6-32.5L243.2,33L176.6,65.5z M114.5,33l62.1,30.2L238.7,33L176.6,2.8L114.5,33z"/>
	<path class="st2" d="M176.6,79c-19.7,0-40-4.9-40-13V45.5h2V66c0,5.3,15.3,11,38,11s38-5.7,38-11l-0.5-20.5h2l0.5,20.5
		C216.6,74.2,196.2,79,176.6,79z"/>
</g>
<g>
	<g>
		<rect x="241.2" y="33" class="st2" width="2" height="50"/>
	</g>
	<g>
		<path class="st2" d="M242.2,90c-3.9,0-7-3.1-7-7s3.1-7,7-7s7,3.1,7,7S246.1,90,242.2,90z M242.2,78c-2.8,0-5,2.2-5,5s2.2,5,5,5
			s5-2.2,5-5S245,78,242.2,78z"/>
	</g>
</g>
</svg>
