<?xml version="1.0" encoding="utf-8"?>
<!-- Generator: Adobe Illustrator 23.1.0, SVG Export Plug-In . SVG Version: 6.00 Build 0)  -->
<svg version="1.1" id="Слой_1" xmlns="http://www.w3.org/2000/svg" xmlns:xlink="http://www.w3.org/1999/xlink" x="0px" y="0px"
	 viewBox="0 0 278 152" style="enable-background:new 0 0 278 152;" xml:space="preserve">
<style type="text/css">
	.st0{fill:#1B82D8;}
	.st1{fill:url(#SVGID_1_);}
</style>
<g>
	<g>
		<g>
			<rect x="123.8" y="139" class="st0" width="65" height="2"/>
		</g>
		<g>
			<rect x="170.8" y="149" class="st0" width="38" height="2"/>
		</g>
	</g>
	<g>
		<g>
			<path class="st0" d="M170.1,129H0.4V1h169.7L170.1,129L170.1,129z M2.4,127h165.7V3H2.4V127z"/>
		</g>
		<g>
			<rect x="1.4" y="15.2" class="st0" width="167.7" height="2"/>
		</g>
		<g>
			<rect x="18.5" y="47" class="st0" width="93.6" height="2"/>
		</g>
		<g>
			<rect x="18.5" y="64" class="st0" width="93.6" height="2"/>
		</g>
		<g>
			<rect x="18.5" y="81" class="st0" width="93.6" height="2"/>
		</g>
		<g>
			<rect x="18.5" y="98.1" class="st0" width="93.6" height="2"/>
		</g>
	</g>
	<linearGradient id="SVGID_1_" gradientUnits="userSpaceOnUse" x1="141.7" y1="56.05" x2="277.6" y2="56.05">
		<stop  offset="0" style="stop-color:#0F9EA8"/>
		<stop  offset="0.4412" style="stop-color:#16A7A1"/>
		<stop  offset="1" style="stop-color:#1AAD9D"/>
	</linearGradient>
	<polygon class="st1" points="201.6,68.9 159.7,27 141.7,45 183.6,86.9 199.8,103 217.7,85.1 277.6,25.2 261.4,9.1 	"/>
</g>
</svg>
