<?xml version="1.0" encoding="utf-8"?>
<!-- Generator: Adobe Illustrator 23.1.0, SVG Export Plug-In . SVG Version: 6.00 Build 0)  -->
<svg version="1.1" id="Слой_1" xmlns="http://www.w3.org/2000/svg" xmlns:xlink="http://www.w3.org/1999/xlink" x="0px" y="0px"
	 viewBox="0 0 192 164" style="enable-background:new 0 0 192 164;" xml:space="preserve">
<style type="text/css">
	.st0{fill:#1B82D8;}
	.st1{fill:url(#SVGID_1_);}
</style>
<g>
	<g>
		<path class="st0" d="M123,163.5H9.8c-5.1,0-9.3-4.2-9.3-9.3V63.9c0-5.1,4.2-9.3,9.3-9.3h26.4c5.1,0,9.3,4.2,9.3,9.3v5.3H123
			c5.1,0,9.3,4.2,9.3,9.3v75.7C132.4,159.3,128.2,163.5,123,163.5z M9.8,56.5c-4,0-7.3,3.3-7.3,7.3v90.3c0,4,3.3,7.3,7.3,7.3H123
			c4,0,7.3-3.3,7.3-7.3V78.4c0-4-3.3-7.3-7.3-7.3H43.6v-7.2c0-4-3.3-7.3-7.3-7.3L9.8,56.5L9.8,56.5z"/>
	</g>
	<g>
		<path class="st0" d="M133.4,91.1h-10.7c-4.8,0-8.8-3.9-8.8-8.8V28.2c0-7.8,6.3-14.1,14.1-14.1s14.1,6.3,14.1,14.1v54.2
			C142.1,87.2,138.2,91.1,133.4,91.1z M128,16c-6.7,0-12.1,5.4-12.1,12.1v54.2c0,3.7,3,6.8,6.8,6.8h10.7c3.7,0,6.8-3,6.8-6.8V28.2
			C140.1,21.5,134.7,16,128,16z"/>
	</g>
	<g>
		<path class="st0" d="M140.6,112.1h-25.2c-7.8,0-14.2-6.3-14.2-14.2V27.3c0-14.8,12-26.8,26.8-26.8s26.8,12,26.8,26.8V98
			C154.8,105.8,148.4,112.1,140.6,112.1z M128,2.5c-13.7,0-24.8,11.1-24.8,24.8V98c0,6.7,5.5,12.2,12.2,12.2h25.2
			c6.7,0,12.2-5.5,12.2-12.2V27.3C152.8,13.6,141.7,2.5,128,2.5z"/>
	</g>
	<linearGradient id="SVGID_1_" gradientUnits="userSpaceOnUse" x1="88.4" y1="90.9" x2="167.6" y2="90.9">
		<stop  offset="0" style="stop-color:#FFAD39"/>
		<stop  offset="0.2885" style="stop-color:#F69E54"/>
		<stop  offset="0.7557" style="stop-color:#E8887B"/>
		<stop  offset="1" style="stop-color:#E3808A"/>
	</linearGradient>
	<path class="st1" d="M157.5,130.5h-59c-5.6,0-10.1-4.6-10.1-10.1v-59c0-5.6,4.6-10.1,10.1-10.1h59c5.6,0,10.1,4.6,10.1,10.1v59
		C167.6,126,163.1,130.5,157.5,130.5z"/>
	<g>
		<path class="st0" d="M134.5,112.1h-13v-10.6c-6.3-2.6-10.5-8.8-10.5-15.7c0-9.4,7.6-17,17-17s17,7.6,17,17
			c0,6.9-4.2,13.1-10.5,15.7V112.1z M123.5,110.1h9v-10l0.7-0.2c5.9-2.2,9.9-7.8,9.9-14.1c0-8.3-6.7-15-15-15s-15,6.7-15,15
			c0,6.3,4,11.9,9.9,14.1l0.7,0.2v10H123.5z"/>
	</g>
	<g>
		<rect x="179.5" y="68.5" class="st0" width="2" height="65"/>
	</g>
	<g>
		<rect x="189.5" y="115.5" class="st0" width="2" height="38"/>
	</g>
</g>
</svg>
