<?xml version="1.0" encoding="utf-8"?>
<!-- Generator: Adobe Illustrator 23.1.0, SVG Export Plug-In . SVG Version: 6.00 Build 0)  -->
<svg version="1.1" id="Слой_1" xmlns="http://www.w3.org/2000/svg" xmlns:xlink="http://www.w3.org/1999/xlink" x="0px" y="0px"
	 viewBox="0 0 1920 1512" style="enable-background:new 0 0 1920 1512;" xml:space="preserve">
<style type="text/css">
	.st0{fill:url(#SVGID_1_);}
	.st1{fill:url(#SVGID_2_);}
	.st2{fill:url(#SVGID_3_);}

	@keyframes scaleIn {
		from {
			transform: scale(0);
		}

		to {
			transform: scale(1);
		}
	}

	.st0 {
		transform-origin: 0 50%;
		animation: scaleIn 2s ease forwards;
	}

	.st1 {
		transform-origin: 0 50%;
		transform: scale(0);
		animation: scaleIn 2s ease forwards;
		animation-delay: 1s;
	}

	.st2 {
		transform-origin: 50% 0;
		transform: scale(0);
		animation: scaleIn 2s ease forwards;
		animation-delay: 2s;
	}
</style>
<g>
	
	<linearGradient id="SVGID_1_" gradientUnits="userSpaceOnUse" x1="0" y1="758.25" x2="1920" y2="758.25" gradientTransform="matrix(1 0 0 -1 0 1514)">
		<stop  offset="0" style="stop-color:#FFAD39"/>
		<stop  offset="0.2885" style="stop-color:#F69E54"/>
		<stop  offset="0.7557" style="stop-color:#E8887B"/>
		<stop  offset="1" style="stop-color:#E3808A"/>
	</linearGradient>
	<path class="st0" d="M1920,0H0v1511.5c0.2-0.4,59.3-503.6,690-413c341,49,174.1-302.1,554-267c574,53,675-464,676-473V0z"/>
	<linearGradient id="SVGID_2_" gradientUnits="userSpaceOnUse" x1="0" y1="427.5133" x2="1920" y2="427.5133">
		<stop  offset="0" style="stop-color:#0F9EA8"/>
		<stop  offset="0.4412" style="stop-color:#16A7A1"/>
		<stop  offset="1" style="stop-color:#1AAD9D"/>
	</linearGradient>
	<path class="st1" d="M0,0v792.4c0,0,398,106.1,688,42.1c336.4-74.2,253.4-280.2,633.5-246.8C1751,625.5,1919,223.5,1920,214.5V0H0z
		"/>
	
		<linearGradient id="SVGID_3_" gradientUnits="userSpaceOnUse" x1="480.8" y1="1338.15" x2="1792" y2="1338.15" gradientTransform="matrix(1 0 0 -1 0 1514)">
		<stop  offset="0" style="stop-color:#F06C99"/>
		<stop  offset="0.2233" style="stop-color:#E260AE"/>
		<stop  offset="0.7376" style="stop-color:#C648D8"/>
		<stop  offset="1" style="stop-color:#BB3FE9"/>
	</linearGradient>
	<path class="st2" d="M480.8,0C515.5,117.6,628,351.7,974.1,351.7c206.4,0,232.9-145.1,460.5-125.1C1692,249.3,1792,0,1792,0H480.8z
		"/>
</g>
</svg>
