<?xml version="1.0" encoding="utf-8"?>
<!-- Generator: Adobe Illustrator 23.1.0, SVG Export Plug-In . SVG Version: 6.00 Build 0)  -->
<svg version="1.1" id="Слой_1" xmlns="http://www.w3.org/2000/svg" xmlns:xlink="http://www.w3.org/1999/xlink" x="0px" y="0px"
	 viewBox="0 0 235 298" style="enable-background:new 0 0 235 298;" xml:space="preserve">
<style type="text/css">
	.st0{fill:url(#SVGID_1_);}
	.st1{fill:url(#SVGID_2_);}
	.st2{fill:#FFFFFF;}
	.st3{fill:url(#SVGID_3_);}
	.st4{fill:#1B82D8;}
	.st5{fill:url(#SVGID_4_);}
	.st6{fill:url(#SVGID_5_);}
	.st7{fill:url(#SVGID_6_);}
	.st8{fill:url(#SVGID_7_);}
</style>
<g>
	
		<linearGradient id="SVGID_1_" gradientUnits="userSpaceOnUse" x1="63.4" y1="128.1" x2="181.4" y2="128.1" gradientTransform="matrix(1 0 0 -1 0 300)">
		<stop  offset="0" style="stop-color:#FFAD39"/>
		<stop  offset="0.2885" style="stop-color:#F69E54"/>
		<stop  offset="0.7557" style="stop-color:#E8887B"/>
		<stop  offset="1" style="stop-color:#E3808A"/>
	</linearGradient>
	<rect x="63.4" y="113.9" class="st0" width="118" height="116"/>
	
		<linearGradient id="SVGID_2_" gradientUnits="userSpaceOnUse" x1="63.4" y1="190.1" x2="181.4" y2="190.1" gradientTransform="matrix(1 0 0 -1 0 300)">
		<stop  offset="0" style="stop-color:#FFAD39"/>
		<stop  offset="0.2885" style="stop-color:#F69E54"/>
		<stop  offset="0.7557" style="stop-color:#E8887B"/>
		<stop  offset="1" style="stop-color:#E3808A"/>
	</linearGradient>
	<ellipse class="st1" cx="122.4" cy="109.9" rx="59" ry="19"/>
	<g>
		<path class="st2" d="M122.4,129.7c-33.5,0-59.7-8.7-59.7-19.7s26.2-19.7,59.7-19.7s59.7,8.7,59.7,19.7S155.8,129.7,122.4,129.7z
			 M122.4,91.7c-31.6,0-58.3,8.4-58.3,18.3s26.7,18.3,58.3,18.3s58.3-8.4,58.3-18.3S153.9,91.7,122.4,91.7z"/>
	</g>
	<g>
		<path class="st2" d="M122.4,159.7c-34.1,0-60.7-8.7-60.7-19.7h1.5c0,9.9,27.1,18.3,59.3,18.3s59.3-8.4,59.3-18.3h1.5
			C183.1,151,156.4,159.7,122.4,159.7z"/>
	</g>
	<g>
		<path class="st2" d="M122.4,189.7c-34.1,0-60.7-8.7-60.7-19.7h1.5c0,9.9,27.1,18.3,59.3,18.3s59.3-8.4,59.3-18.3h1.5
			C183.1,181,156.4,189.7,122.4,189.7z"/>
	</g>
	
		<linearGradient id="SVGID_3_" gradientUnits="userSpaceOnUse" x1="63.4" y1="70.1" x2="181.4" y2="70.1" gradientTransform="matrix(1 0 0 -1 0 300)">
		<stop  offset="0" style="stop-color:#FFAD39"/>
		<stop  offset="0.2885" style="stop-color:#F69E54"/>
		<stop  offset="0.7557" style="stop-color:#E8887B"/>
		<stop  offset="1" style="stop-color:#E3808A"/>
	</linearGradient>
	<ellipse class="st3" cx="122.4" cy="229.9" rx="59" ry="19"/>
	<g>
		<path class="st2" d="M122.4,219.7c-34.1,0-60.7-8.7-60.7-19.7h1.5c0,9.9,27.1,18.3,59.3,18.3s59.3-8.4,59.3-18.3h1.5
			C183.1,211,156.4,219.7,122.4,219.7z"/>
	</g>
</g>
<g>
	<path class="st4" d="M205.3,297.8h-37.8v-29.5H138v-37.8h29.5V201h37.8v29.5h29.5v37.8h-29.5V297.8z M169.3,296h34.2v-29.5H233
		v-34.2h-29.5v-29.5h-34.2v29.5h-29.5v34.2h29.5V296z"/>
</g>
<g>
	
		<linearGradient id="SVGID_4_" gradientUnits="userSpaceOnUse" x1="70.1778" y1="254.05" x2="88.8969" y2="254.05" gradientTransform="matrix(1 0 0 -1 0 300)">
		<stop  offset="0" style="stop-color:#0F9EA8"/>
		<stop  offset="1" style="stop-color:#1AAD9E"/>
	</linearGradient>
	<rect x="70.2" y="16.7" class="st5" width="18.7" height="58.5"/>
	
		<linearGradient id="SVGID_5_" gradientUnits="userSpaceOnUse" x1="-1274.6307" y1="-1661.7195" x2="-1238.7524" y2="-1661.7195" gradientTransform="matrix(0.7071 0.7071 0.7071 -0.7071 2143.4199 -260.6837)">
		<stop  offset="0" style="stop-color:#0F9EA8"/>
		<stop  offset="1" style="stop-color:#1AAD9E"/>
	</linearGradient>
	<polygon class="st6" points="54.2,25.9 80,0.2 105.4,25.5 	"/>
</g>
<g>
	
		<linearGradient id="SVGID_6_" gradientUnits="userSpaceOnUse" x1="16.1778" y1="199.05" x2="34.8969" y2="199.05" gradientTransform="matrix(1 0 0 -1 0 300)">
		<stop  offset="0" style="stop-color:#0F9EA8"/>
		<stop  offset="1" style="stop-color:#1AAD9E"/>
	</linearGradient>
	<rect x="16.2" y="71.7" class="st7" width="18.7" height="58.5"/>
	
		<linearGradient id="SVGID_7_" gradientUnits="userSpaceOnUse" x1="-1273.9236" y1="-1738.7949" x2="-1238.0453" y2="-1738.7949" gradientTransform="matrix(0.7071 0.7071 0.7071 -0.7071 2143.4199 -260.6837)">
		<stop  offset="0" style="stop-color:#0F9EA8"/>
		<stop  offset="1" style="stop-color:#1AAD9E"/>
	</linearGradient>
	<polygon class="st8" points="0.2,80.9 26,55.2 51.4,80.5 	"/>
</g>
</svg>
