<?xml version="1.0" encoding="utf-8"?>
<!-- Generator: Adobe Illustrator 23.1.0, SVG Export Plug-In . SVG Version: 6.00 Build 0)  -->
<svg version="1.1" id="Слой_1" xmlns="http://www.w3.org/2000/svg" xmlns:xlink="http://www.w3.org/1999/xlink" x="0px" y="0px"
	 viewBox="0 0 255 294" style="enable-background:new 0 0 255 294;" xml:space="preserve">
<style type="text/css">
	.st0{fill:url(#SVGID_1_);}
	.st1{fill:url(#SVGID_2_);}
	.st2{fill:url(#SVGID_3_);}
	.st3{fill:#FFFFFF;}
	.st4{fill:#1B82D8;}
	.st5{fill:url(#SVGID_4_);}
	.st6{fill:url(#SVGID_5_);}
</style>
<linearGradient id="SVGID_1_" gradientUnits="userSpaceOnUse" x1="1" y1="181" x2="140.2" y2="181" gradientTransform="matrix(1 0 0 -1 0 296)">
	<stop  offset="0" style="stop-color:#EAAA45"/>
	<stop  offset="0.1562" style="stop-color:#E4A251"/>
	<stop  offset="0.7104" style="stop-color:#D28978"/>
	<stop  offset="1" style="stop-color:#CB7F87"/>
</linearGradient>
<polygon class="st0" points="40.3,24.1 1,63.4 1,205.9 140.2,205.9 140.2,24.1 "/>
<g>
	
		<linearGradient id="SVGID_2_" gradientUnits="userSpaceOnUse" x1="1" y1="181" x2="140.2" y2="181" gradientTransform="matrix(1 0 0 -1 0 296)">
		<stop  offset="0" style="stop-color:#FFAD39"/>
		<stop  offset="0.2885" style="stop-color:#F69E54"/>
		<stop  offset="0.7557" style="stop-color:#E8887B"/>
		<stop  offset="1" style="stop-color:#E3808A"/>
	</linearGradient>
	<polygon class="st1" points="41,24.1 41,64.2 1,64.2 1,205.9 140.2,205.9 140.2,24.1 	"/>
	
		<linearGradient id="SVGID_3_" gradientUnits="userSpaceOnUse" x1="1" y1="252.2" x2="140.1909" y2="252.2" gradientTransform="matrix(1 0 0 -1 0 296)">
		<stop  offset="0" style="stop-color:#FFAD39"/>
		<stop  offset="0.2885" style="stop-color:#F69E54"/>
		<stop  offset="0.7557" style="stop-color:#E8887B"/>
		<stop  offset="1" style="stop-color:#E3808A"/>
	</linearGradient>
	<polygon class="st2" points="39.6,24.9 1.7,62.7 39.6,62.7 	"/>
	<polygon class="st3" points="41,24.1 40.3,24.1 39.6,24.9 39.6,62.7 1.7,62.7 1,63.4 1,64.2 41,64.2 	"/>
</g>
<g>
	<path class="st4" d="M213,293.6c-2.4,0-4.7-0.9-6.4-2.7l-41.1-41.1c-7.9,4.9-16.9,7.5-26.2,7.5c-27.4,0-49.7-22.3-49.7-49.7
		s22.3-49.7,49.7-49.7s49.7,22.3,49.7,49.7c0,10.9-3.5,21.2-10,29.8l40.5,40.5c1.7,1.7,2.7,4,2.7,6.4s-0.9,4.7-2.7,6.4
		C217.7,292.7,215.4,293.6,213,293.6z M165.8,247.6l0.6,0.6l41.4,41.5c1.4,1.4,3.2,2.1,5.2,2.1s3.8-0.8,5.2-2.1s2.1-3.2,2.1-5.2
		s-0.8-3.8-2.1-5.2l-41.6-41.6l0.5-0.6c6.6-8.5,10.1-18.6,10.1-29.4c0-26.4-21.5-47.8-47.8-47.8s-47.8,21.5-47.8,47.8
		c0,26.4,21.5,47.8,47.8,47.8c9.2,0,18.1-2.6,25.8-7.6L165.8,247.6z M139.3,245.2c-20.7,0-37.5-16.8-37.5-37.5s16.8-37.5,37.5-37.5
		s37.5,16.8,37.5,37.5S159.9,245.2,139.3,245.2z M139.3,172.1c-19.7,0-35.7,16-35.7,35.7s16,35.7,35.7,35.7s35.7-16,35.7-35.7
		C174.9,188.1,158.9,172.1,139.3,172.1z"/>
</g>
<linearGradient id="SVGID_4_" gradientUnits="userSpaceOnUse" x1="156" y1="181.05" x2="254" y2="181.05" gradientTransform="matrix(1 0 0 -1 0 296)">
	<stop  offset="0" style="stop-color:#0F9EA8"/>
	<stop  offset="1" style="stop-color:#1AAD9E"/>
</linearGradient>
<polygon class="st5" points="246.1,79.8 191.7,134.2 163.9,106.5 156,114.4 183.7,142.2 191.7,150.1 199.6,142.2 254,87.8 "/>
<linearGradient id="SVGID_5_" gradientUnits="userSpaceOnUse" x1="156" y1="260.45" x2="254" y2="260.45" gradientTransform="matrix(1 0 0 -1 0 296)">
	<stop  offset="0" style="stop-color:#0F9EA8"/>
	<stop  offset="1" style="stop-color:#1AAD9E"/>
</linearGradient>
<polygon class="st6" points="246.1,0.4 191.7,54.8 163.9,27 156,35 183.7,62.7 191.7,70.7 199.6,62.7 254,8.3 "/>
</svg>
