<?xml version="1.0" encoding="utf-8"?>
<!-- Generator: Adobe Illustrator 23.1.0, SVG Export Plug-In . SVG Version: 6.00 Build 0)  -->
<svg version="1.1" id="Слой_1" xmlns="http://www.w3.org/2000/svg" xmlns:xlink="http://www.w3.org/1999/xlink" x="0px" y="0px"
	 viewBox="0 0 455 838" style="enable-background:new 0 0 455 838;" xml:space="preserve">
<style type="text/css">
	.st0{fill:#F2C557;}
	.st1{fill:#FFFFFF;}
	.st2{fill:url(#SVGID_1_);}
	.st3{fill:#1B82D8;}
	.st4{fill:#E6E6E6;}
	.st5{fill:none;stroke:#4D80D3;stroke-width:2.2561;stroke-miterlimit:10;}
	.st6{fill:url(#SVGID_2_);}
	.st7{fill:#007F79;}
	.st8{fill:url(#SVGID_3_);}
	.st9{fill:url(#SVGID_4_);}
	.st10{fill:#E8E8E8;}
	.st11{fill:#1B81D5;}
	.st12{fill:#F2F2F2;}

	@keyframes rotate {
		from {
			transform: rotate(0)
		}

		to {
			transform: rotate(360deg)
		}
	}

	@keyframes float {
		from {
			transform: translateY(0)
		}

		50% {
			transform: translateY(-15px)
		}

		to {
			transform: translateY(0)
		}
	}

	#шестеренка {
		transform-origin: 55% 79%;
		animation: rotate 5s linear infinite;
	}

</style>
<g id="рука_1_">
	<path class="st0" d="M354.6,305.7l54-36.6c0,0,13-3.5,14.6-8s11.3-22.6-1.5-28c-12.7-5.4-22.8,6.3-20.2,11.1
		c2.6,4.7,9.3,1.1,2.6,4.7c-6.7,3.7-8.5,9.8-8.5,9.8L333,291.6L354.6,305.7z"/>
	<path class="st1" d="M269.8,244.3c0,0-13.1-5.2-19.6,6.9s-6.6,45.9,18.6,80.1s58.7,10.3,58.7,10.3l80.9-52.8l-19.2-32.2l-59.4,34.9
		c-9.8,5.8-22.4,2.5-28.2-7.3C292.9,269.2,279.7,249.3,269.8,244.3z"/>
	<g>
		<path class="st1" d="M428.8,287.2l-0.4-0.9c16.6-6.8,24.7-21.6,24.7-21.8l0.9,0.5C453.9,265.1,445.7,280.2,428.8,287.2z"/>
	</g>
</g>
<g id="голова">
	
		<linearGradient id="SVGID_1_" gradientUnits="userSpaceOnUse" x1="758.5942" y1="790.2153" x2="828.0853" y2="790.2153" gradientTransform="matrix(0.9936 -0.1129 -0.1129 -0.9936 -454.9557 1061.3851)">
		<stop  offset="0" style="stop-color:#0F9EA8"/>
		<stop  offset="0.4412" style="stop-color:#16A7A1"/>
		<stop  offset="1" style="stop-color:#1AAD9D"/>
	</linearGradient>
	<path class="st2" d="M246.1,182.4l-17.7,42.3c-6.9,0.8-2.2,4.2-3-2.7c0,0-11.2-9.8-15.3-28.5c-4.3-19.3,8.1-40.2,27.7-43.4
		c0.5-0.1,1-0.1,1.4-0.2l23.3-2.7c0.3,0,0.6-0.1,0.9-0.1c8.1-0.4,14.1,7.6,12.1,15.4l-1.7,6.5C274.6,176.1,253.1,181.6,246.1,182.4z
		"/>
	<path class="st0" d="M232.9,189.6c0,0-1.8-8.8-11.7-4.1c-9.8,4.8,5.3,17.6,5.3,17.6L232.9,189.6z"/>
	<path class="st0" d="M260.7,241.6l-1.7-17.2c0,0,18.4,2.8,21.1-22.6s-7.4-40.9-25.1-38.9s-31,25.2-28.8,45.8
		c2.3,20.6-7.7,27.2-7.7,27.2s-3.7,25.3,8.6,28.4C239.3,267.4,265.3,256.3,260.7,241.6z"/>
	<g>
		<circle class="st3" cx="264.4" cy="193.1" r="3.2"/>
	</g>
	<g>
		<path class="st3" d="M257.7,187.7l-1.7-1.5c3.7-4,11.7-5.7,12-5.7l0.4,2.2C268.4,182.6,260.9,184.2,257.7,187.7z"/>
	</g>
	<g>
		<polygon class="st3" points="277.3,209.8 276.9,207.6 286.3,205.5 279.7,188 281.9,187.2 289.3,207.1 		"/>
	</g>
	<g>
		<path class="st3" d="M267.8,217.6c-2.6,0-5.1-0.5-6.7-2l1.6-1.6c2.6,2.5,10.4,0.9,13.1,0.1l0.6,2.2
			C275.7,216.5,271.8,217.6,267.8,217.6z"/>
	</g>
</g>
<g id="нога_2">
	<g>
		<path class="st4" d="M267.1,572.4L258,622l112,8.3c0,0,12.1-12.6-21.4-28.5c-8.9-4.2-33.5-12.3-34.7-21.2l0,0L267.1,572.4z"/>
		<line class="st5" x1="363.9" y1="619.1" x2="265.6" y2="612.1"/>
		<polyline class="st5" points="313.8,589.7 333.1,586.9 325.3,598.4 		"/>
	</g>
	
		<linearGradient id="SVGID_2_" gradientUnits="userSpaceOnUse" x1="6369.271" y1="6738.3125" x2="6437.0513" y2="6738.3125" gradientTransform="matrix(0.9289 -0.3703 -0.3703 -0.9289 -3147.7649 9263.0215)">
		<stop  offset="0" style="stop-color:#F06C99"/>
		<stop  offset="0.2233" style="stop-color:#E260AE"/>
		<stop  offset="0.7376" style="stop-color:#C648D8"/>
		<stop  offset="1" style="stop-color:#BB3FE9"/>
	</linearGradient>
	<path class="st6" d="M333.4,642l-56.9-2.9c-4.4-0.2-7.8-4-7.6-8.4l0,0c0.2-4.4,4-7.8,8.4-7.6l56.9,2.9c4.4,0.2,7.8,4,7.6,8.4l0,0
		C341.5,638.8,337.8,642.2,333.4,642z"/>
	<path class="st7" d="M352.4,409.3c-37.9-14.6-106.1,7.8-106.1,7.8l-64,6.1c-6,44.9,18.8,65.9,72.6,50.6c19.8-5.7,35.2-8.5,46.8-9.9
		c-12.3,25.1-37.7,79.8-38,104.3c-0.2,13.1,54.2,15.1,54.2,15.1s59-132.9,40.9-167.9C357.7,413.4,356.5,411.5,352.4,409.3z"/>
</g>
<g id="шестеренка">
	<g>
		<path class="st3" d="M265.9,837.8l-55.4-3.5l-0.2-46.8c-11.8-3.7-22.9-9.2-33-16.2l-37,28.5l-36.7-41.6l32.9-33.2
			c-5.7-11-9.7-22.6-11.9-34.8l-46.4-6l3.5-55.4l46.7-0.2c3.7-11.8,9.2-22.9,16.2-33l-28.5-37l41.6-36.7l33.2,32.9
			c11-5.7,22.6-9.7,34.8-11.9l6-46.4l55.4,3.5l0.2,46.8c11.8,3.7,22.9,9.2,33,16.2l37-28.5l36.7,41.6l-32.9,33.2
			c5.7,11,9.7,22.6,11.9,34.8l46.4,6l-3.5,55.4l-46.8,0.2c-3.7,11.8-9.2,22.9-16.2,33l28.5,37l-41.6,36.7l-33.2-32.9
			c-11,5.7-22.6,9.7-34.8,11.9L265.9,837.8z M212.7,832.2l51.2,3.2l5.9-45.9l0.8-0.1c12.5-2.2,24.5-6.3,35.7-12.2l0.7-0.4l32.8,32.6
			l38.5-33.9L350,738.8l0.5-0.7c7.2-10.4,12.8-21.8,16.6-33.9l0.2-0.8l46.3-0.2l3.2-51.2l-45.9-5.9l-0.1-0.8
			c-2.2-12.5-6.3-24.5-12.2-35.7l-0.4-0.7l32.6-32.8L357,537.6l-36.7,28.3l-0.7-0.5c-10.4-7.2-21.8-12.8-33.9-16.6l-0.8-0.2
			l-0.2-46.3l-51.2-3.2l-5.9,45.9l-0.8,0.1c-12.5,2.2-24.5,6.3-35.7,12.2l-0.7,0.4l-32.8-32.6L119.1,559l28.3,36.7l-0.5,0.7
			c-7.2,10.4-12.8,21.8-16.6,33.9l-0.2,0.8l-46.3,0.2l-3.2,51.2l45.9,5.9l0.1,0.8c2.2,12.5,6.3,24.5,12.2,35.7l0.4,0.7l-32.6,32.8
			l33.9,38.5l36.7-28.3l0.7,0.5c10.4,7.2,21.8,12.8,33.9,16.6l0.8,0.2L212.7,832.2z"/>
	</g>
</g>
<g id="велосипед">
	<path class="st3" d="M270.1,493.6l-70.3,14c-8.4,0.9-15.8-3.6-16.6-10.2l-1.1-9.9c-0.7-6.6,5.5-12.7,13.8-13.7l70.9-8.1
		c8.4-0.9,15.8,3.6,16.6,10.2l1.1,9.9C285.4,492.5,278.5,492.7,270.1,493.6z"/>
	<circle class="st3" cx="248.5" cy="663" r="42.4"/>
	<g>
		
			<rect x="228.4" y="486.7" transform="matrix(0.9936 -0.1129 0.1129 0.9936 -63.4146 30.5954)" class="st3" width="20" height="177"/>
	</g>
</g>
<g id="нога">
	
		<linearGradient id="SVGID_3_" gradientUnits="userSpaceOnUse" x1="-443.6028" y1="2053.1431" x2="-375.7865" y2="2053.1431" gradientTransform="matrix(0.9761 0.2174 0.2174 -0.9761 135.7 2820.439)">
		<stop  offset="0" style="stop-color:#F06C99"/>
		<stop  offset="0.2233" style="stop-color:#E260AE"/>
		<stop  offset="0.7376" style="stop-color:#C648D8"/>
		<stop  offset="1" style="stop-color:#BB3FE9"/>
	</linearGradient>
	<path class="st8" d="M200,750.9l-45.4-34.5c-3.5-2.7-4.2-7.7-1.5-11.2l0,0c2.7-3.5,7.7-4.2,11.2-1.5l45.4,34.5
		c3.5,2.7,4.2,7.7,1.5,11.2l0,0C208.6,752.9,203.5,753.6,200,750.9z"/>
	<g>
		<g>
			<path class="st4" d="M180.9,652.8l-35.3,35.9l88.1,69.6c0,0,17-3.7-1.8-35.6c-5-8.5-20.8-29-16.9-37l0,0L180.9,652.8z"/>
			<polyline class="st5" points="204,693 223.1,696.7 212,705 			"/>
		</g>
		
			<linearGradient id="SVGID_4_" gradientUnits="userSpaceOnUse" x1="-490.5124" y1="2243.7769" x2="-340.5005" y2="2243.7769" gradientTransform="matrix(0.9761 0.2174 0.2174 -0.9761 135.7 2820.439)">
			<stop  offset="0" style="stop-color:#0F9EA8"/>
			<stop  offset="0.4412" style="stop-color:#16A7A1"/>
			<stop  offset="1" style="stop-color:#1AAD9D"/>
		</linearGradient>
		<path class="st9" d="M293.6,534.5c-0.2-1.7-0.6-3.2-1.2-4.6c-9.3-34-27.3-67.4-26.9-72.7c0.4-5.7,3-52.5,3-52.5l-60.4-14.2
			c-43.2,13.4-64,58.7-15.5,87.1c5.1,3,28.6,43,37.3,58.1c0.4,0,0.7,0.1,1.1,0.1c-0.2,0.1-0.5,0.2-0.7,0.3
			c3.5,2.2,5.9,19.6,5.9,19.6s-60.9,73.8-68.2,105.4c-2.9,12.8,49.8,26.1,49.8,26.1s72.6-99.9,75.9-145.3
			C294.2,542,294.1,536.3,293.6,534.5z"/>
	</g>
	<line class="st5" x1="234.3" y1="743.5" x2="155" y2="684.9"/>
</g>
<g id="тело">
	<path class="st10" d="M284.1,312.1h0.4c0,0-6.5-58.2-24.6-78c0,0,0.6,15.8-16.1,15.1c-16.7-0.8-25.1-13.4-25.1-13.4
		s-21.4,3.3-26.4,14.6C181,275.4,161.6,379,163,421.6c62.4,22,127.8-14.8,127.8-14.8S288.4,326.2,284.1,312.1z"/>
	<g>
		<path class="st3" d="M269.4,405l-2.3-0.1c1.1-23.5-20.2-150.8-20.4-152.1l2.2-0.4C249.9,257.7,270.5,381.2,269.4,405z"/>
	</g>
	<g>
		<path class="st3" d="M248.1,316.2c-2.4,0-4.3-1.9-4.3-4.3c0-2.4,1.9-4.3,4.3-4.3c2.4,0,4.3,1.9,4.3,4.3
			C252.4,314.3,250.5,316.2,248.1,316.2z M248.1,309.8c-1.1,0-2.1,0.9-2.1,2.1c0,1.1,0.9,2.1,2.1,2.1c1.1,0,2.1-0.9,2.1-2.1
			C250.2,310.8,249.2,309.8,248.1,309.8z"/>
	</g>
	<g>
		<path class="st3" d="M253.6,363c-2.4,0-4.3-1.9-4.3-4.3c0-2.4,1.9-4.3,4.3-4.3c2.4,0,4.3,1.9,4.3,4.3
			C257.9,361.1,256,363,253.6,363z M253.6,356.6c-1.1,0-2.1,0.9-2.1,2.1c0,1.1,0.9,2.1,2.1,2.1c1.1,0,2.1-0.9,2.1-2.1
			C255.7,357.6,254.7,356.6,253.6,356.6z"/>
	</g>
	<g>
		<polygon class="st3" points="276.5,266.2 253,254.1 254,252.1 272.5,261.6 261.9,231.7 264.1,230.9 		"/>
	</g>
	<g>
		<polygon class="st3" points="230.8,271.1 218.6,240.1 220.8,239.3 231.6,267.1 243.4,255.8 245,257.4 		"/>
	</g>
</g>
<circle id="шар_3" class="st11" cx="380.9" cy="200.2" r="25"/>
<circle id="шар_2" class="st11" cx="250.9" cy="25.2" r="25"/>
<circle id="шар_1" class="st11" cx="81.9" cy="146.2" r="25"/>
<g id="рука">
	<g>
		<path class="st0" d="M106.3,306.5l-57.8-74.3L37,227.7c-4.2-1.6-7.5-5.1-8.9-9.4l-1.9-6c-1.7-5.4-0.6-11.3,2.9-15.7l12.6-15.5
			c0,0,5-2.8,4.9,4.1c-0.1,6.9-10.2,18.3-10.2,18.3l8.8,1.7c5.4,1.1,10.2,4.3,13.3,8.9c1.4,2.2,2.9,4.8,4.3,7.9
			c10.4,8,56.8,56.5,56.8,56.5"/>
		<path class="st12" d="M198.6,242.8c0,0,13.9-2.5,17.9,10.6c4,13.1-2.3,46.3-33.7,75s-59.6-1.2-59.6-1.2L54,259.7l25-27.9
			l51.6,45.7c8.5,7.5,21.5,6.8,29.1-1.7C171.2,262.8,187.9,245.8,198.6,242.8z"/>
		<g>
			
				<rect x="64.2" y="255.2" transform="matrix(0.6532 -0.7571 0.7571 0.6532 -166.1079 149.8983)" class="st3" width="32.8" height="2.3"/>
		</g>
		<g>
			<path class="st3" d="M79.1,249.1c-2.4,0-4.3-1.9-4.3-4.3c0-2.4,1.9-4.3,4.3-4.3c2.4,0,4.3,1.9,4.3,4.3
				C83.4,247.2,81.5,249.1,79.1,249.1z M79.1,242.7c-1.1,0-2.1,0.9-2.1,2.1c0,1.1,0.9,2.1,2.1,2.1c1.1,0,2.1-0.9,2.1-2.1
				C81.2,243.7,80.2,242.7,79.1,242.7z"/>
		</g>
	</g>
	<g>
		<path class="st1" d="M15.6,241.4c-0.1-0.1-8.7-15-5.9-33.1l1,0.2c-2.8,17.8,5.7,32.3,5.8,32.5L15.6,241.4z"/>
	</g>
	<g>
		<path class="st1" d="M1.4,219.2c0-0.1-1.8-10.8,2.1-23.1l1,0.3c-3.8,12-2.1,22.5-2.1,22.6L1.4,219.2z"/>
	</g>
</g>
</svg>
