<svg width="431" height="636" viewBox="0 0 431 636" fill="none" xmlns="http://www.w3.org/2000/svg">
<style>
    @keyframes rotate {
        from {
            transform: rotate(0);
        }

        to {
            transform: rotate(360deg);
        }
    }
    #minuteArrow {
        transform-origin: 55.8% 86.9%;		
        animation: rotate 3s linear infinite;
    }

    #hoursArrow {
        transform-origin: 55.8% 86.9%;		
        animation: rotate 15s linear infinite;
    }
</style>
<path d="M392.9 589.7L398.1 635.4L295.7 636C295.7 636 285.5 623.8 317 611.4C325.4 608.1 348.3 602.3 349.9 594.3L392.9 589.7Z" fill="#E6E6E6"/>
<path d="M336.3 595.6L340.3 610.1L342.3 609.6L339.5 599.6L353.3 606.6L354.2 604.8L336.3 595.6Z" fill="#1B82D8"/>
<path d="M394.8 623.889L299.686 627.857L299.773 629.955L394.887 625.987L394.8 623.889Z" fill="#1B82D8"/>
<path d="M341.2 304.9L335.1 317.8C334 320.2 333.1 322.7 332.5 325.2C328.9 340 320.6 393.8 321.1 432.5C321.1 433 316.5 597.1 316.4 600.4C316.4 600.5 316.4 600.5 316.5 600.5C319.5 600.7 399.5 606 400 600.8C402.8 573.3 381.9 451.7 382.4 451.6C381.9 447.7 395.1 362.4 401 354.3C405.5 348.1 409 342 411.5 335.9C430.8 290.1 362.6 260 341.2 304.9Z" fill="#135E91"/>
<path d="M238.6 636C284.992 636 322.6 598.392 322.6 552C322.6 505.608 284.992 468 238.6 468C192.208 468 154.6 505.608 154.6 552C154.6 598.392 192.208 636 238.6 636Z" fill="url(#paint0_linear_0_1)"/>
<path d="M238.376 558.915C235.643 557.656 234.416 554.351 235.651 551.573L265.62 483.823C266.856 481.036 270.097 479.786 272.821 481.045C275.555 482.305 276.781 485.61 275.546 488.388L245.577 556.137C244.35 558.915 241.109 560.165 238.376 558.915Z" stroke="white" stroke-width="1.3044" stroke-miterlimit="10" id="minuteArrow"/>
<path d="M235.695 555.869C234.635 553.011 236.063 549.795 238.866 548.715L288.24 529.671C291.043 528.591 294.197 530.047 295.257 532.905C296.317 535.763 294.889 538.979 292.085 540.059L242.721 559.094C239.918 560.174 236.755 558.718 235.695 555.869Z" stroke="white" stroke-width="1.3044" stroke-miterlimit="10" id="hoursArrow"/>
<path d="M246.777 539.916C254.407 543.427 257.797 552.573 254.355 560.344C250.912 568.124 241.941 571.581 234.32 568.07C226.698 564.569 223.299 555.414 226.742 547.643C230.185 539.863 239.155 536.406 246.777 539.916Z" stroke="white" stroke-width="1.3044" stroke-miterlimit="10"/>
<path d="M287.3 460.4L291.7 502.6L189.3 505.7C189.3 505.7 178.8 493.7 210 480.6C218.3 477.1 241.1 470.7 242.5 462.7L287.3 460.4Z" fill="white"/>
<path d="M228.9 464.3L233.2 478.7L235.2 478.1L232.2 468.2L246.1 474.9L247 473L228.9 464.3Z" fill="#1B82D8"/>
<path d="M288.138 493.994L192.086 496.983L192.151 499.082L288.203 496.093L288.138 493.994Z" fill="#1B82D8"/>
<path d="M415.8 300.6C419.2 320.6 430 321.5 408.4 345.8C389.4 367.1 345.3 353.7 345 353.7C326.4 357.2 269.7 346.2 269.7 346.2C269.7 346.2 294.7 449.7 292.2 473.7C291.8 477.8 222.7 473.6 208 463.8C205.9 462.4 206.8 299.9 243.6 290.4C280.4 280.9 349.9 285.5 355 282.9C394.9 262.3 405.2 258.2 405.2 258.2L415.8 300.6Z" fill="url(#paint1_linear_0_1)"/>
<path d="M261.2 320.7C270.9 335.6 269.2 345.9 269.2 346L270.5 346.2C270.6 345.8 272.3 335.3 262.3 319.9L261.2 320.7Z" fill="black"/>
<path d="M305.4 229.2L240.3 233.3C240.3 233.3 227.3 229.7 223.6 232.8C219.9 235.9 202.4 246.6 210.7 257.7C218.9 268.8 233.5 263.8 233.7 258.4C233.9 253 226.2 252.8 233.9 253C241.6 253.2 246.2 248.9 246.2 248.9L317 252.4L305.4 229.2Z" fill="#F2C557"/>

<path d="M332.8 147C332.8 147 339.7 134.7 352.3 140C365 145.3 386.5 171.3 388.7 213.7C390.8 256.2 349.8 258.9 349.8 258.9L253.7 269.3L248.1 232.3L316.2 221.6C327.4 219.8 335.1 209.3 333.4 198.1C330.7 180.8 328.3 157.1 332.8 147Z" fill="#E8E8E8"/>
<path d="M266.554 230.248L264.287 230.633L269.764 262.872L272.032 262.487L266.554 230.248Z" fill="#4D80D3"/>
<path d="M254.2 241.8C253.4 239.6 254.7 237.1 256.9 236.4C259.1 235.6 261.6 236.9 262.3 239.1C262.7 240.2 262.6 241.3 262.1 242.4C261.6 243.4 260.7 244.2 259.6 244.6C259.5 244.6 259.3 244.7 259.2 244.7C257.1 245.1 254.9 243.9 254.2 241.8ZM257.6 238.5C257.1 238.7 256.7 239 256.4 239.5C256.2 240 256.1 240.5 256.3 241.1C256.7 242.2 257.8 242.7 258.9 242.4C259.4 242.2 259.8 241.9 260.1 241.4C260.3 240.9 260.4 240.4 260.2 239.8C260 239.3 259.7 238.9 259.2 238.6C258.8 238.4 258.3 238.3 257.8 238.4C257.7 238.4 257.7 238.5 257.6 238.5Z" fill="#4D80D3"/>
<path d="M340.3 135.8L343.8 118.9C343.8 118.9 325.2 119.8 325.2 94.3C325.1 68.8 336.7 54.3 354.1 58.2C371.5 62 382.4 86.5 378 106.7C373.7 126.9 382.9 134.5 382.9 134.5C382.9 134.5 384 160.1 371.5 161.9C358.9 163.6 334.1 149.9 340.3 135.8Z" fill="#F2C557"/>
<path d="M341.5 90.3C343.267 90.3 344.7 88.8673 344.7 87.1C344.7 85.3327 343.267 83.9 341.5 83.9C339.733 83.9 338.3 85.3327 338.3 87.1C338.3 88.8673 339.733 90.3 341.5 90.3Z" fill="#1B82D8"/>
<path d="M338.5 76.3C338.6 76.3 345.9 78.6 348.7 82.4L350.5 81.1C347.3 76.8 339.5 74.3 339.2 74.2L338.5 76.3Z" fill="#1B82D8"/>
<path d="M315.3 98.5L326.9 102.4L327.6 100.3L318.5 97.2L326.8 80.5L324.7 79.5L315.3 98.5Z" fill="#1B82D8"/>
<path d="M327.2 109C328.3 109.4 338 113.3 342.5 110L341.2 108.2C338.3 110.4 330.8 108.1 328.1 107L327.2 109Z" fill="#1B82D8"/>
<path d="M367.9 101.9C366.3 98.7 364.8 94.8 364.5 90.6C364.5 90.4 364.5 90.1 364.4 89.9C366.8 93.6 368.7 98.6 369.6 105.5C368.8 104.3 368.2 103.1 367.9 101.9Z" fill="url(#paint2_linear_0_1)"/>
<path d="M364 90.2C364 90.2 368.1 82.2 376.3 89.4C384.5 96.6 366.5 105 366.5 105L364 90.2Z" fill="#E5C35F"/>
<path d="M368.1 79.7C368.7 91.2 372.3 109.1 377.4 115.1C390.1 129.9 417.3 115.9 419.1 98.5C419.1 98.5 399.2 107 397.2 79.3C396.6 71.7 377.3 39.5 357.3 45.3C356.8 45.4 355.5 45.5 355.9 45.7C370.3 51.7 367.9 75.2 368.1 79.7Z" fill="#7D2B7F"/>
<path d="M341.8 128.3C341.8 128.3 339.6 144 356.2 144.9C372.9 145.8 382.6 134.2 382.6 134.2C382.6 134.2 402.1 140.3 407.4 151.4C411.4 159.9 409.6 194.5 408.5 210.6C414.2 229.3 427.9 277.7 429.2 311.4C368.5 337.6 303.9 296.5 303.9 296.5L309.8 211.2C310.5 201.3 312.3 191.5 315.1 182C320.6 163.8 329.9 139 341.8 128.3Z" fill="#DDDDDD"/>
<path d="M329.8 302.6L332 302.3C329.4 280.2 340.4 164.1 341.7 151L339.5 150.8C338.2 163.9 327.2 280.2 329.8 302.6Z" fill="#1B82D8"/>
<path d="M347.2 180.9C346.4 180 346.1 178.9 346.1 177.8C346.2 176.7 346.7 175.6 347.5 174.8C348.4 174 349.5 173.7 350.6 173.7C351.7 173.8 352.8 174.3 353.6 175.1C354.4 176 354.7 177.1 354.7 178.2C354.6 179.3 354.1 180.4 353.3 181.2C352.4 182 351.3 182.3 350.2 182.3C349.2 182.2 348.3 181.9 347.6 181.3C347.4 181.1 347.3 181 347.2 180.9ZM352.4 178.1C352.4 177.6 352.2 177 351.9 176.6C351.5 176.2 351 176 350.5 175.9C350 175.9 349.4 176.1 349 176.4C348.6 176.8 348.4 177.3 348.3 177.8C348.3 178.3 348.5 178.9 348.8 179.3C349.2 179.7 349.7 179.9 350.2 180C350.7 180 351.3 179.8 351.7 179.5C352.1 179.2 352.4 178.7 352.4 178.1Z" fill="#1B82D8"/>
<path d="M322 158.6L346.6 149L345.8 146.9L326.4 154.4L340 125.7L337.9 124.8L322 158.6Z" fill="#1B82D8"/>
<path d="M367 168.1L382.2 138.6L380.2 137.6L366.6 164.1L356 151.6L354.3 153.1L367 168.1Z" fill="#1B82D8"/>
<path d="M354.1 256.8C354.2 255.7 354.6 254.7 355.5 254C356.3 253.3 357.4 252.9 358.5 253C359.6 253.1 360.6 253.5 361.3 254.4C362 255.2 362.4 256.3 362.3 257.4C362.2 259.7 360.2 261.4 358 261.3C357.1 261.2 356.2 260.9 355.5 260.3C354.5 259.3 354 258.1 354.1 256.8ZM358.2 255.1C357.7 255.1 357.2 255.2 356.8 255.6C356.4 256 356.2 256.4 356.2 256.9C356.1 258 357 258.9 358 258.9C359.1 259 360 258.1 360 257.1C360 256.6 359.9 256.1 359.5 255.7C359.4 255.6 359.4 255.6 359.3 255.5C359.1 255.2 358.7 255.1 358.2 255.1Z" fill="#1B82D8"/>
<path d="M325.7 66.6L358.2 75.4C358.2 75.4 360.5 65.6 365.3 64.1C367.5 63.4 364.8 76.7 364.3 79.2C358.6 105.2 365.2 112.3 370.1 119.6C382.3 137.7 415.5 139.6 418.3 113C418.3 113 391 121.6 397.1 79.3C399 65.9 393.8 48.7 380.6 42.9C373.3 39.7 364.8 38.3 356.6 39.7C356.1 39.8 355.5 39.9 355 40C344.3 42.3 331.2 48.7 325.7 66.6Z" fill="url(#paint3_linear_0_1)"/>
<path d="M332.2 291.4L223.9 193.8C239 172.2 247.3 145.6 245.8 117.3C242.3 49.8 184.6 -2.19999 117.1 1.30001C49.6 4.80001 -2.39999 62.5 1.10001 130C4.60001 197.5 62.3 249.5 129.8 246C154.1 244.7 176.5 236.4 194.9 223.1C195 223.2 195.1 223.4 195.3 223.5L304.6 322C313 329.6 326.1 328.9 333.7 320.5C341.3 312 340.6 298.9 332.2 291.4ZM31.7 128.4C29.1 77.8 68.1 34.5 118.7 31.9C169.3 29.3 212.6 68.3 215.2 118.9C217.8 169.5 178.8 212.8 128.2 215.4C77.6 218 34.3 179 31.7 128.4Z" fill="#7D2B7F"/>
<path d="M342.2 290.8L233.9 193.2C249 171.6 257.3 145 255.8 116.7C252.3 49.2 194.6 -2.8 127.1 0.700004C59.6 4.2 7.60001 61.9 11.1 129.4C14.6 196.9 72.3 248.9 139.8 245.4C164.1 244.1 186.5 235.8 204.9 222.5C205 222.6 205.1 222.8 205.3 222.9L314.6 321.4C323 329 336.1 328.3 343.7 319.9C351.3 311.5 350.6 298.4 342.2 290.8ZM41.7 127.8C39.1 77.2 78.1 33.9 128.7 31.3C179.3 28.7 222.6 67.7 225.2 118.3C227.8 168.9 188.8 212.2 138.2 214.8C87.6 217.4 44.3 178.5 41.7 127.8Z" fill="url(#paint4_linear_0_1)"/>
<path d="M231.7 215.4C231.8 215.2 232 214.9 232.3 214.8L248.7 204.1C252.8 201.4 266.8 201.1 266.8 201.1C271.6 199.6 276.8 200.4 281 203.3L290.2 209.5C290.5 209.7 290.7 209.8 291 209.8L381.8 214.9C383 215 383.8 216.3 383.2 217.4L369.8 241C369.5 241.6 368.8 241.9 368.1 241.8C359.4 240.4 303.1 231.3 290.8 227.5C290.5 227.4 290.3 227.4 290 227.5C286.8 228.1 283.9 228.3 281.5 228.4C276 228.5 270.6 226.4 266.6 222.5L260.3 216.4C260.2 216.3 260.2 216.3 260.1 216.2L254.8 212.3C254.8 212.3 242 221.1 235.5 220.5C229.8 219.8 231 216.5 231.7 215.4Z" fill="#F2C557"/>
<path d="M381.9 164.3C381.8 153.6 398.2 140.3 406.5 147C421.6 159.2 434.5 186.5 430.1 212.8C423 254.7 388.3 254.9 388.3 254.9L292.2 244.4L294.8 207L363.5 211.3C374.6 212 384.6 203.5 385.4 192.3C385.8 184.5 381.9 171.4 381.9 164.3Z" fill="#F2F2F2"/>
<path d="M311.782 211.405L309.372 239.902L311.564 240.087L313.974 211.59L311.782 211.405Z" fill="#1B82D8"/>
<defs>
<linearGradient id="paint0_linear_0_1" x1="154.6" y1="552" x2="322.6" y2="552" gradientUnits="userSpaceOnUse">
<stop stop-color="#F06C99"/>
<stop offset="0.2233" stop-color="#E260AE"/>
<stop offset="0.7376" stop-color="#C648D8"/>
<stop offset="1" stop-color="#BB3FE9"/>
</linearGradient>
<linearGradient id="paint1_linear_0_1" x1="207.349" y1="366.731" x2="421.517" y2="366.731" gradientUnits="userSpaceOnUse">
<stop stop-color="#5CA7FD"/>
<stop offset="1" stop-color="#2185D9"/>
</linearGradient>
<linearGradient id="paint2_linear_0_1" x1="434.047" y1="156.155" x2="323.918" y2="60.1384" gradientUnits="userSpaceOnUse">
<stop stop-color="#5A9CA5"/>
<stop offset="1" stop-color="#64AA9C"/>
</linearGradient>
<linearGradient id="paint3_linear_0_1" x1="325.7" y1="86.1336" x2="418.3" y2="86.1336" gradientUnits="userSpaceOnUse">
<stop stop-color="#F06C99"/>
<stop offset="0.2233" stop-color="#E260AE"/>
<stop offset="0.7376" stop-color="#C648D8"/>
<stop offset="1" stop-color="#BB3FE9"/>
</linearGradient>
<linearGradient id="paint4_linear_0_1" x1="46.5132" y1="234.543" x2="282.495" y2="138.575" gradientUnits="userSpaceOnUse">
<stop stop-color="#F06C99"/>
<stop offset="0.2233" stop-color="#E260AE"/>
<stop offset="0.7376" stop-color="#C648D8"/>
<stop offset="1" stop-color="#BB3FE9"/>
</linearGradient>
<clipPath id="clip0_0_1">
<rect width="73" height="92" fill="white" transform="translate(224 479)"/>
</clipPath>
</defs>
</svg>
