<?xml version="1.0" encoding="utf-8"?>
<!-- Generator: Adobe Illustrator 23.1.0, SVG Export Plug-In . SVG Version: 6.00 Build 0)  -->
<svg version="1.1" id="Слой_1" xmlns="http://www.w3.org/2000/svg" xmlns:xlink="http://www.w3.org/1999/xlink" x="0px" y="0px"
	 viewBox="0 0 1922 1600" style="enable-background:new 0 0 1922 1600;" xml:space="preserve">
<style type="text/css">
	.st0{fill:url(#SVGID_1_);}
</style>
<linearGradient id="SVGID_1_" gradientUnits="userSpaceOnUse" x1="0.4124" y1="799.9683" x2="1921.5" y2="799.9683" gradientTransform="matrix(1 0 0 -1 0 1600)">
	<stop  offset="0" style="stop-color:#F06C99"/>
	<stop  offset="0.2233" style="stop-color:#E260AE"/>
	<stop  offset="0.7376" style="stop-color:#C648D8"/>
	<stop  offset="1" style="stop-color:#BB3FE9"/>
</linearGradient>
<path class="st0" d="M0.5,0.5c35.3,67.6,158,128,218.5,178.5c77.7,64.8,127.9,154,139,251.4l9.1,80.3
	c6.4,56.4,23.2,110.5,48.9,160.4c70.8,137.6,204.4,232,357.5,254.9l83.4,12.5c194.3,29.2,441.3,14.8,560.8,170.8
	c214.2,279.8,500.5,238.6,503.8,238.5v123.8c-197.6,52.7-330.9,152.1-513.6,122.6c-129.1-20.9-230.1-73.8-300.7-123.8
	c-180.6-127.9-405.2-178.5-622.4-136.5c-11.5,2.2-22.9,4.6-34.3,7.3l0,0c-111.1,25.5-228.1,2.3-320.4-64.6
	C67.2,1230.9-2.4,1174.2,0.5,1117.2V0.5z"/>
</svg>
