<?xml version="1.0" encoding="utf-8"?>
<!-- Generator: Adobe Illustrator 23.1.0, SVG Export Plug-In . SVG Version: 6.00 Build 0)  -->
<svg version="1.1" id="Слой_1" xmlns="http://www.w3.org/2000/svg" xmlns:xlink="http://www.w3.org/1999/xlink" x="0px" y="0px"
	 viewBox="0 0 950 1370" style="enable-background:new 0 0 950 1370;" xml:space="preserve">
<style type="text/css">
	.st0{fill:url(#фон_1_);}
	.st1{fill:#F2C557;}
	.st2{fill:#F1F1F1;}
	.st3{fill:#1B82D8;}
	.st4{fill:url(#SVGID_1_);}
	.st5{fill:#FFFFFF;}
	.st6{fill:url(#стрела_1_);}
	.st7{fill:#E6E6E6;}
	.st8{fill:#4D80D3;}
	.st9{fill:#7D2B7F;}
	.st10{fill:url(#дым_1_);}
	.st11{fill:url(#ранец_ч2_1_);}
	.st12{fill:url(#SVGID_2_);}
	.st13{fill:url(#SVGID_3_);}
	.st14{fill:#007F79;}
	.st15{fill:url(#SVGID_4_);}
	.st16{fill:url(#SVGID_5_);}
	.st17{fill:#E5C35F;}
	.st18{fill:url(#SVGID_6_);}
	.st19{fill:url(#SVGID_7_);}
	.st20{fill:url(#SVGID_8_);}

	@keyframes rotate {
		from {
			transform: rotate(0)
		}

		to {
			transform: rotate(360deg)
		}
	}

	@keyframes float {
		from {
			transform: transateY(0)
		}

		50% {
			transform: translateY(-15px)
		}

		to {
			transform: transateY(0)
		}
	}

	#мишень {
		transform-origin: 70% 38%;
		animation: rotate 5s linear infinite;
	}

	#персонаж, #нога_2, #нога_1, #рука_33_, #рука_2 {
		animation: float 2s ease infinite;
	}

	#шестеренка_2 {
		transform-origin: 40% 83%;
		animation: rotate 5s linear infinite;
	}

	#шестеренка_1 {
		transform-origin: 72% 69%;
		animation: rotate 5s linear infinite;
	}
</style>
<linearGradient id="фон_1_" gradientUnits="userSpaceOnUse" x1="6546.4307" y1="1369.1" x2="6546.4307" y2="2" gradientTransform="matrix(-1 0 0 -1 6871.8931 1372)">
	<stop  offset="0" style="stop-color:#0F9EA8"/>
	<stop  offset="1" style="stop-color:#1AAD9E"/>
</linearGradient>
<path id="фон" class="st0" d="M0,2.9C0,2.9-0.7,81,36.3,199c45.3,144.4,152,286,296,321.9C409.2,540,647,494,650.9,750.9
	c2.7,176.5-210,149.3-241.9,301.1C345,1357-0.3,1370,0,1370V2.9z"/>
<g id="рука_2">
	<path class="st1" d="M466.9,422c-0.3,0-0.6,0.2-0.8,0.3l-16.8,12.4c-4.2,3.1-9.8,16.9-9.8,16.9c-3.3,4.3-4.4,9.8-3.2,15l2.8,11.5
		c0.1,0.3,0.1,0.6,0,0.9l-28.9,92.7c-0.4,1.3,0.7,2.5,2,2.3l28.6-4.5c0.7-0.1,1.3-0.7,1.5-1.4c1.9-9.2,13.8-68.9,14.6-82.6
		c0-0.3,0.1-0.6,0.3-0.8c1.8-3,3.1-5.8,4.1-8.2c2.2-5.5,2.1-11.6-0.3-17l-3.8-8.6c0-0.1-0.1-0.2-0.1-0.2l-1.9-6.7
		c0,0,13.6-9.5,15.5-16.2C472,421.8,468.3,421.8,466.9,422z"/>
	<path class="st2" d="M359.6,553c-10.6-4.1-30.1,7.3-26.5,18.1c6.6,19.7,29,42.8,56.9,48.2c44.5,8.6,57.7-26,57.7-26l25.4-99.9
		L434.8,482l-21.5,70.3c-3.5,11.4-15.7,18.2-27.1,14.7C378.3,564.5,366.7,555.7,359.6,553z"/>
	<g>
		
			<rect x="446" y="490.6" transform="matrix(0.2707 -0.9627 0.9627 0.2707 -160.8731 799.4464)" class="st3" width="2.3" height="30.5"/>
	</g>
</g>
<g id="мишень">
	<linearGradient id="SVGID_1_" gradientUnits="userSpaceOnUse" x1="6894.314" y1="-2234.2063" x2="7339.3784" y2="-2234.2063" gradientTransform="matrix(-0.8147 -0.5798 0.5798 -0.8147 7746.3374 2817.7896)">
		<stop  offset="0" style="stop-color:#F06C99"/>
		<stop  offset="0.2233" style="stop-color:#E260AE"/>
		<stop  offset="0.7376" style="stop-color:#C648D8"/>
		<stop  offset="1" style="stop-color:#BB3FE9"/>
	</linearGradient>
	<path class="st4" d="M437.7,454.7c6.7-25.2,17.9-49.6,33.8-72c0.4-0.5,0.7-1,1.1-1.5l23.6,9.4c14.7-19,32.3-34.7,51.7-46.8
		l-6.9-24.5c23.8-13.8,49.8-23,76.7-27.3l10.1,23.3c23-2.9,46.6-1.9,69.6,3.4l12.4-22.2c25.2,6.7,49.6,17.9,72,33.8
		c0.5,0.4,1,0.7,1.5,1.1l-9.4,23.6c19,14.7,34.7,32.3,46.8,51.7l24.5-6.9c13.8,23.8,23,49.8,27.3,76.7l-23.3,10.1
		c2.9,23,1.9,46.6-3.4,69.6l22.2,12.4c-6.7,25.2-17.9,49.6-33.8,72c-0.4,0.5-0.7,1-1.1,1.5l-23.6-9.4c-14.7,19-32.3,34.7-51.7,46.8
		l6.9,24.5c-23.8,13.8-49.8,23-76.7,27.3L677.9,708c-23,2.9-46.6,1.9-69.6-3.4l-12.4,22.2c-25.2-6.7-49.6-17.9-72-33.8
		c-0.5-0.4-1-0.7-1.5-1.1l9.4-23.6c-19-14.7-34.7-32.3-46.8-51.7l-24.5,6.9c-13.8-23.8-23-49.8-27.3-76.7l23.3-10.1
		c-2.9-23-1.9-46.6,3.4-69.6L437.7,454.7z"/>
	<g>
		<path class="st5" d="M652.5,641.5c-26.7,0-52.7-8.3-74.9-24.1c-58.3-41.5-72-122.6-30.5-180.9c20.1-28.2,50-47,84.1-52.7
			c34.2-5.8,68.5,2.1,96.8,22.2c28.2,20.1,47,50,52.7,84.1s-2.1,68.5-22.2,96.8c-20.1,28.2-50,47-84.1,52.7
			C667.1,640.9,659.8,641.5,652.5,641.5z M653,438.7c-4.1,0-8.2,0.3-12.3,1c-19.2,3.2-36,13.8-47.4,29.7l0,0
			c-11.3,15.9-15.8,35.2-12.5,54.5c3.2,19.2,13.8,36,29.7,47.4c15.9,11.3,35.2,15.8,54.5,12.5c19.2-3.2,36-13.8,47.4-29.7
			c11.3-15.9,15.8-35.2,12.5-54.5c-3.2-19.2-13.8-36-29.7-47.4C682.6,443.3,668,438.7,653,438.7z"/>
	</g>
</g>
<linearGradient id="стрела_1_" gradientUnits="userSpaceOnUse" x1="4294.3276" y1="-4154.4917" x2="4551.8633" y2="-4154.4917" gradientTransform="matrix(0.2437 -0.9698 0.9698 0.2437 3753.2144 5733.4639)">
	<stop  offset="0" style="stop-color:#FFAD39"/>
	<stop  offset="0.2885" style="stop-color:#F69E54"/>
	<stop  offset="0.7557" style="stop-color:#E8887B"/>
	<stop  offset="1" style="stop-color:#E3808A"/>
</linearGradient>
<polygon id="стрела" class="st6" points="898.2,322.4 909.3,325.2 896.9,374.4 946.1,386.8 943.3,397.9 890.9,384.7 
	873.7,394.9 915.1,405.3 912.3,416.4 859.9,403.2 683.2,508.9 700.7,538.3 646,524.5 659.7,469.8 677.3,499.1 854,393.4 867.2,341 
	878.3,343.7 867.9,385.1 885,374.9 "/>
<g id="нога_2">
	<g id="ботинок_40_">
		<g>
			<path class="st7" d="M159.5,757.5L118.9,730l-51.2,96.6c0,0,6.5,15.7,33.8-8c7.3-6.3,24.1-25.1,32.5-22.7l0,0L159.5,757.5z"/>
			<g>
				<polygon class="st8" points="126,808.2 114.2,797.3 115.7,795.7 123.8,803.2 124,786.7 126.2,786.7 				"/>
			</g>
		</g>
		<g>
			
				<rect x="51" y="781.2" transform="matrix(0.4996 -0.8663 0.8663 0.4996 -626.7371 479.6364)" class="st8" width="101.6" height="2.2"/>
		</g>
	</g>
	<path class="st9" d="M372.6,705.9c-38.3-29.5-71-17.8-85.5,40.1c-14.5,57.9-30.7,74.7-30.7,74.7s-76.8-63.2-104.2-74.1
		C146.9,744.5,124,803,124,803s144.5,100.2,171.8,70.3c27.4-29.9,48.2-105.1,48.2-105.1L372.6,705.9z"/>
	<g>
		<path class="st5" d="M97.9,735.9l-0.7-0.7c4.8-4.8,8.8-21.6,8.9-21.8l1,0.2C106.8,714.3,102.9,730.8,97.9,735.9z"/>
	</g>
	<g>
		<path class="st5" d="M95.9,721.4l-0.6-0.8c3.1-2.5,5.7-11.2,5.8-11.3l1,0.3C101.9,710,99.3,718.7,95.9,721.4z"/>
	</g>
</g>
<linearGradient id="дым_1_" gradientUnits="userSpaceOnUse" x1="6689.6934" y1="651" x2="6689.6934" y2="-32" gradientTransform="matrix(-1 0 0 -1 6871.8931 1372)">
	<stop  offset="0" style="stop-color:#FFAD39"/>
	<stop  offset="0.2885" style="stop-color:#F69E54"/>
	<stop  offset="0.7557" style="stop-color:#E8887B"/>
	<stop  offset="1" style="stop-color:#E3808A"/>
</linearGradient>
<path id="дым" class="st10" d="M296.1,1126.1c-10.7-43.7-50.1-76.1-97.1-76.1c-3.9,0-7.6,0.2-11.4,0.6L212,721L44.2,1027.5
	c-5.6-1-11.4-1.5-17.2-1.5c-9.4,0-18.4,1.3-27,3.7V1370c-0.3,0,250.7-9.5,364.4-201.3C350.8,1144.5,325.5,1127.7,296.1,1126.1z"/>
<g id="персонаж">
	
		<linearGradient id="ранец_ч2_1_" gradientUnits="userSpaceOnUse" x1="6731.7686" y1="-708.9902" x2="6796.5327" y2="-486.0604" gradientTransform="matrix(-0.9603 -0.279 0.279 -0.9603 6950.9458 1897.2905)">
		<stop  offset="0" style="stop-color:#F06C99"/>
		<stop  offset="0.2233" style="stop-color:#E260AE"/>
		<stop  offset="0.7376" style="stop-color:#C648D8"/>
		<stop  offset="1" style="stop-color:#BB3FE9"/>
	</linearGradient>
	<path id="ранец_ч2" class="st11" d="M232.8,683.6l53.9,15.7c9,2.6,18.4-2.6,21-11.5l47.2-162.4c6.9-23.8-6.9-48.9-30.7-55.8
		l0,0c-23.8-6.9-48.9,6.9-55.8,30.7l-47.2,162.4C218.7,671.6,223.8,681,232.8,683.6z"/>
	<g id="лямка_2">
		
			<linearGradient id="SVGID_2_" gradientUnits="userSpaceOnUse" x1="6452.1665" y1="774.0126" x2="6554.9028" y2="774.0126" gradientTransform="matrix(-1 0 0 -1 6871.8931 1372)">
			<stop  offset="0" style="stop-color:#F06C99"/>
			<stop  offset="0.2233" style="stop-color:#E260AE"/>
			<stop  offset="0.7376" style="stop-color:#C648D8"/>
			<stop  offset="1" style="stop-color:#BB3FE9"/>
		</linearGradient>
		<path class="st12" d="M347,686.6c-14.1,0-24.7-3.8-25.4-4.1c-3.6-1.3-5.5-5.4-4.2-9s5.4-5.5,9-4.2c0.2,0.1,26.9,9.4,48.5-4.5
			c17.1-11,27.1-33.4,29.9-66.7c4-47.6-5.7-64.9-14.4-71.1c-10.3-7.2-23.7-1.2-23.8-1.2c-3.5,1.6-7.7,0.1-9.3-3.4
			c-1.6-3.5-0.2-7.6,3.3-9.3c0.8-0.4,20.6-9.5,37.7,2.3c17.2,11.9,24.1,40.1,20.5,83.8c-3.2,38-15.4,64-36.4,77.4
			C370.4,684.4,357.7,686.6,347,686.6z"/>
	</g>
	<g id="нога_1">
		<g>
			<g id="ботинок_16_">
				<path class="st5" d="M176.5,899.2l-42.3,16.2l46.6,98.9c0,0,16.5,4.2,13.9-31.8c-0.7-9.6-5.6-34.3,1.3-39.6l0,0L176.5,899.2z"/>
				<g>
					<polygon class="st8" points="201,956.6 185.2,959.4 184.8,957.3 195.7,955.3 182.6,945.3 183.9,943.6 					"/>
				</g>
			</g>
			<g>
				
					<rect x="163.8" y="910.3" transform="matrix(0.9052 -0.425 0.425 0.9052 -393.0211 161.248)" class="st8" width="2.2" height="102.5"/>
			</g>
		</g>
		
			<linearGradient id="SVGID_3_" gradientUnits="userSpaceOnUse" x1="6480.8931" y1="557.8615" x2="6704.1841" y2="557.8615" gradientTransform="matrix(-1 0 0 -1 6871.8931 1372)">
			<stop  offset="0" style="stop-color:#F06C99"/>
			<stop  offset="0.2233" style="stop-color:#E260AE"/>
			<stop  offset="0.7376" style="stop-color:#C648D8"/>
			<stop  offset="1" style="stop-color:#BB3FE9"/>
		</linearGradient>
		<path class="st13" d="M168.2,900.2c16.8-10.8,102.1-45.5,137.8-58.7c-1.2-1.1-16.6-63.2-13.8-83.2c0-0.3-23.7-27.3-13.9-56.1
			c5.4-15.7,45.5-24.6,67-22l45.7,9.3c0,0-26,6.8-23.8,54.7c0.8,16.9-1.3,116.9-0.9,116.8c-0.3,39.1-165.3,88.8-167.5,87.5
			C182.4,939.1,164.5,902.5,168.2,900.2z"/>
		<g>
			<path class="st5" d="M325,854.5c-8.1,0-18.9-12.6-19.4-13.2l0.8-0.6c0.1,0.1,10.9,12.8,18.6,12.8V854.5z"/>
		</g>
		<g>
			<path class="st5" d="M363.9,896.9l-0.7-0.7c14.7-14.7,14.9-38.4,14.9-38.6h1C379,857.7,378.8,881.9,363.9,896.9z"/>
		</g>
	</g>
	<g id="голова">
		<circle class="st14" cx="368" cy="424.9" r="19.7"/>
		<g id="лицо">
			<path class="st1" d="M389.9,531.8l-1.1-18.4c0,0,19.5,3.7,23.4-23.2c3.9-27-6.1-44-25.1-42.5c-19,1.4-34.1,25.6-32.6,47.6
				c1.5,22-9.3,28.7-9.3,28.7s-5,26.8,7.9,30.6C366,558.4,394.3,547.6,389.9,531.8z"/>
			<circle class="st3" cx="395.9" cy="480.2" r="3.4"/>
			<g>
				<path class="st3" d="M400.8,469.2c-0.1,0-8.2,1.3-11.7,4.9l-1.7-1.7c4.1-4.1,12.7-5.5,13-5.6L400.8,469.2z"/>
			</g>
			<g>
				<polygon class="st3" points="421.9,496.2 409,498.6 408.6,496.2 418.7,494.3 412.5,475.5 414.8,474.7 				"/>
			</g>
			<g>
				<path class="st3" d="M407.7,505.5c-1.2,0.3-12.1,2.9-16.3-1.3l1.7-1.7c2.8,2.8,11,1.4,14,0.7L407.7,505.5z"/>
			</g>
		</g>
		
			<linearGradient id="SVGID_4_" gradientUnits="userSpaceOnUse" x1="876.7172" y1="2318.3706" x2="961.0089" y2="2318.3706" gradientTransform="matrix(0.8806 -0.4739 -0.4739 -0.8806 656.2881 2939.719)">
			<stop  offset="0" style="stop-color:#0F9EA8"/>
			<stop  offset="1" style="stop-color:#1AAD9E"/>
		</linearGradient>
		<path class="st15" d="M408.4,458.5C410,436,377,420,349,437c-40.1,24.4-15,67,5.4,67.2c3.9,0,11.7-9.1,11.8-10.1
			C368,473,379,445,408.4,458.5z"/>
		
			<linearGradient id="SVGID_5_" gradientUnits="userSpaceOnUse" x1="905.3293" y1="2341.6802" x2="924.0462" y2="2376.4551" gradientTransform="matrix(0.8806 -0.4739 -0.4739 -0.8806 656.2881 2939.719)">
			<stop  offset="0" style="stop-color:#0F9EA8"/>
			<stop  offset="1" style="stop-color:#1AAD9E"/>
		</linearGradient>
		<circle class="st16" cx="343.8" cy="428.9" r="19.7"/>
		<path class="st17" d="M371.6,480.1c0,0-5.3-11.6-12.9-2.8c-5.8,6.7,8,18,8,18L371.6,480.1z"/>
	</g>
	<g id="тело_22_">
		<path class="st7" d="M389.4,523.6c0,0,0,16.9-17.8,15.4c-17.7-1.5-26.2-15.3-26.2-15.3s-21.6,3.4-28.8,14.4
			c-5.5,8.3-8.8,45.2-10.1,62.4c-8.8,18.9-30.6,68-37.1,103.4c60.2,36.9,134.6,3.2,134.6,3.2l6.7-91c0.8-10.6,0.4-21.2-1.2-31.6
			C406.4,564.4,400.4,536.8,389.4,523.6z"/>
		<g>
			<path class="st3" d="M375.7,709.5l-2.3-0.6c6.1-23,12-147.2,12.6-161.3l2.4,0.1C387.8,561.8,381.9,686.3,375.7,709.5z"/>
		</g>
		<g>
			<path class="st3" d="M375.3,578.7c-0.8,0.6-1.9,0.8-2.9,0.7c-1.2-0.1-2.3-0.7-3.1-1.6c-0.8-0.9-1.2-2.1-1.1-3.3l0,0
				c0.1-1.2,0.7-2.3,1.6-3.1s2.1-1.2,3.3-1.1c1.2,0.1,2.3,0.7,3.1,1.6c0.8,0.9,1.2,2.1,1.1,3.3s-0.7,2.3-1.6,3.1
				C375.6,578.5,375.5,578.6,375.3,578.7z M370.7,574.7c-0.1,0.6,0.1,1.1,0.5,1.6c0.4,0.4,0.9,0.7,1.5,0.8s1.1-0.1,1.6-0.5
				c0.4-0.4,0.7-0.9,0.8-1.5c0.1-0.6-0.1-1.1-0.5-1.6c-0.4-0.4-0.9-0.7-1.5-0.8s-1.1,0.1-1.6,0.5C371,573.6,370.7,574.1,370.7,574.7
				L370.7,574.7z"/>
		</g>
		<g>
			<polygon class="st3" points="405.8,558.6 381.2,544.8 382.4,542.7 401.7,553.6 391.7,521.2 394,520.5 			"/>
		</g>
		<g>
			<polygon class="st3" points="356.7,561.9 345.1,528.5 347.4,527.7 357.8,557.7 370.9,546.2 372.5,548 			"/>
		</g>
		<g>
			<g>
				<path class="st8" d="M351.6,655.4c-0.1,0-0.1,0.1-0.2,0.2c-0.4,0.4-0.7,0.9-0.7,1.4l0,0c-0.1,1.1,0.7,2.1,1.9,2.2
					c1.1,0.1,2.1-0.7,2.2-1.9c0-0.6-0.1-1.1-0.5-1.5s-0.9-0.7-1.4-0.7C352.4,655,352,655.2,351.6,655.4z"/>
			</g>
		</g>
	</g>
	<g id="лямка_1">
		
			<linearGradient id="SVGID_6_" gradientUnits="userSpaceOnUse" x1="6501.7671" y1="769.9027" x2="6611.4658" y2="769.9027" gradientTransform="matrix(-1 0 0 -1 6871.8931 1372)">
			<stop  offset="0" style="stop-color:#F06C99"/>
			<stop  offset="0.2233" style="stop-color:#E260AE"/>
			<stop  offset="0.7376" style="stop-color:#C648D8"/>
			<stop  offset="1" style="stop-color:#BB3FE9"/>
		</linearGradient>
		<path class="st18" d="M294,694.1c11.3,0,24.7-2.3,37.2-10.3c22-14,34.8-41,38-80.1c3.7-45-3.7-74.3-22-87
			c-18.7-12.9-40.2-3-41.1-2.6c-5.2,2.5-7.5,8.7-5,14c2.5,5.2,8.7,7.5,13.9,5c0.3-0.2,11.8-5.1,20.4,0.9
			c6.5,4.6,16.9,19.5,12.9,67.9c-2.7,32.1-12.2,53.7-28.2,64c-20.2,13-45.3,4.2-45.5,4.1c-5.4-2-11.5,0.9-13.4,6.3
			c-2,5.4,0.8,11.4,6.2,13.4C268.2,690.2,279.3,694.1,294,694.1z"/>
	</g>
	<g id="ранец_ч1">
		
			<linearGradient id="SVGID_7_" gradientUnits="userSpaceOnUse" x1="6817.6479" y1="-612.2928" x2="6781.3252" y2="-737.3237" gradientTransform="matrix(-0.9603 -0.279 0.279 -0.9603 6950.9458 1897.2905)">
			<stop  offset="0" style="stop-color:#F06C99"/>
			<stop  offset="0.2233" style="stop-color:#E260AE"/>
			<stop  offset="0.7376" style="stop-color:#C648D8"/>
			<stop  offset="1" style="stop-color:#BB3FE9"/>
		</linearGradient>
		<path class="st19" d="M201.8,704.3l30.2,8.8c5,1.5,10.3-1.4,11.8-6.5l26.5-91c3.9-13.3-3.9-27.4-17.2-31.3l0,0
			c-13.3-3.9-27.4,3.9-31.3,17.2l-26.5,91C193.9,697.6,196.8,702.8,201.8,704.3z"/>
		
			<linearGradient id="SVGID_8_" gradientUnits="userSpaceOnUse" x1="6752.6152" y1="-606.8451" x2="6842.6992" y2="-606.8451" gradientTransform="matrix(-0.9603 -0.279 0.279 -0.9603 6950.9458 1897.2905)">
			<stop  offset="0" style="stop-color:#F06C99"/>
			<stop  offset="0.2233" style="stop-color:#E260AE"/>
			<stop  offset="0.7376" style="stop-color:#C648D8"/>
			<stop  offset="1" style="stop-color:#BB3FE9"/>
		</linearGradient>
		<path class="st20" d="M194.8,686.6l53.9,15.7c9,2.6,18.4-2.6,21-11.5l47.2-162.4c6.9-23.8-6.9-48.9-30.7-55.8l0,0
			c-23.8-6.9-48.9,6.9-55.8,30.7l-47.2,162.4C180.7,674.6,185.8,684,194.8,686.6z"/>
	</g>
</g>
<g id="рука_33_">
	<path class="st1" d="M415.8,575.6l51.6-46.7c0,0,6.9-12.6,12-13.1c5.1-0.6,26.3-5.9,28.7,8.6c2.4,14.5-12.3,22-16.6,18.1
		c-4.3-3.9,1.3-9.9-4.3-3.9c-5.5,6-12.3,6.3-12.3,6.3l-50,56.7L415.8,575.6z"/>
	<path class="st2" d="M332.6,535.4c0,0-14.5-3.9-19.9,9.7c-5.4,13.6-1.5,49.5,29.4,82.7s63.5,3.9,63.5,3.9L485,566l-24.2-31.8
		L402,578.3c-9.7,7.3-23.5,5.3-30.8-4.4C360,559,343.7,539.5,332.6,535.4z"/>
	<g>
		
			<rect x="455.7" y="542.6" transform="matrix(0.8073 -0.5901 0.5901 0.8073 -242.4281 377.5244)" class="st3" width="2.4" height="34.9"/>
	</g>
	<g>
		<path class="st3" d="M462,551.8c-0.1,0.1-0.3,0.2-0.4,0.2c-1.1,0.6-2.3,0.7-3.5,0.3s-2.1-1.2-2.7-2.3c-1.2-2.2-0.3-5,2-6.2
			c2.2-1.2,5-0.3,6.2,2C464.6,547.9,463.9,550.5,462,551.8z M458.3,546.1c-0.4,0.3-0.7,0.7-0.9,1.2c-0.2,0.6-0.1,1.1,0.1,1.7
			c0.3,0.5,0.7,0.9,1.3,1.1c0.6,0.2,1.1,0.1,1.7-0.1c1.1-0.5,1.5-1.9,0.9-2.9c-0.3-0.5-0.7-0.9-1.3-1.1c-0.6-0.2-1.1-0.1-1.7,0.1
			C458.4,546,458.4,546.1,458.3,546.1z"/>
	</g>
</g>
<g id="шестеренка_2">
	<g>
		<path class="st3" d="M401.5,1288l-11.5-26.5c-12.6,1.2-25.2,0.6-37.6-1.9l-14.1,25.3l-0.7-0.2c-18.1-4.8-35.1-12.8-50.5-23.7
			c-0.2-0.1-0.4-0.3-0.6-0.4l-1-0.7l10.6-26.9c-9.8-8-18.3-17.4-25.2-27.9L243,1213l-0.3-0.6c-9.6-16.6-16.1-34.7-19.1-53.7
			l-0.1-0.7l26.5-11.5c-1.2-12.6-0.6-25.2,1.9-37.6l-25.3-14.1l0.2-0.7c4.8-18.1,12.8-35.1,23.7-50.5c0.1-0.2,0.3-0.4,0.4-0.6l0.7-1
			l26.9,10.6c8-9.8,17.4-18.3,27.9-25.3l-7.9-27.9l0.6-0.3c16.6-9.6,34.7-16.1,53.7-19.1l0.7-0.1l11.5,26.5
			c12.6-1.2,25.2-0.6,37.6,1.9l14.1-25.3l0.7,0.2c18.1,4.8,35.1,12.8,50.5,23.7c0.2,0.1,0.4,0.3,0.6,0.4l1,0.7l-10.6,26.9
			c9.8,8,18.3,17.4,25.2,27.9l27.9-7.9l0.3,0.6c9.6,16.6,16.1,34.7,19.1,53.7l0.1,0.7l-26.5,11.5c1.2,12.6,0.6,25.2-1.9,37.6
			l25.3,14.1l-0.2,0.7c-4.8,18.1-12.8,35.1-23.7,50.5c-0.1,0.2-0.3,0.4-0.4,0.6l-0.7,1l-26.9-10.6c-8,9.8-17.4,18.3-27.9,25.2
			l7.9,27.9l-0.6,0.3c-16.6,9.6-34.7,16.1-53.7,19.1L401.5,1288z M391.1,1259.6l11.5,26.5c18.4-3,35.8-9.2,51.8-18.4l-7.9-27.8
			l0.5-0.4c10.8-7.1,20.3-15.7,28.5-25.7l0.4-0.5l26.8,10.6c0.1-0.2,0.2-0.3,0.3-0.5c10.7-15,18.5-31.6,23.3-49.2l-25.2-14.1
			l0.1-0.6c2.6-12.6,3.3-25.5,1.9-38.3l-0.1-0.6l26.5-11.5c-3-18.4-9.2-35.8-18.4-51.8l-27.8,7.9l-0.4-0.5
			c-7.1-10.8-15.7-20.3-25.7-28.5l-0.5-0.4l10.6-26.8c-0.2-0.1-0.3-0.2-0.5-0.3c-15-10.7-31.6-18.5-49.2-23.3l-14.1,25.2l-0.6-0.1
			c-12.6-2.6-25.5-3.3-38.3-1.9l-0.6,0.1l-11.5-26.5c-18.4,3-35.8,9.2-51.8,18.4l7.9,27.8l-0.5,0.4c-10.8,7.1-20.3,15.7-28.5,25.7
			l-0.4,0.5l-26.8-10.6c-0.1,0.2-0.2,0.3-0.3,0.5c-10.7,15-18.5,31.6-23.3,49.2l25.2,14.1l-0.1,0.6c-2.6,12.6-3.3,25.5-1.9,38.3
			l0.1,0.6l-26.5,11.5c3,18.4,9.2,35.8,18.4,51.8l27.8-7.9l0.4,0.5c7.1,10.8,15.7,20.3,25.7,28.5l0.5,0.4l-10.6,26.8
			c0.2,0.1,0.3,0.2,0.5,0.3c15,10.7,31.6,18.5,49.2,23.3l14.1-25.2l0.6,0.1c12.6,2.6,25.5,3.3,38.3,1.9L391.1,1259.6z M377.5,1210.3
			c-15.3,0-30.8-4.6-44.1-14.1c-34.3-24.4-42.3-72.1-17.9-106.4l0.7,0.5l-0.7-0.5c11.8-16.6,29.4-27.6,49.5-31s40.3,1.3,56.9,13.1
			c34.3,24.4,42.3,72.1,17.9,106.4C424.9,1199.1,401.4,1210.3,377.5,1210.3z M316.8,1090.7c-23.8,33.5-16,80.1,17.5,104
			c33.5,23.8,80.1,16,104-17.5c23.8-33.5,16-80.1-17.5-104c-16.2-11.5-36-16.1-55.6-12.8C345.6,1063.8,328.4,1074.5,316.8,1090.7
			L316.8,1090.7z"/>
	</g>
	<g>
		<path class="st3" d="M401.5,1288l-11.5-26.5c-12.6,1.2-25.2,0.6-37.6-1.9l-14.1,25.3l-0.7-0.2c-18.1-4.8-35.1-12.8-50.5-23.7
			c-0.2-0.1-0.4-0.3-0.6-0.4l-1-0.7l10.6-26.9c-9.8-8-18.3-17.4-25.2-27.9L243,1213l-0.3-0.6c-9.6-16.6-16.1-34.7-19.1-53.7
			l-0.1-0.7l26.5-11.5c-1.2-12.6-0.6-25.2,1.9-37.6l-25.3-14.1l0.2-0.7c4.8-18.1,12.8-35.1,23.7-50.5c0.1-0.2,0.3-0.4,0.4-0.6l0.7-1
			l26.9,10.6c8-9.8,17.4-18.3,27.9-25.3l-7.9-27.9l0.6-0.3c16.6-9.6,34.7-16.1,53.7-19.1l0.7-0.1l11.5,26.5
			c12.6-1.2,25.2-0.6,37.6,1.9l14.1-25.3l0.7,0.2c18.1,4.8,35.1,12.8,50.5,23.7c0.2,0.1,0.4,0.3,0.6,0.4l1,0.7l-10.6,26.9
			c9.8,8,18.3,17.4,25.2,27.9l27.9-7.9l0.3,0.6c9.6,16.6,16.1,34.7,19.1,53.7l0.1,0.7l-26.5,11.5c1.2,12.6,0.6,25.2-1.9,37.6
			l25.3,14.1l-0.2,0.7c-4.8,18.1-12.8,35.1-23.7,50.5c-0.1,0.2-0.3,0.4-0.4,0.6l-0.7,1l-26.9-10.6c-8,9.8-17.4,18.3-27.9,25.2
			l7.9,27.9l-0.6,0.3c-16.6,9.6-34.7,16.1-53.7,19.1L401.5,1288z M391.1,1259.6l11.5,26.5c18.4-3,35.8-9.2,51.8-18.4l-7.9-27.8
			l0.5-0.4c10.8-7.1,20.3-15.7,28.5-25.7l0.4-0.5l26.8,10.6c0.1-0.2,0.2-0.3,0.3-0.5c10.7-15,18.5-31.6,23.3-49.2l-25.2-14.1
			l0.1-0.6c2.6-12.6,3.3-25.5,1.9-38.3l-0.1-0.6l26.5-11.5c-3-18.4-9.2-35.8-18.4-51.8l-27.8,7.9l-0.4-0.5
			c-7.1-10.8-15.7-20.3-25.7-28.5l-0.5-0.4l10.6-26.8c-0.2-0.1-0.3-0.2-0.5-0.3c-15-10.7-31.6-18.5-49.2-23.3l-14.1,25.2l-0.6-0.1
			c-12.6-2.6-25.5-3.3-38.3-1.9l-0.6,0.1l-11.5-26.5c-18.4,3-35.8,9.2-51.8,18.4l7.9,27.8l-0.5,0.4c-10.8,7.1-20.3,15.7-28.5,25.7
			l-0.4,0.5l-26.8-10.6c-0.1,0.2-0.2,0.3-0.3,0.5c-10.7,15-18.5,31.6-23.3,49.2l25.2,14.1l-0.1,0.6c-2.6,12.6-3.3,25.5-1.9,38.3
			l0.1,0.6l-26.5,11.5c3,18.4,9.2,35.8,18.4,51.8l27.8-7.9l0.4,0.5c7.1,10.8,15.7,20.3,25.7,28.5l0.5,0.4l-10.6,26.8
			c0.2,0.1,0.3,0.2,0.5,0.3c15,10.7,31.6,18.5,49.2,23.3l14.1-25.2l0.6,0.1c12.6,2.6,25.5,3.3,38.3,1.9L391.1,1259.6z M377.5,1210.3
			c-15.3,0-30.8-4.6-44.1-14.1c-34.3-24.4-42.3-72.1-17.9-106.4l0.7,0.5l-0.7-0.5c11.8-16.6,29.4-27.6,49.5-31s40.3,1.3,56.9,13.1
			c34.3,24.4,42.3,72.1,17.9,106.4C424.9,1199.1,401.4,1210.3,377.5,1210.3z M316.8,1090.7c-23.8,33.5-16,80.1,17.5,104
			c33.5,23.8,80.1,16,104-17.5c23.8-33.5,16-80.1-17.5-104c-16.2-11.5-36-16.1-55.6-12.8C345.6,1063.8,328.4,1074.5,316.8,1090.7
			L316.8,1090.7z"/>
	</g>
</g>
<g id="шестеренка_1">
	<path class="st3" d="M702.9,1135.3l-14.4-33.3c-15.9,1.6-31.8,0.8-47.5-2.4l-17.7,31.7l-0.7-0.2c-22.7-6-44-16-63.3-29.7
		c-0.3-0.2-0.5-0.4-0.8-0.6l-1.1-0.8l13.4-33.7c-12.3-10.1-23.1-22-31.9-35.2l-35,9.9l-0.3-0.6c-12.1-20.8-20.1-43.5-24-67.4
		l-0.1-0.7l33.3-14.4c-1.6-15.9-0.8-31.8,2.4-47.5l-31.7-17.7l0.2-0.7c6-22.7,16-44,29.7-63.3c0.2-0.3,0.4-0.5,0.6-0.8l0.8-1.1
		l33.7,13.3c10.1-12.3,22-23.1,35.2-31.9l-9.9-35l0.6-0.3c20.8-12.1,43.5-20.1,67.4-24l0.7-0.1l14.4,33.3
		c15.9-1.6,31.8-0.8,47.5,2.4l17.7-31.7l0.7,0.2c22.7,6,44,16,63.3,29.7c0.3,0.2,0.5,0.4,0.8,0.6l1.1,0.8L774.6,818
		c12.3,10.1,23.1,22,31.9,35.2l35-9.9l0.3,0.6c12.1,20.8,20.1,43.5,24,67.4l0.1,0.7l-33.3,14.4c1.6,15.9,0.8,31.8-2.4,47.5
		l31.7,17.7l-0.2,0.7c-6,22.7-16,44-29.7,63.3c-0.2,0.3-0.4,0.5-0.6,0.8l-0.8,1.1l-33.8-13.4c-10.1,12.3-22,23.1-35.2,31.9l9.9,35
		l-0.6,0.3c-20.8,12.1-43.5,20.1-67.4,24L702.9,1135.3z M689.6,1100.1l14.4,33.2c23.2-3.8,45.2-11.6,65.5-23.3l-9.9-34.9l0.5-0.4
		c13.5-8.9,25.6-19.8,35.8-32.4l0.4-0.5l33.7,13.3c0.2-0.2,0.4-0.5,0.5-0.7c13.5-18.9,23.3-39.8,29.3-62l-31.7-17.7l0.1-0.6
		c3.3-15.9,4.1-32.1,2.4-48.2l-0.1-0.6l33.2-14.4c-3.8-23.2-11.6-45.2-23.3-65.5l-34.9,9.9l-0.4-0.5c-8.9-13.5-19.8-25.6-32.4-35.8
		l-0.5-0.4l13.3-33.7c-0.2-0.2-0.5-0.4-0.7-0.5c-18.9-13.5-39.8-23.3-62-29.3l-17.7,31.7l-0.6-0.1c-15.9-3.3-32.1-4.1-48.2-2.4
		l-0.6,0.1L641.4,751c-23.2,3.8-45.2,11.6-65.5,23.3l9.9,34.9l-0.5,0.4c-13.5,8.9-25.6,19.8-35.8,32.4l-0.4,0.5l-33.7-13.3
		c-0.2,0.2-0.4,0.5-0.5,0.7c-13.5,18.9-23.3,39.8-29.3,62l31.7,17.7l-0.1,0.6c-3.3,15.9-4.1,32.1-2.4,48.2l0.1,0.6l-33.2,14.4
		c3.8,23.2,11.6,45.2,23.3,65.5l34.9-9.9l0.4,0.5c8.9,13.5,19.8,25.6,32.4,35.8l0.5,0.4l-13.3,33.7l0,0c0.2,0.2,0.5,0.4,0.7,0.5
		c18.9,13.5,39.8,23.3,62,29.3l17.7-31.7l0.6,0.1c15.9,3.3,32.1,4.1,48.2,2.4L689.6,1100.1z M672.5,1037.8
		c-19.7,0-38.9-6.1-55.2-17.7c-20.8-14.8-34.6-36.8-38.8-62s1.6-50.5,16.4-71.3l0,0c14.8-20.8,36.8-34.6,62-38.8s50.5,1.6,71.3,16.4
		c42.9,30.6,53,90.4,22.5,133.3c-14.8,20.8-36.8,34.6-62,38.8C683.2,1037.3,677.8,1037.8,672.5,1037.8z M596.3,887.8
		c-14.5,20.4-20.2,45.3-16.1,70c4.2,24.7,17.7,46.3,38.1,60.9c20.4,14.5,45.3,20.2,70,16.1c24.7-4.2,46.3-17.7,60.9-38.1
		c14.5-20.4,20.2-45.3,16.1-70s-17.7-46.3-38.1-60.9C685,835.7,626.3,845.6,596.3,887.8L596.3,887.8z"/>
</g>
</svg>
