<?xml version="1.0" encoding="utf-8"?>
<!-- Generator: Adobe Illustrator 23.1.0, SVG Export Plug-In . SVG Version: 6.00 Build 0)  -->
<svg version="1.1" id="Слой_1" xmlns="http://www.w3.org/2000/svg" xmlns:xlink="http://www.w3.org/1999/xlink" x="0px" y="0px"
	 viewBox="0 0 164 139" style="enable-background:new 0 0 164 139;" xml:space="preserve">
<style type="text/css">
	.st0{clip-path:url(#SVGID_2_);fill:url(#SVGID_3_);}
	.st1{clip-path:url(#SVGID_5_);fill:url(#SVGID_6_);}
	.st2{clip-path:url(#SVGID_8_);fill:url(#SVGID_9_);}
	.st3{clip-path:url(#SVGID_11_);fill:url(#SVGID_12_);}
	.st4{clip-path:url(#SVGID_14_);fill:url(#SVGID_15_);}
	.st5{clip-path:url(#SVGID_17_);fill:url(#SVGID_18_);}
	.st6{clip-path:url(#SVGID_20_);fill:url(#SVGID_21_);}
</style>
<g>
	<g>
		<defs>
			<path id="SVGID_1_" d="M5.73,81.2c0,31.72,25.72,57.44,57.44,57.44c31.72,0,57.44-25.72,57.44-57.44S94.9,23.76,63.18,23.76
				C31.45,23.76,5.73,49.48,5.73,81.2"/>
		</defs>
		<clipPath id="SVGID_2_">
			<use xlink:href="#SVGID_1_"  style="overflow:visible;"/>
		</clipPath>
		
			<linearGradient id="SVGID_3_" gradientUnits="userSpaceOnUse" x1="-876.2013" y1="609.3163" x2="-875.8361" y2="609.3163" gradientTransform="matrix(166 188.5 -188.5 166 260336.5469 64062.0742)">
			<stop  offset="0" style="stop-color:#FDD546"/>
			<stop  offset="3.093170e-03" style="stop-color:#FDD546"/>
			<stop  offset="0.9997" style="stop-color:#FDA032"/>
			<stop  offset="1" style="stop-color:#FDA032"/>
		</linearGradient>
		<polygon class="st0" points="-51.25,73.94 55.91,195.63 177.6,88.47 70.44,-33.22 		"/>
	</g>
	<g>
		<defs>
			<path id="SVGID_4_" d="M63.18,59.48c0,19.74,16.01,35.75,35.75,35.75c19.75,0,35.75-16.01,35.75-35.75
				c0-19.75-16.01-35.75-35.75-35.75C79.18,23.73,63.18,39.73,63.18,59.48"/>
		</defs>
		<clipPath id="SVGID_5_">
			<use xlink:href="#SVGID_4_"  style="overflow:visible;"/>
		</clipPath>
		
			<linearGradient id="SVGID_6_" gradientUnits="userSpaceOnUse" x1="-876.3" y1="609.83" x2="-875.9349" y2="609.83" gradientTransform="matrix(146.3463 130.0825 -130.0825 146.3463 207647.6094 24784.1074)">
			<stop  offset="0" style="stop-color:#D782F2"/>
			<stop  offset="1" style="stop-color:#B52EE3"/>
		</linearGradient>
		<polygon class="st1" points="27.67,63.67 103.12,130.73 170.18,55.28 94.73,-11.78 		"/>
	</g>
	<g>
		<defs>
			<path id="SVGID_7_" d="M0,65.25c0,23.46,19.01,42.47,42.47,42.47c23.46,0,42.47-19.01,42.47-42.47S65.93,22.78,42.47,22.78
				C19.01,22.78,0,41.79,0,65.25"/>
		</defs>
		<clipPath id="SVGID_8_">
			<use xlink:href="#SVGID_7_"  style="overflow:visible;"/>
		</clipPath>
		
			<linearGradient id="SVGID_9_" gradientUnits="userSpaceOnUse" x1="-875.8382" y1="609.4096" x2="-875.473" y2="609.4096" gradientTransform="matrix(148 142 -142 148 216167.7188 34208.0742)">
			<stop  offset="0" style="stop-color:#02EEA3"/>
			<stop  offset="3.093170e-03" style="stop-color:#02EEA3"/>
			<stop  offset="0.9997" style="stop-color:#02C4D6"/>
			<stop  offset="1" style="stop-color:#02C4D6"/>
		</linearGradient>
		<polygon class="st2" points="-42.43,67 44.23,150.15 127.37,63.49 40.71,-19.66 		"/>
	</g>
	<g>
		<defs>
			<path id="SVGID_10_" d="M52.29,101c0,19.75,16.01,35.75,35.75,35.75c19.75,0,35.75-16.01,35.75-35.75
				c0-19.74-16.01-35.75-35.75-35.75C68.3,65.25,52.29,81.25,52.29,101"/>
		</defs>
		<clipPath id="SVGID_11_">
			<use xlink:href="#SVGID_10_"  style="overflow:visible;"/>
		</clipPath>
		
			<linearGradient id="SVGID_12_" gradientUnits="userSpaceOnUse" x1="-876.8129" y1="608.57" x2="-876.4478" y2="608.57" gradientTransform="matrix(-187.117 -138.482 138.482 -187.117 -248215.2813 -7418.9146)">
			<stop  offset="0" style="stop-color:#0173C6"/>
			<stop  offset="0.9997" style="stop-color:#5DA7FF"/>
			<stop  offset="1" style="stop-color:#5DA7FF"/>
		</linearGradient>
		<polygon class="st3" points="157.98,90.55 77.6,31.06 18.1,111.44 98.49,170.94 		"/>
	</g>
	<g>
		<defs>
			<path id="SVGID_13_" d="M144.21,78.14c0,5.47,4.43,9.9,9.9,9.9c5.47,0,9.9-4.43,9.9-9.9c0-5.47-4.43-9.9-9.9-9.9
				C148.64,68.24,144.21,72.67,144.21,78.14"/>
		</defs>
		<clipPath id="SVGID_14_">
			<use xlink:href="#SVGID_13_"  style="overflow:visible;"/>
		</clipPath>
		
			<linearGradient id="SVGID_15_" gradientUnits="userSpaceOnUse" x1="-876.1387" y1="606.7805" x2="-875.7735" y2="606.7805" gradientTransform="matrix(-75 -48.5 48.5 -75 -94967.2344 3105.5298)">
			<stop  offset="0" style="stop-color:#CA2E2A"/>
			<stop  offset="3.093170e-03" style="stop-color:#CA2E2A"/>
			<stop  offset="0.9997" style="stop-color:#FF740D"/>
			<stop  offset="1" style="stop-color:#FF740D"/>
		</linearGradient>
		<polygon class="st4" points="173.03,74.08 150.04,59.22 135.18,82.2 158.16,97.06 		"/>
	</g>
	<g>
		<defs>
			<path id="SVGID_16_" d="M68.25,10.25c0,5.47,4.43,9.9,9.9,9.9c5.47,0,9.9-4.43,9.9-9.9c0-5.47-4.43-9.9-9.9-9.9
				C72.68,0.35,68.25,4.78,68.25,10.25"/>
		</defs>
		<clipPath id="SVGID_17_">
			<use xlink:href="#SVGID_16_"  style="overflow:visible;"/>
		</clipPath>
		
			<linearGradient id="SVGID_18_" gradientUnits="userSpaceOnUse" x1="-874.3991" y1="611.8649" x2="-874.0339" y2="611.8649" gradientTransform="matrix(52.5 47 -47 52.5 74735.4531 8978.4609)">
			<stop  offset="0" style="stop-color:#F282A3"/>
			<stop  offset="1" style="stop-color:#E32E7A"/>
		</linearGradient>
		<polygon class="st5" points="58.42,11.34 79.24,29.98 97.88,9.16 77.06,-9.48 		"/>
	</g>
	<g>
		<defs>
			<path id="SVGID_19_" d="M5.73,131.67c0,2.8,2.27,5.08,5.08,5.08s5.08-2.27,5.08-5.08c0-2.8-2.27-5.08-5.08-5.08
				S5.73,128.87,5.73,131.67"/>
		</defs>
		<clipPath id="SVGID_20_">
			<use xlink:href="#SVGID_19_"  style="overflow:visible;"/>
		</clipPath>
		
			<linearGradient id="SVGID_21_" gradientUnits="userSpaceOnUse" x1="-873.0304" y1="608.0732" x2="-872.6652" y2="608.0732" gradientTransform="matrix(24.5 20.5 -20.5 24.5 33860.8086 3127.0295)">
			<stop  offset="0" style="stop-color:#EFEFEF"/>
			<stop  offset="1" style="stop-color:#D2D3D2"/>
		</linearGradient>
		<polygon class="st6" points="0.74,132.57 11.7,141.74 20.88,130.78 9.91,121.6 		"/>
	</g>
</g>
</svg>
