<?xml version="1.0" encoding="utf-8"?>
<!-- Generator: Adobe Illustrator 23.1.0, SVG Export Plug-In . SVG Version: 6.00 Build 0)  -->
<svg version="1.1" id="Слой_1" xmlns="http://www.w3.org/2000/svg" xmlns:xlink="http://www.w3.org/1999/xlink" x="0px" y="0px"
	 viewBox="0 0 83.33 103" style="enable-background:new 0 0 83.33 103;" xml:space="preserve">
<style type="text/css">
	.st0{fill:none;stroke:#FFFFFF;stroke-width:1.3044;stroke-miterlimit:10;}

	@keyframes rotate {
		from {
			transform: rotate(0);
		}

		to {
			transform: rotate(360deg)
		}
	}


	#стрелка_2 {
		transform-origin: left bottom;
		animation: rotate 3s linear infinite;
	}
</style>
<g>
	<path id="стрелка_2" class="st0" d="M16.41,89.47L16.41,89.47c-3.12-1.41-4.52-5.11-3.11-8.22L47.51,5.4
		c1.41-3.12,5.11-4.52,8.22-3.11l0,0c3.12,1.41,4.52,5.11,3.11,8.22L24.63,86.36C23.23,89.47,19.53,90.87,16.41,89.47z"/>
	<path id="стрелка_1" class="st0" d="M13.35,86.06L13.35,86.06c-1.21-3.2,0.42-6.8,3.62-8.01l56.36-21.32
		c3.2-1.21,6.8,0.42,8.01,3.62l0,0c1.21,3.2-0.42,6.8-3.62,8.01L21.37,89.67C18.17,90.88,14.56,89.25,13.35,86.06z"/>
	<path id="круг" class="st0" d="M26,68.2L26,68.2c8.71,3.93,12.58,14.17,8.65,22.87l0,0c-3.93,8.71-14.17,12.58-22.87,8.65l0,0
		C3.08,95.8-0.8,85.55,3.13,76.85l0,0C7.06,68.14,17.3,64.27,26,68.2z"/>
</g>
</svg>