<?xml version="1.0" encoding="utf-8"?>
<!-- Generator: Adobe Illustrator 23.1.0, SVG Export Plug-In . SVG Version: 6.00 Build 0)  -->
<svg version="1.1" id="Слой_1" xmlns="http://www.w3.org/2000/svg" xmlns:xlink="http://www.w3.org/1999/xlink" x="0px" y="0px"
	 viewBox="0 0 74 74" style="enable-background:new 0 0 74 74;" xml:space="preserve">
<style type="text/css">
	.st0{fill:url(#SVGID_1_);}
	.st1{fill:#FFFFFF;}
</style>
<g>
	<linearGradient id="SVGID_1_" gradientUnits="userSpaceOnUse" x1="0.4428" y1="37" x2="73.5572" y2="37">
		<stop  offset="0" style="stop-color:#0F9EA8"/>
		<stop  offset="0.4412" style="stop-color:#16A7A1"/>
		<stop  offset="1" style="stop-color:#1AAD9D"/>
	</linearGradient>
	<path class="st0" d="M63.24,73.56H10.76c-5.68,0-10.32-4.64-10.32-10.32V10.76c0-5.68,4.64-10.32,10.32-10.32h52.47
		c5.68,0,10.32,4.64,10.32,10.32v52.47C73.56,68.91,68.91,73.56,63.24,73.56z"/>
	<path class="st1" d="M61.76,21.41c-0.64,5.47-3.78,24.33-4.08,26.02c-0.33,1.86-0.66,3.73-1,5.59c-0.18,0.97-0.44,1.93-0.9,2.81
		c-0.81,1.58-1.94,2.1-3.69,1.71c-1.1-0.25-2.06-0.78-2.98-1.4c-4.46-3.01-8.91-6.02-13.36-9.04c-0.56-0.38-1.08-0.8-1.51-1.33
		c-0.69-0.87-0.74-1.71-0.15-2.65c0.35-0.56,0.82-1.03,1.29-1.49c2.77-2.73,5.67-5.32,8.48-8c1.73-1.65,3.48-3.28,5.11-5.04
		c0.21-0.23,0.42-0.47,0.61-0.72c0.21-0.27,0.18-0.56,0.04-0.85c-0.14-0.28-0.39-0.33-0.68-0.33c-0.41,0.01-0.74,0.22-1.07,0.42
		c-2.83,1.76-5.58,3.64-8.35,5.49c-3.56,2.38-7.11,4.79-10.67,7.17c-1.23,0.82-2.54,1.46-4.04,1.61c-1.06,0.11-2.08-0.14-3.1-0.36
		c-1.33-0.27-2.62-0.7-3.93-1.04c-1.16-0.38-2.32-0.77-3.48-1.16c-0.57-0.19-1.12-0.42-1.6-0.79c-0.81-0.63-0.87-1.47-0.16-2.2
		c0.63-0.64,1.42-1.05,2.23-1.4c11.7-5.04,23.34-10.24,35.15-15.02c2.52-1.02,5.02-2.07,7.64-2.81c0.81-0.23,1.62-0.41,2.47-0.25
		c1.2,0.24,1.69,0.81,1.85,2.03C62.02,19.43,61.88,20.42,61.76,21.41z"/>
</g>
</svg>
