<?xml version="1.0" encoding="utf-8"?>
<!-- Generator: Adobe Illustrator 23.1.0, SVG Export Plug-In . SVG Version: 6.00 Build 0)  -->
<svg version="1.1" id="Слой_1" xmlns="http://www.w3.org/2000/svg" xmlns:xlink="http://www.w3.org/1999/xlink" x="0px" y="0px"
	 viewBox="0 0 1920 2066" style="enable-background:new 0 0 1920 2066;" xml:space="preserve">
<style type="text/css">
	.st0{fill:url(#SVGID_1_);}
</style>
<linearGradient id="SVGID_1_" gradientUnits="userSpaceOnUse" x1="0" y1="1033" x2="1920" y2="1033">
	<stop  offset="0" style="stop-color:#FFAD39"/>
	<stop  offset="0.2885" style="stop-color:#F69E54"/>
	<stop  offset="0.7557" style="stop-color:#E8887B"/>
	<stop  offset="1" style="stop-color:#E3808A"/>
</linearGradient>
<path class="st0" d="M1920,0.61c-38.73,65.7-92.04,123.37-155.14,170.7c-80.92,60.69-135.71,147.19-151.85,243.85l-13.3,79.7
	c-28.92,173.3-156.05,319.63-334.12,384.57c0,0-371.59,171.49-371.36,455.55c0.08,102.2-31.26,243.73-64.23,291.94
	c-253,370-824.56,163.41-830,163v82v42c194.62,62.85,320,169,504,149c130.03-14.13,233.63-61.75,306.69-108
	c187-118.37,413.9-157.24,628.71-103.97c11.34,2.81,22.64,5.82,33.89,9.03h0c109.66,31.27,227.7,14.15,323.37-47.92
	c65.2-42.3,123.34-96.03,123.34-153.13L1920,0.61z"/>
</svg>
