<?xml version="1.0" encoding="utf-8"?>
<!-- Generator: Adobe Illustrator 23.1.0, SVG Export Plug-In . SVG Version: 6.00 Build 0)  -->
<svg version="1.1" id="Слой_1" xmlns="http://www.w3.org/2000/svg" xmlns:xlink="http://www.w3.org/1999/xlink" x="0px" y="0px"
	 viewBox="0 0 479 275" style="enable-background:new 0 0 479 275;" xml:space="preserve">
<style type="text/css">
	.st0{fill:#1B82D8;}
	.st1{fill:url(#SVGID_1_);}
	.st2{fill:url(#SVGID_2_);}
	.st3{fill:#FFFFFF;}
	.st4{fill:none;stroke:url(#SVGID_3_);stroke-width:19.9867;stroke-miterlimit:10;}
</style>
<g>
	<g>
		<g>
			<path class="st0" d="M458.4,59.24h-67.21c-11.27,0-20.43-9.17-20.43-20.43s9.17-20.43,20.43-20.43h67.21
				c11.27,0,20.43,9.17,20.43,20.43S469.66,59.24,458.4,59.24z M391.18,20.03c-10.35,0-18.78,8.42-18.78,18.78
				s8.42,18.78,18.78,18.78h67.21c10.35,0,18.77-8.42,18.77-18.78s-8.42-18.78-18.77-18.78H391.18z"/>
		</g>
		<g>
			<g>
				<path class="st0" d="M398.18,49.61c-5.96,0-10.81-4.85-10.81-10.81S392.23,28,398.18,28c5.96,0,10.81,4.85,10.81,10.81
					S404.14,49.61,398.18,49.61z M398.18,29.66c-5.04,0-9.15,4.1-9.15,9.15s4.1,9.15,9.15,9.15c5.04,0,9.15-4.1,9.15-9.15
					S403.23,29.66,398.18,29.66z"/>
			</g>
			<g>
				<path class="st0" d="M424.79,49.61c-5.96,0-10.81-4.85-10.81-10.81S418.83,28,424.79,28c5.96,0,10.81,4.85,10.81,10.81
					S430.75,49.61,424.79,49.61z M424.79,29.66c-5.04,0-9.15,4.1-9.15,9.15s4.1,9.15,9.15,9.15c5.04,0,9.15-4.1,9.15-9.15
					S429.83,29.66,424.79,29.66z"/>
			</g>
			<g>
				<path class="st0" d="M451.39,49.61c-5.96,0-10.81-4.85-10.81-10.81S445.44,28,451.39,28c5.96,0,10.81,4.85,10.81,10.81
					S457.35,49.61,451.39,49.61z M451.39,29.66c-5.04,0-9.15,4.1-9.15,9.15s4.1,9.15,9.15,9.15c5.04,0,9.15-4.1,9.15-9.15
					S456.44,29.66,451.39,29.66z"/>
			</g>
		</g>
	</g>
	<linearGradient id="SVGID_1_" gradientUnits="userSpaceOnUse" x1="349.2407" y1="227.3187" x2="443.9998" y2="227.3187">
		<stop  offset="0" style="stop-color:#F06C99"/>
		<stop  offset="0.2233" style="stop-color:#E260AE"/>
		<stop  offset="0.7376" style="stop-color:#C648D8"/>
		<stop  offset="1" style="stop-color:#BB3FE9"/>
	</linearGradient>
	<path class="st1" d="M440.08,270.78L440.08,270.78c-5.23,5.23-13.78,5.23-19.01,0l-67.9-67.9c-5.23-5.23-5.23-13.78,0-19.01l0,0
		c5.23-5.23,13.78-5.23,19.01,0l67.9,67.9C445.31,256.99,445.31,265.55,440.08,270.78z"/>
	<g>
		<linearGradient id="SVGID_2_" gradientUnits="userSpaceOnUse" x1="130.6761" y1="105.8996" x2="341.8718" y2="105.8996">
			<stop  offset="0" style="stop-color:#FFAD39"/>
			<stop  offset="0.2885" style="stop-color:#F69E54"/>
			<stop  offset="0.7557" style="stop-color:#E8887B"/>
			<stop  offset="1" style="stop-color:#E3808A"/>
		</linearGradient>
		<circle class="st2" cx="236.27" cy="105.9" r="105.6"/>
		<g>
			<path class="st3" d="M236.27,186.22c-44.29,0-80.32-36.03-80.32-80.32c0-44.29,36.03-80.32,80.32-80.32
				c44.29,0,80.32,36.03,80.32,80.32C316.6,150.19,280.56,186.22,236.27,186.22z M236.27,27.38c-43.3,0-78.52,35.23-78.52,78.52
				c0,43.3,35.23,78.52,78.52,78.52s78.52-35.23,78.52-78.52C314.8,62.6,279.57,27.38,236.27,27.38z"/>
		</g>
	</g>
	<linearGradient id="SVGID_3_" gradientUnits="userSpaceOnUse" x1="229.7783" y1="135.38" x2="389.6717" y2="135.38">
		<stop  offset="0" style="stop-color:#F06C99"/>
		<stop  offset="0.2233" style="stop-color:#E260AE"/>
		<stop  offset="0.7376" style="stop-color:#C648D8"/>
		<stop  offset="1" style="stop-color:#BB3FE9"/>
	</linearGradient>
	<circle class="st4" cx="309.73" cy="135.38" r="69.95"/>
	<g>
		<g>
			<path class="st0" d="M192.5,259.2H18.09c-9.88,0-17.92-8.04-17.92-17.92V125.56h1.66c0,8.97,7.29,16.26,16.26,16.26h174.4
				l-7.53,30.26l7.33,30.64l-7.32,28.25L192.5,259.2z M1.83,133.08v108.2c0,8.97,7.29,16.26,16.26,16.26h172.26l-7.1-26.57
				l7.33-28.27l-7.32-30.63l7.12-28.59H18.09C10.89,143.48,4.68,139.22,1.83,133.08z"/>
		</g>
		<g>
			<path class="st0" d="M83.61,142.65h-1.66v-33.11H18.09c-8.97,0-16.26,7.29-16.26,16.26H0.17c0-9.88,8.04-17.92,17.92-17.92h65.52
				V142.65z"/>
		</g>
	</g>
</g>
</svg>
