<?xml version="1.0" encoding="utf-8"?>
<!-- Generator: Adobe Illustrator 23.1.0, SVG Export Plug-In . SVG Version: 6.00 Build 0)  -->
<svg version="1.1" id="Слой_1" xmlns="http://www.w3.org/2000/svg" xmlns:xlink="http://www.w3.org/1999/xlink" x="0px" y="0px"
	 viewBox="0 0 727 888" style="enable-background:new 0 0 727 888;" xml:space="preserve">
<style type="text/css">
	.st0{fill:url(#SVGID_1_);}
	.st1{fill:url(#SVGID_2_);}
	.st2{fill:url(#SVGID_3_);}
	.st3{fill:url(#SVGID_4_);}
	.st4{fill:url(#SVGID_5_);}
	.st5{fill:url(#SVGID_6_);}
	.st6{fill:#F2C557;}
	.st7{fill:#F2F2F2;}
	.st8{fill:#E8E8E8;}
	.st9{fill:#1B82D8;}
	.st10{fill:#135E91;}
	.st11{fill:#FFFFFF;}
	.st12{fill:url(#SVGID_7_);}
	.st13{fill:url(#SVGID_8_);}
	.st14{fill:#DDDDDD;}
	.st15{fill:url(#SVGID_9_);}
	.st16{fill:#1B81D5;}
</style>
<style>

	@media screen and (max-width: 576px) {
		#ноутбук_1_ {
			display: none;
		}
	}

</style>
<g id="паззл_1_">
	<linearGradient id="SVGID_1_" gradientUnits="userSpaceOnUse" x1="533.8411" y1="887.5406" x2="533.8411" y2="605.5406">
		<stop  offset="0" style="stop-color:#F06C99"/>
		<stop  offset="0.2233" style="stop-color:#E260AE"/>
		<stop  offset="0.7376" style="stop-color:#C648D8"/>
		<stop  offset="1" style="stop-color:#BB3FE9"/>
	</linearGradient>
	<path class="st0" d="M629.02,605.54c0.03,0.74,0.05,1.47,0.05,2.21c0,35.06-28.42,63.49-63.49,63.49
		c-35.06,0-63.49-28.42-63.49-63.49c0-0.74,0.02-1.48,0.05-2.21h-77.56v79.73c-35.06,0-63.49,28.42-63.49,63.49
		s28.42,63.49,63.49,63.49v75.3h211.87c38.57,0,70.13-31.56,70.13-70.13V605.54H629.02z"/>
	<linearGradient id="SVGID_2_" gradientUnits="userSpaceOnUse" x1="381.0976" y1="746.5406" x2="726.5845" y2="746.5406">
		<stop  offset="0" style="stop-color:#F06C99"/>
		<stop  offset="0.2233" style="stop-color:#E260AE"/>
		<stop  offset="0.7376" style="stop-color:#C648D8"/>
		<stop  offset="1" style="stop-color:#BB3FE9"/>
	</linearGradient>
	<path class="st1" d="M649.02,605.54c0.03,0.74,0.05,1.47,0.05,2.21c0,35.06-28.42,63.49-63.49,63.49
		c-35.06,0-63.49-28.42-63.49-63.49c0-0.74,0.02-1.48,0.05-2.21h-77.56v79.73c-35.06,0-63.49,28.42-63.49,63.49
		s28.42,63.49,63.49,63.49v75.3h211.87c38.57,0,70.13-31.56,70.13-70.13V605.54H649.02z"/>
</g>
<g>
	<linearGradient id="SVGID_3_" gradientUnits="userSpaceOnUse" x1="270.328" y1="605.5406" x2="270.328" y2="323.5406">
		<stop  offset="0" style="stop-color:#FFAD39"/>
		<stop  offset="0.2885" style="stop-color:#F69E54"/>
		<stop  offset="0.7557" style="stop-color:#E8887B"/>
		<stop  offset="1" style="stop-color:#E3808A"/>
	</linearGradient>
	<path class="st2" d="M379.58,404.01v-80.47H167.72c-38.57,0-70.13,31.56-70.13,70.13v211.87h77.61
		c1.55-33.69,29.32-60.53,63.39-60.53c34.07,0,61.84,26.85,63.39,60.53h77.61v-74.56c35.06,0,63.49-28.42,63.49-63.49
		S414.65,404.01,379.58,404.01z"/>
	<linearGradient id="SVGID_4_" gradientUnits="userSpaceOnUse" x1="238.5845" y1="887.4097" x2="238.5845" y2="544.1373">
		<stop  offset="0" style="stop-color:#5CA7FD"/>
		<stop  offset="1" style="stop-color:#2185D9"/>
	</linearGradient>
	<path class="st3" d="M316.1,748.62c0-35.06,28.42-63.49,63.49-63.49v-79.73h-77.57c-1.17-34.04-29.11-61.27-63.43-61.27
		c-34.32,0-62.26,27.24-63.43,61.27H97.58v211.87c0,38.57,31.56,70.13,70.13,70.13h211.87v-75.3
		C344.52,812.11,316.1,783.69,316.1,748.62z"/>
	<linearGradient id="SVGID_5_" gradientUnits="userSpaceOnUse" x1="117.5845" y1="464.5406" x2="463.0714" y2="464.5406">
		<stop  offset="0" style="stop-color:#FFAD39"/>
		<stop  offset="0.2885" style="stop-color:#F69E54"/>
		<stop  offset="0.7557" style="stop-color:#E8887B"/>
		<stop  offset="1" style="stop-color:#E3808A"/>
	</linearGradient>
	<path class="st4" d="M399.58,404.01v-80.47H187.72c-38.57,0-70.13,31.56-70.13,70.13v211.87h77.61
		c1.55-33.69,29.32-60.53,63.39-60.53c34.07,0,61.84,26.85,63.39,60.53h77.61v-74.56c35.06,0,63.49-28.42,63.49-63.49
		S434.65,404.01,399.58,404.01z"/>
	<linearGradient id="SVGID_6_" gradientUnits="userSpaceOnUse" x1="117.5845" y1="715.7735" x2="399.5845" y2="715.7735">
		<stop  offset="0" style="stop-color:#5CA7FD"/>
		<stop  offset="1" style="stop-color:#2185D9"/>
	</linearGradient>
	<path class="st5" d="M336.1,748.62c0-35.06,28.42-63.49,63.49-63.49v-79.73h-77.57c-1.17-34.04-29.11-61.27-63.43-61.27
		c-34.32,0-62.26,27.24-63.43,61.27h-77.57v211.87c0,38.57,31.56,70.13,70.13,70.13h211.87v-75.3
		C364.52,812.11,336.1,783.69,336.1,748.62z"/>
</g>
<g id="ноутбук_1_">
	<g>
		<path class="st6" d="M143.24,199.46l-54.4,26.79c0,0-12.41,1.58-14.5,5.52c-2.09,3.94-13.25,19.4-2.23,25.97
			s21.77-2.91,19.98-7.61c-1.79-4.7-8.45-2.17-1.79-4.7c6.66-2.54,9.09-7.95,9.09-7.95l61.96-22.24L143.24,199.46z"/>
		<path class="st7" d="M228.77,178.09c-3.47,21.72-25.28,31.03-25.28,31.03l-87.25,41.56l-17.47-33.11L159.5,185
			c10.02-5.37,31.11-10.68,27.17-21.34c-1.11-2.99,9.56-62.43,18.91-68.12c6.87-4.18,20.25,0.44,23,8
			C236.58,125.54,229.87,171.2,228.77,178.09z"/>
	</g>
	<g id="нога_2_4_">
		<g>
			<path class="st8" d="M117.9,433.96l-10.15,49.33L0.85,448.95c0,0-6.45-16.19,30.54-18.37c9.88-0.58,35.69,1.15,40.14-6.61l0,0
				L117.9,433.96z"/>
			<g>
				
					<rect x="56.44" y="406.8" transform="matrix(0.3082 -0.9513 0.9513 0.3082 -394.0649 370.2851)" class="st9" width="2.26" height="98.6"/>
			</g>
			<g>
				<polygon class="st9" points="53.17,436.44 55.37,435.97 53,424.89 67.58,433.41 68.72,431.46 49.72,420.36 				"/>
			</g>
		</g>
		<path class="st10" d="M204.05,254.95c0,0-71.9-13.3-108.29-2.52C61.54,262.56,65.67,407.94,66.29,425.3
			c0.03,0.97,0.76,1.77,1.73,1.9c0.81,0.11,4.63,0.42,8.95,0.76c9.26,0.72,18.45,2.21,27.46,4.46c5.85,1.46,11.81,2.91,13.65,3.22
			c0.88,0.15,1.74-0.3,2.14-1.1c0.41-0.83,0.87-2.04,1.13-3.63c3.88-23.66,2.52-123.68,2.52-123.68s20.78-6.69,75.53,4.84
			s77.99-11.24,68.89-55.58"/>
	</g>
	<g id="нога_1">
		<g id="ботинок_14_">
			<path class="st11" d="M174.58,448.37l-0.44,50.41L62.62,485.75c0,0-9.46-14.66,26.42-23.95c9.58-2.48,35.24-5.78,38.12-14.26l0,0
				L174.58,448.37z"/>
			<g>
				
					<rect x="118.65" y="431.7" transform="matrix(0.1116 -0.9938 0.9938 0.1116 -371.5892 546.3542)" class="st9" width="2.26" height="98.6"/>
			</g>
			<g>
				<polygon class="st9" points="113.95,463.71 116.17,463.3 114.12,452.15 128.45,461.1 129.65,459.18 110.98,447.52 				"/>
			</g>
		</g>
		
			<linearGradient id="SVGID_7_" gradientUnits="userSpaceOnUse" x1="15182.7373" y1="-1284.5698" x2="15342.4229" y2="-1284.5698" gradientTransform="matrix(0.9685 0.2488 -0.2488 0.9685 -14895.8047 -2209.1587)">
			<stop  offset="0" style="stop-color:#5CA7FD"/>
			<stop  offset="1" style="stop-color:#2185D9"/>
		</linearGradient>
		<path class="st12" d="M298.11,239.94c0.29,1.78,3.97,37.36,4.12,39.07c3.48,41.19-32.93,61.32-71.9,47.26
			c-20.52-7.4-46.1,0.26-46.1,0.26s0.47,127.76-5.83,128.37c-24.66,2.36-54.73,2.3-54.89-8.05c-0.75-47.88,0.65-153.29,25.15-168.49
			c18.71-11.61,62.76-23.57,67.71-26.49c4.94-2.92,4.49-17.48,4.49-17.48L298.11,239.94z"/>
	</g>
	<g id="голова_1_">
		<path class="st10" d="M248.03,61.27c2.3-4.57,4.78-11.68,7.05-19.07c5.05-16.44-6.13-33.36-23.22-35.29
			C221.26,5.72,197,2.29,196.87,2.33c-14.66,4,23.79,81.36,29.43,79.37C235.29,78.52,243.13,70.99,248.03,61.27z"/>
		<g>
			<path class="st6" d="M208.26,17.13c9.39,0.7,17.78,7.33,23.41,16.47l0,0c0,0,3.18-5.99,8.32,0.76s-1.46,18.49-1.46,18.49l0,0
				c0.4,2.96,0.52,5.94,0.32,8.88c-1.43,20.65,8.78,26.87,8.78,26.87s4.71,25.14-7.41,28.72c-12.12,3.58-38.61-6.47-34.53-21.32
				l1.02-17.24c0,0-18.25,3.51-21.95-21.74C181.05,31.75,190.46,15.8,208.26,17.13z"/>
			<circle class="st9" cx="199.99" cy="47.66" r="3.16"/>
			<g>
				<path class="st9" d="M206.38,41.92l1.6-1.59c-3.81-3.84-11.86-5.16-12.2-5.21l-0.35,2.23C195.5,37.36,203.09,38.61,206.38,41.92
					z"/>
			</g>
			<g>
				<polygon class="st9" points="187.71,64.91 188.13,62.7 178.64,60.92 184.46,43.23 182.31,42.53 175.69,62.67 				"/>
			</g>
			<g>
				<path class="st9" d="M192.74,72.08c3.64,0.49,8.87,0.63,11.46-1.94l-1.59-1.6c-2.6,2.58-10.35,1.34-13.12,0.64l-0.55,2.19
					C189.34,71.46,190.82,71.82,192.74,72.08z"/>
			</g>
		</g>
		<linearGradient id="SVGID_8_" gradientUnits="userSpaceOnUse" x1="181.4303" y1="13.6093" x2="225.2343" y2="13.6093">
			<stop  offset="0" style="stop-color:#5CA7FD"/>
			<stop  offset="1" style="stop-color:#2185D9"/>
		</linearGradient>
		<path class="st13" d="M182.99,0.46l32.71,4.4c6,0.81,10.24,6.37,9.44,12.37v0c-0.81,6-6.37,10.24-12.37,9.44l-21.8-2.93
			c-6-0.81-10.24-6.37-9.44-12.37L182.99,0.46z"/>
	</g>
	<g id="тело">
		<path class="st14" d="M206.16,88.37c0,0,0.03,15.85,16.66,14.4c16.63-1.45,24.56-14.38,24.56-14.38s20.21,3.22,27,13.49
			c6.79,10.28,10.08,66.85,10.08,66.85l0,0c4.9,17.9,17.78,68.11,18.1,102.58c-61.44,24.45-124.82-18.53-124.82-18.53
			s3.64-57.66,7.03-85.46l0,0C184.75,167.32,188.93,108.9,206.16,88.37z"/>
		<g>
			<path class="st9" d="M203.46,259.59l2.25-0.2c-2.05-23.43,14.09-151.45,14.25-152.74l-2.24-0.28
				C217.05,111.65,201.39,235.92,203.46,259.59z"/>
		</g>
		<g>
			<path class="st9" d="M220.27,155.09c-0.88-0.74-1.41-1.77-1.51-2.91c-0.1-1.14,0.25-2.25,0.99-3.13
				c0.74-0.88,1.77-1.41,2.91-1.51c1.14-0.1,2.25,0.25,3.13,0.99c0.88,0.74,1.41,1.77,1.51,2.91l0,0c0.21,2.36-1.54,4.44-3.9,4.64
				c-0.32,0.03-0.64,0.02-0.95-0.02C221.65,155.95,220.9,155.62,220.27,155.09z M225.05,151.63c-0.05-0.54-0.3-1.03-0.72-1.38
				c-0.41-0.35-0.94-0.51-1.48-0.47c-0.54,0.05-1.03,0.3-1.38,0.72c-0.35,0.42-0.51,0.94-0.47,1.48c0.1,1.12,1.09,1.94,2.2,1.85
				c0.54-0.05,1.03-0.3,1.38-0.72C224.93,152.69,225.1,152.17,225.05,151.63L225.05,151.63z"/>
		</g>
		<g>
			<path class="st9" d="M213.53,237.23c-2.29-0.59-3.67-2.93-3.08-5.22c0.59-2.29,2.93-3.68,5.22-3.09
				c2.29,0.59,3.67,2.93,3.08,5.22c-0.55,2.12-2.6,3.47-4.72,3.18C213.86,237.3,213.69,237.27,213.53,237.23z M212.63,232.57
				c-0.13,0.52-0.06,1.07,0.22,1.54c0.28,0.47,0.72,0.8,1.24,0.93c1.09,0.27,2.19-0.38,2.47-1.46c0.13-0.52,0.06-1.07-0.22-1.54
				c-0.28-0.47-0.72-0.8-1.24-0.93c-0.08-0.02-0.16-0.03-0.24-0.05C213.86,230.93,212.89,231.56,212.63,232.57z"/>
		</g>
		<g>
			<polygon class="st9" points="190.82,121.17 213.84,108.17 212.73,106.2 194.64,116.42 203.96,86.12 201.8,85.46 			"/>
		</g>
		<g>
			<polygon class="st9" points="236.76,124.2 247.63,92.86 245.5,92.12 235.73,120.28 223.49,109.45 221.99,111.14 			"/>
		</g>
	</g>
	<g id="рука_4_">
		<path class="st6" d="M114.75,162.81c-5.21-1.64-19.5,2.42-26.78,11.53c0,0-15.29,12.32-10.19,15.78
			c5.55,3.77,7.69-2.86,13.68-4.21c9.83-2.22,19.36-1.43,24.05,1.22"/>
		<path class="st6" d="M115.64,187.23c8.54,1.84,14.64-2.1,14.64-2.1l78.52,18.5l-8.09-28.31l-73.78-8.78c0,0-13.81-6.65-18.58-4"/>
		<path class="st7" d="M252.26,100.99c0,0,9.69-10.24,20.67-1.99c10.97,8.24,25.04,41.76,16.6,83.43
			c-8.44,41.67-48.86,34.19-48.86,34.19l-95.67-13.66l3.77-37.25l68.61,6.49c11.31,1.07,21.35-7.22,22.45-18.53
			C241.5,136.23,245.38,109.72,252.26,100.99z"/>
		<g>
			
				<rect x="148.19" y="183.34" transform="matrix(0.0816 -0.9967 0.9967 0.0816 -32.7148 333.4257)" class="st9" width="32.75" height="2.26"/>
		</g>
		<g>
			<path class="st9" d="M153.76,179.3c-0.87-0.75-1.39-1.79-1.48-2.93c-0.18-2.36,1.59-4.42,3.95-4.6c1.14-0.09,2.25,0.28,3.12,1.02
				c0.87,0.75,1.39,1.79,1.48,2.93l0,0c0.18,2.36-1.6,4.42-3.95,4.6c-0.31,0.02-0.61,0.01-0.9-0.03
				C155.17,180.19,154.4,179.85,153.76,179.3z M158.58,175.9c-0.04-0.54-0.29-1.03-0.7-1.39c-0.41-0.35-0.94-0.53-1.48-0.49
				c-1.12,0.08-1.96,1.06-1.87,2.18c0.04,0.54,0.29,1.03,0.7,1.39c0.41,0.35,0.94,0.53,1.48,0.49
				C157.83,177.99,158.67,177.02,158.58,175.9L158.58,175.9z"/>
		</g>
	</g>
	<g id="ноутбук">
		<linearGradient id="SVGID_9_" gradientUnits="userSpaceOnUse" x1="75.109" y1="238.6402" x2="197.9374" y2="238.6402">
			<stop  offset="0" style="stop-color:#5CA7FD"/>
			<stop  offset="1" style="stop-color:#2185D9"/>
		</linearGradient>
		<polygon class="st15" points="197.94,242.49 144.84,227.54 75.11,227.54 105.59,249.74 		"/>
		<path class="st16" d="M197.85,242.39L197.85,242.39L97.4,242.83l-16.76-97.05h0c-5.1,0.88-8.51,5.76-7.59,10.85l17.31,95.41
			l0.03,0l0,0.22l98.08-0.43C193.68,251.81,197.87,247.58,197.85,242.39z"/>
		<polyline class="st16" points="90.4,252.26 44.29,229.42 23.25,125.12 80.65,145.78 		"/>
		<g>
			<path class="st11" d="M53.97,159.84c3.23,1.05,5.86,5.8,5.87,10.58c0,4.79-2.62,7.83-5.86,6.78c-3.23-1.05-5.86-5.79-5.86-10.58
				C48.12,161.83,50.74,158.79,53.97,159.84z M53.98,175.94c2.77,0.9,5.01-1.7,5.01-5.8c0-4.09-2.25-8.15-5.02-9.05
				c-2.76-0.9-5.01,1.7-5,5.79C48.97,170.98,51.22,175.04,53.98,175.94"/>
		</g>
	</g>
</g>
</svg>
