<?xml version="1.0" encoding="utf-8"?>
<!-- Generator: Adobe Illustrator 23.1.0, SVG Export Plug-In . SVG Version: 6.00 Build 0)  -->
<svg version="1.1" id="Слой_1" xmlns="http://www.w3.org/2000/svg" xmlns:xlink="http://www.w3.org/1999/xlink" x="0px" y="0px"
	 viewBox="0 0 608 583" style="enable-background:new 0 0 608 583;" xml:space="preserve">
<style type="text/css">
	.st0{fill:#F2C557;}
	.st1{fill:#F2F2F2;}
	.st2{fill:#DDDDDD;}
	.st3{fill:#1B82D8;}
	.st4{fill:#7D2B7F;}
	.st5{fill:#007F79;}
	.st6{fill:url(#SVGID_1_);}
	.st7{fill:url(#SVGID_2_);}
	.st8{fill:url(#SVGID_3_);}
	.st9{fill:url(#SVGID_4_);}
	.st10{fill:url(#SVGID_5_);}
	.st11{fill:url(#SVGID_6_);}
	.st12{fill:url(#SVGID_7_);}
	.st13{fill:#FFFFFF;}
	.st14{fill:url(#SVGID_8_);}
	.st15{fill:url(#SVGID_9_);}
	.st16{fill:none;stroke:#1B82D8;stroke-width:2;stroke-miterlimit:10;}
	.st17{fill:#E8E8E8;}
	.st18{fill:url(#SVGID_10_);}
</style>
<g id="персонаж">
	<g id="рука_2">
		<path class="st0" d="M326.32,206.11l49.03,35.68c0,0,11.95,3.68,13.34,7.91c1.39,4.24,9.74,21.38-2.24,25.97
			c-11.98,4.59-20.96-6.58-18.39-10.91c2.57-4.33,8.7-0.69,2.57-4.33c-6.13-3.64-7.6-9.38-7.6-9.38l-57.26-32.49L326.32,206.11z"/>
		<path class="st1" d="M253.32,146.92c-22.51,36.07,11.99,58.41,11.99,58.41l78.88,55.84l22.87-29.65l-54.29-42.45
			c-8.95-7-28.83-15.83-23.13-25.66c2.69-4.64,20.58-81.04-13.69-53.11C273.04,112.67,256.23,142.27,253.32,146.92z"/>
	</g>
	<g id="нога_2_1_">
		<g>
			<path class="st2" d="M277.43,458.81l-9.22,49.51l111.96,8.55c0,0,12.09-12.56-21.35-28.53c-8.93-4.26-33.49-12.41-34.68-21.27
				l0,0L277.43,458.81z"/>
			<g>
				
					<rect x="323.81" y="452.78" transform="matrix(0.0736 -0.9973 0.9973 0.0736 -199.6924 789.1967)" class="st3" width="2.26" height="98.6"/>
			</g>
			<g>
				<polygon class="st3" points="336.44,485.54 334.58,484.27 340.96,474.91 324.23,477.3 323.91,475.06 345.7,471.95 				"/>
			</g>
		</g>
		<path class="st4" d="M265.21,260.53c0,0,71.6,14.82,101.24,38.53c27.86,22.3-12.39,153-14.5,170.25c-1.15,9.42-88.94-10.11-89-11
			c-0.06-0.92,56.79-119.11,56.79-119.11s-16.72-14.04-71.77-24.02s-67.98-39.84-42.82-77.47"/>
	</g>
	<g id="голова_4_">
		<g>
			<path class="st5" d="M270.08,72.06c-0.02,0.01-0.05,0.01-0.07,0.02c-2.36,1.18-4.69,1.72-6.82,1.5
				c-11.23,0.63-10.64-11.55-27.02-17.14c-19.16-6.54-15.99,15.24-44.86,2.68c-27.17-11.82-22.78-48.76-22.16-53.08
				c-0.07-0.25-0.11-0.4-0.11-0.4s-12.67,55.99,15.11,68.07s24.72-8.86,43.15-2.57c15.75,5.37,15.18,17.09,25.99,16.48
				c2.05,0.21,4.3-0.31,6.56-1.44c0.02-0.01,0.04-0.01,0.07-0.02c2.36-0.81,4.1-2.05,5.34-3.57c0.68-0.83,1.4-1.63,2.12-2.42
				c1.96-2.15,3.84-4.67,5.15-7.66c0.34-0.77,0.68-1.51,1.03-2.22C272.57,71,271.42,71.6,270.08,72.06z"/>
			<g id="лицо_3_">
				<path class="st0" d="M291.49,108.44l2.19-17.13c0,0,17.29,6.83,25.6-17.3s2.03-41.55-15.71-43.55
					c-17.74-1.99-35.9,17.6-38.32,38.16S251.65,93.4,251.65,93.4s-9.28,23.83,1.96,29.59C264.85,128.76,292.75,123.79,291.49,108.44
					z"/>
				<circle class="st3" cx="306.04" cy="62" r="3.16"/>
				<g>
					<path class="st3" d="M312.44,52.71c-0.08,0-7.76-0.19-11.62,2.46l-1.28-1.86c4.45-3.07,12.61-2.87,12.96-2.86L312.44,52.71z"/>
				</g>
				<g>
					<polygon class="st3" points="327.13,81.25 314.9,81.23 314.91,78.97 324.56,78.99 322.12,60.53 324.36,60.23 					"/>
				</g>
				<g>
					<path class="st3" d="M312.5,87.34c-1.18,0.07-11.61,0.57-14.77-4.03l1.86-1.28c2.08,3.02,9.93,3.23,12.77,3.06L312.5,87.34z"/>
				</g>
			</g>
			
				<linearGradient id="SVGID_1_" gradientUnits="userSpaceOnUse" x1="2667.6787" y1="1066.4368" x2="2813.7781" y2="1066.4368" gradientTransform="matrix(0.9257 -0.3783 0.3783 0.9257 -2676.5347 119.4542)">
				<stop  offset="0" style="stop-color:#0F9EA8"/>
				<stop  offset="1" style="stop-color:#1AAD9E"/>
			</linearGradient>
			<path class="st6" d="M276.3,67.43c2.57-2.55,5.2-5.68,6.89-9.56c0.09-0.21,0.19-0.42,0.28-0.63c-3.49,2.73-6.92,6.88-9.93,13.05
				C274.68,69.47,275.59,68.51,276.3,67.43z"/>
			<path class="st5" d="M298.6,21.62c-5.47-2.63-11.99-4.34-19.39-3.78c-23.97,1.79-29.24,25.02-48.19,4.85
				c-18.95-20.17-26.03,25.5-44.65,16.71c-8.94-4.22-16.27-29.89-17.23-33.35c-0.61,4.31-5.01,41.26,22.16,53.08
				c28.87,12.56,25.7-9.21,44.86-2.68c16.37,5.59,15.78,17.76,27.02,17.14c2.13,0.22,4.47-0.32,6.82-1.5
				c0.02-0.01,0.05-0.01,0.07-0.02c1.35-0.46,2.49-1.06,3.47-1.77c3-6.17,6.43-10.32,9.93-13.05c7.9-17.61,19.02-20.62,26.72-20.31
				C309.05,30.54,305.03,24.71,298.6,21.62z"/>
			
				<linearGradient id="SVGID_2_" gradientUnits="userSpaceOnUse" x1="2667.678" y1="1021.1172" x2="2833.3367" y2="1021.1172" gradientTransform="matrix(0.9257 -0.3783 0.3783 0.9257 -2676.5347 119.4542)">
				<stop  offset="0" style="stop-color:#0F9EA8"/>
				<stop  offset="1" style="stop-color:#1AAD9E"/>
			</linearGradient>
			<path class="st7" d="M310.31,4.96c-5.69-2.73-12.46-4.51-20.16-3.93c-24.92,1.87-30.4,26.01-50.1,5.04s-25.42,21.54-46.42,17.37
				S169.21,5.63,169.21,5.63s-0.02,0.15-0.06,0.42c-0.61,4.31-5.01,41.26,22.16,53.08c28.87,12.56,25.7-9.21,44.86-2.68
				c16.37,5.59,15.78,17.76,27.02,17.14c2.13,0.22,4.47-0.32,6.82-1.5c0.02-0.01,0.05-0.01,0.07-0.02c1.35-0.46,2.49-1.06,3.47-1.77
				c3-6.17,6.43-10.32,9.93-13.05c7.9-17.61,19.02-20.62,26.72-20.31c6.57,0.27,7.34,1.23,7.65,0.9
				C326.16,26.78,322.78,10.95,310.31,4.96z"/>
			<path class="st0" d="M283.71,57.66c0,0-1.28-8.91-11.39-4.78c-10.11,4.13,4.19,17.95,4.19,17.95L283.71,57.66z"/>
		</g>
		<linearGradient id="SVGID_3_" gradientUnits="userSpaceOnUse" x1="278.9445" y1="72.309" x2="264.9445" y2="72.309">
			<stop  offset="0" style="stop-color:#F06C99"/>
			<stop  offset="0.2233" style="stop-color:#E260AE"/>
			<stop  offset="0.7376" style="stop-color:#C648D8"/>
			<stop  offset="1" style="stop-color:#BB3FE9"/>
		</linearGradient>
		<circle class="st8" cx="271.94" cy="72.31" r="7"/>
	</g>
	<g id="ракета">
		<g>
			
				<linearGradient id="SVGID_4_" gradientUnits="userSpaceOnUse" x1="-6659.1909" y1="3016.5093" x2="-6569.8701" y2="3016.5093" gradientTransform="matrix(0.4352 0.9004 -0.9004 0.4352 5736.3638 4998.2144)">
				<stop  offset="0" style="stop-color:#0F9EA8"/>
				<stop  offset="1" style="stop-color:#1AAD9E"/>
			</linearGradient>
			<path class="st9" d="M246.58,316.78l-95.66-3.38c-32.35-1.14-62.92,14.75-80.58,41.88l-29.55,45.4l128.03-8.57L246.58,316.78z"/>
			
				<linearGradient id="SVGID_5_" gradientUnits="userSpaceOnUse" x1="4200.5498" y1="3016.5093" x2="4289.8701" y2="3016.5093" gradientTransform="matrix(-0.4352 -0.9004 -0.9004 0.4352 4786.2827 3032.4487)">
				<stop  offset="0" style="stop-color:#0F9EA8"/>
				<stop  offset="1" style="stop-color:#1AAD9E"/>
			</linearGradient>
			<path class="st10" d="M318.23,465.04l-56.78,77.05c-19.2,26.06-50.65,40.14-82.88,37.12l-53.93-5.05l86.25-95L318.23,465.04z"/>
			
				<linearGradient id="SVGID_6_" gradientUnits="userSpaceOnUse" x1="-6619.5308" y1="2780.9031" x2="-6423.5308" y2="2780.9031" gradientTransform="matrix(0.4352 0.9004 -0.9004 0.4352 5736.3638 4998.2144)">
				<stop  offset="0" style="stop-color:#5CA7FD"/>
				<stop  offset="1" style="stop-color:#2185D9"/>
			</linearGradient>
			<path class="st11" d="M210.48,498.98l-57.44-118.85c-2.87-5.94-0.36-13.15,5.58-16.03l291.12-162.91
				c48.53-23.45,157.89,32.54,157.89,32.54l0,0c0,0-24.07,120.48-72.6,143.93L226.5,504.56
				C220.56,507.43,213.35,504.92,210.48,498.98z"/>
			
				<linearGradient id="SVGID_7_" gradientUnits="userSpaceOnUse" x1="-6551.5308" y1="3016.509" x2="-6491.5308" y2="3016.509" gradientTransform="matrix(0.4352 0.9004 -0.9004 0.4352 5736.3638 4998.2144)">
				<stop  offset="0" style="stop-color:#0F9EA8"/>
				<stop  offset="1" style="stop-color:#1AAD9E"/>
			</linearGradient>
			<path class="st12" d="M216.74,449.58l65.74-58.51l-0.98,0.28l0.83-0.6l-86.7,15.16c-29.32,5.13-60.1,20.6-81.11,40.78
				l-31.89,40.57l1.15-0.35l-0.99,0.68l51.6,0.22C163.26,483.87,194.51,469.37,216.74,449.58z"/>
			<circle class="st13" cx="450.06" cy="309.88" r="53"/>
			
				<linearGradient id="SVGID_8_" gradientUnits="userSpaceOnUse" x1="2926.9204" y1="1665.6881" x2="3006.1643" y2="1665.6881" gradientTransform="matrix(0.9011 -0.4336 0.4336 0.9011 -2945.9421 95.3679)">
				<stop  offset="0" style="stop-color:#FFAD39"/>
				<stop  offset="0.2885" style="stop-color:#F69E54"/>
				<stop  offset="0.7557" style="stop-color:#E8887B"/>
				<stop  offset="1" style="stop-color:#E3808A"/>
			</linearGradient>
			<path class="st14" d="M470.31,273.51l-43.15,20.77l-1.65-3.44c-1.21-2.52-4.27-3.59-6.79-2.38l-14.51,6.98
				c-2.52,1.21-3.59,4.27-2.38,6.79l3.86,8.02l1.29,2.67l18.74,38.95c1.21,2.52,4.27,3.59,6.79,2.38l62.24-29.95
				c2.52-1.21,3.59-4.27,2.38-6.79l-20.03-41.62C475.89,273.37,472.83,272.3,470.31,273.51z"/>
			
				<linearGradient id="SVGID_9_" gradientUnits="userSpaceOnUse" x1="-6593.5308" y1="2719.4031" x2="-6449.5308" y2="2719.4031" gradientTransform="matrix(0.4352 0.9004 -0.9004 0.4352 5736.3638 4998.2144)">
				<stop  offset="0" style="stop-color:#0F9EA8"/>
				<stop  offset="1" style="stop-color:#1AAD9E"/>
			</linearGradient>
			<path class="st15" d="M514.89,278.54c-17.3-35.8-60.35-50.8-96.16-33.49s-50.8,60.35-33.49,96.16
				c17.3,35.8,60.35,50.8,96.16,33.49S532.19,314.35,514.89,278.54z M402.34,332.94c-12.74-26.35-1.7-58.04,24.66-70.78
				s58.04-1.7,70.78,24.66c12.74,26.35,1.7,58.04-24.66,70.78S415.08,359.29,402.34,332.94z"/>
		</g>
		<g>
			<path class="st16" d="M105.62,424.35C72.75,439.73,35.58,443.3,0.38,434.46h0"/>
			<path class="st16" d="M146.19,508.06c-32.79,15.56-59.21,41.94-74.81,74.71l0,0"/>
			<line class="st16" x1="71.79" y1="492.19" x2="34.14" y2="510.05"/>
		</g>
	</g>
	<g id="нога_1_2_">
		<g id="ботинок_1_">
			<path class="st17" d="M251.02,461.57l-14.72,48.22l110.3,21.05c0,0,13.42-11.14-18.01-30.78c-8.39-5.24-31.88-16.1-32.08-25.04v0
				L251.02,461.57z"/>
			<g>
				
					<rect x="292.37" y="459.86" transform="matrix(0.1919 -0.9814 0.9814 0.1919 -262.5097 699.5115)" class="st3" width="2.26" height="98.6"/>
			</g>
			<g>
				<polygon class="st3" points="304.25,494.41 302.26,493.35 307.56,483.33 291.2,487.56 290.64,485.38 311.95,479.86 				"/>
			</g>
		</g>
		
			<linearGradient id="SVGID_10_" gradientUnits="userSpaceOnUse" x1="14524.0049" y1="-1216.9962" x2="14686.4141" y2="-1216.9962" gradientTransform="matrix(-0.9986 -0.0534 -0.0534 0.9986 14773.5029 2349.9968)">
			<stop  offset="0" style="stop-color:#F06C99"/>
			<stop  offset="0.2233" style="stop-color:#E260AE"/>
			<stop  offset="0.7376" style="stop-color:#C648D8"/>
			<stop  offset="1" style="stop-color:#BB3FE9"/>
		</linearGradient>
		<path class="st18" d="M196.72,225.97c-0.81,1.62-15.01,34.45-15.66,36.04c-15.69,38.24,13,68.37,54.4,66.67
			c21.8-0.9,43.9,14.09,43.9,14.09s-52.2,125.72-46.38,128.19c22.81,9.66,76.37,17.03,79.63,7.21
			c15.08-45.44,33.94-148.81,15.14-170.67c-14.37-16.69-52.79-41.32-56.63-45.59c-3.84-4.27,0.96-18.02,0.96-18.02L196.72,225.97z"
			/>
	</g>
	<g id="тело_7_">
		<path class="st2" d="M292.35,100.4c0,0-2.73,15.61-18.87,11.34c-16.14-4.27-21.75-18.36-21.75-18.36s-25.39,7.39-33.83,16.36
			c-8.44,8.97-16.41,56.47-16.41,56.47l0,0c-7.88,16.8-29.15,64.07-35.34,97.99c56.36,34.58,126.15,3.05,126.15,3.05
			s6.26-57.43,7.67-85.4l0,0C299.97,181.85,305.83,123.57,292.35,100.4z"/>
		<g>
			<path class="st3" d="M265.78,269.57l-2.18-0.58c6.02-22.74,11.97-151.63,12.03-152.93l2.25,0.1
				C277.64,121.48,271.86,246.6,265.78,269.57z"/>
		</g>
		<g>
			<path class="st3" d="M264.75,164.31c-0.31-0.01-0.63-0.06-0.94-0.14c-2.28-0.6-3.65-2.95-3.05-5.24l0,0
				c0.29-1.11,1-2.03,1.99-2.61c0.99-0.58,2.14-0.73,3.25-0.44c1.11,0.29,2.03,1,2.61,1.99c0.58,0.99,0.73,2.14,0.44,3.25
				c-0.29,1.11-1,2.03-1.99,2.61C266.35,164.14,265.55,164.34,264.75,164.31z M262.94,159.5c-0.14,0.52-0.06,1.07,0.21,1.54
				c0.27,0.47,0.71,0.8,1.24,0.94c1.08,0.29,2.2-0.36,2.48-1.44c0.14-0.52,0.07-1.07-0.21-1.54s-0.71-0.8-1.24-0.94
				c-0.52-0.14-1.07-0.07-1.54,0.21C263.42,158.54,263.08,158.98,262.94,159.5L262.94,159.5z"/>
		</g>
		<g>
			<path class="st3" d="M259.17,245.82c-2.14-0.08-3.93-1.76-4.11-3.94c-0.19-2.36,1.57-4.43,3.93-4.62
				c2.36-0.2,4.43,1.57,4.62,3.93c0.19,2.36-1.57,4.43-3.93,4.62C259.51,245.83,259.34,245.83,259.17,245.82z M259.42,239.51
				c-0.08,0-0.16,0-0.24,0c-0.54,0.04-1.03,0.3-1.38,0.71c-0.35,0.41-0.52,0.94-0.48,1.48c0.09,1.12,1.07,1.95,2.19,1.86
				c0.54-0.04,1.03-0.3,1.38-0.71c0.35-0.41,0.52-0.94,0.48-1.48C261.28,240.34,260.43,239.55,259.42,239.51z"/>
		</g>
		<g>
			<polygon class="st3" points="301.87,135.34 281.41,118.6 282.84,116.85 298.91,130 294.9,98.56 297.14,98.27 			"/>
		</g>
		<g>
			<polygon class="st3" points="256.08,130.47 250.72,97.74 252.95,97.37 257.76,126.79 271.68,118.21 272.86,120.13 			"/>
		</g>
	</g>
	<g id="рука_1">
		<path class="st0" d="M344.77,272.53c7.18,1.78,14.69,13.04,15.53,24.67c0,0,5.62,18.81-0.54,18.78
			c-6.71-0.03-4.71-6.71-8.89-11.23c-6.84-7.4-15.14-12.15-20.51-12.62"/>
		<path class="st0" d="M330.2,292.14c-8.08-3.32-10.88-10.02-10.88-10.02l-75.18-29.24l22.7-18.75l65.77,34.56
			c0,0,15.15,2.34,17.58,7.23"/>
		<path class="st17" d="M254.9,222.12c-7.95-4.43-21.68-10.38-20.08-18.87c10.73-22.58,15.74-51.76,8.92-81.23
			c-2.56-11.07-14.92-16.9-24.96-11.57c-0.09,0.05-0.18,0.09-0.26,0.14c-12.94,7.06-27.43,74.81-31.78,94.84
			c-1.22,5.64-0.91,11.56,1.24,16.92c6.42,15.98,22.56,23.17,22.56,23.17l86.58,42.95l18-32.83L254.9,222.12z"/>
		<g>
			
				<rect x="275.08" y="261.02" transform="matrix(0.4974 -0.8675 0.8675 0.4974 -80.9352 384.5847)" class="st3" width="32.75" height="2.26"/>
		</g>
		<g>
			<path class="st3" d="M300.88,263.58c-0.27-0.13-0.52-0.3-0.76-0.49c-1.84-1.48-2.13-4.19-0.65-6.03l0,0
				c0.72-0.89,1.74-1.45,2.88-1.57c1.14-0.12,2.26,0.2,3.15,0.92c1.84,1.48,2.13,4.19,0.65,6.03c-0.72,0.89-1.74,1.45-2.88,1.57
				C302.44,264.1,301.62,263.95,300.88,263.58z M301.23,258.48c-0.7,0.87-0.56,2.15,0.31,2.85c0.42,0.34,0.95,0.5,1.49,0.44
				c0.54-0.06,1.02-0.32,1.36-0.75c0.7-0.87,0.56-2.15-0.31-2.85c-0.42-0.34-0.95-0.49-1.49-0.44
				C302.06,257.79,301.57,258.05,301.23,258.48L301.23,258.48z"/>
		</g>
	</g>
</g>
</svg>
