<?xml version="1.0" encoding="utf-8"?>
<!-- Generator: Adobe Illustrator 23.1.0, SVG Export Plug-In . SVG Version: 6.00 Build 0)  -->
<svg version="1.1" id="Слой_1" xmlns="http://www.w3.org/2000/svg" xmlns:xlink="http://www.w3.org/1999/xlink" x="0px" y="0px"
	 viewBox="0 0 694 578" style="enable-background:new 0 0 694 578;" xml:space="preserve">
<style type="text/css">
	.st0{fill:url(#SVGID_1_);}
	.st1{fill:url(#SVGID_2_);}
	.st2{fill:url(#SVGID_3_);}
	.st3{fill:url(#SVGID_4_);}
	.st4{fill:url(#SVGID_5_);}
	.st5{fill:url(#SVGID_6_);}
	.st6{fill:#FFFFFF;}
	.st7{fill:#007F79;}
	.st8{fill:url(#SVGID_7_);}
	.st9{fill:#F2C557;}
	.st10{fill:#1B82D8;}
	.st11{fill:url(#SVGID_8_);}
	.st12{fill:#F2F2F2;}
	.st13{fill:#E8E8E8;}
	.st14{fill:#7D2B7F;}
	.st15{fill:url(#SVGID_9_);}
	.st16{fill:#DDDDDD;}
	.st17{fill:none;stroke:#1B82D8;stroke-width:2.2561;stroke-miterlimit:10;}
</style>
<g id="тележка">
	<g id="папки">
		
			<linearGradient id="SVGID_1_" gradientUnits="userSpaceOnUse" x1="1622.5355" y1="849.2273" x2="1737.9705" y2="849.2273" gradientTransform="matrix(0.9708 -0.2398 0.2398 0.9708 -1715.6926 -135.154)">
			<stop  offset="0" style="stop-color:#FFAD39"/>
			<stop  offset="0.2885" style="stop-color:#F69E54"/>
			<stop  offset="0.7557" style="stop-color:#E8887B"/>
			<stop  offset="1" style="stop-color:#E3808A"/>
		</linearGradient>
		<path class="st0" d="M159.72,240.8L92,257.52l-1.33-5.39c-0.98-3.96-5.01-6.39-8.97-5.42l-22.77,5.62
			c-3.96,0.98-6.39,5.01-5.42,8.97l3.11,12.59l1.04,4.2l15.1,61.13c0.98,3.96,5.01,6.39,8.97,5.42l97.68-24.13
			c3.96-0.98,6.39-5.01,5.42-8.97l-16.13-65.32C167.71,242.26,163.68,239.82,159.72,240.8z"/>
		<g>
			
				<linearGradient id="SVGID_2_" gradientUnits="userSpaceOnUse" x1="1557.9827" y1="951.1938" x2="1673.4176" y2="951.1938" gradientTransform="matrix(0.9708 -0.2398 0.2398 0.9708 -1715.6926 -135.154)">
				<stop  offset="0" style="stop-color:#FFAD39"/>
				<stop  offset="0.2885" style="stop-color:#F69E54"/>
				<stop  offset="0.7557" style="stop-color:#E8887B"/>
				<stop  offset="1" style="stop-color:#E3808A"/>
			</linearGradient>
			<path class="st1" d="M121.5,355.27l-67.72,16.73l-1.33-5.39c-0.98-3.96-5.01-6.39-8.97-5.42l-22.77,5.62
				c-3.96,0.98-6.39,5.01-5.42,8.97l3.11,12.59l1.04,4.2l15.1,61.13c0.98,3.96,5.01,6.39,8.97,5.42l97.68-24.13
				c3.96-0.98,6.39-5.01,5.42-8.97l-16.13-65.32C129.49,356.73,125.46,354.29,121.5,355.27z"/>
			
				<linearGradient id="SVGID_3_" gradientUnits="userSpaceOnUse" x1="1686.9827" y1="951.2607" x2="1802.4175" y2="951.2607" gradientTransform="matrix(0.9708 -0.2398 0.2398 0.9708 -1715.6926 -135.154)">
				<stop  offset="0" style="stop-color:#FFAD39"/>
				<stop  offset="0.2885" style="stop-color:#F69E54"/>
				<stop  offset="0.7557" style="stop-color:#E8887B"/>
				<stop  offset="1" style="stop-color:#E3808A"/>
			</linearGradient>
			<path class="st2" d="M246.75,324.4l-67.72,16.73l-1.33-5.39c-0.98-3.96-5.01-6.39-8.97-5.42l-22.77,5.62
				c-3.96,0.98-6.39,5.01-5.42,8.97l3.11,12.59l1.04,4.2l15.1,61.13c0.98,3.96,5.01,6.39,8.97,5.42l97.68-24.13
				c3.96-0.98,6.39-5.01,5.42-8.97l-16.13-65.32C254.74,325.86,250.71,323.42,246.75,324.4z"/>
		</g>
	</g>
	<g id="корпус">
		
			<linearGradient id="SVGID_4_" gradientUnits="userSpaceOnUse" x1="-1205.7344" y1="41.4957" x2="-999.5908" y2="41.4957" gradientTransform="matrix(0.9748 0.2231 -0.2231 0.9748 1433.1877 566.2596)">
			<stop  offset="0" style="stop-color:#5CA7FD"/>
			<stop  offset="1" style="stop-color:#2185D9"/>
		</linearGradient>
		<path class="st3" d="M459.37,332.76l-4.12-8.83l-7.9-16.91l-4.15-8.89c-1.97-4.21-7.02-6.04-11.22-4.08
			c-4.21,1.96-6.04,7.02-4.08,11.22l4.15,8.89l-195.26,91.17c-4.65,2.17-6.68,7.75-4.51,12.41c2.17,4.65,7.75,6.68,12.41,4.51
			l195.26-91.17l4.12,8.83c1.97,4.21,7.02,6.04,11.22,4.08C459.5,342.02,461.34,336.97,459.37,332.76z"/>
		
			<linearGradient id="SVGID_5_" gradientUnits="userSpaceOnUse" x1="1521.6431" y1="1150.0692" x2="1835.438" y2="1150.0692" gradientTransform="matrix(0.9721 -0.2347 0.2347 0.9721 -1737.4333 -259.4193)">
			<stop  offset="0" style="stop-color:#5CA7FD"/>
			<stop  offset="1" style="stop-color:#2185D9"/>
		</linearGradient>
		<path class="st4" d="M228.27,508.49l-101.1,24.41C71.09,546.45,14.13,511.64,0.59,455.56l0,0c-1.38-5.7,2.16-11.5,7.87-12.87
			l284.29-68.65c5.7-1.38,11.5,2.16,12.87,7.87l0,0C319.16,437.99,284.35,494.95,228.27,508.49z"/>
	</g>
	<g id="колесо">
		<linearGradient id="SVGID_6_" gradientUnits="userSpaceOnUse" x1="128.1571" y1="519.6447" x2="227.7181" y2="519.6447">
			<stop  offset="0" style="stop-color:#F06C99"/>
			<stop  offset="0.2233" style="stop-color:#E260AE"/>
			<stop  offset="0.7376" style="stop-color:#C648D8"/>
			<stop  offset="1" style="stop-color:#BB3FE9"/>
		</linearGradient>
		<circle class="st5" cx="177.94" cy="519.64" r="49.78"/>
		<circle class="st6" cx="177.94" cy="519.64" r="23.11"/>
	</g>
</g>
<g id="персонаж">
	<g id="голова">
		<circle class="st7" cx="468.74" cy="49.93" r="16.5"/>
		<circle class="st7" cx="463.74" cy="74.93" r="13.5"/>
		<circle class="st7" cx="460.74" cy="94.93" r="11.5"/>
		<circle class="st7" cx="478.74" cy="22.93" r="18.5"/>
		
			<linearGradient id="SVGID_7_" gradientUnits="userSpaceOnUse" x1="-3343.1328" y1="41.4252" x2="-3261.1328" y2="41.4252" gradientTransform="matrix(-1 0 0 1 -2776.894 0)">
			<stop  offset="0" style="stop-color:#0F9EA8"/>
			<stop  offset="1" style="stop-color:#1AAD9E"/>
		</linearGradient>
		<circle class="st8" cx="525.24" cy="41.43" r="41"/>
		<path class="st9" d="M553.26,102.41l-2.52-17.09c0,0,18.49,1.91,19.97-23.57c1.48-25.48-9.27-40.55-26.89-37.68
			s-29.8,26.64-26.59,47.09s-6.4,27.53-6.4,27.53s-2.5,25.45,9.88,27.96C533.1,129.16,558.62,116.84,553.26,102.41z"/>
		<g>
			<circle class="st10" cx="554.72" cy="53.76" r="3.16"/>
		</g>
		<g>
			<path class="st10" d="M547.85,48.6c2.99-3.59,10.44-5.49,10.52-5.51l-0.55-2.19c-0.33,0.08-8.24,2.1-11.7,6.25L547.85,48.6z"/>
		</g>
		<g>
			<polygon class="st10" points="568.45,69.88 580.23,66.59 571.88,47.11 569.81,48 577.14,65.11 567.84,67.71 			"/>
		</g>
		<g>
			<path class="st10" d="M558.32,78.17c4.23,0,8.73-1.5,9.46-1.76l-0.74-2.13c-2.7,0.93-10.32,2.85-13.13,0.51l-1.44,1.73
				C553.95,77.75,556.1,78.17,558.32,78.17z"/>
		</g>
		<path class="st9" d="M519.94,47.11c0,0-6.7-8.68-10.7,0.32s11,18,11,18L519.94,47.11z"/>
		<linearGradient id="SVGID_8_" gradientUnits="userSpaceOnUse" x1="508.2388" y1="66.4252" x2="522.2388" y2="66.4252">
			<stop  offset="0" style="stop-color:#F06C99"/>
			<stop  offset="0.2233" style="stop-color:#E260AE"/>
			<stop  offset="0.7376" style="stop-color:#C648D8"/>
			<stop  offset="1" style="stop-color:#BB3FE9"/>
		</linearGradient>
		<circle class="st11" cx="515.24" cy="66.43" r="7"/>
		<circle class="st7" cx="460.74" cy="111.93" r="8.5"/>
	</g>
	<g id="рука_2">
		<path class="st9" d="M611.75,205.72l58.69,28.55c0,0,13.36,1.64,15.63,5.86c2.27,4.23,14.36,20.81,2.53,27.94
			c-11.83,7.13-23.45-3.01-21.55-8.08c1.9-5.07,9.08-2.38,1.9-5.07c-7.18-2.69-9.82-8.5-9.82-8.5l-66.8-23.62L611.75,205.72z"/>
		<path class="st12" d="M532.23,163.48c4.06,17.53,7.19,29.35,9.46,37.15c2.49,8.59,8.54,15.69,16.61,19.55l83.44,39.84l17.31-33.2
			l-60.9-32.26c-10.04-5.32-20.55-15.06-20.91-20.13c-0.5-6.96-10.32-46.21-11-51C563.24,102.43,516.24,94.43,532.23,163.48z"/>
	</g>
	<g id="нога_2">
		<g id="ботинок_2_">
			<path class="st13" d="M469.23,414.79l-45.57,21.43l58.43,95.88c0,0,17.25,2.48,10.7-33.99c-1.75-9.74-9.48-34.43-2.99-40.57h0
				L469.23,414.79z"/>
			<g>
				<polygon class="st10" points="482,478.31 498.44,477.89 483.19,462.02 481.56,463.58 493.27,475.77 481.94,476.06 				"/>
			</g>
			<g>
				
					<rect x="460.73" y="429.33" transform="matrix(0.8526 -0.5225 0.5225 0.8526 -182.0373 311.8882)" class="st10" width="2.26" height="98.6"/>
			</g>
		</g>
		<path id="нога_1_" class="st14" d="M564.5,207.02c-44.17,9.91-55.39,40.45-22.39,85.63s35.43,66.88,35.43,66.88
			s-111.6,48.06-119.31,53.89c-1.89,1.43,20.22,39.16,40,57c0.59,0.53,145.67-72.11,140.82-107.76
			c-5.12-37.61-46.77-97.7-46.77-97.7s-27.48-42.16-28.05-51.36C563.66,204.4,564.5,207.02,564.5,207.02z"/>
	</g>
	<g id="нога_1">
		<g id="ботинок_3_">
			<path class="st13" d="M546.97,499.01l-19.52,46.42l107.59,32.14c0,0,14.48-9.71-14.8-32.42c-7.82-6.06-30.09-19.24-29.37-28.15v0
				L546.97,499.01z"/>
			<g>
				<polygon class="st10" points="596.08,536.62 604.7,522.62 583.08,526.73 583.51,528.95 600.1,525.79 594.16,535.44 				"/>
			</g>
			<g>
				
					<rect x="583.28" y="502.32" transform="matrix(0.2839 -0.9589 0.9589 0.2839 -110.4136 955.4143)" class="st10" width="2.26" height="98.6"/>
			</g>
		</g>
		
			<linearGradient id="SVGID_9_" gradientUnits="userSpaceOnUse" x1="-3394.9795" y1="372.2867" x2="-3258.4658" y2="372.2867" gradientTransform="matrix(-1 0 0 1 -2776.894 0)">
			<stop  offset="0" style="stop-color:#F06C99"/>
			<stop  offset="0.2233" style="stop-color:#E260AE"/>
			<stop  offset="0.7376" style="stop-color:#C648D8"/>
			<stop  offset="1" style="stop-color:#BB3FE9"/>
		</linearGradient>
		<path class="st15" d="M511.24,227.43l72.22,30.47c0,0-12.59,7.33-12.45,13.07c0.13,5.18,20.86,36.07,33.53,68.56
			c0.81,2.07,2.99,6.6,5.89,13.03c17.33,38.37,0.32,149.76-3.19,163.88c-0.11,0.46-24.32,1.37-44,0c-18.2-1.26-31.99-4.78-32-5
			c-1.03-32.4,31-123,31-123s-20-53-59-78C476.5,293.28,469.54,245.04,511.24,227.43z"/>
		<g>
			<path class="st6" d="M563.02,388.8c0.58-0.26,14.17-6.44,20.05-12.32l-0.96-0.96c-5.71,5.71-19.51,11.98-19.65,12.04
				L563.02,388.8z"/>
		</g>
	</g>
	<g id="тело_1_">
		<path class="st16" d="M481.12,181.73L481.12,181.73c0,0-1.65-56.64,4.22-67.47c5.87-10.83,25.72-15.79,25.72-15.79
			s9.02,12.18,25.72,12.18c16.7,0,15.34-15.79,15.34-15.79c18.95,18.95,28.2,76.79,28.2,76.79h0c5.8,27.4,14.44,84.52,14.44,84.52
			s-59.4,48.33-122.73,29.33C469.34,251.12,477.8,199.98,481.12,181.73z"/>
		<g>
			<path class="st10" d="M567.46,265.19h2.26c0-23.76-26.42-146.2-27.55-151.4l-2.21,0.48
				C540.24,115.54,567.46,241.67,567.46,265.19z"/>
		</g>
		<g>
			<path class="st10" d="M536.55,159.52c0-2.36,1.92-4.29,4.29-4.29c2.36,0,4.29,1.92,4.29,4.29s-1.92,4.29-4.29,4.29
				C538.47,163.8,536.55,161.88,536.55,159.52z M538.81,159.52c0,1.12,0.91,2.03,2.03,2.03s2.03-0.91,2.03-2.03
				s-0.91-2.03-2.03-2.03S538.81,158.4,538.81,159.52z"/>
		</g>
		<g>
			<path class="st10" d="M550.09,246.58c0-2.36,1.92-4.29,4.29-4.29s4.29,1.92,4.29,4.29s-1.92,4.29-4.29,4.29
				S550.09,248.94,550.09,246.58z M552.35,246.58c0,1.12,0.91,2.03,2.03,2.03s2.03-0.91,2.03-2.03s-0.91-2.03-2.03-2.03
				S552.35,245.46,552.35,246.58z"/>
		</g>
		<g>
			<polygon class="st10" points="570.26,126.19 556.2,91.57 554.11,92.42 566.03,121.79 547.13,113.19 546.19,115.25 			"/>
		</g>
		<g>
			<polygon class="st10" points="524.75,133.21 538.33,118.92 536.69,117.36 525.43,129.22 513.25,102.01 511.19,102.93 			"/>
		</g>
	</g>
	<g id="рука_1">
		<path class="st9" d="M472.06,243.17l-12.38,64.08c0,0,1.88,13.33-1.62,16.62c-3.49,3.29-16.38,19.26-26.33,9.68
			c-9.95-9.58-3.16-23.43,2.23-22.9c5.39,0.52,4.65,8.16,5.39,0.52c0.74-7.63,5.67-11.69,5.67-11.69l5.52-70.64L472.06,243.17z"/>
		<path class="st13" d="M499.63,110.14c-2.81-0.66-6-0.72-9.5,0.28c-16.93,4.84-38.91,76.48-39,77l-18.46,97.28l36.28,9.26
			l17.48-66.66c0.39-1.49,1.49-10.98,2.68-22.89c1.58-2.45,3.11-4.96,4.58-7.47c10.75-18.48,17.75-38.94,19.92-60.2
			c0.26-2.5,0.44-4.93,0.51-7.17C514.4,120.51,508.46,112.2,499.63,110.14z"/>
		<line class="st17" x1="472.55" y1="277.03" x2="440.98" y2="268.33"/>
		<circle class="st17" cx="461.91" cy="283.08" r="3.16"/>
	</g>
</g>
</svg>
