<?xml version="1.0" encoding="utf-8"?>
<!-- Generator: Adobe Illustrator 23.1.0, SVG Export Plug-In . SVG Version: 6.00 Build 0)  -->
<svg version="1.1" id="Слой_1" xmlns="http://www.w3.org/2000/svg" xmlns:xlink="http://www.w3.org/1999/xlink" x="0px" y="0px"
	 viewBox="0 0 309 578" style="enable-background:new 0 0 309 578;" xml:space="preserve">
<style type="text/css">
	.st0{fill:#F2C557;}
	.st1{fill:#F2F2F2;}
	.st2{fill:#FFFFFF;}
	.st3{fill:#E8E8E8;}
	.st4{fill:#1B82D8;}
	.st5{fill:#135E91;}
	.st6{fill:url(#SVGID_1_);}
	.st7{fill:#007F79;}
	.st8{fill:url(#SVGID_2_);}
	.st9{fill:url(#SVGID_3_);}
	.st10{fill:url(#галочка_1_);}
	.st11{fill:none;stroke:#1B82D8;stroke-width:2.2561;stroke-miterlimit:10;}
</style>
<g id="персонаж">
	<g id="рука_12_">
		<path class="st0" d="M120.63,205.72l-58.69,28.55c0,0-13.36,1.64-15.63,5.86s-14.36,20.81-2.53,27.94s23.45-3.01,21.55-8.08
			c-1.9-5.07-9.08-2.38-1.9-5.07c7.18-2.69,9.82-8.5,9.82-8.5l66.8-23.62L120.63,205.72z"/>
		<path class="st1" d="M200.15,163.48c-4.06,17.53-7.19,29.35-9.46,37.15c-2.49,8.59-8.54,15.69-16.61,19.55l-83.44,39.84
			l-17.31-33.2l60.9-32.26c10.04-5.32,20.55-15.06,20.91-20.13c0.5-6.96,10.32-46.21,11-51
			C169.14,102.43,216.14,94.43,200.15,163.48z"/>
	</g>
	<g id="нога_5_">
		<g>
			<path class="st2" d="M269.61,557.43h-1.3c0-9.68,8.39-33.09,8.75-34.08l1.23,0.44C278.19,524.03,269.61,547.98,269.61,557.43z"/>
		</g>
		<g>
			<path class="st2" d="M82.51,374.69l-1.3,0.13c-0.14-1.47-3.37-36.17,7.58-40.89l0.52,1.2C79.23,339.47,82.48,374.34,82.51,374.69
				z"/>
		</g>
		<g id="ботинок_15_">
			<path class="st3" d="M263.15,414.79l45.57,21.43l-58.43,95.88c0,0-17.25,2.48-10.7-33.99c1.75-9.74,9.48-34.43,2.99-40.57h0
				L263.15,414.79z"/>
			<g>
				<polygon class="st4" points="250.39,478.31 233.95,477.89 249.19,462.02 250.82,463.58 239.12,475.77 250.44,476.06 				"/>
			</g>
			<g>
				
					<rect x="221.23" y="477.51" transform="matrix(0.5225 -0.8526 0.8526 0.5225 -278.9252 459.1792)" class="st4" width="98.6" height="2.26"/>
			</g>
		</g>
		<path id="нога_2_" class="st5" d="M190.27,292.66c-30.26,47.06-35.43,66.88-35.43,66.88s114.6,46.06,122.31,51.89
			c1.89,1.43-24.22,44.16-44,62c-0.59,0.53-144.67-75.11-139.82-110.76c5.12-37.61,46.77-97.7,46.77-97.7s27.48-42.16,28.05-51.36
			C168.72,204.4,234.14,224.43,190.27,292.66z"/>
	</g>
	<g id="нога_6_">
		<g id="ботинок_16_">
			<path class="st3" d="M185.41,499.01l19.52,46.42L97.35,577.57c0,0-14.48-9.71,14.8-32.42c7.82-6.06,30.09-19.24,29.37-28.15v0
				L185.41,499.01z"/>
			<g>
				<polygon class="st4" points="136.3,536.62 127.68,522.62 149.3,526.73 148.88,528.95 132.28,525.79 138.22,535.44 				"/>
			</g>
			<g>
				
					<rect x="98.67" y="550.5" transform="matrix(0.9589 -0.2839 0.2839 0.9589 -150.4937 64.6925)" class="st4" width="98.6" height="2.26"/>
			</g>
		</g>
		<g id="нога">
			<linearGradient id="SVGID_1_" gradientUnits="userSpaceOnUse" x1="115.008" y1="372.2867" x2="250.8105" y2="372.2867">
				<stop  offset="0" style="stop-color:#5CA7FD"/>
				<stop  offset="1" style="stop-color:#2185D9"/>
			</linearGradient>
			<path class="st6" d="M221.14,227.43l-72.22,30.47c0,0,12.59,7.33,12.45,13.07c-0.12,5.11-36.48,75.22-38.33,79.09
				c-17.51,36.58-1.49,151.94,2.1,166.38c0.11,0.46,24.32,1.37,44,0c18.2-1.26,31.99-4.78,32-5c1.03-32.4-31.28-123.02-31.28-123.02
				l-0.53-0.65l0.81,0.67c0,0,20-53,59-78C255.89,293.28,262.84,245.04,221.14,227.43z"/>
			<g>
				<path class="st2" d="M169.36,388.8c-0.58-0.26-14.17-6.44-20.05-12.32l0.96-0.96c5.71,5.71,19.51,11.98,19.65,12.04
					L169.36,388.8z"/>
			</g>
		</g>
	</g>
	<g id="голова">
		<circle class="st7" cx="263.64" cy="49.93" r="16.5"/>
		<circle class="st7" cx="268.64" cy="74.93" r="13.5"/>
		<circle class="st7" cx="271.64" cy="94.93" r="11.5"/>
		<circle class="st7" cx="271.64" cy="111.93" r="8.5"/>
		<circle class="st7" cx="253.64" cy="22.93" r="18.5"/>
		<linearGradient id="SVGID_2_" gradientUnits="userSpaceOnUse" x1="166.1436" y1="41.4252" x2="248.1436" y2="41.4252">
			<stop  offset="0" style="stop-color:#0F9EA8"/>
			<stop  offset="1" style="stop-color:#1AAD9E"/>
		</linearGradient>
		<circle class="st8" cx="207.14" cy="41.43" r="41"/>
		<path class="st0" d="M179.12,102.41l2.52-17.09c0,0-18.49,1.91-19.97-23.57s9.27-40.55,26.89-37.68s29.8,26.64,26.59,47.09
			c-3.22,20.45,6.4,27.53,6.4,27.53s2.5,25.45-9.88,27.96C199.28,129.16,173.77,116.84,179.12,102.41z"/>
		<g>
			<circle class="st4" cx="177.67" cy="53.76" r="3.16"/>
		</g>
		<g>
			<path class="st4" d="M184.53,48.6c-2.99-3.59-10.44-5.49-10.52-5.51l0.55-2.19c0.33,0.08,8.24,2.1,11.7,6.25L184.53,48.6z"/>
		</g>
		<g>
			<polygon class="st4" points="163.93,69.88 152.15,66.59 160.5,47.11 162.58,48 155.24,65.11 164.54,67.71 			"/>
		</g>
		<g>
			<path class="st4" d="M174.06,78.17c-4.23,0-8.73-1.5-9.46-1.76l0.74-2.13c2.7,0.93,10.32,2.85,13.13,0.51l1.44,1.73
				C178.43,77.75,176.29,78.17,174.06,78.17z"/>
		</g>
		<path class="st0" d="M212.45,47.11c0,0,6.7-8.68,10.7,0.32s-11,18-11,18L212.45,47.11z"/>
		<linearGradient id="SVGID_3_" gradientUnits="userSpaceOnUse" x1="210.1436" y1="66.4252" x2="224.1436" y2="66.4252">
			<stop  offset="0" style="stop-color:#F06C99"/>
			<stop  offset="0.2233" style="stop-color:#E260AE"/>
			<stop  offset="0.7376" style="stop-color:#C648D8"/>
			<stop  offset="1" style="stop-color:#BB3FE9"/>
		</linearGradient>
		<circle class="st9" cx="217.14" cy="66.43" r="7"/>
	</g>
	
		<linearGradient id="галочка_1_" gradientUnits="userSpaceOnUse" x1="-386.0863" y1="2896.2051" x2="-284.6858" y2="2896.2051" gradientTransform="matrix(0.3147 -0.9492 0.9492 0.3147 -2591.2991 -1036.9934)">
		<stop  offset="0" style="stop-color:#5CA7FD"/>
		<stop  offset="1" style="stop-color:#2185D9"/>
	</linearGradient>
	<polygon id="галочка" class="st10" points="59.47,224.12 7.64,206.93 0.28,229.14 52.1,246.33 72.09,252.96 79.46,230.74 
		104.01,156.71 84.02,150.08 	"/>
	<g id="тело_6_">
		<path class="st3" d="M251.26,181.73L251.26,181.73c0,0,1.65-56.64-4.22-67.47c-5.87-10.83-25.72-15.79-25.72-15.79
			s-9.02,12.18-25.72,12.18c-16.7,0-15.34-15.79-15.34-15.79c-18.95,18.95-28.2,76.79-28.2,76.79h0
			c-5.8,27.4-14.44,84.52-14.44,84.52s59.4,48.33,122.73,29.33C263.04,251.12,254.58,199.98,251.26,181.73z"/>
		<g>
			<path class="st4" d="M164.92,265.19h-2.26c0-23.76,26.42-146.2,27.55-151.4l2.21,0.48C192.15,115.54,164.92,241.67,164.92,265.19
				z"/>
		</g>
		<g>
			<path class="st4" d="M191.54,163.8c-2.36,0-4.29-1.92-4.29-4.29s1.92-4.29,4.29-4.29c2.36,0,4.29,1.92,4.29,4.29
				S193.91,163.8,191.54,163.8z M191.54,157.49c-1.12,0-2.03,0.91-2.03,2.03s0.91,2.03,2.03,2.03s2.03-0.91,2.03-2.03
				S192.66,157.49,191.54,157.49z"/>
		</g>
		<g>
			<path class="st4" d="M178,250.87c-2.36,0-4.29-1.92-4.29-4.29s1.92-4.29,4.29-4.29s4.29,1.92,4.29,4.29S180.36,250.87,178,250.87
				z M178,244.55c-1.12,0-2.03,0.91-2.03,2.03s0.91,2.03,2.03,2.03s2.03-0.91,2.03-2.03S179.12,244.55,178,244.55z"/>
		</g>
		<g>
			<polygon class="st4" points="162.13,126.19 176.18,91.57 178.27,92.42 166.35,121.79 185.26,113.19 186.19,115.25 			"/>
		</g>
		<g>
			<polygon class="st4" points="207.63,133.21 194.06,118.92 195.69,117.36 206.95,129.22 219.13,102.01 221.19,102.93 			"/>
		</g>
	</g>
	<g id="рука_11_">
		<path class="st0" d="M194.84,186.09l-93.67-9.13l-9.91-7.32c-3.65-2.69-8.31-3.6-12.7-2.47l-6.08,1.56
			c-5.47,1.41-9.86,5.49-11.66,10.85l-6.34,18.91c0,0,0.29,5.76,6.1,1.98s10.01-18.34,10.01-18.34l6.14,6.5
			c3.8,4.03,9.06,6.38,14.6,6.48c2.58,0.05,5.6-0.1,8.98-0.61c12.29,4.54,78.15,17.85,78.15,17.85"/>
		<path class="st2" d="M220.51,113.57c0,0,9.37-10.53,20.59-2.64c11.23,7.89,26.64,37.97,19.51,79.88s-47.76,35.7-47.76,35.7
			l-96.05-10.65l2.6-37.35l68.78,4.33c11.34,0.71,21.12-7.89,21.85-19.23C211.17,146.14,213.91,122.5,220.51,113.57z"/>
		<line class="st11" x1="136.61" y1="180.41" x2="134.96" y2="213.12"/>
		<circle class="st11" cx="127.52" cy="188.61" r="3.16"/>
	</g>
</g>
</svg>
