<?xml version="1.0" encoding="utf-8"?>
<!-- Generator: Adobe Illustrator 23.1.0, SVG Export Plug-In . SVG Version: 6.00 Build 0)  -->
<svg version="1.1" id="Слой_1" xmlns="http://www.w3.org/2000/svg" xmlns:xlink="http://www.w3.org/1999/xlink" x="0px" y="0px"
	 viewBox="0 0 398 289" style="enable-background:new 0 0 398 289;" xml:space="preserve">
<style type="text/css">
	.st0{fill:#1B82D8;}
	.st1{fill:none;stroke:#1B82D8;stroke-width:1.6573;stroke-miterlimit:10;}
	.st2{fill:#F2C557;}
	.st3{fill:url(#SVGID_1_);}
	.st4{fill:#FFFFFF;}
	.st5{clip-path:url(#SVGID_3_);}
</style>
<g>
	<g>
		<g>
			<path class="st0" d="M87.91,141.94H20.7c-11.27,0-20.43-9.17-20.43-20.43c0-11.27,9.17-20.43,20.43-20.43h67.21
				c11.27,0,20.43,9.17,20.43,20.43C108.35,132.77,99.18,141.94,87.91,141.94z M20.7,102.73c-10.35,0-18.78,8.42-18.78,18.78
				s8.42,18.77,18.78,18.77h67.21c10.35,0,18.78-8.42,18.78-18.77s-8.42-18.78-18.78-18.78H20.7z"/>
		</g>
		<g>
			<g>
				<path class="st0" d="M27.7,132.31c-5.96,0-10.81-4.85-10.81-10.81s4.85-10.81,10.81-10.81s10.81,4.85,10.81,10.81
					S33.66,132.31,27.7,132.31z M27.7,112.36c-5.04,0-9.15,4.1-9.15,9.15s4.1,9.15,9.15,9.15s9.15-4.1,9.15-9.15
					S32.75,112.36,27.7,112.36z"/>
			</g>
			<g>
				<path class="st0" d="M54.31,132.31c-5.96,0-10.81-4.85-10.81-10.81s4.85-10.81,10.81-10.81c5.96,0,10.81,4.85,10.81,10.81
					S60.26,132.31,54.31,132.31z M54.31,112.36c-5.04,0-9.15,4.1-9.15,9.15s4.1,9.15,9.15,9.15s9.15-4.1,9.15-9.15
					S59.35,112.36,54.31,112.36z"/>
			</g>
			<g>
				<path class="st0" d="M80.91,132.31c-5.96,0-10.81-4.85-10.81-10.81s4.85-10.81,10.81-10.81s10.81,4.85,10.81,10.81
					S86.87,132.31,80.91,132.31z M80.91,112.36c-5.04,0-9.15,4.1-9.15,9.15s4.1,9.15,9.15,9.15s9.15-4.1,9.15-9.15
					S85.96,112.36,80.91,112.36z"/>
			</g>
		</g>
	</g>
	<g>
		<path class="st1" d="M321.18,122.45c0-6.31,1.06-11.86,3.2-16.64c2.13-4.78,4.82-9.05,8.06-12.8c3.24-3.75,6.7-7.25,10.37-10.5
			c3.67-3.24,7.13-6.4,10.37-9.47c3.24-3.07,5.89-6.31,7.94-9.73c2.05-3.41,3.07-7.25,3.07-11.52c0-7.17-2.86-12.93-8.58-17.28
			c-5.72-4.35-13.61-6.53-23.68-6.53c-9.05,0-17.07,1.66-24.07,4.99c-7,3.33-12.8,8.15-17.41,14.47L265.88,31.3
			c7-9.73,16.3-17.37,27.91-22.92c11.61-5.54,25.26-8.32,40.97-8.32c12.63,0,23.64,1.84,33.03,5.5c9.39,3.67,16.73,8.96,22.02,15.87
			c5.29,6.91,7.94,15.23,7.94,24.96c0,7.17-1.02,13.27-3.07,18.31c-2.05,5.04-4.74,9.47-8.07,13.31
			c-3.33,3.84-6.91,7.42-10.75,10.75c-3.84,3.33-7.42,6.62-10.75,9.86c-3.33,3.24-6.06,6.78-8.19,10.63
			c-2.14,3.84-3.2,8.24-3.2,13.19H321.18z M337.56,183.64c-5.8,0-10.63-1.96-14.47-5.89c-3.84-3.92-5.76-8.62-5.76-14.08
			c0-5.46,1.92-10.11,5.76-13.95c3.84-3.84,8.66-5.76,14.47-5.76c6.15,0,11.09,1.92,14.85,5.76c3.75,3.84,5.63,8.49,5.63,13.95
			c0,5.46-1.88,10.16-5.63,14.08C348.66,181.68,343.71,183.64,337.56,183.64z"/>
	</g>
	<circle class="st2" cx="207.14" cy="80.66" r="45.5"/>
	<linearGradient id="SVGID_1_" gradientUnits="userSpaceOnUse" x1="138.1354" y1="203.1636" x2="276.1354" y2="203.1636">
		<stop  offset="0" style="stop-color:#F06C99"/>
		<stop  offset="0.2233" style="stop-color:#E260AE"/>
		<stop  offset="0.7376" style="stop-color:#C648D8"/>
		<stop  offset="1" style="stop-color:#BB3FE9"/>
	</linearGradient>
	<path class="st3" d="M264.14,267.16h-114c-6.6,0-12-5.4-12-12v-47c0-37.95,31.05-69,69-69h0c37.95,0,69,31.05,69,69v47
		C276.14,261.76,270.74,267.16,264.14,267.16z"/>
	<g>
		<polygon class="st4" points="205.99,249.92 179.72,229.18 189.79,161.13 191.57,161.39 181.65,228.41 206.04,247.66 
			232.55,228.39 222.63,161.84 224.41,161.58 234.49,229.2 		"/>
	</g>
	<g>
		<g>
			<path class="st4" d="M192.14,77.06c-5.46,0-9.9-4.44-9.9-9.9s4.44-9.9,9.9-9.9s9.9,4.44,9.9,9.9S197.59,77.06,192.14,77.06z
				 M192.14,59.06c-4.47,0-8.1,3.63-8.1,8.1s3.63,8.1,8.1,8.1c4.47,0,8.1-3.63,8.1-8.1S196.6,59.06,192.14,59.06z"/>
		</g>
		<g>
			<path class="st4" d="M222.13,77.06c-5.46,0-9.9-4.44-9.9-9.9s4.44-9.9,9.9-9.9s9.9,4.44,9.9,9.9S227.59,77.06,222.13,77.06z
				 M222.13,59.06c-4.47,0-8.1,3.63-8.1,8.1s3.63,8.1,8.1,8.1s8.1-3.63,8.1-8.1S226.6,59.06,222.13,59.06z"/>
		</g>
	</g>
	<g>
		<path class="st4" d="M207.52,109.06c-9.44,0-18.34-4.15-24.42-11.37l1.38-1.16c5.74,6.82,14.14,10.73,23.04,10.73
			c8.47,0,16.6-3.6,22.3-9.88l1.33,1.21C225.11,105.25,216.5,109.06,207.52,109.06z"/>
	</g>
	<g>
		<path class="st0" d="M152.04,288.93H38.85c-5.05,0-9.16-4.11-9.16-9.16V189.5c0-5.05,4.11-9.16,9.16-9.16h26.39
			c5.05,0,9.16,4.11,9.16,9.16v5.42h77.64c5.05,0,9.16,4.11,9.16,9.16v75.69C161.2,284.82,157.09,288.93,152.04,288.93z
			 M38.85,181.99c-4.14,0-7.5,3.37-7.5,7.5v90.28c0,4.14,3.37,7.5,7.5,7.5h113.19c4.14,0,7.5-3.37,7.5-7.5v-75.69
			c0-4.14-3.37-7.5-7.5-7.5h-79.3v-7.08c0-4.14-3.37-7.5-7.5-7.5H38.85z"/>
	</g>
	<g>
		<defs>
			<path id="SVGID_2_" d="M264.14,267.16h-114c-6.6,0-12-5.4-12-12v-47c0-37.95,31.05-69,69-69h0c37.95,0,69,31.05,69,69v47
				C276.14,261.76,270.74,267.16,264.14,267.16z"/>
		</defs>
		<clipPath id="SVGID_3_">
			<use xlink:href="#SVGID_2_"  style="overflow:visible;"/>
		</clipPath>
		<g class="st5">
			<polygon class="st4" points="224.12,163.06 190.07,163.06 179.85,137.59 181.52,136.92 191.29,161.26 222.91,161.26 
				232.68,137.04 234.35,137.72 			"/>
		</g>
	</g>
</g>
</svg>
