<?xml version="1.0" encoding="utf-8"?>
<!-- Generator: Adobe Illustrator 23.1.0, SVG Export Plug-In . SVG Version: 6.00 Build 0)  -->
<svg version="1.1" id="Слой_1" xmlns="http://www.w3.org/2000/svg" xmlns:xlink="http://www.w3.org/1999/xlink" x="0px" y="0px"
	 viewBox="0 0 639 483" style="enable-background:new 0 0 639 483;" xml:space="preserve">
<style type="text/css">
	.st0{fill:#7D2B7F;}
	.st1{fill:#F2C557;}
	.st2{fill:#1B82D8;}
	.st3{fill:url(#SVGID_1_);}
	.st4{fill:#E8E8E8;}
	.st5{fill:url(#SVGID_2_);}
	.st6{fill:url(#SVGID_3_);}
	.st7{fill:#B2722B;}
	.st8{fill:#FFFFFF;}
	.st9{fill:url(#SVGID_4_);}
	.st10{fill:#F2F2F2;}
</style>
<g id="персонаж_4_">
	<g id="голова_2_">
		<path class="st0" d="M254.56,91.62c0.03,0,0.05,0,0.07,0c2.59,0.48,4.98,0.36,6.97-0.44c10.97-2.48,7.06-14.03,21.27-23.9
			c16.63-11.55,19.56,10.26,43.87-9.75c22.88-18.83,8.51-53.14,6.73-57.12c0-0.26-0.01-0.41-0.01-0.41s27.56,50.36,4.17,69.6
			c-23.39,19.24-26.2-1.73-42.2,9.38c-13.67,9.49-9.9,20.6-20.46,22.99c-1.91,0.77-4.21,0.89-6.71,0.42c-0.02,0-0.05,0-0.07,0
			c-2.49-0.13-4.5-0.84-6.12-1.97c-0.88-0.61-1.79-1.18-2.71-1.75c-2.48-1.52-4.98-3.43-7.05-5.95c-0.53-0.65-1.07-1.26-1.6-1.85
			C251.88,91.28,253.14,91.55,254.56,91.62z"/>
		<g id="лицо_4_">
			<path class="st1" d="M243.97,132.48l-6.81-15.87c0,0-14.74,11.32-29.37-9.6s-13.37-39.39,3.14-46.18s39.35,7.06,47.33,26.17
				c7.98,19.1,19.89,20.09,19.89,20.09s15.47,20.36,6.24,28.99C275.16,144.7,246.97,147.59,243.97,132.48z"/>
			<circle class="st2" cx="217.22" cy="91.83" r="3.16"/>
			<g>
				<path class="st2" d="M208.52,84.66c0.07-0.02,7.42-2.31,11.85-0.82l0.72-2.14c-5.13-1.72-12.92,0.71-13.25,0.81L208.52,84.66z"
					/>
			</g>
			<g>
				<polygon class="st2" points="202.22,116.13 213.98,112.75 213.36,110.58 204.08,113.25 201.35,94.83 199.12,95.16 				"/>
			</g>
			<g>
				<path class="st2" d="M217.97,117.97c1.15-0.26,11.32-2.64,13.09-7.93l-2.14-0.72c-1.17,3.47-8.66,5.83-11.44,6.45L217.97,117.97
					z"/>
			</g>
		</g>
		<linearGradient id="SVGID_1_" gradientUnits="userSpaceOnUse" x1="337.5028" y1="50.4341" x2="172.527" y2="33.0945">
			<stop  offset="0" style="stop-color:#F06C99"/>
			<stop  offset="0.2233" style="stop-color:#E260AE"/>
			<stop  offset="0.7376" style="stop-color:#C648D8"/>
			<stop  offset="1" style="stop-color:#BB3FE9"/>
		</linearGradient>
		<path class="st3" d="M333.48,0.42c-0.11-0.25-0.17-0.38-0.17-0.38s0.45,14.05-18.59,23.83s-36.22-29.52-49.4-3.95
			c-13.18,25.57-25.09,3.86-49.56,8.91c-7.56,1.56-13.59,5.13-18.3,9.32c-10.35,9.19-9.36,25.59,1.68,33.94
			c1.66-1.06,3.18-1.81,7.22-3.23c7.26-2.56,18.83-2.57,31.27,12.19c0.15,0.18,0.3,0.34,0.44,0.53c2.7,3.27,6.08,5.55,9.25,7.3
			c0.97,0.85,2.11,1.52,3.43,1.99c1.13,0.41,2.4,0.67,3.82,0.75c0.03,0,0.05,0,0.07,0c2.59,0.48,4.98,0.36,6.97-0.44
			c10.97-2.48,7.06-14.03,21.27-23.9c16.63-11.55,19.56,10.26,43.87-9.75C349.63,38.71,335.25,4.4,333.48,0.42z"/>
		<path class="st1" d="M237.5,81.52c0,0-1.21-8.92,9.64-7.73s0.9,18.41,0.9,18.41L237.5,81.52z"/>
	</g>
	<g id="рука_3_">
		<path class="st1" d="M199.54,153.53l-45.44-46.85c0,0-5.73-12.18-10.45-13.02c-4.72-0.84-24.25-7.15-27.33,6.31
			c-3.08,13.46,10.18,21.34,14.4,17.95c4.22-3.39-0.58-9.37,4.22-3.39s11.14,6.68,11.14,6.68l43.29,56.1L199.54,153.53z"/>
		<path class="st4" d="M279.81,121.01c0,0,13.82-2.78,18.04,10.28s-1.56,46.36-32.47,75.55s-59.63-0.22-59.63-0.22l-70.32-66.3
			l24.54-28.27l52.33,44.84c8.63,7.39,21.61,6.4,29.02-2.21C252.76,141.4,269.17,124.17,279.81,121.01z"/>
		<g>
			
				<rect x="145.71" y="135.36" transform="matrix(0.641 -0.7675 0.7675 0.641 -46.5761 173.3954)" class="st2" width="32.75" height="2.26"/>
		</g>
		<g>
			<path class="st2" d="M156.71,122.8c1.21-2.03,3.85-2.69,5.88-1.48c2.03,1.22,2.69,3.85,1.48,5.88c-0.59,0.98-1.52,1.68-2.63,1.96
				c-1.11,0.28-2.26,0.11-3.25-0.48c-0.13-0.08-0.25-0.16-0.36-0.24C156.08,127.14,155.57,124.71,156.71,122.8z M161.43,123.26
				c-0.47-0.28-1.01-0.36-1.54-0.23c-0.53,0.13-0.97,0.46-1.25,0.93c-0.57,0.96-0.25,2.22,0.7,2.79c0.47,0.28,1.01,0.36,1.54,0.23
				c0.53-0.13,0.97-0.46,1.25-0.93c0.28-0.47,0.36-1.01,0.23-1.54c-0.11-0.46-0.38-0.85-0.75-1.13
				C161.55,123.33,161.49,123.3,161.43,123.26z"/>
		</g>
	</g>
	<g id="паззл">
		<linearGradient id="SVGID_2_" gradientUnits="userSpaceOnUse" x1="165.8225" y1="477.9921" x2="165.8225" y2="102.2561">
			<stop  offset="0" style="stop-color:#F06C99"/>
			<stop  offset="0.2233" style="stop-color:#E260AE"/>
			<stop  offset="0.7376" style="stop-color:#C648D8"/>
			<stop  offset="1" style="stop-color:#BB3FE9"/>
		</linearGradient>
		<path class="st5" d="M328.7,245.04c10.29-37.18-11.72-76.01-48.89-86.29l-204.2-56.49l-21.46,77.55
			c33.79,9.35,53.61,44.32,44.26,78.12s-44.32,53.61-78.12,44.26L0.41,374.05l74.78,20.69c-0.3,0.93-0.6,1.87-0.86,2.83
			c-9.35,33.79,10.47,68.77,44.26,78.12s68.77-10.47,78.12-44.26c0.26-0.95,0.5-1.91,0.72-2.87l74.78,20.69L328.7,245.04z"/>
		
			<linearGradient id="SVGID_3_" gradientUnits="userSpaceOnUse" x1="-1024.8055" y1="187.8145" x2="-742.8056" y2="187.8145" gradientTransform="matrix(0.9638 0.2666 -0.2666 0.9638 1083.936 367.4122)">
			<stop  offset="0" style="stop-color:#F06C99"/>
			<stop  offset="0.2233" style="stop-color:#E260AE"/>
			<stop  offset="0.7376" style="stop-color:#C648D8"/>
			<stop  offset="1" style="stop-color:#BB3FE9"/>
		</linearGradient>
		<path class="st6" d="M345.7,250.04c10.29-37.18-11.72-76.01-48.89-86.29l-204.2-56.49l-21.46,77.55
			c33.79,9.35,53.61,44.32,44.26,78.12s-44.32,53.61-78.12,44.26l-19.88,71.86l74.78,20.69c-0.3,0.93-0.6,1.87-0.86,2.83
			c-9.35,33.79,10.47,68.77,44.26,78.12c33.79,9.35,68.77-10.47,78.12-44.26c0.26-0.95,0.5-1.91,0.72-2.87l74.78,20.69L345.7,250.04
			z"/>
	</g>
	<g id="нога_2">
		<g id="ботинок_13_">
			<g>
				<path class="st4" d="M532.61,222.55l22.45-40.11l83.52,59.39c0,0,1.14,15.87-31.64,7.54c-8.75-2.22-30.74-10.85-36.75-5.34l0,0
					L532.61,222.55z"/>
				<g>
					<polygon class="st2" points="582,250.85 587.24,236.79 585.31,236.07 581.7,245.76 574.66,232.04 572.83,232.98 					"/>
				</g>
			</g>
			<g>
				
					<rect x="590.4" y="171.43" transform="matrix(0.5499 -0.8352 0.8352 0.5499 83.2489 592.5321)" class="st2" width="2.06" height="95.19"/>
			</g>
		</g>
		<path class="st7" d="M331.7,271.07c19.66-40.77,51.95-44.78,88.48-2.39s57.1,49.67,57.1,49.67s37.77-88.27,56.13-108.92
			c3.46-3.89,65.27,47.16,67.57,49.06c0.04,0.03,0.05,0.08,0.02,0.12c-2.54,3.42-99.61,133.69-134.61,120.35
			c-35.47-13.51-84.56-67.7-84.56-67.7L331.7,271.07z"/>
		<g>
			<path class="st8" d="M495.21,241.63l1.3,0.14c2.15-19.51,22.75-50.86,22.96-51.18l-1.09-0.72
				C518.17,190.2,497.4,221.81,495.21,241.63z"/>
		</g>
		<g>
			
				<rect x="477.36" y="208.25" transform="matrix(0.4756 -0.8797 0.8797 0.4756 74.8086 543.2883)" class="st8" width="31.43" height="1.3"/>
		</g>
	</g>
	<g id="нога_1_1_">
		<g>
			<g id="ботинок_4_">
				<path class="st8" d="M541.94,290.37l36.72-21.23l44.51,92.32c0,0-6.65,14.45-31.35-8.65c-6.59-6.17-21.69-24.33-29.61-22.4l0,0
					L541.94,290.37z"/>
				<g>
					<polygon class="st2" points="569.26,342.06 580.64,332.27 579.29,330.71 571.45,337.46 571.9,322.05 569.85,321.99 					"/>
				</g>
			</g>
			<g>
				
					<rect x="593.12" y="270.67" transform="matrix(0.9003 -0.4353 0.4353 0.9003 -79.4891 290.4062)" class="st2" width="2.06" height="96.08"/>
			</g>
		</g>
		
			<linearGradient id="SVGID_4_" gradientUnits="userSpaceOnUse" x1="-1759.2791" y1="224.4541" x2="-1482.2275" y2="224.4541" gradientTransform="matrix(-0.994 -0.1095 -0.1095 0.994 -1143.7347 -81.6899)">
			<stop  offset="0" style="stop-color:#FFAD39"/>
			<stop  offset="0.2885" style="stop-color:#F69E54"/>
			<stop  offset="0.7557" style="stop-color:#E8887B"/>
			<stop  offset="1" style="stop-color:#E3808A"/>
		</linearGradient>
		<path class="st9" d="M343.64,237.97c16.86-11.2,54.23-20.62,65.36-9.73c20.36,19.92,11.79,52.53,11.97,52.79
			c10.77,15.56,23.79,71.84,23.79,71.84s84.36-64.93,107.33-72.46c3.92-1.28,28.22,63.47,25.26,80.93
			c-0.42,2.48-149.25,67.83-172.87,38.12c-23.62-29.71-47.76-95.09-52.24-98.68C317.16,272.68,309.26,265,309.26,265L343.64,237.97z
			"/>
		<g>
			<path class="st8" d="M425.01,371.05c9.67-14.98,19.77-17.59,19.87-17.61l-0.32-1.31c-0.43,0.11-10.72,2.76-20.69,18.19
				L425.01,371.05z"/>
		</g>
		<g>
			<path class="st8" d="M412.04,431.96c11.87,1.31,23.89-3.22,24.64-3.51l-0.47-1.22c-0.27,0.1-27.44,10.33-39.97-4.3
				c-12.74-14.88-20.73-42.07-20.81-42.34l-1.25,0.36c0.08,0.28,8.15,27.73,21.07,42.82C399.75,429.02,405.88,431.28,412.04,431.96z
				"/>
		</g>
	</g>
	<g id="тело_2_">
		<path class="st4" d="M240.98,125.46c0,0,7.13,14.16,21.34,5.4c14.22-8.75,15.51-23.86,15.51-23.86s19.51-6.18,30.18-0.04
			c8.11,4.67,26.39,34.13,34.7,48.02c15.32,12.12,54.24,44.04,74.52,70.98c-34.89,56.17-111.41,59.26-111.41,59.26l-43.88-73.41
			c-5.09-8.52-9.21-17.58-12.27-27.02C243.82,166.72,237.27,141.07,240.98,125.46z"/>
		<g>
			<path class="st2" d="M330.58,275.41l1.69-1.49c-14.75-16.7-71.95-118.26-78.42-129.79l-1.97,1.11
				C258.36,156.78,315.67,258.54,330.58,275.41z"/>
		</g>
		<g>
			<path class="st2" d="M275.38,165.59c-1.11-0.26-2.06-0.95-2.66-1.92c-0.6-0.98-0.78-2.13-0.52-3.24
				c0.27-1.11,0.95-2.06,1.92-2.66c0.98-0.6,2.13-0.78,3.24-0.52c1.11,0.26,2.06,0.95,2.66,1.92l0,0c0.6,0.98,0.78,2.13,0.52,3.24
				c-0.27,1.11-0.95,2.06-1.92,2.66c-0.82,0.51-1.77,0.72-2.71,0.61C275.73,165.67,275.55,165.64,275.38,165.59z M278.1,160.36
				c-0.28-0.46-0.73-0.79-1.26-0.91c-0.53-0.13-1.07-0.04-1.53,0.25c-0.46,0.28-0.79,0.73-0.91,1.26s-0.04,1.07,0.25,1.53
				c0.28,0.46,0.73,0.79,1.26,0.91c0.53,0.13,1.07,0.04,1.53-0.25c0.46-0.28,0.79-0.73,0.91-1.26
				C278.47,161.37,278.38,160.82,278.1,160.36L278.1,160.36z"/>
		</g>
		<g>
			<polygon class="st2" points="241.96,161.65 256.72,139.71 254.84,138.45 243.25,155.69 238.01,124.43 235.78,124.8 			"/>
		</g>
		<g>
			<polygon class="st2" points="284.39,143.77 280.06,110.88 277.83,111.17 281.72,140.72 265.92,136.54 265.34,138.72 			"/>
		</g>
		<g>
			<g>
				<path class="st2" d="M324.34,223.98c-0.57-0.93-0.75-2.03-0.5-3.09c0.25-1.06,0.91-1.96,1.84-2.54c0.93-0.57,2.03-0.75,3.09-0.5
					c1.06,0.25,1.96,0.9,2.54,1.84c1.18,1.92,0.58,4.44-1.34,5.63c-0.8,0.49-1.71,0.68-2.59,0.58
					C326.17,225.77,325.03,225.1,324.34,223.98z M326.81,220.19c-0.44,0.27-0.75,0.7-0.87,1.2c-0.12,0.5-0.04,1.02,0.23,1.47
					c0.56,0.91,1.76,1.2,2.67,0.63c0.91-0.56,1.19-1.76,0.63-2.67l0,0c-0.27-0.44-0.7-0.75-1.2-0.87c-0.08-0.02-0.16-0.03-0.24-0.04
					C327.6,219.86,327.18,219.96,326.81,220.19z"/>
			</g>
		</g>
	</g>
	<g id="рука_2_">
		<path class="st1" d="M136.54,174.31c0.14-0.24,0.34-0.44,0.58-0.59l16.71-10.18c4.18-2.54,18.16-2.5,18.16-2.5
			c4.86-1.31,10.06-0.36,14.14,2.58l8.97,6.47c0.24,0.18,0.53,0.28,0.83,0.31l90.63,7.78c1.23,0.11,1.93,1.47,1.29,2.53
			l-14.06,23.16c-0.36,0.6-1.05,0.91-1.73,0.78c-8.68-1.66-64.63-12.45-76.84-16.6c-0.25-0.09-0.52-0.11-0.78-0.07
			c-3.21,0.5-6.09,0.66-8.57,0.65c-5.54-0.03-10.82-2.32-14.68-6.31l-6.12-6.33c-0.06-0.06-0.12-0.13-0.17-0.2l-5.15-4.07
			c0,0-13.05,8.47-19.57,7.65C134.53,178.66,135.87,175.44,136.54,174.31z"/>
		<path class="st10" d="M288.17,127.69c0.17-10.69,16.98-23.52,25.1-16.56c14.77,12.67,26.83,40.35,21.62,66.46
			c-8.31,41.69-43.03,40.85-43.03,40.85l-95.71-13.37l3.65-37.26l68.58,6.27c11.11,1.02,21.33-7.21,22.41-18.31
			C291.55,147.95,288.05,134.81,288.17,127.69z"/>
		<g>
			
				<rect x="201.97" y="185.89" transform="matrix(0.1136 -0.9935 0.9935 0.1136 5.9368 380.5912)" class="st2" width="28.57" height="2.15"/>
		</g>
	</g>
</g>
</svg>
